<svg xmlns="http://www.w3.org/2000/svg" viewBox="0 0 117.1 73.38"><g id="Layer_2" data-name="Layer 2"><g id="Layer_1-2" data-name="Layer 1"><path d="M9.7,50.11a4.73,4.73,0,0,0-3.52-1.43,6.3,6.3,0,0,0,0,12.6A4.73,4.73,0,0,0,9.7,59.86v1.28h2.76V48.83H9.7ZM6.28,58.67a3.69,3.69,0,0,1,0-7.38,3.69,3.69,0,0,1,0,7.38Z" style="fill:#fff"/><path d="M37.7,55.62c0,1.82-1,3.1-2.65,3.1s-2.52-.93-2.52-3.1v-6.8H29.78v7.39c0,3.28,1.6,5.07,4.61,5.07a4.16,4.16,0,0,0,3.31-1.55v1.41h2.76V48.82H37.7Z" style="fill:#fff"/><path d="M26.08,48.77a4.6,4.6,0,0,0-4.37,1.34V48.82H19V61.14h2.76V54.49c0-2.48,1.88-3.62,4.37-3.11Z" style="fill:#fff"/><path d="M27.09,58.85a1.22,1.22,0,1,0,1.21,1.22A1.21,1.21,0,0,0,27.09,58.85Z" style="fill:#fff"/><path d="M43.7,58.85a1.22,1.22,0,1,0,1.2,1.22A1.21,1.21,0,0,0,43.7,58.85Z" style="fill:#fff"/><path d="M15.71,58.85a1.22,1.22,0,1,0,1.2,1.22A1.22,1.22,0,0,0,15.71,58.85Z" style="fill:#fff"/><path d="M48.8,48.83h.8V61.14h-.8Z" style="fill:#fff"/><path d="M57.39,8.4H67.82V7.66A53.18,53.18,0,0,1,58.92,5a4.45,4.45,0,0,0-3.76.33,8.75,8.75,0,0,1-6.37,1v.82a9.53,9.53,0,0,0,4.78-.22,4.38,4.38,0,0,0-.64,2.31c0,1.36.49,2.05,1.42,3.67l3,5.14a1.83,1.83,0,0,1,.25.93,1.89,1.89,0,0,1-1.89,1.9c-1.91,0-3.14-3.59-7.62-3.59a7.37,7.37,0,0,0-5.41,2.38l-12.07,12c.77.14,4.22.57,5.88.68l-2.25,4.82a53.84,53.84,0,0,0,14.58-4.82V45.87h.8v-14c.67-.35,1.34-.72,2-1.1a7.22,7.22,0,0,0,3.71-6.23,4.82,4.82,0,0,0,.76,0,5.6,5.6,0,0,0,4.44-8.39L56.71,9.59a.79.79,0,0,1,.68-1.19ZM53.58,21.17a6.36,6.36,0,0,1,.85,2.43,8.58,8.58,0,0,1-3-2,3.68,3.68,0,0,1,1.82-.48Zm-5.52-3.11A6.41,6.41,0,0,1,53,20.37a4.46,4.46,0,0,0-2.19.73,7.52,7.52,0,0,0-4.77-1.71,7.3,7.3,0,0,0-2.32.36A6.41,6.41,0,0,1,48.06,18.06Zm-15.77,13L41,22.43l-4.22,9.08C35.35,31.42,33.75,31.27,32.29,31.06Zm3.32,5,1.71-3.68c.91,0,1.81.07,2.71.07a53.52,53.52,0,0,0,7.89-.59A53.78,53.78,0,0,1,35.61,36Zm13.18-11.4v6.25a53.76,53.76,0,0,1-8.76.74c-.78,0-1.56,0-2.34-.05l4.83-10.39a6.79,6.79,0,0,1,3.54-1,6.7,6.7,0,0,1,4.12,1.42A4.3,4.3,0,0,0,48.79,24.62Zm.8,6.09V24.85a3.68,3.68,0,0,1,1.21-2.72C52,23,52.68,24,54.49,24.44A6.43,6.43,0,0,1,49.59,30.71ZM59.81,16.58A4.82,4.82,0,0,1,56,23.75a4.57,4.57,0,0,1-.74,0,7.17,7.17,0,0,0-.63-2.31,2.7,2.7,0,0,0,3.74-2.5A2.61,2.61,0,0,0,58,17.62h0l-3-5.15a2.65,2.65,0,0,1-.36-1.35,2.69,2.69,0,0,1,1.13-2.2,2.64,2.64,0,0,0,0,.29A1.56,1.56,0,0,0,56,10ZM54,10.44a3.77,3.77,0,0,1-.22-1.24,3.65,3.65,0,0,1,3.69-3.66,3.7,3.7,0,0,1,1.23.21c2.05.75,3.77,1.36,5.53,1.85H57.39A3.51,3.51,0,0,0,54,10.44Z" style="fill:#fff"/><path d="M57.39,3.68a3.82,3.82,0,0,1,2.18.69l1.24-2.14-.7-.4-.84,1.46A4.39,4.39,0,0,0,57.8,2.9V2.35a1.23,1.23,0,0,0,.8-1.14,1.21,1.21,0,0,0-2.42,0A1.22,1.22,0,0,0,57,2.35V2.9a4.39,4.39,0,0,0-1.47.39l-.85-1.46-.69.4,1.23,2.14A3.87,3.87,0,0,1,57.39,3.68ZM57,1.21a.41.41,0,1,1,.4.4A.4.4,0,0,1,57,1.21Z" style="fill:#fff"/><path d="M57.41,55.19a6.16,6.16,0,0,1,6.15-6.33A6,6,0,0,1,68.24,51L67.08,52.2a4.18,4.18,0,0,0-3.52-1.78,4.78,4.78,0,0,0,0,9.53A4.48,4.48,0,0,0,68,55.24h1.69a6.15,6.15,0,1,1-12.3-.05Z" style="fill:#fff"/><path d="M71,57a4.52,4.52,0,1,1,4.52,4.56A4.42,4.42,0,0,1,71,57Zm7.38,0a2.87,2.87,0,1,0-2.86,3A2.82,2.82,0,0,0,78.41,57Z" style="fill:#fff"/><path d="M81.89,49l1.62-.18V61.41H81.89Z" style="fill:#fff"/><path d="M85.7,49l1.62-.18V61.41H85.7Z" style="fill:#fff"/><path d="M89.17,57a4.47,4.47,0,1,1,8.94-.07,3.24,3.24,0,0,1,0,.56H90.87A2.81,2.81,0,0,0,93.7,60,2.67,2.67,0,0,0,96,58.87h1.88a4.42,4.42,0,0,1-4.21,2.65A4.49,4.49,0,0,1,89.17,57ZM96.33,56a2.68,2.68,0,0,0-2.67-2.13A2.73,2.73,0,0,0,90.94,56Z" style="fill:#fff"/><path d="M99,62.57h1.63A2.27,2.27,0,0,0,103,64.43a2.5,2.5,0,0,0,0-5,2.5,2.5,0,0,0-2.14,1.12l-1.15-1.12a2.71,2.71,0,0,1,1-.82,3.28,3.28,0,0,1-1.37-2.69,3.42,3.42,0,0,1,3.45-3.52,2.76,2.76,0,0,1,2.15.86v-.75h1.62v3.41a3.22,3.22,0,0,1-1.33,2.69A3.78,3.78,0,0,1,107,61.93a4,4,0,0,1-8,.64Zm6-6.64a2,2,0,1,0-2,2A1.91,1.91,0,0,0,105,55.93Z" style="fill:#fff"/><path d="M108.16,57a4.47,4.47,0,1,1,8.94-.07,3.24,3.24,0,0,1,0,.56h-7.19A2.81,2.81,0,0,0,112.69,60,2.67,2.67,0,0,0,115,58.87h1.89a4.44,4.44,0,0,1-4.22,2.65A4.49,4.49,0,0,1,108.16,57Zm7.16-.92a2.68,2.68,0,0,0-2.66-2.13A2.73,2.73,0,0,0,109.93,56Z" style="fill:#fff"/><path d="M4,68.4a2.85,2.85,0,0,1,2.85-2.92,2.73,2.73,0,0,1,2.16,1L8.43,67a1.93,1.93,0,0,0-1.62-.82,2.2,2.2,0,0,0,0,4.4,2.08,2.08,0,0,0,2.06-2.17h.78A2.85,2.85,0,1,1,4,68.4Z" style="fill:#fff"/><path d="M10.26,69.22a2,2,0,0,1,2-2.1,1.59,1.59,0,0,1,1.28.58v-.53h.76v4.11h-.76v-.53a1.59,1.59,0,0,1-1.28.58A2,2,0,0,1,10.26,69.22Zm3.34,0a1.3,1.3,0,1,0-1.29,1.39A1.29,1.29,0,0,0,13.6,69.22Z" style="fill:#fff"/><path d="M15.33,67.17h.75v.49a1.31,1.31,0,0,1,1.09-.54,1.18,1.18,0,0,1,1.08.6,1.46,1.46,0,0,1,1.22-.6,1.26,1.26,0,0,1,1.33,1.43v2.73h-.75V68.72c0-.55-.28-.89-.79-.89a.81.81,0,0,0-.82.89v2.56h-.75V68.72c0-.55-.29-.89-.79-.89a.81.81,0,0,0-.82.89v2.56h-.75Z" style="fill:#fff"/><path d="M22.52,70.75v.53h-.75V65.52l.75-.08V67.7a1.7,1.7,0,0,1,1.32-.58,2.11,2.11,0,0,1,0,4.21A1.75,1.75,0,0,1,22.52,70.75Zm2.58-1.53a1.3,1.3,0,1,0-1.3,1.39A1.28,1.28,0,0,0,25.1,69.22Z" style="fill:#fff"/><path d="M26.69,67.17h.74v.6a1.13,1.13,0,0,1,1.06-.65,1.18,1.18,0,0,1,.37,0V68a1,1,0,0,0-.38-.06A1,1,0,0,0,27.43,69v2.26h-.74Z" style="fill:#fff"/><path d="M29.41,66.1a.53.53,0,1,1,.53.55A.53.53,0,0,1,29.41,66.1Zm.15,1.07h.75v4.11h-.75Z" style="fill:#fff"/><path d="M31.16,69.22a2,2,0,0,1,2-2.1,1.67,1.67,0,0,1,1.3.58V65.52l.75-.08v5.84h-.75v-.53a1.68,1.68,0,0,1-1.3.58A2,2,0,0,1,31.16,69.22Zm3.34,0a1.29,1.29,0,0,0-1.29-1.38,1.39,1.39,0,0,0,0,2.77A1.29,1.29,0,0,0,34.5,69.22Z" style="fill:#fff"/><path d="M36,71.81h.76a1.1,1.1,0,0,0,2.18-.29,1.06,1.06,0,0,0-1.08-1.15,1.17,1.17,0,0,0-1,.51l-.53-.51A1.34,1.34,0,0,1,36.8,70a1.53,1.53,0,0,1-.63-1.24,1.57,1.57,0,0,1,1.59-1.63,1.3,1.3,0,0,1,1,.4v-.35h.74v1.58A1.51,1.51,0,0,1,38.89,70a1.75,1.75,0,0,1,.82,1.53,1.87,1.87,0,0,1-3.71.29Zm2.76-3.06a.92.92,0,1,0-.92.92A.89.89,0,0,0,38.76,68.75Z" style="fill:#fff"/><path d="M40.23,69.22a2.07,2.07,0,1,1,4.13,0,1.09,1.09,0,0,1,0,.26H41a1.31,1.31,0,0,0,1.31,1.17,1.24,1.24,0,0,0,1.08-.52h.87a2.05,2.05,0,0,1-2,1.23A2.07,2.07,0,0,1,40.23,69.22Zm3.31-.42a1.28,1.28,0,0,0-2.49,0Z" style="fill:#fff"/><path d="M51.33,67.72v.68h-.58v1.08a1.79,1.79,0,0,1-1.85,1.85A1.83,1.83,0,0,1,47,69.52,1.64,1.64,0,0,1,47.94,68a1.35,1.35,0,0,1-.63-1.12,1.45,1.45,0,0,1,1.53-1.43,1.47,1.47,0,0,1,.83.24l-.29.66a.86.86,0,0,0-.54-.18.72.72,0,0,0-.78.74.8.8,0,0,0,.8.78H50v-.81h.76v.81ZM50,68.4H48.86A1.1,1.1,0,1,0,50,69.48Z" style="fill:#fff"/><path d="M53.83,68.4a2.85,2.85,0,0,1,2.84-2.92,2.73,2.73,0,0,1,2.16,1L58.3,67a2,2,0,0,0-1.63-.82,2.2,2.2,0,0,0,0,4.4,2.06,2.06,0,0,0,2.06-2.17h.79a2.85,2.85,0,1,1-5.69,0Z" style="fill:#fff"/><path d="M60.35,65.52l.74-.08v2.27a1.45,1.45,0,0,1,1.21-.59,1.48,1.48,0,0,1,1.55,1.67v2.49H63.1V68.93c0-.69-.32-1.1-1-1.1a1,1,0,0,0-1,1.1v2.35h-.74Z" style="fill:#fff"/><path d="M64.66,69.22a2.07,2.07,0,1,1,4.13,0,2.11,2.11,0,0,1,0,.26H65.45a1.3,1.3,0,0,0,1.3,1.17,1.23,1.23,0,0,0,1.08-.52h.87a2.05,2.05,0,0,1-2,1.23A2.07,2.07,0,0,1,64.66,69.22ZM68,68.8a1.24,1.24,0,0,0-1.23-1,1.25,1.25,0,0,0-1.26,1Z" style="fill:#fff"/><path d="M69.64,65.52l.75-.08v5.84h-.75Z" style="fill:#fff"/><path d="M71.4,67.17h.74v.49a1.32,1.32,0,0,1,1.09-.54,1.18,1.18,0,0,1,1.08.6,1.46,1.46,0,0,1,1.23-.6,1.25,1.25,0,0,1,1.32,1.43v2.73h-.75V68.72c0-.55-.28-.89-.79-.89a.81.81,0,0,0-.82.89v2.56h-.75V68.72c0-.55-.28-.89-.79-.89a.82.82,0,0,0-.82.89v2.56H71.4Z" style="fill:#fff"/><path d="M77.62,69.92h.73a.67.67,0,0,0,.68.7.58.58,0,0,0,.63-.61c0-.53-.43-.61-.84-.74A1.09,1.09,0,1,1,80,67.63l-.49.48a.46.46,0,0,0-.43-.31.38.38,0,0,0-.41.39c0,.4.46.44.93.61A1.17,1.17,0,0,1,80.42,70,1.32,1.32,0,0,1,79,71.33,1.35,1.35,0,0,1,77.62,69.92Z" style="fill:#fff"/><path d="M81.4,67.88h-.71v-.71h.71v-.63a1,1,0,0,1,1.08-1.06,1,1,0,0,1,.91.39l-.48.51a.46.46,0,0,0-.38-.19.35.35,0,0,0-.38.38v.6h1.14v.71H82.15v3.4H81.4Z" style="fill:#fff"/><path d="M83.64,69.22a2.09,2.09,0,1,1,2.08,2.11A2,2,0,0,1,83.64,69.22Zm3.41,0a1.33,1.33,0,1,0-1.33,1.39A1.31,1.31,0,0,0,87.05,69.22Z" style="fill:#fff"/><path d="M88.66,67.17h.74v.6a1.12,1.12,0,0,1,1.06-.65,1,1,0,0,1,.36,0V68a1,1,0,0,0-.37-.06,1,1,0,0,0-1,1.13v2.26h-.74Z" style="fill:#fff"/><path d="M91.15,69.22a2,2,0,0,1,2-2.1,1.65,1.65,0,0,1,1.3.58V65.52l.75-.08v5.84h-.75v-.53a1.68,1.68,0,0,1-1.3.58A2,2,0,0,1,91.15,69.22Zm3.33,0a1.29,1.29,0,0,0-1.29-1.38,1.39,1.39,0,0,0,0,2.77A1.29,1.29,0,0,0,94.48,69.22Z" style="fill:#fff"/></g></g></svg>