<svg xmlns="http://www.w3.org/2000/svg" viewBox="0 0 172.16 40.31"><g id="Layer_2" data-name="Layer 2"><g id="Layer_1-2" data-name="Layer 1"><rect x="43.57" width="0.59" height="40.31" style="fill:#fff"/><path d="M58.63,22.32a3.22,3.22,0,0,1-.24,1.26,2.7,2.7,0,0,1-.68,1,3.13,3.13,0,0,1-1,.63,3.54,3.54,0,0,1-1.27.23,3.48,3.48,0,0,1-1.26-.23,2.93,2.93,0,0,1-1-.63,2.81,2.81,0,0,1-.67-1,3.22,3.22,0,0,1-.24-1.26V16.4h1.35v5.86a2,2,0,0,0,.5,1.42,1.8,1.8,0,0,0,1.34.51,1.82,1.82,0,0,0,1.35-.51,2,2,0,0,0,.51-1.42V16.4h1.35Z" style="fill:#fff"/><path d="M64.58,25.33V21.46a1.41,1.41,0,0,0-.37-1.08A1.29,1.29,0,0,0,63.3,20a1.4,1.4,0,0,0-.93.34A1.37,1.37,0,0,0,62,21.46v3.87H60.7V19H62v.64a2,2,0,0,1,.77-.54,2.59,2.59,0,0,1,.92-.17,2.42,2.42,0,0,1,.88.15,1.95,1.95,0,0,1,1.19,1.23,3.43,3.43,0,0,1,.14,1v4.06Z" style="fill:#fff"/><path d="M67.81,17.72V16.37h1.36v1.35Zm0,7.61V19h1.28v6.36Z" style="fill:#fff"/><path d="M73.85,25.33h-1L70.48,19h1.35l1.5,4.48L74.83,19h1.35Z" style="fill:#fff"/><path d="M78.26,22.52a2,2,0,0,0,.41,1.31,1.54,1.54,0,0,0,1.21.47,2.12,2.12,0,0,0,.87-.15,2.59,2.59,0,0,0,.67-.5l.81.77a4.71,4.71,0,0,1-.49.43,3.07,3.07,0,0,1-.53.31,2.89,2.89,0,0,1-.61.18,3.42,3.42,0,0,1-.75.07,3.7,3.7,0,0,1-1.12-.17,2.3,2.3,0,0,1-.9-.55,2.73,2.73,0,0,1-.61-1A4.56,4.56,0,0,1,77,22.15a3.54,3.54,0,0,1,.74-2.41,2.47,2.47,0,0,1,2-.84,2.73,2.73,0,0,1,1.14.22,2.2,2.2,0,0,1,.85.63,2.74,2.74,0,0,1,.52,1A4.17,4.17,0,0,1,82.38,22v.54Zm2.86-.89c0-.19,0-.35-.05-.47a1.37,1.37,0,0,0-.13-.39,1.4,1.4,0,0,0-.48-.59,1.48,1.48,0,0,0-1.55,0,1.35,1.35,0,0,0-.49.59,1.33,1.33,0,0,0-.12.39,4.61,4.61,0,0,0,0,.47Z" style="fill:#fff"/><path d="M87.62,20.47a1.47,1.47,0,0,0-.42-.32,1.19,1.19,0,0,0-.53-.11,1.23,1.23,0,0,0-.9.38,1.45,1.45,0,0,0-.37,1v3.86H84.12V19h1.26v.69a1.79,1.79,0,0,1,.7-.55,2.31,2.31,0,0,1,1-.21,2.41,2.41,0,0,1,.83.14,1.94,1.94,0,0,1,.69.46Z" style="fill:#fff"/><path d="M94.56,23.39a1.79,1.79,0,0,1-.2.88,1.75,1.75,0,0,1-.55.63,2.32,2.32,0,0,1-.84.38,4.37,4.37,0,0,1-1,.13,5.07,5.07,0,0,1-1.44-.19,2.71,2.71,0,0,1-1.23-.73l.84-.84a1.82,1.82,0,0,0,.87.53,3.54,3.54,0,0,0,1,.14,2,2,0,0,0,1-.22.77.77,0,0,0,.21-1.18,1.13,1.13,0,0,0-.66-.23l-1-.09a2.55,2.55,0,0,1-1.39-.5,1.56,1.56,0,0,1-.49-1.26,1.75,1.75,0,0,1,.19-.83,1.87,1.87,0,0,1,.51-.61A2.36,2.36,0,0,1,91,19,3.51,3.51,0,0,1,92,18.9a5,5,0,0,1,1.32.16,2.5,2.5,0,0,1,1,.55l-.8.82a1.77,1.77,0,0,0-.71-.36,3.43,3.43,0,0,0-.86-.11,1.39,1.39,0,0,0-.87.23.72.72,0,0,0-.28.59.64.64,0,0,0,.2.5,1.25,1.25,0,0,0,.68.23l.89.07a2.64,2.64,0,0,1,1.5.53A1.62,1.62,0,0,1,94.56,23.39Z" style="fill:#fff"/><path d="M96.11,17.72V16.37h1.35v1.35Zm0,7.61V19h1.28v6.36Z" style="fill:#fff"/><path d="M101.41,25.33a1.87,1.87,0,0,1-.78-.15,1.62,1.62,0,0,1-.53-.39,1.7,1.7,0,0,1-.33-.57,2.07,2.07,0,0,1-.1-.66V20h-.73V19h.73V17.16H101V19h1.23v1H101V23.5a.77.77,0,0,0,.17.55.66.66,0,0,0,.53.19h.53v1.09Z" style="fill:#fff"/><path d="M106.22,26.6a2,2,0,0,1-.46.79,1.44,1.44,0,0,1-.6.36,2.37,2.37,0,0,1-.7.1h-.52V26.7h.33a1,1,0,0,0,.59-.15,1.12,1.12,0,0,0,.32-.53l.35-1L103.32,19h1.35l1.52,4.48L107.67,19H109Z" style="fill:#fff"/><path d="M52.27,37.83V30.41h.79v7.42Z" style="fill:#fff"/><path d="M58.25,37.83V34.68a1.38,1.38,0,0,0-.34-1,1.23,1.23,0,0,0-.92-.34,1.25,1.25,0,0,0-.93.34,1.39,1.39,0,0,0-.34,1v3.15H55V32.71h.75v.56a1.68,1.68,0,0,1,.63-.47,2.13,2.13,0,0,1,.81-.16,1.78,1.78,0,0,1,1.31.48A1.94,1.94,0,0,1,59,34.55v3.28Z" style="fill:#fff"/><path d="M62.14,37.83a1.5,1.5,0,0,1-.58-.11,1.08,1.08,0,0,1-.4-.3,1.31,1.31,0,0,1-.25-.43,1.89,1.89,0,0,1-.08-.53V33.28h-.65v-.57h.65V31.13h.75v1.58h1.09v.57H61.58v3.15a.87.87,0,0,0,.17.56.65.65,0,0,0,.53.19h.39v.65Z" style="fill:#fff"/><path d="M64.49,35.47a2,2,0,0,0,.38,1.3,1.37,1.37,0,0,0,1.13.47,1.74,1.74,0,0,0,.74-.14,2.35,2.35,0,0,0,.6-.45l.51.45a3,3,0,0,1-.39.34,2.14,2.14,0,0,1-.41.25,1.87,1.87,0,0,1-.49.15,2.61,2.61,0,0,1-.58,0,2.75,2.75,0,0,1-.93-.15,1.94,1.94,0,0,1-.71-.48,2.22,2.22,0,0,1-.44-.82,3.72,3.72,0,0,1-.16-1.17,3,3,0,0,1,.56-1.94,2.12,2.12,0,0,1,3.1,0A2.79,2.79,0,0,1,68,35.13v.34Zm2.72-.57c0-.1,0-.19,0-.27l0-.21a.61.61,0,0,0,0-.18c0-.06,0-.12-.07-.19a1.36,1.36,0,0,0-.47-.56,1.28,1.28,0,0,0-.73-.21,1.25,1.25,0,0,0-.72.21,1.29,1.29,0,0,0-.47.56.6.6,0,0,0-.08.19,1.16,1.16,0,0,0,0,.18,1.49,1.49,0,0,0,0,.21c0,.08,0,.17,0,.27Z" style="fill:#fff"/><path d="M72.34,33.69a1.57,1.57,0,0,0-.39-.3,1.36,1.36,0,0,0-.49-.08,1.19,1.19,0,0,0-.51.1,1,1,0,0,0-.39.3,1.49,1.49,0,0,0-.24.43,1.63,1.63,0,0,0-.09.55v3.14h-.75V32.71h.75v.62a1.42,1.42,0,0,1,.6-.5,1.85,1.85,0,0,1,.84-.19,2,2,0,0,1,.66.11,1.59,1.59,0,0,1,.57.37Z" style="fill:#fff"/><path d="M77.32,37.83V34.68a1.42,1.42,0,0,0-.34-1,1.43,1.43,0,0,0-1.85,0,1.39,1.39,0,0,0-.35,1v3.15H74V32.71h.75v.56a1.8,1.8,0,0,1,.64-.47,2.08,2.08,0,0,1,.8-.16,1.76,1.76,0,0,1,1.31.48,1.91,1.91,0,0,1,.54,1.43v3.28Z" style="fill:#fff"/><path d="M82.75,37.83v-.49a1.91,1.91,0,0,1-.63.43,2.55,2.55,0,0,1-.85.12,2.87,2.87,0,0,1-.85-.1,1.43,1.43,0,0,1-.59-.37,1.12,1.12,0,0,1-.3-.46,1.85,1.85,0,0,1-.09-.58,1.33,1.33,0,0,1,.46-1.08,2,2,0,0,1,1.32-.4h1.53v-.49a1.14,1.14,0,0,0-.29-.84,1.46,1.46,0,0,0-1-.28,1.81,1.81,0,0,0-.77.13,1.59,1.59,0,0,0-.52.46l-.51-.47a1.78,1.78,0,0,1,.75-.61,3.2,3.2,0,0,1,1.06-.16,2.33,2.33,0,0,1,1.55.44,1.61,1.61,0,0,1,.5,1.27v3.48Zm0-2.36H81.33c-.77,0-1.16.3-1.16.9a.76.76,0,0,0,.28.66,1.47,1.47,0,0,0,.91.22,2.91,2.91,0,0,0,.6-.06,1,1,0,0,0,.53-.29,1.16,1.16,0,0,0,.26-.88Z" style="fill:#fff"/><path d="M86.68,37.83a1.43,1.43,0,0,1-.58-.11,1.12,1.12,0,0,1-.41-.3,1.14,1.14,0,0,1-.24-.43,1.6,1.6,0,0,1-.09-.53V33.28h-.64v-.57h.64V31.13h.75v1.58h1.1v.57h-1.1v3.15a.87.87,0,0,0,.17.56.66.66,0,0,0,.53.19h.4v.65Z" style="fill:#fff"/><path d="M88.57,31.25V30.4h.85v.85Zm.05,6.58V32.71h.75v5.12Z" style="fill:#fff"/><path d="M95.1,35.27A5.06,5.06,0,0,1,95,36.39a1.85,1.85,0,0,1-.5.92,2.06,2.06,0,0,1-.64.43,2.37,2.37,0,0,1-1.66,0,2.06,2.06,0,0,1-.64-.43,1.85,1.85,0,0,1-.32-.43,2.22,2.22,0,0,1-.18-.49,3,3,0,0,1-.1-.54c0-.19,0-.38,0-.58A5,5,0,0,1,91,34.15a1.87,1.87,0,0,1,.51-.92,1.9,1.9,0,0,1,.64-.43,2.23,2.23,0,0,1,1.66,0,1.9,1.9,0,0,1,.64.43,1.87,1.87,0,0,1,.51.92A5,5,0,0,1,95.1,35.27Zm-.75,0a6.36,6.36,0,0,0-.06-.87,1.22,1.22,0,0,0-.34-.71,1.29,1.29,0,0,0-.94-.38,1.27,1.27,0,0,0-.93.38,1.29,1.29,0,0,0-.35.71,6.36,6.36,0,0,0-.06.87c0,.14,0,.29,0,.44a2,2,0,0,0,0,.42,2.22,2.22,0,0,0,.12.39,1.3,1.3,0,0,0,.23.33,1.27,1.27,0,0,0,.93.38,1.24,1.24,0,0,0,1.28-1.1A6.11,6.11,0,0,0,94.35,35.27Z" style="fill:#fff"/><path d="M99.94,37.83V34.68a1.38,1.38,0,0,0-.34-1,1.21,1.21,0,0,0-.92-.34,1.25,1.25,0,0,0-.93.34,1.39,1.39,0,0,0-.34,1v3.15h-.75V32.71h.75v.56a1.64,1.64,0,0,1,.64-.47,2.08,2.08,0,0,1,.8-.16,1.78,1.78,0,0,1,1.31.48,1.94,1.94,0,0,1,.53,1.43v3.28Z" style="fill:#fff"/><path d="M105.38,37.83v-.49a1.85,1.85,0,0,1-.64.43,2.49,2.49,0,0,1-.84.12,2.82,2.82,0,0,1-.85-.1,1.47,1.47,0,0,1-.6-.37,1.1,1.1,0,0,1-.29-.46,1.85,1.85,0,0,1-.09-.58,1.33,1.33,0,0,1,.46-1.08,2,2,0,0,1,1.32-.4h1.53v-.49a1.1,1.1,0,0,0-.3-.84,1.44,1.44,0,0,0-1-.28,1.78,1.78,0,0,0-.77.13,1.59,1.59,0,0,0-.52.46l-.52-.47a1.87,1.87,0,0,1,.76-.61,3.15,3.15,0,0,1,1.06-.16,2.3,2.3,0,0,1,1.54.44,1.59,1.59,0,0,1,.51,1.27v3.48Zm0-2.36H104c-.77,0-1.15.3-1.15.9a.76.76,0,0,0,.28.66,1.43,1.43,0,0,0,.9.22,2.93,2.93,0,0,0,.61-.06,1.08,1.08,0,0,0,.53-.29,1.2,1.2,0,0,0,.26-.88Z" style="fill:#fff"/><path d="M109.16,37.83a1.2,1.2,0,0,1-1-.39,1.5,1.5,0,0,1-.31-1V30.41h.75v6a.92.92,0,0,0,.14.57.67.67,0,0,0,.54.18h.41v.65Z" style="fill:#fff"/><path d="M118.34,35.69a2.69,2.69,0,0,1-.88,1.62,2.5,2.5,0,0,1-1.69.58,2.69,2.69,0,0,1-1-.19,2.57,2.57,0,0,1-.8-.54,2.17,2.17,0,0,1-.41-.53,2.21,2.21,0,0,1-.23-.61,4.53,4.53,0,0,1-.09-.8c0-.31,0-.67,0-1.1s0-.79,0-1.09a4.42,4.42,0,0,1,.09-.8,2.28,2.28,0,0,1,.23-.62,2.17,2.17,0,0,1,.41-.53,2.57,2.57,0,0,1,.8-.54,2.89,2.89,0,0,1,1-.19,2.55,2.55,0,0,1,1.69.58,2.72,2.72,0,0,1,.88,1.63h-.81a2,2,0,0,0-.6-1.09,1.69,1.69,0,0,0-1.16-.41,1.74,1.74,0,0,0-1.28.52,1.48,1.48,0,0,0-.28.39,2,2,0,0,0-.16.49,5.92,5.92,0,0,0-.06.69c0,.27,0,.59,0,1s0,.71,0,1a5.93,5.93,0,0,0,.06.68,2.1,2.1,0,0,0,.16.5,1.29,1.29,0,0,0,.28.38,1.74,1.74,0,0,0,1.28.52,1.71,1.71,0,0,0,1.17-.4,2,2,0,0,0,.61-1.09Z" style="fill:#fff"/><path d="M123.93,35.27a5.06,5.06,0,0,1-.12,1.12,1.94,1.94,0,0,1-.5.92,2.06,2.06,0,0,1-.64.43,2.16,2.16,0,0,1-.83.15,2.24,2.24,0,0,1-.84-.15,2.13,2.13,0,0,1-.63-.43,1.85,1.85,0,0,1-.32-.43,2.92,2.92,0,0,1-.19-.49,4.34,4.34,0,0,1-.09-.54,5.49,5.49,0,0,1,0-.58,5,5,0,0,1,.12-1.12,1.87,1.87,0,0,1,.51-.92,2,2,0,0,1,.63-.43,2.24,2.24,0,0,1,.84-.16,2.15,2.15,0,0,1,.83.16,1.9,1.9,0,0,1,.64.43,1.87,1.87,0,0,1,.51.92A5.67,5.67,0,0,1,123.93,35.27Zm-.75,0a6.36,6.36,0,0,0-.06-.87,1.22,1.22,0,0,0-.34-.71,1.29,1.29,0,0,0-.94-.38,1.27,1.27,0,0,0-.93.38,1.23,1.23,0,0,0-.35.71,6.36,6.36,0,0,0-.06.87c0,.14,0,.29,0,.44a2,2,0,0,0,0,.42,1.61,1.61,0,0,0,.12.39,1.09,1.09,0,0,0,.23.33,1.27,1.27,0,0,0,.93.38,1.24,1.24,0,0,0,1.28-1.1A6.11,6.11,0,0,0,123.18,35.27Z" style="fill:#fff"/><path d="M126.76,37.83a1.2,1.2,0,0,1-1-.39,1.56,1.56,0,0,1-.31-1V30.41h.75v6a.92.92,0,0,0,.15.57.66.66,0,0,0,.54.18h.41v.65Z" style="fill:#fff"/><path d="M129.85,37.83a1.17,1.17,0,0,1-1-.39,1.51,1.51,0,0,1-.32-1V30.41h.75v6a.92.92,0,0,0,.15.57.67.67,0,0,0,.54.18h.41v.65Z" style="fill:#fff"/><path d="M132.08,35.47a2,2,0,0,0,.38,1.3,1.37,1.37,0,0,0,1.13.47,1.74,1.74,0,0,0,.74-.14,2.35,2.35,0,0,0,.6-.45l.51.45a3,3,0,0,1-.39.34,2.14,2.14,0,0,1-.41.25,1.87,1.87,0,0,1-.49.15,2.61,2.61,0,0,1-.58,0,2.75,2.75,0,0,1-.93-.15,1.94,1.94,0,0,1-.71-.48,2.22,2.22,0,0,1-.44-.82,3.72,3.72,0,0,1-.16-1.17,3,3,0,0,1,.56-1.94,2.12,2.12,0,0,1,3.1,0,2.85,2.85,0,0,1,.55,1.83v.34Zm2.72-.57c0-.1,0-.19,0-.27l0-.21a1.21,1.21,0,0,0-.05-.18c0-.06,0-.12-.07-.19a1.36,1.36,0,0,0-.47-.56,1.28,1.28,0,0,0-.73-.21,1.22,1.22,0,0,0-.72.21,1.29,1.29,0,0,0-.47.56.6.6,0,0,0-.08.19,1.16,1.16,0,0,0,0,.18l0,.21a2.62,2.62,0,0,1,0,.27Z" style="fill:#fff"/><path d="M140.91,38a2.5,2.5,0,0,1-.15.88,1.92,1.92,0,0,1-.41.69,2,2,0,0,1-.67.46,2.36,2.36,0,0,1-.9.16,4.22,4.22,0,0,1-.53,0,3,3,0,0,1-.43-.12,2.56,2.56,0,0,1-.39-.22,2.64,2.64,0,0,1-.39-.31l.49-.48.26.22.27.16a1.6,1.6,0,0,0,.31.1,2.17,2.17,0,0,0,.38,0,1.45,1.45,0,0,0,.65-.13,1.23,1.23,0,0,0,.68-.83,2.37,2.37,0,0,0,.08-.61v-.81a1.54,1.54,0,0,1-.67.53,1.92,1.92,0,0,1-.77.14,2,2,0,0,1-.71-.12,1.67,1.67,0,0,1-.53-.34,1.86,1.86,0,0,1-.5-1A5.91,5.91,0,0,1,137,34a1.9,1.9,0,0,1,.5-.95,1.49,1.49,0,0,1,.53-.33,2.09,2.09,0,0,1,.72-.12,2.36,2.36,0,0,1,.78.13,1.61,1.61,0,0,1,.66.54v-.6h.74Zm-.75-2.76a5.63,5.63,0,0,0,0-.71,1.89,1.89,0,0,0-.18-.61,1.13,1.13,0,0,0-.38-.43,1.41,1.41,0,0,0-1.34,0,1.08,1.08,0,0,0-.39.43,1.89,1.89,0,0,0-.18.61,5.63,5.63,0,0,0,0,.71,5.53,5.53,0,0,0,0,.71,1.83,1.83,0,0,0,.18.6,1.1,1.1,0,0,0,.39.44,1.48,1.48,0,0,0,1.34,0,1.16,1.16,0,0,0,.38-.44,1.83,1.83,0,0,0,.18-.6A5.53,5.53,0,0,0,140.16,35.23Z" style="fill:#fff"/><path d="M143.21,35.47a2,2,0,0,0,.38,1.3,1.37,1.37,0,0,0,1.13.47,1.81,1.81,0,0,0,.74-.14,2.35,2.35,0,0,0,.6-.45l.51.45a3,3,0,0,1-.39.34,2.22,2.22,0,0,1-.42.25,1.92,1.92,0,0,1-.48.15,2.67,2.67,0,0,1-.58,0,2.71,2.71,0,0,1-.93-.15,1.86,1.86,0,0,1-.71-.48,2.39,2.39,0,0,1-.45-.82,4.06,4.06,0,0,1-.15-1.17,2.93,2.93,0,0,1,.56-1.94,1.88,1.88,0,0,1,1.54-.69,1.93,1.93,0,0,1,1.56.66,2.85,2.85,0,0,1,.54,1.83v.34Zm2.71-.57a2.13,2.13,0,0,0,0-.27,1.49,1.49,0,0,0,0-.21,1.21,1.21,0,0,0,0-.18c0-.06-.05-.12-.07-.19a1.31,1.31,0,0,0-.48-.56,1.34,1.34,0,0,0-1.44,0,1.31,1.31,0,0,0-.48.56c0,.07-.06.13-.08.19s0,.12,0,.18a1.49,1.49,0,0,0,0,.21c0,.08,0,.17,0,.27Z" style="fill:#fff"/><path d="M11.28,5.34a2.05,2.05,0,0,0-.19-1.87s-.26.94-1.63.87V6.07S10.83,6.2,11.28,5.34Z" style="fill:#fff"/><path d="M4.27,10.4a1.57,1.57,0,0,0-1.62-.53c-.92.34-.88.72-1.32.83A1.86,1.86,0,0,1,0,10.56c.21.21,1.15,1.12,2.06.55S3.27,10,4.27,10.4Z" style="fill:#fff"/><path d="M0,10.56l0-.05Z" style="fill:#fff"/><path d="M5.44,33.79a1.56,1.56,0,0,1,1,.28s.36,0,1-1.31A5.43,5.43,0,0,0,8.28,30a6.73,6.73,0,0,0-.64-2.2,17.09,17.09,0,0,1-1.93-1.91c-.24.67-.34.49,0,2.1s.93,1.52,1.18,3.19A2.92,2.92,0,0,1,5.44,33.79Z" style="fill:#fff"/><path d="M4.47,34.42s-2.81.13-2.83,2.21a18.31,18.31,0,0,0,2.17.1A1.73,1.73,0,0,1,4.47,34.42Z" style="fill:#fff"/><path d="M35.26,30.31c.06-.33,1.06-.68,1.06-.68a3.84,3.84,0,0,0-.64-1.21c-.33-.26-1,0-1.33-.44s-1.82-1.06-2-4.45-.1-3.24-.1-3.24a7.15,7.15,0,0,0,3.35-6.08c-.13-4.05-5-3.72-6.7-2.52s-5.79,3.32-7.16-.47c-.46-1.13,1.7-1.73,1.7-1.73A2.84,2.84,0,0,0,25.24,9c.64-.6.25-.73.77-.93s1-.07,1.7-.73a4.08,4.08,0,0,0,.85-1.93s-.59,1-1.37.93-2-.8-2.93-.53A2.32,2.32,0,0,0,22.63,7c-.39.67-.33.86-.78,1.2s-3.25,4.19,1.3,6.18c3,.93,5.53-1.12,6.19-1.52a4.18,4.18,0,0,1,2.54-.81,2.52,2.52,0,0,1,2.6,2.07,3.15,3.15,0,0,1-2.67,3.12,4.72,4.72,0,0,0-1,.2s-1.11-1.46-5.93-.4S15.15,18.8,13.91,15c-.32-3.39,2.19.37,2.19.37S16,12,15,12a2.75,2.75,0,0,1-1.3-.53s.13-.67.46-.67,1.16.94,1.16.94.26-2.55-.72-3.15a2,2,0,0,1-.87-.94,2.09,2.09,0,0,0,1.08-.44,3,3,0,0,0,1-2c.07-.73-.2-.33-.65-.06a4.55,4.55,0,0,1-2,.4,4.37,4.37,0,0,1-1.37-.28,2.16,2.16,0,0,1-1,.74A11.77,11.77,0,0,1,8.18,6C7.27,6,6.75,5.5,6.1,5.7s-.85.66-1.69.86A3.86,3.86,0,0,1,2.65,6.5c-.58-.07-1.3-.07-1.43.39a2.9,2.9,0,0,0-.13,1.67c.2.59.32.79,1.3.73s2.08,0,2.54.59a1.83,1.83,0,0,1,.32,1.67c-.13.4-1,.25-1.42.18s-1.11-.33-1.37.14-.52,1.93.39,1.59a14,14,0,0,1,3.58-.17h.32s-3.32,2.47-3.26,5.6c0,4.72,4.17,7.77,4.17,7.77a13,13,0,0,1-.58-4.13,4.34,4.34,0,0,1,1-2.79,10.53,10.53,0,0,0-.07,5.12c.66,2.93,1.44,5.32.66,7.18s-1.42,2.59-1.88,2.59-1.18-.32-1.58-.12a1.55,1.55,0,0,0-.78,1.19c0,.47-.13,1.07.4,1.07s1.82-.07,2.47-.07A2.78,2.78,0,0,0,9,36.23c.46-.33.65-1.8.65-1.8s.52.14.52.47l.26-.86c-.13-.46-.06-.67.33-1.4a4,4,0,0,1,1-1.33c.59-.6-.39-.46-.39-1.19A3.74,3.74,0,0,1,12,28.38c.33-.72-.06-.59-.32-.79s.16-.33.2-.8c.07-.88-1-1.49-1-1.49,2.28-.38,2.42-1.21,2.42-1.21C10.42,23.31,10.55,21,10.55,21c2.87.22,3.69-1.2,3.69-1.2-1.55.3-2.27-1.45-2.27-1.45.45-.44.25-1.74.25-1.74-1-2.18-3.19-.66-3.19-.66.6-1.36,2.88-1.28,3.61.15s.14,2.14.14,2.14a2.45,2.45,0,0,0,2.5,1c-1.47,2.93-3.82,2.38-3.82,2.38a2.41,2.41,0,0,0,2.65,1.75c0,1.12-.41,1.59-.84,1.81a1.24,1.24,0,0,0,1.07.1,7.68,7.68,0,0,0,1.23-.49,10.6,10.6,0,0,1,3.43-1,6.09,6.09,0,0,1,3.9.49,1.17,1.17,0,0,0,0-.91c-.13-.27-.25-.56.05-.4l.24.25A5,5,0,0,1,24,25.09l.24.22a13.83,13.83,0,0,1,1,1.05,9.12,9.12,0,0,0,1.93,1.74c.25.15.58.34,1,.56,1,.53,2.63.26,3.47.66a5.18,5.18,0,0,1,2,2.59,2.79,2.79,0,0,1,.13,2.26c-.26.54-.39.87-.72.87s-.51-.27-1-.27a1,1,0,0,0-1,.73c-.19.47-.19,1.33.07,1.33s3.25-.26,3.63-.26.66-.47.72-.93a9.29,9.29,0,0,0,0-1.4c0-.33.65.19.65.19a4.19,4.19,0,0,0-.19-1.79A8.27,8.27,0,0,1,35.26,30.31ZM8.81,8.52c-.58.07-1,.2-1.24-.07S7.25,8,6.92,8a3.3,3.3,0,0,1-.64-.07A2.65,2.65,0,0,1,7,7.52s1.3.13,1.82.2a5.41,5.41,0,0,1,.72.13A.9.9,0,0,1,8.81,8.52Z" style="fill:#fff"/><path d="M24.78,27c-.3-.33-.61-.67-1-1-1.41-1.32-2.47-1.62-4.74-1.36a10.31,10.31,0,0,0-3.24,1,10.92,10.92,0,0,1-1.32.52,1.49,1.49,0,0,1-1.78-.74h-.27s-.55.25-.3.51a3.47,3.47,0,0,0,3.37,1.21c1.23-.17,5.75-.86,5.75-.86a2.2,2.2,0,0,0-1.2,3c.26.7,1.67,1.35,2.23,2.16a2.29,2.29,0,0,1,.12,2.36,3.13,3.13,0,0,1-1.31.78,1.94,1.94,0,0,0-2.21.49c-.91,1.06-.39,1.66,0,1.66s2.87-.07,3.38-.07a1.35,1.35,0,0,0,1.12-.6,4.9,4.9,0,0,0,.38-1.52s.72.33.72.72a2.62,2.62,0,0,0,0-1.39A2,2,0,0,1,25,32.31c.32-.33,1-.4,1.17-.79s-.14-.34-.33-.47-.65-.53-.46-.87.93-.57,1-1.05c0-.19.09-.23.15-.47A10,10,0,0,1,24.78,27Z" style="fill:#fff"/><path d="M59.38,7.58a2.74,2.74,0,0,0-.51-.51,2.4,2.4,0,0,0-.58-.33,1.9,1.9,0,0,0,.51-.3,2.56,2.56,0,0,0,.78-1.14,2.41,2.41,0,0,0,.12-.78,2.67,2.67,0,0,0-.85-2.1,3.3,3.3,0,0,0-2.31-.76H52.48V12.11H56.7A4,4,0,0,0,58,11.92a2.65,2.65,0,0,0,1-.56,2.56,2.56,0,0,0,.65-.93,3.13,3.13,0,0,0,.24-1.27,2.73,2.73,0,0,0-.13-.89A2.24,2.24,0,0,0,59.38,7.58Zm-5.31-4.5h2.34a1.85,1.85,0,0,1,1.23.39,1.32,1.32,0,0,1,.47,1.11,1.35,1.35,0,0,1-.47,1.12,1.9,1.9,0,0,1-1.23.38H54.07Zm3.77,7.16a1.72,1.72,0,0,1-1.28.45H54.07V7.5h2.49a1.76,1.76,0,0,1,1.28.44,1.58,1.58,0,0,1,.44,1.15A1.58,1.58,0,0,1,57.84,10.24Z" style="fill:#fff"/><rect x="61.91" y="1.66" width="1.59" height="10.45" style="fill:#fff"/><path d="M73.56,12.11,71.15,7.49a3,3,0,0,0,1.48-1,2.69,2.69,0,0,0,.6-1.83A3.23,3.23,0,0,0,73,3.49a2.65,2.65,0,0,0-.66-1,3.17,3.17,0,0,0-1-.64A4.06,4.06,0,0,0,70,1.66h-4V12.11h1.59V7.71h2l2.2,4.4Zm-6-5.75V3.08h2.34a1.9,1.9,0,0,1,1.29.44,1.54,1.54,0,0,1,.49,1.21,1.52,1.52,0,0,1-.49,1.2,1.9,1.9,0,0,1-1.29.43Z" style="fill:#fff"/><polygon points="76.85 5.12 79.31 10.22 80.49 10.22 82.89 5.12 82.89 12.11 84.48 12.11 84.48 1.66 82.89 1.66 79.9 8.16 76.85 1.66 75.26 1.66 75.26 12.11 76.85 12.11 76.85 5.12" style="fill:#fff"/><rect x="86.9" y="1.66" width="1.58" height="10.45" style="fill:#fff"/><polygon points="98.79 12.11 98.79 1.66 97.2 1.66 97.2 9 92.38 1.66 90.92 1.66 90.92 12.11 92.51 12.11 92.51 4.76 97.34 12.11 98.79 12.11" style="fill:#fff"/><path d="M104.6,7.81h2.24v.58a3.21,3.21,0,0,1-.12.92,2.17,2.17,0,0,1-.41.74,2.09,2.09,0,0,1-.75.53,2.23,2.23,0,0,1-1,.19,2.2,2.2,0,0,1-.86-.16,2,2,0,0,1-.68-.46,2.26,2.26,0,0,1-.31-.45,2.18,2.18,0,0,1-.2-.61,8.27,8.27,0,0,1-.09-.89c0-.34,0-.79,0-1.31s0-1,0-1.31a8.27,8.27,0,0,1,.09-.89,2.11,2.11,0,0,1,.2-.6,2.26,2.26,0,0,1,.31-.45,2.07,2.07,0,0,1,.68-.47A2,2,0,0,1,104.6,3a2.16,2.16,0,0,1,1.45.47,2.42,2.42,0,0,1,.75,1.35h1.61A4.55,4.55,0,0,0,108,3.56a3.3,3.3,0,0,0-.78-1,3.32,3.32,0,0,0-1.13-.7,4,4,0,0,0-1.49-.26,3.78,3.78,0,0,0-1.52.29,3.83,3.83,0,0,0-1.22.83,2.71,2.71,0,0,0-.58.81,3.32,3.32,0,0,0-.31.92,7.19,7.19,0,0,0-.11,1.11c0,.41,0,.85,0,1.36s0,1,0,1.35A7.46,7.46,0,0,0,101,9.36a3.56,3.56,0,0,0,.31.92,2.84,2.84,0,0,0,.58.81,3.74,3.74,0,0,0,1.23.82,3.94,3.94,0,0,0,1.51.29,4.41,4.41,0,0,0,1.56-.28,3.48,3.48,0,0,0,1.32-.92,3,3,0,0,0,.72-1.24,5.53,5.53,0,0,0,.22-1.7V6.46H104.6Z" style="fill:#fff"/><polygon points="116.29 6.13 112.05 6.13 112.05 1.66 110.46 1.66 110.46 12.11 112.05 12.11 112.05 7.55 116.29 7.55 116.29 12.11 117.88 12.11 117.88 1.66 116.29 1.66 116.29 6.13" style="fill:#fff"/><path d="M122.89,1.66l-3.83,10.45h1.69l.72-2.09h4.13l.71,2.09H128L124.17,1.66Zm-1,7L123.57,4l1.59,4.65Z" style="fill:#fff"/><polygon points="133.83 8.16 130.78 1.66 129.19 1.66 129.19 12.11 130.78 12.11 130.78 5.12 133.24 10.22 134.42 10.22 136.83 5.12 136.83 12.11 138.41 12.11 138.41 1.66 136.83 1.66 133.83 8.16" style="fill:#fff"/><path d="M145.39,4.68a2,2,0,0,1,.19-.6,2.1,2.1,0,0,1,.32-.46,2.28,2.28,0,0,1,.67-.46,2.25,2.25,0,0,1,.87-.16,1.91,1.91,0,0,1,1.4.5,2.64,2.64,0,0,1,.71,1.28h1.62a3.8,3.8,0,0,0-1.28-2.38,3.67,3.67,0,0,0-2.45-.83,3.9,3.9,0,0,0-1.51.28,4.12,4.12,0,0,0-1.24.84,2.76,2.76,0,0,0-.58.81,3.83,3.83,0,0,0-.31.92,6.18,6.18,0,0,0-.1,1.11c0,.41,0,.85,0,1.36s0,1,0,1.35a6.39,6.39,0,0,0,.1,1.12,4,4,0,0,0,.31.92,3,3,0,0,0,.58.81,3.86,3.86,0,0,0,2.75,1.11,4.06,4.06,0,0,0,1.32-.21,3.13,3.13,0,0,0,1.12-.61,3.47,3.47,0,0,0,.83-1A4.6,4.6,0,0,0,151.17,9h-1.6a2.65,2.65,0,0,1-.72,1.29,2,2,0,0,1-1.41.49,2.25,2.25,0,0,1-.87-.16,2.07,2.07,0,0,1-1-.91,2.31,2.31,0,0,1-.19-.61,5.1,5.1,0,0,1-.09-.89c0-.35,0-.78,0-1.31s0-1,0-1.32A5.1,5.1,0,0,1,145.39,4.68Z" style="fill:#fff"/><rect x="152.99" y="1.66" width="1.58" height="10.45" style="fill:#fff"/><polygon points="156.09 3.08 158.96 3.08 158.96 12.11 160.55 12.11 160.55 3.08 163.43 3.08 163.43 1.66 156.09 1.66 156.09 3.08" style="fill:#fff"/><polygon points="170.43 1.66 168.24 6.25 166.05 1.66 164.32 1.66 167.44 7.81 167.44 12.11 169.03 12.11 169.03 7.81 172.16 1.66 170.43 1.66" style="fill:#fff"/></g></g></svg>