<svg xmlns="http://www.w3.org/2000/svg" viewBox="0 0 250 25" width="250" height="25">
	<style>
		tspan { white-space:pre }
		.shp0 { fill: #ffffff } 
	</style>
	<g id="Layer_2">
		<g id="Layer_1-2">
			<path id="Layer" class="shp0" d="M9.51 2.74L11.37 2.74L11.37 3.73L11.41 3.73C11.52 3.55 11.66 3.38 11.81 3.23C11.97 3.09 12.15 2.96 12.33 2.86C12.52 2.76 12.72 2.68 12.93 2.63C13.14 2.58 13.36 2.55 13.57 2.55C15.61 2.55 16.16 3.72 16.16 5.47L16.16 9.82L14.18 9.82L14.18 5.82C14.18 4.66 13.85 4.09 12.94 4.09C11.88 4.09 11.43 4.68 11.43 6.11L11.43 9.82L9.51 9.82L9.51 2.74Z" />
			<path id="Layer" class="shp0" d="M19.14 1.99L17.19 1.99L17.19 0.04L19.14 0.04L19.14 1.99ZM17.19 2.74L19.14 2.74L19.14 9.82L17.19 9.82L17.19 2.74Z" />
			<path id="Layer" class="shp0" d="M24.31 9.82L22.15 9.82L19.7 2.74L21.74 2.74L23.23 7.58L23.23 7.58L24.73 2.74L26.66 2.74L24.31 9.82Z" />
			<path id="Layer" fill-rule="evenodd" class="shp0" d="M28.72 6.76C28.77 7.99 29.4 8.55 30.46 8.55C30.61 8.56 30.77 8.55 30.93 8.51C31.08 8.47 31.23 8.41 31.36 8.33C31.5 8.25 31.62 8.15 31.73 8.03C31.84 7.91 31.92 7.78 31.99 7.64L33.7 7.64C33.61 7.99 33.46 8.33 33.25 8.64C33.04 8.94 32.78 9.21 32.48 9.42C32.18 9.64 31.84 9.8 31.49 9.9C31.13 10 30.76 10.04 30.39 10.01C28.15 10.01 26.77 8.48 26.77 6.29C26.74 5.8 26.81 5.32 26.98 4.86C27.15 4.4 27.42 3.99 27.76 3.64C28.1 3.29 28.51 3.01 28.96 2.82C29.41 2.64 29.9 2.54 30.39 2.55C32.8 2.55 33.97 4.58 33.83 6.76L28.72 6.76ZM31.88 5.52C31.71 4.54 31.28 4.01 30.33 4.01C30.13 4 29.92 4.03 29.73 4.1C29.53 4.17 29.35 4.28 29.2 4.42C29.05 4.56 28.93 4.73 28.85 4.92C28.76 5.11 28.72 5.31 28.72 5.52L31.88 5.52Z" />
			<path id="Layer" class="shp0" d="M34.57 2.74L36.42 2.74L36.42 4.05L36.42 4.05C36.52 3.83 36.65 3.63 36.8 3.44C36.96 3.26 37.14 3.09 37.35 2.96C37.55 2.83 37.77 2.73 38 2.66C38.24 2.59 38.48 2.55 38.72 2.55C38.76 2.55 38.8 2.56 38.83 2.56C38.87 2.56 38.9 2.57 38.94 2.57C38.98 2.58 39.01 2.58 39.05 2.59C39.08 2.6 39.12 2.61 39.15 2.62L39.15 4.43C39.09 4.41 39.04 4.41 38.98 4.4C38.93 4.39 38.87 4.38 38.81 4.38C38.76 4.37 38.7 4.37 38.64 4.36C38.59 4.36 38.53 4.36 38.47 4.36C37.04 4.36 36.55 5.39 36.55 6.64L36.55 9.82L34.57 9.82L34.57 2.74Z" />
			<path id="Layer" class="shp0" d="M41.21 7.52C41.21 8.37 41.94 8.72 42.7 8.72C43.26 8.72 43.97 8.49 43.97 7.81C43.97 7.13 43.17 7.01 41.77 6.72C40.65 6.47 39.52 6.07 39.52 4.82C39.52 3.01 41.09 2.55 42.61 2.55C44.13 2.55 45.58 3.07 45.73 4.81L43.88 4.81C43.82 4.06 43.25 3.85 42.52 3.85C42.08 3.85 41.43 3.93 41.43 4.53C41.43 5.2 42.53 5.32 43.64 5.59C44.75 5.85 45.89 6.26 45.89 7.57C45.89 9.43 44.27 10.03 42.66 10.03C41.04 10.03 39.4 9.42 39.32 7.54L41.21 7.52Z" />
			<path id="Layer" class="shp0" d="M48.72 1.99L46.77 1.99L46.77 0.04L48.72 0.04L48.72 1.99ZM46.77 2.74L48.72 2.74L48.72 9.82L46.77 9.82L46.77 2.74Z" />
			<path id="Layer" class="shp0" d="M52.38 2.74L53.81 2.74L53.81 4.05L52.38 4.05L52.38 7.55C52.38 8.23 52.55 8.38 53.21 8.38C53.26 8.38 53.31 8.38 53.36 8.38C53.41 8.37 53.46 8.37 53.51 8.37C53.56 8.36 53.61 8.36 53.66 8.35C53.71 8.34 53.76 8.33 53.81 8.32L53.81 9.84C53.72 9.86 53.62 9.87 53.53 9.88C53.43 9.89 53.34 9.89 53.24 9.9C53.15 9.91 53.05 9.91 52.96 9.91C52.86 9.91 52.77 9.91 52.67 9.91C51.48 9.91 50.43 9.64 50.43 8.23L50.43 4.05L49.26 4.05L49.26 2.74L50.43 2.74L50.43 0.62L52.38 0.62L52.38 2.74Z" />
			<path id="Layer" class="shp0" d="M58.38 10.72C58.3 10.97 58.19 11.21 58.03 11.43C57.87 11.64 57.68 11.82 57.46 11.97C57.24 12.12 56.99 12.22 56.73 12.28C56.47 12.34 56.2 12.35 55.94 12.32C55.84 12.32 55.74 12.32 55.64 12.31C55.54 12.31 55.44 12.3 55.34 12.3C55.24 12.29 55.14 12.29 55.04 12.28C54.94 12.27 54.84 12.26 54.74 12.25L54.74 10.65C54.84 10.66 54.93 10.67 55.03 10.68C55.12 10.69 55.22 10.69 55.31 10.7C55.41 10.7 55.5 10.71 55.6 10.71C55.69 10.71 55.79 10.72 55.88 10.72C56.03 10.7 56.17 10.64 56.29 10.55C56.41 10.47 56.51 10.35 56.58 10.22C56.65 10.08 56.68 9.94 56.68 9.79C56.67 9.64 56.63 9.5 56.56 9.36L54.06 2.74L56.14 2.74L57.74 7.59L57.74 7.59L59.29 2.74L61.33 2.74L58.38 10.72Z" />
			<path id="Layer" fill-rule="evenodd" class="shp0" d="M67.47 2.55C69.7 2.55 71.14 4.03 71.14 6.29C71.14 7.26 70.75 8.19 70.07 8.87C69.38 9.55 68.45 9.94 67.47 9.94C66.5 9.94 65.57 9.55 64.88 8.87C64.19 8.19 63.8 7.26 63.8 6.29C63.8 4.05 65.22 2.55 67.47 2.55ZM67.47 8.55C68.82 8.55 69.2 7.41 69.2 6.29C69.2 5.17 68.8 4.01 67.47 4.01C66.13 4.01 65.75 5.16 65.75 6.29C65.75 7.43 66.15 8.55 67.47 8.55Z" />
			<path id="Layer" class="shp0" d="M72.42 4.05L71.26 4.05L71.26 2.74L72.42 2.74L72.42 2.2C72.42 0.95 73.2 0.04 74.79 0.04C75.14 0.04 75.47 0.09 75.82 0.1L75.82 1.55C75.77 1.54 75.71 1.54 75.65 1.53C75.6 1.53 75.54 1.52 75.48 1.52C75.43 1.51 75.37 1.51 75.31 1.51C75.26 1.51 75.2 1.51 75.14 1.51C74.62 1.51 74.4 1.73 74.4 2.32L74.4 2.74L75.76 2.74L75.76 4.05L74.4 4.05L74.4 9.83L72.42 9.83L72.42 4.05Z" />
			<path id="Layer" fill-rule="evenodd" class="shp0" d="M11.22 18.92C11.27 20.16 11.9 20.72 12.96 20.72C13.11 20.72 13.27 20.71 13.43 20.67C13.58 20.63 13.73 20.57 13.87 20.49C14 20.41 14.13 20.31 14.23 20.19C14.34 20.07 14.43 19.94 14.5 19.8L16.21 19.8C16.12 20.16 15.97 20.5 15.76 20.8C15.56 21.11 15.3 21.38 15 21.6C14.7 21.82 14.36 21.98 14.01 22.09C13.65 22.19 13.28 22.23 12.91 22.21C10.67 22.21 9.29 20.68 9.29 18.49C9.27 18 9.34 17.51 9.51 17.06C9.68 16.6 9.94 16.18 10.28 15.83C10.62 15.48 11.03 15.2 11.48 15.01C11.93 14.83 12.42 14.74 12.91 14.74C15.33 14.74 16.49 16.77 16.35 18.95L11.22 18.92ZM14.38 17.69C14.21 16.7 13.78 16.18 12.83 16.18C12.63 16.17 12.42 16.2 12.23 16.27C12.03 16.35 11.85 16.45 11.7 16.6C11.55 16.74 11.43 16.9 11.35 17.09C11.26 17.28 11.22 17.48 11.22 17.69L14.38 17.69Z" />
			<path id="Layer" class="shp0" d="M16.98 14.93L18.84 14.93L18.84 16.25L18.84 16.25C18.93 16.03 19.06 15.82 19.21 15.64C19.37 15.46 19.54 15.3 19.74 15.16C19.94 15.03 20.16 14.93 20.39 14.85C20.62 14.78 20.86 14.75 21.1 14.74C21.14 14.74 21.17 14.75 21.21 14.75C21.24 14.75 21.28 14.76 21.31 14.76C21.35 14.77 21.38 14.77 21.42 14.78C21.45 14.79 21.49 14.8 21.52 14.81L21.52 16.62C21.47 16.61 21.41 16.6 21.35 16.59C21.3 16.58 21.24 16.58 21.18 16.57C21.13 16.57 21.07 16.56 21.01 16.56C20.96 16.56 20.9 16.55 20.84 16.55C19.42 16.55 18.93 17.58 18.93 18.82L18.93 22.02L16.98 22.02L16.98 14.93Z" />
			<path id="Layer" class="shp0" d="M26.49 16.22L25.07 16.22L25.07 19.72C25.07 20.4 25.23 20.55 25.89 20.55C25.94 20.55 25.99 20.55 26.04 20.54C26.09 20.54 26.14 20.54 26.19 20.54C26.24 20.53 26.29 20.52 26.34 20.52C26.39 20.51 26.44 20.5 26.49 20.49L26.49 22.01C26.4 22.03 26.31 22.04 26.21 22.05C26.12 22.06 26.02 22.06 25.93 22.07C25.83 22.07 25.73 22.08 25.64 22.08C25.54 22.08 25.45 22.08 25.35 22.08C24.16 22.08 23.12 21.8 23.12 20.39L23.12 16.22L21.96 16.22L21.96 14.93L23.13 14.93L23.13 12.84L25.08 12.84L25.08 14.93L27.66 14.93L27.66 14.39C27.66 13.14 28.44 12.24 30.03 12.24C30.37 12.24 30.71 12.28 31.06 12.29L31.06 13.74C31 13.74 30.95 13.73 30.89 13.73C30.83 13.72 30.78 13.72 30.72 13.71C30.66 13.71 30.61 13.71 30.55 13.71C30.49 13.7 30.44 13.7 30.38 13.7C29.86 13.7 29.64 13.92 29.64 14.51L29.64 14.93L31 14.93L31 16.22L29.64 16.22L29.64 22L27.66 22L27.66 16.22L26.49 16.22Z" />
			<path id="Layer" fill-rule="evenodd" class="shp0" d="M35.03 14.74C37.27 14.74 38.72 16.22 38.72 18.49C38.76 18.98 38.69 19.47 38.52 19.94C38.35 20.4 38.08 20.82 37.73 21.18C37.39 21.53 36.97 21.8 36.5 21.98C36.04 22.16 35.54 22.24 35.05 22.21C32.83 22.21 31.39 20.73 31.39 18.49C31.39 16.24 32.81 14.74 35.03 14.74ZM36.77 18.49C36.77 17.36 36.37 16.22 35.03 16.22C33.7 16.22 33.32 17.35 33.32 18.49C33.32 19.64 33.72 20.74 35.03 20.74C36.39 20.74 36.77 19.61 36.77 18.49Z" />
			<path id="Layer" class="shp0" d="M39.57 14.93L41.44 14.93L41.44 16.25L41.44 16.25C41.54 16.03 41.66 15.83 41.82 15.64C41.97 15.46 42.15 15.3 42.35 15.16C42.55 15.03 42.77 14.93 42.99 14.86C43.22 14.79 43.46 14.75 43.7 14.74C43.74 14.74 43.77 14.75 43.81 14.75C43.85 14.75 43.88 14.76 43.92 14.76C43.95 14.77 43.99 14.77 44.03 14.78C44.06 14.79 44.1 14.8 44.13 14.81L44.13 16.62C44.07 16.61 44.02 16.6 43.96 16.59C43.91 16.58 43.85 16.58 43.79 16.57C43.74 16.57 43.68 16.56 43.62 16.56C43.57 16.56 43.51 16.55 43.45 16.55C42.02 16.55 41.53 17.58 41.53 18.82L41.53 22.02L39.57 22.02L39.57 14.93Z" />
			<path id="Layer" fill-rule="evenodd" class="shp0" d="M49.5 21.11C49.39 21.29 49.25 21.46 49.1 21.6C48.94 21.74 48.77 21.86 48.58 21.96C48.39 22.05 48.19 22.12 47.98 22.17C47.77 22.21 47.56 22.22 47.35 22.21C45.21 22.21 44.17 20.37 44.17 18.41C44.17 16.45 45.22 14.74 47.31 14.74C47.51 14.74 47.72 14.75 47.92 14.8C48.12 14.84 48.31 14.91 48.5 15C48.68 15.09 48.85 15.21 49 15.34C49.16 15.48 49.29 15.63 49.41 15.8L49.41 12.24L51.35 12.24L51.35 22.02L49.5 22.02L49.5 21.11ZM47.81 16.22C46.53 16.22 46.09 17.31 46.09 18.47C46.09 19.64 46.6 20.75 47.81 20.75C49.01 20.75 49.48 19.63 49.48 18.46C49.48 17.29 49.06 16.22 47.81 16.22Z" />
			<path id="Layer" class="shp0" d="M53.92 19.72C53.92 20.57 54.65 20.91 55.41 20.91C55.98 20.91 56.69 20.69 56.69 20.01C56.69 19.32 55.88 19.21 54.48 18.92C53.36 18.68 52.24 18.28 52.24 17.03C52.24 15.22 53.8 14.76 55.32 14.76C56.84 14.76 58.29 15.28 58.44 17.02L56.6 17.02C56.54 16.26 55.96 16.06 55.24 16.06C54.8 16.06 54.15 16.14 54.15 16.74C54.15 17.41 55.25 17.53 56.36 17.79C57.47 18.05 58.61 18.47 58.61 19.78C58.61 21.64 56.99 22.24 55.37 22.24C53.76 22.24 52.13 21.63 52.04 19.75L53.92 19.72Z" />
			<path id="Layer" class="shp0" d="M59.36 12.24L61.31 12.24L61.31 15.92L61.35 15.92C61.46 15.75 61.59 15.59 61.74 15.44C61.88 15.3 62.05 15.18 62.22 15.08C62.4 14.98 62.59 14.9 62.79 14.84C62.98 14.78 63.19 14.75 63.39 14.74C65.43 14.74 65.98 15.91 65.98 17.66L65.98 22.02L64.07 22.02L64.07 18.02C64.07 16.85 63.72 16.28 62.82 16.28C61.77 16.28 61.31 16.86 61.31 18.3L61.31 22.02L59.36 22.02L59.36 12.24Z" />
			<path id="Layer" class="shp0" d="M69.09 14.19L67.14 14.19L67.14 12.24L69.09 12.24L69.09 14.19ZM67.14 14.93L69.09 14.93L69.09 22.02L67.14 22.02L67.14 14.93Z" />
			<path id="Layer" class="shp0" d="M70.21 14.93L72.07 14.93L72.07 16.25L72.07 16.25C72.16 16.03 72.29 15.82 72.44 15.64C72.59 15.46 72.77 15.3 72.97 15.16C73.17 15.03 73.39 14.93 73.62 14.85C73.85 14.78 74.09 14.75 74.33 14.74C74.36 14.74 74.4 14.75 74.43 14.75C74.47 14.75 74.51 14.76 74.54 14.76C74.58 14.77 74.61 14.77 74.65 14.78C74.68 14.79 74.71 14.8 74.75 14.81L74.75 16.62C74.69 16.61 74.64 16.6 74.58 16.59C74.52 16.58 74.47 16.58 74.41 16.57C74.35 16.57 74.3 16.56 74.24 16.56C74.18 16.56 74.13 16.55 74.07 16.55C72.65 16.55 72.15 17.58 72.15 18.82L72.15 22.02L70.2 22.02L70.21 14.93Z" />
			<path id="Layer" fill-rule="evenodd" class="shp0" d="M76.63 18.92C76.68 20.16 77.31 20.72 78.37 20.72C78.53 20.72 78.69 20.71 78.84 20.67C78.99 20.63 79.14 20.57 79.28 20.49C79.41 20.41 79.54 20.31 79.64 20.19C79.75 20.07 79.84 19.94 79.9 19.8L81.62 19.8C81.53 20.16 81.38 20.49 81.17 20.8C80.96 21.11 80.7 21.37 80.4 21.59C80.1 21.8 79.76 21.97 79.4 22.07C79.04 22.17 78.67 22.21 78.3 22.18C76.07 22.18 74.68 20.65 74.68 18.46C74.65 17.97 74.73 17.49 74.9 17.03C75.07 16.57 75.33 16.15 75.67 15.8C76.01 15.45 76.42 15.17 76.87 14.99C77.33 14.8 77.81 14.71 78.3 14.72C80.71 14.72 81.88 16.74 81.75 18.92L76.63 18.92ZM79.8 17.69C79.62 16.7 79.19 16.18 78.25 16.18C78.04 16.17 77.83 16.2 77.64 16.27C77.44 16.34 77.27 16.45 77.12 16.59C76.96 16.73 76.84 16.9 76.76 17.09C76.68 17.28 76.63 17.48 76.63 17.69L79.8 17.69Z" />
			<path id="Layer" class="shp0" d="M106.52 0L99.18 0L99.18 13.07C99.18 15.09 98.13 16.78 95.52 16.78C92.91 16.78 91.85 15.12 91.85 13.07L91.85 0L84.51 0L84.51 13.76C84.51 19.6 88.51 22.86 95.52 22.86C102.52 22.86 106.52 19.61 106.52 13.76C106.53 13.71 106.52 0 106.52 0Z" />
			<path id="Layer" class="shp0" d="M108.36 0L115.7 0L115.7 7.33L123.04 7.33L123.04 0L130.37 0L130.37 22L123.04 22L123.04 14.67L115.7 14.67L115.7 22L108.36 22L108.36 0Z" />
			<path id="Layer" class="shp0" d="M8.36 0.05L6.21 0.05L6.21 6.23C6.21 6.77 5.99 7.28 5.61 7.66C5.23 8.04 4.71 8.26 4.17 8.26C3.63 8.26 3.11 8.04 2.73 7.66C2.35 7.28 2.13 6.77 2.13 6.23L2.13 0.05L0 0.05L0 6.52C0 8.47 1.87 10.04 4.17 10.04C6.47 10.04 8.36 8.47 8.36 6.52L8.36 0.05Z" />
			<path id="Layer" class="shp0" d="M6.2 16.03L2.15 16.03L2.15 12.22L0 12.22L0 21.99L2.15 21.99L2.15 18.18L6.2 18.18L6.2 21.99L8.36 21.99L8.36 12.22L6.2 12.22L6.2 16.03L6.2 16.03Z" />
			<path id="Layer" class="shp0" d="M147.16 2.82L147.16 6.3L151.44 6.3L151.44 2.82L152.52 2.82L152.52 10.93L151.44 10.93L151.44 7.21L147.16 7.21L147.16 10.91L146.06 10.91L146.06 2.8L147.16 2.82Z" />
			<path id="Layer" fill-rule="evenodd" class="shp0" d="M158.29 10.54C158.17 10.63 158.04 10.7 157.91 10.77C157.78 10.83 157.64 10.89 157.5 10.93C157.36 10.97 157.22 11 157.07 11.02C156.92 11.04 156.78 11.05 156.63 11.04C156.53 11.04 156.42 11.04 156.32 11.03C156.21 11.02 156.11 11.01 156 10.99C155.9 10.97 155.8 10.94 155.7 10.92C155.6 10.89 155.5 10.85 155.4 10.81C155.32 10.78 155.24 10.73 155.16 10.69C155.08 10.64 155 10.6 154.93 10.54C154.86 10.49 154.79 10.43 154.72 10.37C154.65 10.31 154.59 10.24 154.53 10.18C154.47 10.11 154.41 10.03 154.36 9.96C154.31 9.88 154.26 9.8 154.21 9.72C154.17 9.64 154.13 9.55 154.09 9.47C154.06 9.38 154.03 9.29 154 9.2C153.97 9.1 153.94 9 153.92 8.9C153.9 8.8 153.88 8.69 153.86 8.59C153.85 8.49 153.83 8.38 153.82 8.28C153.81 8.18 153.81 8.07 153.8 7.97C153.8 7.86 153.81 7.76 153.81 7.65C153.82 7.55 153.84 7.45 153.85 7.35C153.87 7.24 153.89 7.14 153.92 7.04C153.94 6.94 153.97 6.84 154.01 6.74C154.04 6.65 154.08 6.57 154.12 6.48C154.16 6.4 154.2 6.31 154.25 6.23C154.3 6.15 154.35 6.07 154.41 6C154.46 5.92 154.52 5.85 154.59 5.78C154.65 5.71 154.71 5.65 154.78 5.59C154.85 5.52 154.92 5.47 154.99 5.41C155.06 5.36 155.14 5.31 155.22 5.27C155.3 5.22 155.38 5.18 155.46 5.14C155.55 5.1 155.64 5.07 155.73 5.04C155.82 5.01 155.91 4.99 156 4.97C156.1 4.95 156.19 4.94 156.29 4.93C156.38 4.92 156.47 4.92 156.57 4.92C156.68 4.91 156.8 4.92 156.91 4.93C157.02 4.94 157.13 4.96 157.24 4.99C157.35 5.02 157.46 5.05 157.57 5.09C157.67 5.14 157.78 5.19 157.87 5.24C157.96 5.3 158.04 5.35 158.12 5.41C158.2 5.48 158.28 5.54 158.35 5.61C158.42 5.68 158.49 5.76 158.55 5.84C158.62 5.91 158.68 6 158.73 6.08C158.78 6.16 158.83 6.25 158.87 6.34C158.92 6.43 158.96 6.51 158.99 6.61C159.03 6.7 159.06 6.79 159.09 6.88C159.12 6.98 159.14 7.07 159.16 7.17C159.18 7.26 159.19 7.35 159.21 7.45C159.22 7.54 159.23 7.63 159.24 7.73C159.25 7.82 159.26 7.91 159.26 8.01C159.26 8.1 159.26 8.2 159.26 8.29L154.85 8.29C154.85 8.35 154.85 8.41 154.85 8.48C154.85 8.54 154.86 8.6 154.86 8.66C154.87 8.72 154.88 8.79 154.89 8.85C154.91 8.91 154.92 8.97 154.94 9.03C154.95 9.08 154.97 9.14 155 9.19C155.02 9.25 155.04 9.3 155.07 9.35C155.1 9.4 155.13 9.45 155.16 9.5C155.2 9.55 155.23 9.59 155.27 9.64C155.31 9.68 155.35 9.72 155.4 9.76C155.44 9.81 155.49 9.84 155.54 9.88C155.59 9.92 155.64 9.95 155.69 9.98C155.74 10.01 155.79 10.04 155.85 10.06C155.91 10.09 155.98 10.11 156.05 10.13C156.12 10.15 156.19 10.17 156.26 10.18C156.33 10.2 156.4 10.21 156.47 10.21C156.54 10.22 156.61 10.22 156.68 10.22C156.77 10.22 156.86 10.22 156.95 10.21C157.04 10.2 157.12 10.18 157.21 10.16C157.3 10.13 157.38 10.1 157.46 10.07C157.54 10.03 157.62 9.99 157.69 9.94C157.76 9.89 157.82 9.83 157.88 9.76C157.94 9.7 157.99 9.63 158.03 9.56C158.08 9.48 158.11 9.4 158.14 9.32C158.17 9.24 158.19 9.16 158.21 9.07L159.16 9.07C159.14 9.22 159.1 9.36 159.05 9.5C159 9.63 158.94 9.76 158.87 9.89C158.79 10.01 158.7 10.13 158.61 10.24C158.51 10.35 158.4 10.45 158.29 10.54ZM158.08 6.76C158.06 6.71 158.03 6.66 158.01 6.61C157.98 6.57 157.96 6.52 157.93 6.48C157.9 6.43 157.86 6.39 157.83 6.35C157.8 6.31 157.76 6.27 157.72 6.23C157.65 6.15 157.56 6.08 157.47 6.02C157.38 5.96 157.28 5.91 157.18 5.87C157.08 5.83 156.97 5.8 156.86 5.78C156.76 5.76 156.65 5.75 156.54 5.75C156.48 5.75 156.42 5.75 156.36 5.76C156.3 5.76 156.25 5.77 156.19 5.78C156.13 5.79 156.08 5.8 156.02 5.82C155.96 5.84 155.91 5.86 155.86 5.88C155.81 5.9 155.76 5.92 155.71 5.95C155.67 5.97 155.62 6 155.58 6.03C155.54 6.06 155.49 6.09 155.45 6.13C155.41 6.16 155.38 6.2 155.34 6.24C155.3 6.27 155.27 6.31 155.23 6.36C155.2 6.4 155.17 6.44 155.14 6.48C155.11 6.53 155.09 6.57 155.06 6.62C155.04 6.67 155.01 6.71 154.99 6.76C154.97 6.82 154.95 6.87 154.94 6.93C154.92 6.98 154.9 7.04 154.89 7.1C154.88 7.15 154.87 7.21 154.86 7.27C154.86 7.32 154.85 7.38 154.85 7.44L158.25 7.44C158.24 7.38 158.24 7.32 158.23 7.26C158.22 7.21 158.21 7.15 158.19 7.09C158.18 7.03 158.16 6.98 158.14 6.92C158.12 6.87 158.1 6.81 158.08 6.76Z" />
			<path id="Layer" class="shp0" d="M161.13 5.05L161.13 6.29L161.13 6.29C161.18 6.19 161.23 6.08 161.29 5.99C161.35 5.89 161.42 5.79 161.49 5.71C161.57 5.62 161.65 5.53 161.73 5.45C161.81 5.38 161.9 5.3 162 5.24C162.09 5.18 162.19 5.13 162.3 5.08C162.4 5.04 162.51 5 162.62 4.98C162.73 4.95 162.84 4.93 162.96 4.92C163.07 4.91 163.18 4.91 163.29 4.92L163.29 5.94C163.22 5.94 163.14 5.94 163.06 5.95C162.98 5.95 162.9 5.96 162.82 5.97C162.75 5.98 162.67 6 162.59 6.02C162.51 6.04 162.44 6.06 162.36 6.08C162.3 6.1 162.23 6.13 162.17 6.16C162.11 6.2 162.05 6.23 161.99 6.27C161.94 6.31 161.88 6.35 161.83 6.4C161.78 6.45 161.73 6.49 161.68 6.55C161.64 6.6 161.6 6.66 161.57 6.72C161.53 6.78 161.49 6.84 161.46 6.9C161.43 6.96 161.41 7.03 161.38 7.09C161.36 7.16 161.34 7.22 161.32 7.29C161.3 7.37 161.28 7.45 161.27 7.54C161.25 7.62 161.24 7.7 161.23 7.79C161.22 7.87 161.22 7.95 161.21 8.04C161.21 8.12 161.21 8.21 161.21 8.29L161.21 10.9L160.24 10.9L160.24 5.05L161.13 5.05Z" />
			<path id="Layer" class="shp0" d="M166.57 5.05L166.57 5.91L165.4 5.91L165.4 9.54C165.4 9.56 165.4 9.59 165.39 9.61C165.39 9.63 165.39 9.65 165.39 9.68C165.39 9.7 165.39 9.72 165.39 9.74C165.4 9.77 165.4 9.79 165.4 9.81C165.4 9.83 165.41 9.84 165.42 9.86C165.42 9.87 165.43 9.89 165.44 9.9C165.45 9.92 165.46 9.93 165.47 9.94C165.48 9.95 165.5 9.96 165.51 9.97C165.53 9.98 165.54 9.99 165.56 10C165.58 10.01 165.6 10.02 165.61 10.02C165.63 10.03 165.65 10.04 165.67 10.04C165.69 10.04 165.71 10.05 165.73 10.05C165.76 10.05 165.79 10.05 165.82 10.05C165.85 10.05 165.88 10.05 165.91 10.05C165.94 10.05 165.98 10.05 166.01 10.05C166.04 10.05 166.07 10.05 166.1 10.05L166.54 10.05L166.54 10.9L165.83 10.9C165.78 10.9 165.72 10.9 165.67 10.9C165.62 10.9 165.56 10.89 165.51 10.89C165.46 10.89 165.4 10.88 165.35 10.87C165.3 10.87 165.24 10.86 165.19 10.85C165.15 10.85 165.11 10.84 165.07 10.82C165.04 10.81 165 10.8 164.96 10.78C164.92 10.77 164.89 10.75 164.85 10.73C164.82 10.71 164.79 10.69 164.76 10.66C164.73 10.64 164.7 10.61 164.67 10.58C164.65 10.55 164.63 10.52 164.6 10.49C164.58 10.45 164.57 10.42 164.55 10.39C164.53 10.35 164.52 10.31 164.51 10.28C164.5 10.22 164.48 10.17 164.47 10.11C164.46 10.06 164.45 10 164.44 9.94C164.44 9.89 164.43 9.83 164.43 9.77C164.43 9.72 164.43 9.66 164.43 9.6L164.43 5.91L163.42 5.91L163.42 5.05L164.4 5.05L164.4 3.3L165.37 3.3L165.37 5.05L166.57 5.05Z" />
			<path id="Layer" class="shp0" d="M167.05 5.91L167.05 5.05L168.04 5.05L168.04 4.18C168.04 4.08 168.04 3.98 168.05 3.88C168.07 3.79 168.09 3.69 168.13 3.6C168.16 3.5 168.21 3.41 168.27 3.33C168.32 3.25 168.39 3.17 168.46 3.1C168.54 3.03 168.63 2.97 168.73 2.92C168.82 2.87 168.92 2.82 169.03 2.79C169.13 2.75 169.24 2.73 169.35 2.72C169.46 2.7 169.56 2.7 169.67 2.7C169.7 2.7 169.73 2.7 169.75 2.7C169.78 2.7 169.8 2.7 169.83 2.7C169.86 2.7 169.88 2.7 169.91 2.7C169.93 2.7 169.96 2.7 169.99 2.7C170.01 2.71 170.04 2.71 170.07 2.71C170.09 2.72 170.12 2.72 170.14 2.73C170.17 2.73 170.2 2.74 170.22 2.75C170.25 2.75 170.27 2.76 170.3 2.77L170.3 3.66C170.28 3.65 170.25 3.65 170.23 3.64C170.21 3.63 170.19 3.63 170.16 3.62C170.14 3.62 170.12 3.61 170.09 3.61C170.07 3.61 170.04 3.6 170.02 3.6L169.75 3.6C169.7 3.6 169.65 3.6 169.61 3.6C169.56 3.61 169.51 3.62 169.47 3.63C169.42 3.64 169.38 3.65 169.33 3.67C169.29 3.69 169.25 3.71 169.21 3.74C169.17 3.77 169.14 3.81 169.11 3.84C169.08 3.88 169.06 3.93 169.04 3.97C169.03 4.02 169.01 4.06 169.01 4.11C169 4.16 169 4.21 169.01 4.26L169.01 5.05L170.15 5.05L170.15 5.91L169.01 5.91L169.01 10.91L168.04 10.91L168.04 5.91L167.05 5.91Z" />
			<path id="Layer" fill-rule="evenodd" class="shp0" d="M171.1 6.24C171.19 6.08 171.3 5.93 171.42 5.79C171.55 5.65 171.69 5.52 171.84 5.41C171.99 5.3 172.15 5.2 172.32 5.13C172.42 5.09 172.52 5.05 172.62 5.02C172.72 4.99 172.82 4.97 172.93 4.95C173.03 4.93 173.13 4.91 173.24 4.9C173.34 4.89 173.45 4.89 173.55 4.89C173.66 4.89 173.76 4.89 173.87 4.9C173.98 4.91 174.08 4.93 174.18 4.95C174.29 4.97 174.39 4.99 174.49 5.02C174.59 5.05 174.69 5.09 174.79 5.13C174.96 5.2 175.12 5.3 175.27 5.41C175.43 5.52 175.57 5.65 175.69 5.79C175.81 5.93 175.92 6.08 176.01 6.24C176.11 6.41 176.18 6.58 176.24 6.76C176.29 6.95 176.34 7.15 176.37 7.35C176.4 7.55 176.41 7.76 176.41 7.96C176.41 8.16 176.4 8.37 176.37 8.57C176.34 8.77 176.29 8.97 176.24 9.16C176.21 9.25 176.17 9.34 176.14 9.43C176.1 9.51 176.06 9.59 176.01 9.68C175.97 9.76 175.91 9.84 175.86 9.91C175.81 9.99 175.75 10.06 175.69 10.14C175.62 10.21 175.56 10.27 175.49 10.34C175.42 10.4 175.35 10.46 175.27 10.52C175.2 10.58 175.12 10.63 175.04 10.68C174.96 10.73 174.88 10.77 174.79 10.81C174.69 10.85 174.59 10.89 174.49 10.92C174.39 10.95 174.29 10.97 174.18 10.99C174.08 11.01 173.98 11.03 173.87 11.04C173.76 11.05 173.66 11.05 173.55 11.05C173.45 11.05 173.34 11.05 173.24 11.04C173.13 11.03 173.03 11.01 172.93 10.99C172.82 10.97 172.72 10.95 172.62 10.92C172.52 10.89 172.42 10.85 172.32 10.81C172.24 10.77 172.15 10.73 172.07 10.68C171.99 10.63 171.91 10.58 171.84 10.52C171.76 10.46 171.69 10.4 171.62 10.34C171.55 10.27 171.49 10.21 171.43 10.14C171.36 10.06 171.31 9.99 171.25 9.91C171.2 9.84 171.15 9.76 171.1 9.68C171.06 9.59 171.01 9.51 170.98 9.43C170.94 9.34 170.9 9.25 170.88 9.16C170.82 8.97 170.77 8.77 170.74 8.57C170.71 8.37 170.69 8.16 170.69 7.96C170.69 7.76 170.71 7.55 170.74 7.35C170.77 7.15 170.82 6.95 170.88 6.76C170.93 6.58 171.01 6.41 171.1 6.24ZM171.95 9.11C171.98 9.17 172.01 9.23 172.04 9.29C172.07 9.35 172.11 9.4 172.15 9.45C172.19 9.51 172.23 9.56 172.27 9.61C172.31 9.65 172.35 9.7 172.4 9.74C172.45 9.78 172.49 9.81 172.54 9.85C172.59 9.89 172.64 9.92 172.7 9.95C172.75 9.98 172.8 10.01 172.86 10.03C172.91 10.06 172.97 10.08 173.02 10.09C173.08 10.11 173.14 10.13 173.19 10.14C173.25 10.15 173.31 10.16 173.37 10.17C173.42 10.17 173.48 10.18 173.54 10.18C173.6 10.17 173.66 10.17 173.71 10.16C173.77 10.16 173.83 10.15 173.89 10.14C173.94 10.13 174 10.11 174.05 10.09C174.11 10.08 174.17 10.06 174.22 10.03C174.27 10.01 174.33 9.98 174.38 9.95C174.43 9.92 174.49 9.89 174.54 9.85C174.59 9.81 174.63 9.78 174.68 9.74C174.72 9.7 174.77 9.65 174.81 9.61C174.85 9.56 174.89 9.51 174.93 9.45C174.97 9.4 175 9.35 175.04 9.29C175.07 9.23 175.1 9.17 175.12 9.11C175.15 9.05 175.18 8.99 175.2 8.93C175.22 8.86 175.24 8.78 175.26 8.7C175.28 8.62 175.3 8.54 175.31 8.47C175.32 8.39 175.33 8.31 175.33 8.23C175.34 8.15 175.34 8.07 175.34 7.99C175.34 7.91 175.34 7.83 175.33 7.75C175.33 7.67 175.32 7.59 175.31 7.51C175.3 7.43 175.28 7.35 175.26 7.27C175.24 7.19 175.22 7.12 175.2 7.04C175.18 6.98 175.15 6.92 175.12 6.86C175.1 6.8 175.07 6.74 175.03 6.69C175 6.63 174.97 6.57 174.93 6.52C174.89 6.47 174.85 6.41 174.81 6.36C174.77 6.32 174.73 6.28 174.68 6.23C174.64 6.19 174.59 6.15 174.54 6.12C174.49 6.08 174.44 6.05 174.38 6.02C174.33 5.99 174.28 5.96 174.22 5.94C174.17 5.92 174.11 5.89 174.06 5.88C174 5.86 173.94 5.84 173.89 5.83C173.83 5.82 173.77 5.81 173.71 5.8C173.66 5.79 173.6 5.79 173.54 5.79C173.48 5.79 173.42 5.79 173.36 5.8C173.31 5.81 173.25 5.82 173.19 5.83C173.13 5.84 173.08 5.86 173.02 5.88C172.97 5.89 172.91 5.92 172.86 5.94C172.8 5.96 172.75 5.99 172.7 6.02C172.64 6.05 172.59 6.08 172.54 6.12C172.49 6.15 172.44 6.19 172.4 6.23C172.35 6.28 172.31 6.32 172.27 6.36C172.23 6.41 172.19 6.47 172.15 6.52C172.11 6.57 172.07 6.63 172.04 6.68C172.01 6.74 171.98 6.8 171.95 6.86C171.92 6.92 171.9 6.98 171.88 7.04C171.85 7.12 171.83 7.19 171.81 7.27C171.79 7.35 171.78 7.43 171.76 7.51C171.75 7.59 171.74 7.67 171.74 7.75C171.73 7.83 171.73 7.91 171.73 7.99C171.73 8.07 171.73 8.15 171.74 8.23C171.74 8.31 171.75 8.39 171.76 8.47C171.78 8.54 171.79 8.62 171.81 8.7C171.83 8.78 171.85 8.86 171.88 8.93C171.9 8.99 171.92 9.05 171.95 9.11Z" />
			<path id="Layer" class="shp0" d="M178.43 5.05L178.43 6.29L178.43 6.29C178.48 6.18 178.54 6.08 178.6 5.98C178.67 5.88 178.74 5.79 178.82 5.7C178.89 5.61 178.98 5.53 179.07 5.45C179.15 5.37 179.25 5.3 179.35 5.24C179.44 5.18 179.54 5.13 179.65 5.08C179.75 5.04 179.86 5 179.97 4.98C180.08 4.95 180.19 4.93 180.31 4.92C180.42 4.91 180.53 4.91 180.65 4.92L180.65 5.94C180.56 5.94 180.48 5.94 180.39 5.95C180.31 5.95 180.23 5.96 180.14 5.97C180.06 5.99 179.98 6 179.9 6.02C179.81 6.04 179.73 6.07 179.65 6.09C179.59 6.12 179.52 6.15 179.46 6.18C179.4 6.21 179.34 6.24 179.28 6.28C179.23 6.32 179.17 6.37 179.12 6.41C179.07 6.46 179.02 6.51 178.97 6.56C178.93 6.61 178.89 6.67 178.85 6.73C178.81 6.79 178.78 6.85 178.75 6.91C178.72 6.97 178.69 7.04 178.67 7.1C178.64 7.17 178.62 7.24 178.61 7.3C178.59 7.39 178.57 7.47 178.56 7.55C178.54 7.63 178.53 7.72 178.52 7.8C178.51 7.88 178.51 7.97 178.5 8.05C178.5 8.14 178.5 8.22 178.5 8.3L178.5 10.91L177.53 10.91L177.53 5.05L178.43 5.05Z" />
			<path id="Layer" fill-rule="evenodd" class="shp0" d="M185.46 10.91L185.46 10.14C185.42 10.21 185.38 10.28 185.32 10.35C185.27 10.42 185.21 10.48 185.15 10.54C185.09 10.6 185.02 10.65 184.94 10.7C184.87 10.74 184.79 10.78 184.71 10.81C184.63 10.85 184.53 10.88 184.44 10.91C184.35 10.93 184.26 10.96 184.16 10.97C184.07 10.99 183.97 11.01 183.88 11.01C183.78 11.02 183.68 11.03 183.59 11.03C183.48 11.03 183.38 11.03 183.28 11.02C183.18 11.01 183.08 10.99 182.97 10.97C182.87 10.95 182.78 10.92 182.68 10.89C182.58 10.86 182.48 10.82 182.39 10.78C182.31 10.74 182.23 10.69 182.15 10.64C182.08 10.59 182 10.54 181.93 10.49C181.86 10.43 181.79 10.37 181.73 10.3C181.67 10.24 181.61 10.17 181.55 10.1C181.49 10.03 181.44 9.95 181.39 9.88C181.34 9.8 181.29 9.72 181.25 9.64C181.21 9.56 181.17 9.47 181.14 9.39C181.1 9.3 181.07 9.22 181.05 9.13C181.02 9.03 180.99 8.94 180.97 8.84C180.95 8.74 180.93 8.64 180.91 8.54C180.9 8.44 180.89 8.35 180.88 8.25C180.87 8.15 180.87 8.05 180.87 7.95C180.87 7.85 180.87 7.75 180.88 7.65C180.88 7.55 180.9 7.45 180.91 7.35C180.92 7.25 180.94 7.16 180.96 7.06C180.99 6.96 181.01 6.87 181.04 6.77C181.06 6.68 181.09 6.6 181.13 6.51C181.16 6.42 181.2 6.34 181.24 6.26C181.28 6.18 181.33 6.1 181.38 6.02C181.42 5.94 181.48 5.87 181.54 5.8C181.59 5.73 181.65 5.66 181.72 5.59C181.78 5.53 181.85 5.47 181.92 5.41C181.99 5.35 182.07 5.3 182.14 5.25C182.22 5.2 182.3 5.16 182.38 5.12C182.48 5.08 182.57 5.04 182.67 5.01C182.76 4.98 182.86 4.95 182.96 4.93C183.06 4.91 183.16 4.9 183.26 4.89C183.36 4.88 183.46 4.88 183.56 4.88C183.6 4.88 183.64 4.88 183.68 4.88C183.72 4.88 183.76 4.89 183.81 4.89C183.85 4.89 183.89 4.9 183.93 4.9C183.97 4.91 184.01 4.92 184.05 4.93C184.14 4.94 184.23 4.96 184.32 4.99C184.41 5.01 184.5 5.04 184.59 5.08C184.67 5.12 184.75 5.16 184.84 5.2C184.92 5.25 184.99 5.3 185.07 5.36C185.11 5.39 185.15 5.42 185.18 5.45C185.22 5.49 185.25 5.52 185.29 5.56C185.32 5.6 185.35 5.63 185.38 5.67C185.41 5.71 185.44 5.75 185.46 5.8L185.46 2.82L186.43 2.82L186.43 10.93L185.46 10.91ZM181.98 8.83C181.99 8.89 182.02 8.95 182.04 9.01C182.06 9.07 182.09 9.13 182.11 9.18C182.14 9.24 182.17 9.29 182.21 9.35C182.24 9.4 182.27 9.46 182.31 9.51C182.35 9.56 182.39 9.61 182.43 9.65C182.47 9.7 182.52 9.74 182.57 9.78C182.62 9.82 182.67 9.86 182.72 9.9C182.77 9.93 182.82 9.96 182.88 9.99C182.94 10.02 183.01 10.05 183.07 10.07C183.14 10.1 183.21 10.12 183.28 10.13C183.35 10.15 183.42 10.16 183.49 10.16C183.56 10.17 183.63 10.17 183.7 10.17C183.77 10.17 183.84 10.17 183.91 10.16C183.98 10.16 184.05 10.14 184.12 10.13C184.19 10.11 184.26 10.09 184.33 10.07C184.4 10.04 184.46 10.01 184.52 9.98C184.58 9.95 184.63 9.92 184.69 9.88C184.74 9.84 184.79 9.8 184.83 9.76C184.88 9.72 184.92 9.67 184.97 9.62C185.01 9.58 185.05 9.53 185.08 9.47C185.12 9.42 185.15 9.37 185.18 9.32C185.21 9.26 185.24 9.21 185.27 9.15C185.3 9.09 185.32 9.04 185.34 8.98C185.36 8.92 185.38 8.86 185.39 8.8C185.41 8.73 185.43 8.66 185.44 8.6C185.45 8.53 185.46 8.46 185.47 8.4C185.48 8.33 185.49 8.26 185.49 8.19C185.49 8.12 185.5 8.05 185.5 7.99C185.5 7.92 185.49 7.85 185.49 7.78C185.49 7.71 185.48 7.64 185.47 7.57C185.46 7.5 185.45 7.43 185.44 7.36C185.43 7.29 185.41 7.22 185.39 7.16C185.38 7.09 185.36 7.03 185.34 6.97C185.31 6.91 185.29 6.85 185.26 6.79C185.23 6.73 185.2 6.67 185.17 6.61C185.14 6.56 185.11 6.5 185.07 6.45C185.03 6.39 184.99 6.35 184.95 6.3C184.9 6.25 184.86 6.21 184.81 6.17C184.76 6.13 184.71 6.09 184.65 6.05C184.6 6.02 184.55 5.98 184.49 5.95C184.42 5.92 184.36 5.89 184.29 5.87C184.22 5.85 184.15 5.83 184.07 5.81C184 5.8 183.93 5.78 183.86 5.78C183.78 5.77 183.71 5.77 183.63 5.77C183.56 5.77 183.49 5.77 183.42 5.78C183.35 5.78 183.28 5.79 183.21 5.81C183.14 5.83 183.07 5.85 183 5.87C182.93 5.9 182.87 5.93 182.81 5.96C182.75 5.99 182.7 6.02 182.64 6.06C182.59 6.1 182.54 6.14 182.5 6.18C182.45 6.22 182.41 6.27 182.37 6.32C182.33 6.37 182.29 6.42 182.26 6.47C182.22 6.53 182.19 6.59 182.16 6.64C182.13 6.7 182.1 6.76 182.08 6.82C182.05 6.88 182.03 6.94 182.01 7.01C181.99 7.07 181.98 7.13 181.96 7.2C181.95 7.26 181.93 7.33 181.92 7.4C181.91 7.47 181.9 7.54 181.89 7.61C181.88 7.68 181.88 7.75 181.87 7.82C181.87 7.89 181.87 7.96 181.87 8.03C181.87 8.1 181.87 8.17 181.87 8.23C181.87 8.3 181.88 8.37 181.89 8.44C181.89 8.5 181.9 8.57 181.92 8.63C181.93 8.7 181.94 8.77 181.96 8.83L181.98 8.83Z" />
			<path id="Layer" class="shp0" d="M188.64 9.6C188.66 9.64 188.69 9.67 188.71 9.71C188.74 9.74 188.77 9.77 188.8 9.8C188.83 9.83 188.86 9.86 188.89 9.88C188.93 9.91 188.96 9.93 189 9.95C189.04 9.98 189.08 10 189.12 10.02C189.16 10.04 189.2 10.05 189.24 10.07C189.28 10.09 189.32 10.1 189.37 10.11C189.41 10.12 189.45 10.13 189.5 10.14C189.54 10.15 189.59 10.16 189.64 10.17C189.69 10.17 189.74 10.18 189.78 10.18C189.83 10.19 189.88 10.19 189.93 10.19C189.98 10.2 190.03 10.2 190.07 10.2C190.12 10.2 190.16 10.2 190.2 10.19C190.24 10.19 190.28 10.19 190.32 10.19C190.36 10.19 190.4 10.18 190.44 10.18C190.48 10.17 190.52 10.17 190.56 10.16C190.6 10.16 190.64 10.15 190.68 10.14C190.71 10.14 190.75 10.13 190.79 10.12C190.83 10.11 190.87 10.1 190.91 10.08C190.94 10.07 190.98 10.06 191.02 10.04C191.05 10.03 191.09 10.01 191.12 9.99C191.15 9.97 191.18 9.95 191.21 9.93C191.24 9.91 191.26 9.88 191.29 9.86C191.32 9.83 191.34 9.81 191.37 9.78C191.39 9.74 191.41 9.71 191.43 9.67C191.44 9.64 191.46 9.6 191.47 9.56C191.48 9.52 191.49 9.48 191.5 9.44C191.5 9.4 191.5 9.36 191.5 9.32C191.5 9.27 191.5 9.21 191.49 9.16C191.47 9.11 191.45 9.05 191.43 9.01C191.41 8.96 191.37 8.91 191.34 8.87C191.3 8.83 191.26 8.79 191.22 8.76C191.16 8.72 191.1 8.69 191.05 8.66C190.99 8.63 190.93 8.6 190.87 8.58C190.81 8.55 190.75 8.53 190.69 8.5C190.63 8.48 190.57 8.46 190.5 8.45C190.22 8.37 189.91 8.3 189.57 8.24C189.49 8.22 189.41 8.2 189.34 8.18C189.26 8.17 189.18 8.14 189.1 8.12C189.03 8.1 188.95 8.07 188.87 8.05C188.8 8.02 188.72 7.99 188.65 7.96C188.58 7.93 188.51 7.9 188.45 7.87C188.38 7.83 188.32 7.8 188.26 7.76C188.2 7.71 188.14 7.67 188.09 7.62C188.04 7.57 187.98 7.52 187.93 7.47C187.88 7.4 187.84 7.34 187.8 7.27C187.76 7.2 187.73 7.13 187.71 7.05C187.68 6.97 187.67 6.9 187.66 6.82C187.65 6.74 187.64 6.66 187.65 6.58C187.65 6.52 187.65 6.45 187.66 6.38C187.67 6.32 187.68 6.25 187.7 6.19C187.71 6.13 187.73 6.06 187.76 6C187.78 5.94 187.81 5.88 187.85 5.82C187.88 5.77 187.91 5.72 187.95 5.67C187.99 5.63 188.03 5.58 188.08 5.54C188.12 5.5 188.16 5.45 188.21 5.42C188.26 5.38 188.31 5.34 188.36 5.31C188.41 5.28 188.47 5.25 188.52 5.22C188.58 5.19 188.63 5.16 188.69 5.14C188.75 5.11 188.81 5.09 188.86 5.07C188.92 5.05 188.98 5.03 189.04 5.01C189.11 5 189.17 4.98 189.24 4.97C189.3 4.96 189.36 4.95 189.43 4.94C189.5 4.94 189.56 4.93 189.63 4.93C189.69 4.92 189.76 4.92 189.82 4.92C189.9 4.92 189.98 4.92 190.05 4.92C190.13 4.93 190.21 4.93 190.28 4.94C190.36 4.95 190.44 4.95 190.51 4.97C190.59 4.98 190.67 4.99 190.74 5.01C190.81 5.02 190.87 5.03 190.94 5.05C191 5.07 191.07 5.09 191.13 5.12C191.19 5.14 191.25 5.17 191.31 5.2C191.37 5.23 191.43 5.26 191.49 5.3C191.54 5.33 191.59 5.37 191.64 5.41C191.69 5.46 191.74 5.5 191.79 5.55C191.83 5.6 191.87 5.65 191.91 5.7C191.95 5.75 191.98 5.81 192.01 5.86C192.05 5.93 192.08 6 192.11 6.08C192.14 6.15 192.16 6.22 192.18 6.3C192.2 6.37 192.22 6.45 192.23 6.53C192.24 6.6 192.25 6.68 192.26 6.76L191.29 6.76C191.29 6.72 191.28 6.67 191.27 6.63C191.27 6.59 191.26 6.55 191.24 6.51C191.23 6.47 191.22 6.43 191.2 6.39C191.18 6.36 191.16 6.32 191.14 6.28C191.12 6.25 191.1 6.22 191.07 6.2C191.05 6.17 191.03 6.14 191 6.12C190.97 6.09 190.94 6.07 190.91 6.05C190.88 6.02 190.85 6 190.82 5.99C190.79 5.97 190.76 5.95 190.72 5.93C190.69 5.91 190.65 5.9 190.62 5.88C190.58 5.87 190.54 5.86 190.51 5.85C190.47 5.83 190.43 5.83 190.39 5.82C190.35 5.81 190.32 5.8 190.28 5.8C190.24 5.79 190.2 5.79 190.16 5.78C190.12 5.78 190.08 5.77 190.04 5.77C190 5.77 189.96 5.77 189.92 5.77C189.88 5.77 189.85 5.77 189.81 5.77C189.77 5.77 189.74 5.77 189.7 5.78C189.66 5.78 189.63 5.78 189.59 5.79C189.56 5.79 189.52 5.8 189.48 5.8C189.45 5.81 189.41 5.81 189.38 5.82C189.34 5.83 189.31 5.84 189.28 5.85C189.24 5.86 189.21 5.87 189.17 5.88C189.14 5.89 189.11 5.9 189.08 5.92C189.05 5.93 189.02 5.95 188.99 5.96C188.97 5.98 188.94 6 188.92 6.02C188.89 6.04 188.87 6.06 188.85 6.08C188.82 6.1 188.8 6.12 188.78 6.15C188.76 6.17 188.75 6.2 188.73 6.23C188.72 6.26 188.7 6.29 188.69 6.32C188.68 6.35 188.68 6.38 188.67 6.42C188.67 6.45 188.67 6.48 188.67 6.51C188.67 6.55 188.67 6.59 188.68 6.63C188.69 6.67 188.7 6.71 188.71 6.74C188.73 6.78 188.75 6.81 188.77 6.84C188.79 6.88 188.82 6.91 188.85 6.93C188.88 6.96 188.91 6.99 188.95 7.02C188.98 7.04 189.02 7.07 189.06 7.09C189.09 7.11 189.13 7.13 189.17 7.15C189.21 7.17 189.25 7.19 189.29 7.2C189.34 7.22 189.39 7.24 189.45 7.26C189.5 7.27 189.55 7.29 189.6 7.31C189.65 7.32 189.7 7.34 189.75 7.35C189.81 7.36 189.86 7.37 189.91 7.39L190.59 7.53C190.84 7.59 191.07 7.66 191.3 7.73C191.36 7.75 191.41 7.77 191.47 7.79C191.52 7.81 191.57 7.83 191.62 7.86C191.68 7.88 191.73 7.91 191.78 7.94C191.83 7.97 191.87 8 191.92 8.03C191.97 8.06 192.01 8.09 192.05 8.13C192.09 8.16 192.13 8.2 192.16 8.24C192.2 8.28 192.23 8.32 192.26 8.37C192.29 8.41 192.32 8.45 192.35 8.5C192.38 8.55 192.4 8.6 192.43 8.66C192.45 8.71 192.47 8.77 192.48 8.83C192.49 8.88 192.5 8.94 192.51 9C192.52 9.06 192.52 9.12 192.52 9.18C192.52 9.25 192.52 9.33 192.51 9.41C192.5 9.48 192.49 9.56 192.47 9.63C192.45 9.71 192.43 9.78 192.4 9.85C192.37 9.92 192.34 9.99 192.3 10.06C192.26 10.12 192.22 10.17 192.18 10.23C192.13 10.28 192.09 10.33 192.04 10.38C191.99 10.42 191.94 10.47 191.89 10.51C191.83 10.55 191.78 10.59 191.72 10.63C191.66 10.67 191.59 10.7 191.53 10.73C191.46 10.76 191.39 10.79 191.32 10.81C191.26 10.84 191.19 10.86 191.12 10.88C191.05 10.9 190.98 10.91 190.9 10.93C190.83 10.94 190.76 10.95 190.68 10.96C190.61 10.97 190.53 10.98 190.46 10.99C190.39 11 190.31 11 190.24 11.01C190.16 11.01 190.09 11.01 190.01 11.01C189.93 11.01 189.86 11.01 189.78 11.01C189.7 11 189.62 11 189.54 10.99C189.46 10.98 189.39 10.97 189.31 10.96C189.23 10.94 189.15 10.93 189.08 10.91C189.01 10.9 188.94 10.88 188.87 10.85C188.8 10.83 188.74 10.81 188.67 10.78C188.6 10.75 188.54 10.72 188.48 10.68C188.42 10.65 188.35 10.61 188.29 10.57C188.24 10.54 188.18 10.49 188.13 10.45C188.08 10.4 188.03 10.35 187.98 10.3C187.93 10.25 187.89 10.19 187.85 10.14C187.81 10.08 187.78 10.02 187.74 9.96C187.71 9.89 187.68 9.82 187.65 9.74C187.62 9.67 187.6 9.59 187.58 9.51C187.56 9.44 187.54 9.36 187.53 9.28C187.52 9.2 187.52 9.12 187.51 9.04L188.49 9.04C188.48 9.09 188.49 9.14 188.49 9.19C188.5 9.24 188.51 9.28 188.52 9.33C188.54 9.38 188.55 9.43 188.57 9.47C188.59 9.52 188.61 9.56 188.64 9.6L188.64 9.6Z" />
			<path id="Layer" class="shp0" d="M194.57 2.82L194.57 5.92L194.57 5.92C194.58 5.88 194.6 5.83 194.62 5.79C194.65 5.75 194.67 5.71 194.7 5.67C194.73 5.63 194.75 5.6 194.79 5.56C194.82 5.52 194.85 5.49 194.88 5.46C194.92 5.43 194.95 5.4 194.99 5.37C195.03 5.34 195.06 5.31 195.1 5.29C195.14 5.26 195.18 5.24 195.22 5.21C195.26 5.19 195.3 5.17 195.35 5.15C195.39 5.13 195.43 5.11 195.48 5.1C195.52 5.08 195.57 5.06 195.61 5.05C195.66 5.03 195.7 5.02 195.75 5.01C195.79 4.99 195.84 4.98 195.88 4.97C195.93 4.96 195.97 4.96 196.02 4.95C196.06 4.94 196.11 4.94 196.15 4.93C196.2 4.93 196.24 4.93 196.29 4.92C196.34 4.92 196.38 4.92 196.43 4.92C196.51 4.92 196.59 4.92 196.67 4.92C196.75 4.93 196.84 4.94 196.92 4.95C197 4.96 197.08 4.98 197.16 5C197.24 5.02 197.31 5.05 197.39 5.07C197.45 5.1 197.51 5.13 197.57 5.16C197.62 5.19 197.68 5.22 197.73 5.26C197.78 5.3 197.83 5.34 197.88 5.38C197.93 5.42 197.97 5.47 198.02 5.52C198.06 5.57 198.1 5.62 198.13 5.67C198.17 5.73 198.2 5.78 198.23 5.84C198.25 5.9 198.28 5.95 198.3 6.01C198.32 6.07 198.34 6.13 198.36 6.2C198.37 6.27 198.39 6.34 198.4 6.41C198.41 6.48 198.42 6.55 198.43 6.63C198.44 6.7 198.44 6.77 198.45 6.84C198.45 6.92 198.45 6.99 198.45 7.06L198.45 10.91L197.49 10.91L197.49 6.95C197.49 6.87 197.49 6.79 197.48 6.71C197.47 6.63 197.45 6.56 197.43 6.48C197.4 6.41 197.37 6.34 197.33 6.27C197.29 6.2 197.24 6.14 197.19 6.08C197.13 6.03 197.07 5.98 197 5.94C196.93 5.9 196.86 5.87 196.79 5.84C196.72 5.81 196.64 5.79 196.56 5.78C196.49 5.77 196.41 5.77 196.33 5.77C196.27 5.77 196.2 5.77 196.13 5.77C196.07 5.78 196 5.79 195.94 5.8C195.87 5.81 195.81 5.82 195.74 5.84C195.68 5.86 195.62 5.88 195.56 5.91C195.51 5.93 195.45 5.95 195.41 5.98C195.36 6 195.31 6.03 195.26 6.06C195.22 6.1 195.18 6.13 195.14 6.17C195.09 6.21 195.06 6.25 195.02 6.29C194.98 6.33 194.95 6.38 194.92 6.42C194.88 6.47 194.85 6.52 194.83 6.56C194.8 6.61 194.77 6.66 194.75 6.71C194.73 6.77 194.71 6.82 194.69 6.87C194.68 6.93 194.66 6.99 194.64 7.05C194.63 7.11 194.62 7.17 194.61 7.23C194.6 7.29 194.59 7.35 194.59 7.42C194.59 7.48 194.58 7.54 194.59 7.6L194.59 10.91L193.61 10.91L193.61 2.8L194.57 2.82Z" />
			<path id="Layer" class="shp0" d="M199.99 4L199.99 2.82L200.96 2.82L200.96 4L199.99 4ZM200.96 5.05L200.96 10.91L199.99 10.91L199.99 5.05L200.96 5.05Z" />
			<path id="Layer" class="shp0" d="M203.34 5.05L203.34 6.29L203.34 6.29C203.38 6.19 203.44 6.08 203.5 5.99C203.56 5.89 203.62 5.79 203.69 5.71C203.77 5.62 203.85 5.53 203.93 5.45C204.01 5.38 204.1 5.3 204.2 5.24C204.29 5.18 204.4 5.13 204.5 5.08C204.6 5.04 204.71 5 204.82 4.98C204.93 4.95 205.04 4.93 205.16 4.92C205.27 4.91 205.38 4.91 205.5 4.92L205.5 5.94C205.41 5.94 205.33 5.94 205.24 5.95C205.16 5.95 205.08 5.96 204.99 5.97C204.91 5.99 204.83 6 204.75 6.02C204.66 6.04 204.58 6.07 204.5 6.09C204.44 6.12 204.37 6.15 204.31 6.18C204.25 6.21 204.19 6.24 204.13 6.28C204.08 6.32 204.02 6.37 203.97 6.41C203.92 6.46 203.87 6.51 203.82 6.56C203.78 6.62 203.74 6.67 203.71 6.73C203.67 6.79 203.64 6.85 203.6 6.91C203.57 6.98 203.55 7.04 203.52 7.1C203.5 7.17 203.48 7.24 203.46 7.3C203.44 7.39 203.43 7.47 203.41 7.55C203.4 7.63 203.38 7.72 203.37 7.8C203.36 7.88 203.36 7.97 203.35 8.05C203.35 8.14 203.35 8.22 203.35 8.3L203.35 10.91L202.45 10.91L202.45 5.05L203.34 5.05Z" />
			<path id="Layer" fill-rule="evenodd" class="shp0" d="M210.22 10.54C210.1 10.63 209.97 10.7 209.84 10.77C209.71 10.83 209.57 10.89 209.43 10.93C209.29 10.97 209.14 11 208.99 11.02C208.85 11.04 208.7 11.05 208.55 11.04C208.45 11.04 208.34 11.04 208.24 11.03C208.14 11.02 208.03 11.01 207.93 10.99C207.83 10.97 207.73 10.94 207.63 10.91C207.53 10.89 207.43 10.85 207.33 10.81C207.25 10.78 207.17 10.73 207.09 10.69C207.01 10.64 206.93 10.6 206.86 10.54C206.79 10.49 206.72 10.43 206.65 10.37C206.58 10.31 206.52 10.24 206.46 10.18C206.4 10.11 206.34 10.03 206.29 9.96C206.24 9.88 206.19 9.8 206.14 9.72C206.1 9.64 206.06 9.55 206.02 9.47C205.99 9.38 205.96 9.29 205.93 9.2C205.9 9.1 205.87 9 205.85 8.9C205.83 8.8 205.81 8.69 205.79 8.59C205.77 8.49 205.76 8.38 205.75 8.28C205.74 8.18 205.74 8.07 205.73 7.97C205.73 7.86 205.74 7.76 205.74 7.65C205.75 7.55 205.76 7.45 205.78 7.35C205.8 7.24 205.82 7.14 205.85 7.04C205.87 6.94 205.9 6.84 205.94 6.74C205.97 6.65 206.01 6.57 206.05 6.48C206.09 6.4 206.13 6.31 206.18 6.23C206.23 6.15 206.29 6.07 206.34 6C206.4 5.92 206.46 5.85 206.52 5.78C206.58 5.71 206.65 5.65 206.72 5.59C206.79 5.53 206.86 5.47 206.93 5.42C207.01 5.36 207.08 5.31 207.16 5.27C207.24 5.22 207.32 5.18 207.4 5.14C207.49 5.1 207.58 5.07 207.67 5.04C207.76 5.01 207.85 4.99 207.95 4.97C208.04 4.95 208.13 4.94 208.23 4.93C208.32 4.92 208.42 4.92 208.51 4.92C208.63 4.91 208.74 4.92 208.85 4.93C208.97 4.94 209.08 4.96 209.19 4.99C209.3 5.02 209.41 5.05 209.51 5.09C209.62 5.14 209.72 5.19 209.82 5.24C209.9 5.3 209.98 5.35 210.06 5.42C210.13 5.48 210.21 5.55 210.28 5.62C210.34 5.69 210.41 5.76 210.47 5.84C210.53 5.92 210.59 6 210.64 6.08C210.69 6.16 210.74 6.25 210.78 6.34C210.83 6.43 210.87 6.51 210.9 6.61C210.94 6.7 210.97 6.79 211 6.88C211.02 6.98 211.05 7.07 211.07 7.17C211.09 7.26 211.1 7.35 211.12 7.45C211.13 7.54 211.14 7.63 211.15 7.73C211.16 7.82 211.17 7.91 211.17 8.01C211.17 8.1 211.17 8.2 211.17 8.29L206.75 8.29C206.75 8.35 206.75 8.41 206.76 8.48C206.76 8.54 206.76 8.6 206.77 8.66C206.78 8.72 206.79 8.79 206.8 8.85C206.82 8.91 206.83 8.97 206.85 9.03C206.86 9.08 206.88 9.14 206.9 9.19C206.93 9.25 206.95 9.3 206.98 9.35C207.01 9.4 207.04 9.45 207.07 9.5C207.11 9.55 207.14 9.59 207.18 9.64C207.22 9.68 207.26 9.72 207.31 9.76C207.35 9.81 207.4 9.84 207.45 9.88C207.49 9.92 207.54 9.95 207.6 9.98C207.65 10.01 207.7 10.04 207.76 10.06C207.82 10.09 207.89 10.11 207.96 10.13C208.03 10.15 208.1 10.17 208.17 10.18C208.24 10.2 208.31 10.21 208.38 10.21C208.45 10.22 208.52 10.22 208.59 10.22C208.68 10.22 208.77 10.22 208.86 10.21C208.95 10.2 209.03 10.18 209.12 10.16C209.2 10.13 209.29 10.1 209.37 10.07C209.45 10.03 209.53 9.99 209.6 9.94C209.67 9.89 209.73 9.83 209.79 9.76C209.85 9.7 209.9 9.63 209.94 9.56C209.99 9.48 210.02 9.4 210.05 9.32C210.08 9.24 210.1 9.16 210.12 9.07L211.07 9.07C211.05 9.22 211.01 9.36 210.97 9.49C210.92 9.63 210.86 9.76 210.78 9.89C210.71 10.01 210.63 10.13 210.53 10.24C210.44 10.35 210.33 10.45 210.22 10.54ZM209.92 6.61C209.89 6.57 209.86 6.52 209.84 6.48C209.81 6.43 209.77 6.39 209.74 6.35C209.71 6.31 209.67 6.27 209.63 6.23C209.6 6.19 209.56 6.16 209.52 6.12C209.47 6.09 209.43 6.06 209.39 6.03C209.34 6 209.3 5.97 209.25 5.95C209.21 5.92 209.16 5.9 209.11 5.88C209.06 5.86 209 5.84 208.95 5.82C208.89 5.8 208.83 5.79 208.78 5.78C208.72 5.77 208.66 5.76 208.6 5.76C208.55 5.75 208.49 5.75 208.43 5.75C208.37 5.75 208.31 5.75 208.26 5.76C208.2 5.76 208.14 5.77 208.08 5.78C208.03 5.79 207.97 5.8 207.92 5.82C207.86 5.84 207.8 5.86 207.75 5.88C207.7 5.9 207.65 5.92 207.61 5.95C207.56 5.97 207.52 6 207.47 6.03C207.43 6.06 207.39 6.09 207.35 6.13C207.31 6.16 207.27 6.2 207.24 6.24C207.2 6.27 207.16 6.31 207.13 6.36C207.1 6.4 207.07 6.44 207.04 6.48C207.01 6.53 206.98 6.57 206.96 6.62C206.93 6.67 206.91 6.71 206.89 6.76C206.87 6.82 206.85 6.87 206.83 6.93C206.81 6.98 206.8 7.04 206.79 7.1C206.77 7.15 206.76 7.21 206.76 7.27C206.75 7.32 206.74 7.38 206.74 7.44L210.14 7.44C210.13 7.38 210.13 7.32 210.12 7.26C210.11 7.21 210.1 7.15 210.09 7.09C210.08 7.03 210.06 6.98 210.05 6.92C210.03 6.87 210.01 6.81 209.99 6.76C209.97 6.71 209.94 6.66 209.92 6.61Z" />
			<path id="Layer" class="shp0" d="M147.2 13.95L147.2 22.05L146.12 22.05L146.12 13.95L147.2 13.95Z" />
			<path id="Layer" class="shp0" d="M149.78 16.18L149.78 17.11L149.78 17.11C149.87 16.94 149.98 16.78 150.12 16.65C150.25 16.51 150.41 16.39 150.57 16.3C150.74 16.2 150.92 16.13 151.11 16.09C151.3 16.05 151.49 16.03 151.68 16.04C151.77 16.04 151.85 16.04 151.93 16.05C152.01 16.05 152.1 16.06 152.18 16.07C152.26 16.09 152.34 16.11 152.42 16.13C152.5 16.15 152.58 16.17 152.66 16.2C152.72 16.23 152.78 16.25 152.83 16.28C152.89 16.31 152.94 16.35 153 16.38C153.05 16.42 153.1 16.46 153.15 16.5C153.2 16.55 153.24 16.59 153.28 16.64C153.32 16.69 153.36 16.74 153.4 16.79C153.43 16.85 153.46 16.9 153.49 16.96C153.52 17.02 153.54 17.08 153.57 17.13C153.59 17.19 153.61 17.26 153.62 17.32C153.64 17.39 153.65 17.46 153.66 17.53C153.68 17.6 153.69 17.68 153.69 17.75C153.7 17.82 153.71 17.89 153.71 17.96C153.71 18.04 153.72 18.11 153.72 18.18L153.72 22.03L152.74 22.03L152.74 18.07C152.76 17.91 152.73 17.75 152.68 17.61C152.63 17.46 152.54 17.33 152.43 17.21C152.32 17.1 152.19 17.02 152.04 16.96C151.89 16.91 151.73 16.88 151.58 16.89C151.51 16.89 151.45 16.89 151.38 16.9C151.31 16.9 151.25 16.91 151.19 16.92C151.12 16.93 151.06 16.95 150.99 16.97C150.93 16.98 150.87 17 150.81 17.03C150.76 17.05 150.71 17.07 150.66 17.1C150.61 17.13 150.56 17.15 150.51 17.19C150.47 17.22 150.42 17.25 150.38 17.29C150.34 17.33 150.3 17.37 150.26 17.41C150.23 17.45 150.19 17.5 150.16 17.54C150.13 17.59 150.1 17.64 150.08 17.69C150.05 17.74 150.02 17.79 150 17.84C149.98 17.89 149.96 17.94 149.95 17.99C149.93 18.05 149.91 18.11 149.9 18.17C149.88 18.23 149.87 18.3 149.86 18.36C149.85 18.42 149.85 18.48 149.84 18.54C149.84 18.61 149.84 18.67 149.84 18.73L149.84 22.03L148.87 22.03L148.87 16.18L149.78 16.18Z" />
			<path id="Layer" class="shp0" d="M157.72 16.18L157.72 17.03L156.54 17.03L156.54 20.66C156.54 20.69 156.54 20.71 156.54 20.73C156.53 20.75 156.53 20.78 156.53 20.8C156.53 20.82 156.53 20.85 156.54 20.87C156.54 20.89 156.54 20.92 156.54 20.94C156.55 20.95 156.55 20.97 156.56 20.99C156.56 21 156.57 21.01 156.58 21.03C156.59 21.04 156.6 21.05 156.61 21.06C156.62 21.08 156.64 21.09 156.65 21.09C156.67 21.11 156.68 21.12 156.7 21.12C156.72 21.13 156.74 21.14 156.75 21.15C156.77 21.15 156.79 21.16 156.81 21.16C156.83 21.17 156.85 21.17 156.87 21.17C156.9 21.17 156.93 21.17 156.96 21.17C156.99 21.17 157.02 21.17 157.06 21.17C157.09 21.17 157.12 21.17 157.15 21.17C157.18 21.17 157.21 21.17 157.24 21.17L157.68 21.17L157.68 22.02L156.94 22.02C156.89 22.02 156.83 22.02 156.78 22.02C156.73 22.02 156.67 22.02 156.62 22.01C156.57 22.01 156.51 22 156.46 22C156.4 21.99 156.35 21.98 156.3 21.97C156.26 21.97 156.22 21.96 156.18 21.95C156.14 21.93 156.11 21.92 156.07 21.9C156.04 21.89 156 21.87 155.97 21.85C155.93 21.83 155.9 21.81 155.87 21.78C155.84 21.76 155.81 21.73 155.79 21.7C155.76 21.67 155.74 21.64 155.72 21.61C155.7 21.58 155.68 21.54 155.66 21.51C155.65 21.47 155.63 21.44 155.63 21.4C155.61 21.34 155.6 21.29 155.58 21.23C155.57 21.18 155.56 21.12 155.56 21.06C155.55 21.01 155.55 20.95 155.54 20.89C155.54 20.84 155.54 20.78 155.54 20.72L155.54 17.03L154.54 17.03L154.54 16.18L155.57 16.18L155.57 14.42L156.54 14.42L156.54 16.18L157.72 16.18Z" />
			<path id="Layer" fill-rule="evenodd" class="shp0" d="M162.58 21.89C162.45 21.95 162.31 22.01 162.17 22.05C162.03 22.09 161.89 22.12 161.74 22.14C161.59 22.16 161.45 22.17 161.3 22.16C161.19 22.16 161.09 22.16 160.98 22.15C160.88 22.14 160.78 22.13 160.67 22.11C160.57 22.09 160.47 22.07 160.37 22.04C160.27 22.01 160.17 21.97 160.07 21.93C159.99 21.9 159.91 21.86 159.83 21.81C159.75 21.77 159.67 21.72 159.6 21.66C159.53 21.61 159.46 21.55 159.39 21.49C159.32 21.43 159.26 21.37 159.2 21.3C159.14 21.23 159.08 21.15 159.03 21.07C158.98 21 158.93 20.92 158.88 20.84C158.84 20.76 158.8 20.67 158.76 20.59C158.73 20.5 158.7 20.41 158.67 20.32C158.64 20.22 158.61 20.12 158.59 20.02C158.57 19.92 158.55 19.82 158.53 19.71C158.51 19.61 158.5 19.51 158.49 19.4C158.48 19.3 158.47 19.19 158.47 19.09C158.47 18.98 158.47 18.88 158.48 18.78C158.49 18.67 158.5 18.57 158.52 18.47C158.54 18.36 158.56 18.26 158.58 18.16C158.61 18.06 158.64 17.96 158.68 17.86C158.71 17.78 158.74 17.69 158.78 17.6C158.82 17.52 158.87 17.43 158.92 17.35C158.96 17.27 159.02 17.19 159.07 17.12C159.13 17.04 159.19 16.97 159.25 16.9C159.31 16.83 159.38 16.77 159.45 16.71C159.51 16.65 159.58 16.59 159.66 16.54C159.73 16.48 159.81 16.44 159.89 16.39C159.96 16.35 160.05 16.31 160.13 16.27C160.22 16.23 160.3 16.2 160.39 16.17C160.49 16.14 160.58 16.11 160.67 16.09C160.76 16.08 160.86 16.06 160.95 16.05C161.05 16.04 161.14 16.04 161.24 16.04C161.35 16.04 161.46 16.04 161.58 16.05C161.69 16.06 161.8 16.08 161.92 16.11C162.03 16.14 162.13 16.17 162.24 16.22C162.35 16.26 162.45 16.31 162.55 16.36C162.63 16.42 162.71 16.47 162.79 16.53C162.86 16.59 162.94 16.66 163.01 16.73C163.08 16.8 163.14 16.87 163.2 16.94C163.27 17.02 163.32 17.1 163.38 17.18C163.43 17.27 163.48 17.35 163.52 17.44C163.57 17.53 163.61 17.62 163.64 17.71C163.68 17.8 163.71 17.89 163.74 17.98C163.77 18.08 163.79 18.17 163.81 18.27C163.83 18.36 163.85 18.46 163.86 18.55C163.87 18.64 163.88 18.73 163.89 18.83C163.9 18.92 163.9 19.02 163.91 19.11C163.91 19.2 163.91 19.3 163.91 19.39L159.5 19.39C159.49 19.45 159.5 19.52 159.5 19.58C159.5 19.64 159.51 19.7 159.51 19.76C159.52 19.83 159.53 19.89 159.54 19.95C159.55 20.01 159.57 20.07 159.59 20.13C159.62 20.24 159.66 20.35 159.72 20.46C159.78 20.56 159.85 20.66 159.93 20.75C160 20.83 160.09 20.91 160.19 20.98C160.28 21.05 160.39 21.11 160.5 21.16C160.56 21.19 160.63 21.22 160.7 21.24C160.77 21.26 160.83 21.27 160.9 21.29C160.98 21.3 161.05 21.31 161.12 21.32C161.19 21.32 161.26 21.33 161.33 21.32C161.42 21.33 161.51 21.32 161.6 21.31C161.68 21.3 161.77 21.29 161.86 21.26C161.94 21.24 162.03 21.21 162.11 21.17C162.19 21.13 162.26 21.09 162.34 21.04C162.41 20.99 162.47 20.93 162.53 20.86C162.58 20.8 162.64 20.73 162.68 20.66C162.72 20.58 162.76 20.51 162.79 20.42C162.82 20.34 162.85 20.26 162.86 20.18L163.81 20.18C163.79 20.32 163.76 20.46 163.71 20.6C163.66 20.74 163.6 20.87 163.53 21C163.46 21.13 163.37 21.25 163.28 21.36C163.18 21.47 163.08 21.57 162.96 21.66C162.84 21.75 162.71 21.82 162.58 21.89ZM162.66 17.75C162.63 17.71 162.6 17.66 162.57 17.62C162.54 17.57 162.51 17.53 162.48 17.49C162.44 17.45 162.41 17.41 162.37 17.37C162.33 17.33 162.29 17.3 162.25 17.26C162.21 17.23 162.17 17.2 162.13 17.17C162.08 17.14 162.04 17.11 161.99 17.09C161.94 17.06 161.9 17.04 161.85 17.02C161.79 17 161.74 16.98 161.68 16.96C161.63 16.94 161.57 16.93 161.52 16.92C161.46 16.91 161.4 16.9 161.34 16.9C161.28 16.89 161.23 16.89 161.17 16.89C161.11 16.89 161.05 16.89 160.99 16.9C160.94 16.9 160.88 16.91 160.82 16.92C160.77 16.93 160.71 16.95 160.65 16.96C160.6 16.98 160.54 17 160.49 17.02C160.39 17.06 160.3 17.12 160.22 17.18C160.13 17.24 160.05 17.3 159.98 17.38C159.91 17.46 159.84 17.54 159.79 17.63C159.73 17.71 159.68 17.81 159.65 17.91C159.62 17.96 159.61 18.01 159.59 18.06C159.57 18.11 159.56 18.17 159.54 18.22C159.53 18.27 159.52 18.33 159.51 18.38C159.51 18.44 159.5 18.49 159.5 18.55L162.89 18.55C162.89 18.49 162.88 18.44 162.87 18.38C162.86 18.32 162.85 18.27 162.84 18.22C162.82 18.16 162.81 18.11 162.79 18.05C162.77 18 162.75 17.95 162.72 17.9C162.7 17.85 162.68 17.8 162.66 17.75Z" />
			<path id="Layer" class="shp0" d="M165.76 16.18L165.76 17.41L165.76 17.41C165.81 17.31 165.86 17.21 165.92 17.11C165.98 17.01 166.05 16.92 166.12 16.83C166.2 16.74 166.28 16.66 166.36 16.58C166.44 16.5 166.53 16.43 166.62 16.36C166.72 16.3 166.82 16.25 166.93 16.2C167.03 16.16 167.14 16.12 167.25 16.1C167.36 16.07 167.47 16.05 167.59 16.04C167.7 16.03 167.81 16.03 167.93 16.04L167.93 17.06C167.84 17.06 167.76 17.06 167.68 17.07C167.59 17.07 167.51 17.08 167.43 17.09C167.34 17.11 167.26 17.12 167.18 17.14C167.1 17.16 167.02 17.19 166.94 17.22C166.87 17.24 166.81 17.27 166.74 17.3C166.68 17.33 166.62 17.37 166.57 17.4C166.51 17.44 166.45 17.49 166.4 17.53C166.35 17.58 166.3 17.63 166.26 17.68C166.21 17.74 166.17 17.79 166.14 17.85C166.1 17.91 166.07 17.97 166.04 18.03C166.01 18.1 165.98 18.16 165.96 18.23C165.93 18.29 165.91 18.36 165.9 18.43C165.88 18.51 165.86 18.59 165.84 18.67C165.83 18.76 165.82 18.84 165.81 18.92C165.8 19.01 165.79 19.09 165.79 19.17C165.78 19.26 165.78 19.34 165.78 19.43L165.78 22.03L164.81 22.03L164.81 16.18L165.76 16.18Z" />
			<path id="Layer" class="shp0" d="M169.84 16.18L169.84 17.11L169.84 17.11C169.93 16.94 170.04 16.78 170.18 16.65C170.31 16.51 170.47 16.39 170.64 16.3C170.8 16.2 170.98 16.13 171.17 16.09C171.36 16.05 171.55 16.03 171.75 16.04C171.83 16.04 171.91 16.04 171.99 16.05C172.08 16.05 172.16 16.06 172.24 16.07C172.32 16.09 172.4 16.11 172.48 16.13C172.56 16.15 172.64 16.17 172.72 16.2C172.78 16.23 172.84 16.25 172.89 16.28C172.95 16.31 173.01 16.35 173.06 16.38C173.11 16.42 173.16 16.46 173.21 16.5C173.26 16.55 173.3 16.59 173.34 16.64C173.38 16.69 173.42 16.74 173.46 16.79C173.49 16.85 173.52 16.9 173.55 16.96C173.58 17.02 173.61 17.08 173.63 17.13C173.65 17.19 173.67 17.26 173.68 17.32C173.7 17.39 173.71 17.46 173.72 17.53C173.74 17.6 173.75 17.68 173.75 17.75C173.76 17.82 173.77 17.89 173.77 17.96C173.78 18.04 173.78 18.11 173.78 18.18L173.78 22.03L172.81 22.03L172.81 18.07C172.82 17.91 172.8 17.75 172.74 17.6C172.68 17.45 172.6 17.32 172.48 17.21C172.37 17.09 172.24 17.01 172.09 16.95C171.94 16.9 171.78 16.88 171.62 16.89C171.55 16.89 171.49 16.89 171.42 16.9C171.36 16.9 171.29 16.91 171.23 16.92C171.16 16.93 171.1 16.95 171.04 16.97C170.97 16.98 170.91 17 170.85 17.03C170.8 17.05 170.75 17.07 170.7 17.1C170.65 17.13 170.6 17.15 170.55 17.19C170.51 17.22 170.46 17.25 170.42 17.29C170.38 17.33 170.34 17.37 170.31 17.41C170.27 17.45 170.24 17.5 170.2 17.54C170.17 17.59 170.14 17.64 170.12 17.69C170.09 17.74 170.06 17.79 170.04 17.84C170.02 17.89 170 17.94 169.99 17.99C169.97 18.05 169.95 18.11 169.94 18.17C169.92 18.23 169.91 18.3 169.9 18.36C169.89 18.42 169.89 18.48 169.88 18.54C169.88 18.61 169.88 18.67 169.88 18.73L169.88 22.03L168.91 22.03L168.91 16.18L169.84 16.18Z" />
			<path id="Layer" fill-rule="evenodd" class="shp0" d="M180.46 22.01C180.41 22.04 180.36 22.06 180.3 22.08C180.25 22.1 180.19 22.12 180.13 22.13C180.07 22.14 180.02 22.15 179.96 22.16C179.9 22.16 179.84 22.16 179.78 22.16C179.73 22.16 179.67 22.16 179.62 22.15C179.57 22.14 179.51 22.13 179.46 22.11C179.41 22.1 179.36 22.07 179.32 22.05C179.27 22.02 179.23 21.99 179.18 21.95C179.15 21.91 179.11 21.86 179.08 21.8C179.05 21.75 179.03 21.69 179.01 21.64C178.99 21.58 178.98 21.52 178.97 21.46C178.96 21.4 178.96 21.34 178.97 21.28C178.91 21.35 178.84 21.42 178.77 21.49C178.7 21.55 178.62 21.62 178.54 21.67C178.47 21.73 178.38 21.78 178.3 21.83C178.21 21.88 178.13 21.92 178.04 21.95C177.95 21.99 177.85 22.02 177.76 22.04C177.66 22.07 177.57 22.09 177.47 22.11C177.38 22.13 177.28 22.14 177.18 22.15C177.08 22.16 176.99 22.16 176.89 22.16C176.83 22.16 176.76 22.16 176.7 22.16C176.63 22.15 176.57 22.15 176.51 22.14C176.45 22.13 176.38 22.12 176.32 22.11C176.26 22.1 176.2 22.08 176.13 22.07C176.08 22.05 176.02 22.04 175.97 22.02C175.92 22 175.86 21.98 175.81 21.96C175.76 21.93 175.71 21.91 175.66 21.88C175.61 21.85 175.56 21.82 175.52 21.78C175.47 21.75 175.43 21.72 175.39 21.68C175.35 21.64 175.31 21.6 175.27 21.56C175.24 21.52 175.21 21.47 175.18 21.43C175.15 21.38 175.12 21.33 175.1 21.28C175.04 21.16 175 21.03 174.98 20.9C174.95 20.77 174.94 20.63 174.94 20.5C174.94 20.36 174.95 20.23 174.98 20.1C175 19.96 175.04 19.83 175.1 19.71C175.12 19.66 175.15 19.61 175.19 19.56C175.22 19.52 175.25 19.47 175.29 19.43C175.33 19.39 175.37 19.34 175.41 19.31C175.45 19.27 175.5 19.23 175.54 19.2C175.59 19.16 175.64 19.13 175.69 19.1C175.74 19.07 175.8 19.05 175.85 19.02C175.9 19 175.96 18.97 176.01 18.95C176.07 18.93 176.13 18.91 176.18 18.9C176.24 18.88 176.3 18.86 176.36 18.85C176.42 18.83 176.49 18.82 176.55 18.8C176.61 18.79 176.67 18.78 176.73 18.76C176.79 18.75 176.85 18.74 176.92 18.73C177.18 18.68 177.43 18.64 177.68 18.61C177.73 18.6 177.78 18.6 177.84 18.59C177.89 18.58 177.94 18.57 177.99 18.56C178.05 18.55 178.1 18.54 178.15 18.53C178.2 18.52 178.26 18.51 178.31 18.49C178.35 18.48 178.39 18.47 178.43 18.46C178.46 18.44 178.5 18.43 178.54 18.41C178.58 18.39 178.61 18.37 178.64 18.35C178.68 18.33 178.71 18.3 178.74 18.28C178.77 18.25 178.79 18.22 178.81 18.19C178.84 18.16 178.85 18.12 178.87 18.09C178.88 18.05 178.89 18.02 178.89 17.98C178.9 17.94 178.9 17.9 178.9 17.86C178.9 17.82 178.9 17.78 178.9 17.73C178.89 17.69 178.88 17.65 178.87 17.6C178.86 17.56 178.85 17.52 178.83 17.48C178.82 17.44 178.8 17.4 178.78 17.36C178.76 17.33 178.74 17.3 178.72 17.27C178.7 17.24 178.67 17.21 178.65 17.19C178.62 17.16 178.59 17.14 178.56 17.12C178.53 17.1 178.5 17.08 178.47 17.06C178.44 17.04 178.41 17.03 178.37 17.01C178.34 17 178.3 16.98 178.27 16.97C178.23 16.96 178.2 16.95 178.16 16.94C178.12 16.94 178.09 16.93 178.05 16.93C178.01 16.92 177.97 16.91 177.94 16.91C177.9 16.91 177.86 16.9 177.82 16.9C177.78 16.9 177.74 16.89 177.7 16.89C177.67 16.89 177.63 16.89 177.59 16.89C177.5 16.89 177.41 16.89 177.32 16.9C177.23 16.91 177.15 16.92 177.06 16.94C176.97 16.96 176.89 16.98 176.81 17.01C176.72 17.04 176.64 17.08 176.56 17.12C176.49 17.17 176.42 17.23 176.37 17.29C176.31 17.35 176.26 17.43 176.22 17.5C176.18 17.58 176.16 17.66 176.14 17.74C176.12 17.83 176.12 17.91 176.12 18L175.15 18C175.15 17.92 175.16 17.84 175.17 17.76C175.18 17.68 175.19 17.6 175.21 17.53C175.23 17.45 175.25 17.37 175.28 17.3C175.31 17.22 175.34 17.15 175.38 17.08C175.41 17.02 175.45 16.96 175.49 16.91C175.53 16.85 175.57 16.8 175.62 16.75C175.66 16.7 175.71 16.65 175.76 16.6C175.81 16.56 175.87 16.52 175.92 16.48C175.98 16.44 176.04 16.4 176.11 16.37C176.17 16.33 176.23 16.3 176.3 16.27C176.36 16.25 176.43 16.22 176.5 16.2C176.57 16.18 176.64 16.16 176.71 16.14C176.78 16.12 176.86 16.11 176.94 16.1C177.01 16.08 177.09 16.07 177.17 16.06C177.25 16.06 177.33 16.05 177.41 16.05C177.49 16.04 177.56 16.04 177.64 16.04C177.71 16.04 177.78 16.04 177.84 16.04C177.91 16.05 177.97 16.05 178.04 16.05C178.11 16.06 178.17 16.06 178.24 16.07C178.31 16.08 178.37 16.09 178.44 16.09C178.5 16.1 178.56 16.12 178.61 16.13C178.67 16.15 178.73 16.16 178.79 16.18C178.84 16.2 178.9 16.22 178.96 16.25C179.01 16.27 179.06 16.3 179.12 16.33C179.17 16.36 179.22 16.39 179.27 16.43C179.32 16.46 179.36 16.5 179.4 16.54C179.45 16.58 179.49 16.63 179.52 16.67C179.56 16.72 179.6 16.77 179.63 16.82C179.66 16.88 179.69 16.95 179.72 17.01C179.74 17.08 179.77 17.15 179.78 17.22C179.8 17.29 179.81 17.36 179.82 17.43C179.82 17.5 179.83 17.58 179.82 17.65L179.82 20.66C179.82 20.7 179.82 20.74 179.82 20.78C179.82 20.82 179.83 20.86 179.83 20.9C179.83 20.94 179.84 20.99 179.84 21.03C179.85 21.07 179.86 21.11 179.86 21.15C179.89 21.26 179.98 21.31 180.13 21.31C180.15 21.31 180.18 21.31 180.2 21.31C180.23 21.3 180.26 21.3 180.28 21.3C180.31 21.29 180.33 21.29 180.35 21.28C180.38 21.28 180.4 21.27 180.43 21.26L180.46 22.01ZM178.89 19.01C178.85 19.03 178.81 19.06 178.78 19.08C178.74 19.1 178.7 19.12 178.66 19.14C178.62 19.15 178.58 19.17 178.54 19.18C178.5 19.19 178.45 19.2 178.41 19.21C178.21 19.25 178 19.28 177.79 19.31L177.11 19.4C177.06 19.41 177 19.42 176.95 19.43C176.9 19.44 176.85 19.45 176.81 19.46C176.76 19.48 176.71 19.49 176.66 19.51C176.61 19.52 176.56 19.54 176.51 19.56C176.47 19.58 176.43 19.6 176.39 19.62C176.35 19.64 176.32 19.67 176.28 19.69C176.24 19.72 176.21 19.75 176.18 19.78C176.14 19.82 176.11 19.85 176.09 19.89C176.06 19.93 176.03 19.97 176.01 20.01C175.99 20.06 175.97 20.11 175.96 20.16C175.94 20.2 175.93 20.25 175.93 20.3C175.92 20.35 175.92 20.4 175.92 20.45C175.92 20.49 175.92 20.52 175.93 20.56C175.93 20.59 175.94 20.63 175.94 20.66C175.95 20.69 175.96 20.73 175.97 20.76C175.99 20.79 176 20.82 176.02 20.85C176.03 20.88 176.05 20.9 176.07 20.93C176.09 20.95 176.11 20.98 176.13 21C176.15 21.02 176.17 21.05 176.2 21.07C176.22 21.09 176.24 21.1 176.27 21.12C176.3 21.14 176.33 21.16 176.35 21.17C176.38 21.19 176.41 21.2 176.44 21.21C176.47 21.22 176.5 21.23 176.54 21.24C176.57 21.25 176.6 21.26 176.63 21.26C176.67 21.27 176.7 21.28 176.74 21.29C176.77 21.29 176.81 21.3 176.84 21.3C176.88 21.3 176.91 21.31 176.95 21.31C176.99 21.31 177.02 21.31 177.06 21.31C177.13 21.31 177.2 21.31 177.27 21.31C177.34 21.3 177.41 21.29 177.48 21.28C177.54 21.27 177.61 21.26 177.68 21.24C177.75 21.22 177.81 21.2 177.88 21.18C177.93 21.16 177.98 21.14 178.03 21.12C178.08 21.1 178.13 21.07 178.18 21.04C178.22 21.02 178.27 20.99 178.31 20.95C178.36 20.92 178.4 20.89 178.44 20.85C178.47 20.82 178.5 20.79 178.54 20.76C178.57 20.73 178.59 20.69 178.62 20.66C178.65 20.62 178.67 20.58 178.7 20.55C178.72 20.51 178.74 20.47 178.76 20.43C178.77 20.39 178.79 20.36 178.8 20.32C178.81 20.29 178.82 20.25 178.83 20.21C178.84 20.18 178.85 20.14 178.85 20.1C178.86 20.07 178.86 20.03 178.86 19.99L178.89 19.01Z" />
			<path id="Layer" class="shp0" d="M183.88 16.18L183.88 17.03L182.7 17.03L182.7 20.66C182.7 20.69 182.7 20.71 182.7 20.73C182.7 20.75 182.7 20.78 182.7 20.8C182.7 20.82 182.7 20.85 182.7 20.87C182.7 20.89 182.7 20.92 182.7 20.94C182.71 20.95 182.71 20.97 182.72 20.98C182.73 21 182.74 21.01 182.74 21.03C182.75 21.04 182.76 21.05 182.78 21.06C182.79 21.07 182.8 21.09 182.81 21.09C182.83 21.11 182.85 21.11 182.86 21.12C182.88 21.13 182.9 21.14 182.92 21.15C182.94 21.15 182.96 21.16 182.98 21.16C183 21.16 183.02 21.17 183.04 21.17C183.07 21.17 183.1 21.17 183.13 21.17C183.16 21.17 183.19 21.17 183.22 21.17C183.25 21.17 183.28 21.17 183.31 21.17C183.34 21.17 183.37 21.17 183.4 21.17L183.85 21.17L183.85 22.02L183.11 22.02C183.06 22.02 183 22.02 182.95 22.02C182.9 22.02 182.84 22.02 182.79 22.01C182.73 22.01 182.68 22 182.63 22C182.57 21.99 182.52 21.98 182.47 21.97C182.43 21.97 182.39 21.96 182.35 21.95C182.31 21.93 182.27 21.92 182.24 21.9C182.2 21.89 182.17 21.87 182.13 21.85C182.1 21.83 182.06 21.81 182.03 21.78C182 21.76 181.97 21.73 181.95 21.7C181.92 21.67 181.9 21.64 181.88 21.61C181.86 21.58 181.84 21.54 181.83 21.51C181.81 21.47 181.8 21.44 181.79 21.4C181.77 21.34 181.76 21.29 181.75 21.23C181.74 21.18 181.73 21.12 181.72 21.06C181.72 21.01 181.71 20.95 181.71 20.89C181.71 20.84 181.71 20.78 181.71 20.72L181.71 17.03L180.71 17.03L180.71 16.18L181.71 16.18L181.71 14.42L182.68 14.42L182.68 16.18L183.88 16.18Z" />
			<path id="Layer" class="shp0" d="M185.01 15.12L185.01 13.95L185.97 13.95L185.97 15.12L185.01 15.12ZM185.97 16.18L185.97 22.03L185.01 22.03L185.01 16.18L185.97 16.18Z" />
			<path id="Layer" fill-rule="evenodd" class="shp0" d="M187.44 17.64C187.48 17.56 187.52 17.47 187.56 17.39C187.61 17.31 187.66 17.23 187.71 17.15C187.77 17.08 187.83 17 187.89 16.93C187.95 16.86 188.01 16.79 188.08 16.73C188.15 16.66 188.23 16.6 188.3 16.55C188.38 16.49 188.46 16.44 188.54 16.39C188.62 16.34 188.7 16.3 188.79 16.26C188.99 16.18 189.19 16.12 189.4 16.08C189.6 16.04 189.81 16.02 190.02 16.02C190.23 16.02 190.44 16.04 190.65 16.08C190.86 16.12 191.06 16.18 191.26 16.26C191.34 16.3 191.43 16.34 191.51 16.39C191.59 16.44 191.66 16.49 191.74 16.55C191.81 16.6 191.89 16.66 191.95 16.73C192.02 16.79 192.09 16.86 192.15 16.93C192.21 17 192.27 17.08 192.32 17.15C192.38 17.23 192.43 17.31 192.47 17.39C192.52 17.47 192.56 17.56 192.6 17.64C192.64 17.73 192.67 17.82 192.7 17.91C192.73 18 192.76 18.1 192.78 18.2C192.8 18.3 192.82 18.4 192.84 18.5C192.85 18.6 192.86 18.71 192.87 18.81C192.88 18.91 192.88 19.01 192.88 19.11C192.88 19.22 192.88 19.32 192.87 19.42C192.86 19.52 192.85 19.62 192.84 19.72C192.82 19.82 192.8 19.92 192.78 20.02C192.76 20.12 192.73 20.21 192.7 20.31C192.67 20.4 192.64 20.49 192.6 20.57C192.56 20.66 192.52 20.74 192.47 20.83C192.43 20.91 192.38 20.99 192.32 21.06C192.27 21.14 192.21 21.21 192.15 21.28C192.09 21.36 192.02 21.43 191.96 21.49C191.89 21.56 191.82 21.62 191.74 21.67C191.67 21.73 191.59 21.78 191.51 21.83C191.43 21.88 191.34 21.92 191.26 21.96C191.06 22.04 190.86 22.1 190.65 22.14C190.44 22.18 190.23 22.2 190.02 22.2C189.81 22.2 189.6 22.18 189.4 22.14C189.19 22.1 188.99 22.04 188.79 21.96C188.7 21.92 188.62 21.88 188.54 21.83C188.46 21.78 188.38 21.73 188.3 21.67C188.22 21.62 188.15 21.56 188.08 21.49C188.01 21.43 187.95 21.36 187.89 21.28C187.83 21.21 187.77 21.14 187.71 21.06C187.66 20.99 187.61 20.91 187.57 20.83C187.52 20.74 187.48 20.66 187.44 20.57C187.4 20.49 187.37 20.4 187.34 20.31C187.31 20.21 187.29 20.12 187.26 20.02C187.24 19.92 187.22 19.82 187.2 19.72C187.19 19.62 187.18 19.52 187.17 19.42C187.16 19.32 187.16 19.22 187.16 19.11C187.16 19.01 187.16 18.91 187.17 18.81C187.18 18.71 187.19 18.6 187.2 18.5C187.22 18.4 187.24 18.3 187.26 18.2C187.29 18.1 187.31 18 187.34 17.91C187.37 17.82 187.4 17.73 187.44 17.64ZM188.33 20.06C188.35 20.12 188.37 20.18 188.4 20.24C188.43 20.3 188.46 20.36 188.49 20.42C188.53 20.47 188.56 20.53 188.6 20.58C188.64 20.64 188.68 20.69 188.72 20.74C188.76 20.78 188.81 20.82 188.85 20.87C188.9 20.91 188.94 20.94 188.99 20.98C189.04 21.02 189.09 21.05 189.14 21.08C189.2 21.11 189.25 21.14 189.31 21.16C189.48 21.24 189.66 21.29 189.84 21.31C190.03 21.33 190.21 21.32 190.4 21.29C190.58 21.25 190.75 21.18 190.92 21.09C191.08 20.99 191.22 20.88 191.35 20.74C191.39 20.69 191.43 20.64 191.47 20.58C191.51 20.53 191.54 20.47 191.58 20.42C191.61 20.36 191.64 20.3 191.67 20.24C191.69 20.18 191.72 20.12 191.74 20.06C191.79 19.91 191.82 19.75 191.85 19.59C191.87 19.43 191.88 19.27 191.88 19.11C191.88 18.95 191.87 18.79 191.85 18.63C191.82 18.47 191.79 18.32 191.74 18.16C191.72 18.1 191.69 18.04 191.67 17.98C191.64 17.92 191.61 17.86 191.58 17.81C191.54 17.75 191.51 17.69 191.47 17.64C191.43 17.59 191.39 17.54 191.35 17.49C191.31 17.44 191.26 17.4 191.22 17.36C191.17 17.32 191.13 17.28 191.08 17.24C191.03 17.21 190.98 17.17 190.92 17.14C190.87 17.11 190.82 17.08 190.76 17.06C190.65 17.01 190.53 16.97 190.41 16.95C190.29 16.92 190.17 16.91 190.05 16.91C189.93 16.91 189.8 16.92 189.68 16.95C189.56 16.97 189.45 17.01 189.33 17.06C189.28 17.08 189.22 17.11 189.17 17.14C189.12 17.17 189.07 17.2 189.02 17.24C188.97 17.28 188.92 17.31 188.88 17.36C188.83 17.4 188.79 17.44 188.75 17.49C188.71 17.54 188.67 17.59 188.63 17.64C188.59 17.69 188.55 17.75 188.52 17.81C188.49 17.86 188.46 17.92 188.43 17.98C188.4 18.04 188.38 18.1 188.36 18.16C188.31 18.32 188.27 18.47 188.25 18.63C188.23 18.79 188.21 18.95 188.21 19.11C188.21 19.27 188.23 19.43 188.25 19.59C188.27 19.75 188.31 19.91 188.36 20.06L188.33 20.06Z" />
			<path id="Layer" class="shp0" d="M194.93 16.18L194.93 17.11L194.93 17.11C195.02 16.94 195.14 16.78 195.27 16.64C195.41 16.51 195.56 16.39 195.73 16.3C195.9 16.2 196.08 16.13 196.27 16.09C196.46 16.05 196.65 16.03 196.85 16.04C196.93 16.04 197.01 16.04 197.09 16.05C197.18 16.05 197.26 16.06 197.34 16.07C197.42 16.09 197.5 16.11 197.58 16.13C197.66 16.15 197.74 16.17 197.81 16.2C197.87 16.23 197.93 16.25 197.99 16.28C198.05 16.31 198.1 16.35 198.16 16.38C198.21 16.42 198.26 16.46 198.31 16.5C198.36 16.55 198.4 16.59 198.44 16.64C198.48 16.69 198.52 16.74 198.56 16.8C198.59 16.85 198.62 16.9 198.65 16.96C198.68 17.02 198.7 17.08 198.72 17.14C198.75 17.19 198.76 17.26 198.78 17.32C198.79 17.39 198.81 17.46 198.82 17.53C198.83 17.6 198.84 17.67 198.85 17.75C198.86 17.82 198.87 17.89 198.87 17.96C198.87 18.04 198.87 18.11 198.87 18.18L198.87 22.03L197.91 22.03L197.91 18.07C197.92 17.91 197.9 17.75 197.84 17.61C197.79 17.46 197.7 17.32 197.59 17.21C197.48 17.1 197.34 17.01 197.2 16.96C197.05 16.9 196.89 16.88 196.73 16.89C196.67 16.89 196.6 16.89 196.53 16.9C196.47 16.9 196.4 16.91 196.34 16.92C196.27 16.93 196.21 16.95 196.15 16.97C196.08 16.98 196.02 17 195.96 17.03C195.91 17.05 195.86 17.07 195.81 17.1C195.76 17.13 195.71 17.16 195.67 17.19C195.62 17.22 195.58 17.26 195.54 17.29C195.5 17.33 195.46 17.37 195.42 17.41C195.38 17.45 195.35 17.5 195.32 17.55C195.29 17.59 195.26 17.64 195.23 17.69C195.2 17.74 195.18 17.79 195.16 17.84C195.13 17.89 195.11 17.94 195.1 17.99C195.08 18.05 195.06 18.11 195.05 18.17C195.03 18.23 195.02 18.3 195.01 18.36C195 18.42 195 18.48 194.99 18.54C194.99 18.61 194.99 18.67 194.99 18.73L194.99 22.03L194.01 22.03L194.01 16.18L194.93 16.18Z" />
			<path id="Layer" fill-rule="evenodd" class="shp0" d="M205.57 22.01C205.52 22.04 205.46 22.06 205.41 22.08C205.35 22.1 205.3 22.12 205.24 22.13C205.18 22.14 205.13 22.15 205.07 22.16C205.01 22.16 204.95 22.16 204.89 22.16C204.84 22.16 204.78 22.16 204.73 22.15C204.68 22.15 204.62 22.13 204.57 22.11C204.52 22.1 204.47 22.07 204.43 22.05C204.38 22.02 204.33 21.99 204.29 21.95C204.25 21.91 204.22 21.86 204.19 21.8C204.16 21.75 204.13 21.7 204.11 21.64C204.09 21.58 204.08 21.52 204.07 21.46C204.07 21.4 204.06 21.34 204.07 21.28C204.01 21.35 203.94 21.42 203.87 21.49C203.8 21.55 203.72 21.62 203.65 21.67C203.57 21.73 203.49 21.78 203.4 21.83C203.32 21.88 203.23 21.92 203.14 21.95C203.05 21.99 202.96 22.02 202.86 22.04C202.77 22.07 202.67 22.09 202.58 22.11C202.48 22.13 202.39 22.14 202.29 22.15C202.19 22.16 202.09 22.16 202 22.16C201.93 22.16 201.87 22.16 201.81 22.16C201.74 22.15 201.68 22.15 201.61 22.14C201.55 22.13 201.49 22.12 201.42 22.11C201.36 22.1 201.3 22.08 201.24 22.07C201.18 22.05 201.13 22.04 201.07 22.02C201.02 22 200.97 21.98 200.91 21.96C200.86 21.93 200.81 21.91 200.76 21.88C200.71 21.85 200.66 21.82 200.62 21.78C200.57 21.75 200.53 21.72 200.49 21.68C200.45 21.64 200.42 21.6 200.38 21.56C200.35 21.52 200.31 21.47 200.28 21.43C200.25 21.38 200.23 21.33 200.2 21.28C200.15 21.16 200.11 21.03 200.08 20.9C200.05 20.77 200.04 20.63 200.04 20.5C200.04 20.36 200.05 20.23 200.08 20.09C200.11 19.96 200.15 19.83 200.2 19.71C200.23 19.66 200.26 19.61 200.29 19.56C200.33 19.52 200.36 19.47 200.4 19.43C200.44 19.39 200.48 19.34 200.52 19.31C200.56 19.27 200.61 19.23 200.65 19.2C200.7 19.16 200.75 19.13 200.8 19.1C200.85 19.07 200.91 19.05 200.96 19.02C201.01 19 201.07 18.97 201.12 18.95C201.18 18.93 201.23 18.91 201.29 18.9C201.35 18.88 201.41 18.86 201.47 18.85C201.53 18.83 201.59 18.82 201.66 18.8C201.72 18.79 201.78 18.78 201.84 18.76C201.9 18.75 201.96 18.74 202.02 18.73C202.3 18.68 202.55 18.64 202.79 18.61C202.84 18.6 202.89 18.6 202.94 18.59C203 18.58 203.05 18.57 203.1 18.56C203.16 18.55 203.21 18.54 203.26 18.53C203.31 18.52 203.37 18.51 203.42 18.49C203.46 18.48 203.5 18.47 203.53 18.46C203.57 18.44 203.61 18.43 203.65 18.41C203.68 18.39 203.72 18.37 203.75 18.35C203.79 18.33 203.82 18.3 203.85 18.28C203.88 18.25 203.9 18.22 203.92 18.19C203.95 18.16 203.96 18.12 203.98 18.09C203.99 18.05 204 18.02 204 17.98C204.01 17.94 204.01 17.9 204.01 17.86C204.01 17.82 204.01 17.78 204 17.73C204 17.69 203.99 17.65 203.98 17.6C203.97 17.56 203.96 17.52 203.95 17.48C203.93 17.44 203.91 17.4 203.89 17.36C203.87 17.33 203.85 17.3 203.83 17.27C203.81 17.24 203.78 17.21 203.76 17.19C203.73 17.16 203.7 17.14 203.67 17.12C203.64 17.1 203.61 17.08 203.58 17.06C203.55 17.04 203.51 17.03 203.48 17.01C203.45 17 203.41 16.98 203.38 16.97C203.34 16.96 203.3 16.95 203.27 16.94C203.23 16.94 203.2 16.93 203.16 16.93C203.12 16.92 203.08 16.91 203.04 16.91C203.01 16.91 202.97 16.9 202.93 16.9C202.89 16.9 202.85 16.89 202.81 16.89C202.77 16.89 202.74 16.89 202.7 16.89C202.61 16.89 202.52 16.89 202.43 16.9C202.35 16.91 202.26 16.92 202.17 16.94C202.09 16.96 202 16.98 201.92 17.02C201.84 17.05 201.76 17.08 201.68 17.12C201.61 17.17 201.54 17.22 201.48 17.29C201.42 17.35 201.37 17.42 201.33 17.5C201.29 17.58 201.27 17.66 201.25 17.74C201.23 17.83 201.22 17.91 201.23 18L200.26 18C200.27 17.92 200.27 17.84 200.28 17.76C200.29 17.68 200.3 17.6 200.32 17.53C200.34 17.45 200.37 17.37 200.39 17.3C200.42 17.22 200.45 17.15 200.49 17.08C200.52 17.02 200.56 16.96 200.6 16.91C200.64 16.85 200.68 16.8 200.73 16.75C200.77 16.7 200.82 16.65 200.87 16.6C200.93 16.56 200.98 16.52 201.04 16.48C201.1 16.44 201.16 16.4 201.22 16.37C201.28 16.33 201.35 16.3 201.41 16.27C201.48 16.25 201.54 16.22 201.61 16.2C201.68 16.18 201.74 16.16 201.81 16.14C201.89 16.12 201.97 16.11 202.05 16.1C202.13 16.08 202.2 16.07 202.28 16.06C202.36 16.06 202.44 16.05 202.52 16.05C202.6 16.04 202.68 16.04 202.76 16.04C202.82 16.04 202.89 16.04 202.96 16.04C203.02 16.05 203.09 16.05 203.15 16.05C203.22 16.06 203.28 16.06 203.35 16.07C203.42 16.08 203.48 16.09 203.55 16.09C203.61 16.1 203.67 16.11 203.73 16.13C203.79 16.14 203.85 16.16 203.91 16.18C203.97 16.2 204.03 16.22 204.09 16.25C204.15 16.27 204.2 16.3 204.26 16.33C204.31 16.36 204.36 16.39 204.41 16.43C204.46 16.46 204.51 16.5 204.55 16.54C204.59 16.58 204.63 16.63 204.67 16.67C204.71 16.72 204.74 16.77 204.78 16.82C204.81 16.88 204.84 16.95 204.87 17.01C204.89 17.08 204.91 17.15 204.93 17.22C204.94 17.29 204.96 17.36 204.96 17.43C204.97 17.5 204.97 17.58 204.97 17.65L204.97 20.66C204.96 20.7 204.96 20.74 204.97 20.78C204.97 20.82 204.97 20.86 204.97 20.9C204.98 20.94 204.98 20.99 204.99 21.03C204.99 21.07 205 21.11 205.01 21.15C205.01 21.26 205.12 21.31 205.28 21.31C205.3 21.31 205.33 21.31 205.35 21.31C205.38 21.3 205.4 21.3 205.43 21.3C205.45 21.29 205.48 21.29 205.5 21.28C205.52 21.28 205.55 21.27 205.57 21.26L205.57 22.01ZM204 19.01C203.97 19.03 203.93 19.06 203.89 19.08C203.85 19.1 203.81 19.12 203.77 19.14C203.73 19.15 203.69 19.17 203.65 19.18C203.61 19.19 203.56 19.2 203.52 19.21C203.32 19.25 203.12 19.28 202.9 19.31L202.22 19.4C202.17 19.41 202.12 19.42 202.07 19.43C202.02 19.44 201.97 19.45 201.92 19.46C201.87 19.48 201.82 19.49 201.77 19.51C201.73 19.52 201.68 19.54 201.63 19.56C201.59 19.58 201.55 19.6 201.51 19.62C201.47 19.64 201.43 19.67 201.39 19.69C201.36 19.72 201.32 19.75 201.29 19.78C201.26 19.82 201.23 19.85 201.2 19.89C201.17 19.93 201.15 19.97 201.13 20.01C201.1 20.06 201.09 20.11 201.07 20.16C201.06 20.2 201.05 20.25 201.04 20.3C201.04 20.35 201.04 20.4 201.04 20.45C201.04 20.49 201.04 20.52 201.04 20.56C201.05 20.59 201.05 20.62 201.06 20.66C201.07 20.69 201.08 20.72 201.09 20.76C201.1 20.79 201.12 20.82 201.13 20.85C201.15 20.88 201.17 20.9 201.19 20.93C201.2 20.95 201.22 20.98 201.25 21C201.27 21.02 201.29 21.04 201.31 21.06C201.34 21.08 201.36 21.1 201.39 21.12C201.41 21.14 201.44 21.16 201.47 21.17C201.5 21.18 201.53 21.2 201.56 21.21C201.59 21.22 201.62 21.23 201.65 21.24C201.68 21.25 201.71 21.26 201.75 21.26C201.78 21.27 201.82 21.28 201.85 21.29C201.89 21.29 201.93 21.3 201.96 21.3C202 21.3 202.03 21.31 202.07 21.31C202.11 21.31 202.14 21.31 202.18 21.31C202.25 21.31 202.32 21.31 202.39 21.31C202.46 21.3 202.53 21.29 202.59 21.28C202.66 21.27 202.73 21.26 202.8 21.24C202.86 21.22 202.93 21.2 203 21.18C203.05 21.16 203.1 21.14 203.15 21.12C203.2 21.1 203.25 21.07 203.29 21.04C203.34 21.02 203.39 20.99 203.43 20.95C203.48 20.92 203.52 20.89 203.56 20.85C203.59 20.82 203.62 20.79 203.66 20.76C203.69 20.72 203.71 20.69 203.74 20.65C203.77 20.62 203.79 20.58 203.82 20.54C203.84 20.51 203.86 20.47 203.88 20.43C203.89 20.39 203.91 20.36 203.92 20.32C203.93 20.29 203.94 20.25 203.95 20.21C203.96 20.18 203.97 20.14 203.97 20.1C203.98 20.07 203.98 20.03 203.98 19.99L204 19.01Z" />
			<path id="Layer" class="shp0" d="M207.5 13.95L207.5 22.05L206.52 22.05L206.52 13.95L207.5 13.95Z" />
			<path id="Layer" class="shp0" d="M217.24 15.09C217.13 15.02 217.02 14.95 216.9 14.9C216.79 14.84 216.66 14.79 216.54 14.76C216.41 14.72 216.29 14.69 216.16 14.68C216.03 14.66 215.9 14.65 215.77 14.66C215.66 14.65 215.55 14.66 215.44 14.67C215.34 14.68 215.23 14.69 215.13 14.72C215.02 14.74 214.92 14.77 214.82 14.81C214.71 14.84 214.61 14.88 214.52 14.93C214.43 14.98 214.35 15.02 214.28 15.08C214.2 15.13 214.12 15.19 214.05 15.25C213.98 15.31 213.91 15.38 213.85 15.44C213.78 15.51 213.72 15.59 213.67 15.66C213.61 15.74 213.56 15.82 213.51 15.91C213.46 15.99 213.41 16.07 213.37 16.16C213.33 16.25 213.29 16.34 213.26 16.43C213.23 16.52 213.2 16.62 213.17 16.71C213.15 16.81 213.12 16.91 213.1 17.01C213.08 17.11 213.06 17.21 213.05 17.32C213.04 17.42 213.03 17.52 213.02 17.62C213.01 17.73 213.01 17.83 213.01 17.93C213.01 18.04 213.01 18.15 213.02 18.26C213.02 18.37 213.04 18.48 213.05 18.59C213.06 18.7 213.08 18.81 213.1 18.92C213.12 19.03 213.14 19.14 213.17 19.24C213.2 19.34 213.22 19.44 213.26 19.53C213.29 19.62 213.33 19.71 213.37 19.8C213.41 19.89 213.45 19.98 213.51 20.07C213.56 20.15 213.61 20.24 213.67 20.32C213.72 20.39 213.79 20.47 213.85 20.54C213.91 20.6 213.98 20.67 214.05 20.73C214.13 20.79 214.2 20.85 214.28 20.9C214.36 20.96 214.44 21 214.52 21.05C214.62 21.09 214.72 21.14 214.82 21.17C214.93 21.21 215.03 21.24 215.14 21.26C215.24 21.28 215.35 21.3 215.46 21.31C215.56 21.32 215.67 21.33 215.78 21.32C215.86 21.33 215.94 21.32 216.02 21.32C216.11 21.31 216.19 21.3 216.27 21.28C216.35 21.27 216.42 21.25 216.5 21.23C216.58 21.2 216.66 21.18 216.73 21.15C216.8 21.12 216.87 21.09 216.93 21.05C216.99 21.02 217.05 20.98 217.11 20.94C217.17 20.9 217.23 20.85 217.29 20.81C217.34 20.76 217.4 20.71 217.45 20.66C217.5 20.6 217.55 20.55 217.59 20.49C217.64 20.43 217.68 20.37 217.72 20.31C217.76 20.25 217.8 20.19 217.83 20.12C217.86 20.05 217.89 19.99 217.92 19.92C217.95 19.84 217.98 19.77 218 19.69C218.02 19.62 218.04 19.54 218.06 19.46C218.08 19.38 218.09 19.3 218.1 19.22C218.11 19.15 218.12 19.07 218.12 18.99L219.21 18.99C219.2 19.21 219.17 19.43 219.11 19.64C219.06 19.86 218.99 20.07 218.9 20.27C218.81 20.47 218.7 20.67 218.58 20.85C218.45 21.04 218.31 21.21 218.15 21.36C217.98 21.51 217.8 21.64 217.61 21.75C217.42 21.87 217.21 21.96 217 22.03C216.79 22.11 216.58 22.16 216.35 22.19C216.13 22.22 215.91 22.23 215.69 22.22C215.54 22.22 215.4 22.21 215.26 22.2C215.12 22.19 214.98 22.17 214.84 22.14C214.7 22.12 214.57 22.08 214.43 22.04C214.3 22 214.16 21.95 214.04 21.89C213.92 21.84 213.81 21.78 213.71 21.72C213.6 21.66 213.5 21.59 213.4 21.52C213.3 21.44 213.2 21.36 213.11 21.28C213.02 21.19 212.94 21.1 212.86 21.01C212.78 20.91 212.71 20.8 212.64 20.7C212.57 20.59 212.51 20.48 212.45 20.36C212.4 20.25 212.35 20.13 212.3 20.02C212.25 19.9 212.21 19.78 212.18 19.66C212.14 19.52 212.11 19.39 212.08 19.25C212.05 19.11 212.02 18.97 212 18.84C211.98 18.7 211.97 18.56 211.96 18.42C211.95 18.28 211.95 18.14 211.95 18C211.95 17.86 211.95 17.72 211.96 17.58C211.97 17.44 211.99 17.3 212.01 17.16C212.03 17.02 212.06 16.88 212.09 16.74C212.12 16.61 212.16 16.47 212.2 16.34C212.24 16.21 212.28 16.09 212.33 15.97C212.38 15.86 212.44 15.74 212.5 15.63C212.56 15.51 212.63 15.4 212.7 15.3C212.77 15.19 212.85 15.09 212.93 14.99C213.02 14.89 213.1 14.8 213.2 14.71C213.29 14.62 213.39 14.54 213.49 14.46C213.59 14.39 213.7 14.31 213.8 14.25C213.91 14.19 214.03 14.13 214.14 14.07C214.27 14.02 214.41 13.97 214.54 13.92C214.68 13.88 214.81 13.84 214.95 13.81C215.09 13.79 215.23 13.77 215.38 13.75C215.52 13.74 215.66 13.73 215.8 13.74C215.9 13.74 216.01 13.74 216.11 13.75C216.21 13.75 216.31 13.76 216.41 13.78C216.51 13.79 216.61 13.81 216.71 13.83C216.81 13.85 216.91 13.88 217.01 13.91C217.1 13.93 217.19 13.96 217.28 14C217.37 14.03 217.45 14.07 217.54 14.11C217.62 14.16 217.71 14.2 217.79 14.25C217.87 14.3 217.95 14.35 218.02 14.41C218.1 14.46 218.17 14.52 218.23 14.59C218.3 14.65 218.37 14.72 218.43 14.79C218.49 14.86 218.55 14.93 218.6 15.01C218.65 15.08 218.7 15.16 218.75 15.24C218.8 15.33 218.85 15.42 218.89 15.51C218.93 15.6 218.97 15.7 219 15.79C219.03 15.89 219.06 15.98 219.08 16.08C219.11 16.18 219.12 16.28 219.14 16.38L218.07 16.38C218.05 16.25 218.01 16.12 217.96 16C217.91 15.88 217.85 15.76 217.78 15.65C217.71 15.54 217.63 15.44 217.54 15.34C217.45 15.25 217.35 15.16 217.24 15.09Z" />
			<path id="Layer" fill-rule="evenodd" class="shp0" d="M220.36 17.64C220.39 17.56 220.43 17.47 220.48 17.39C220.53 17.31 220.58 17.23 220.63 17.15C220.68 17.08 220.74 17 220.8 16.93C220.86 16.86 220.93 16.79 221 16.73C221.07 16.66 221.14 16.6 221.22 16.55C221.29 16.49 221.37 16.44 221.45 16.39C221.53 16.34 221.62 16.3 221.71 16.26C221.9 16.18 222.1 16.12 222.31 16.08C222.52 16.04 222.73 16.02 222.94 16.02C223.15 16.02 223.36 16.04 223.57 16.08C223.77 16.12 223.98 16.18 224.17 16.26C224.26 16.3 224.34 16.34 224.42 16.39C224.5 16.44 224.58 16.49 224.66 16.55C224.73 16.6 224.8 16.66 224.87 16.73C224.94 16.79 225.01 16.86 225.07 16.93C225.13 17 225.19 17.08 225.24 17.15C225.29 17.23 225.34 17.31 225.39 17.39C225.43 17.47 225.48 17.56 225.51 17.64C225.55 17.73 225.58 17.82 225.61 17.91C225.64 18 225.67 18.1 225.69 18.2C225.72 18.3 225.74 18.4 225.75 18.5C225.77 18.6 225.78 18.71 225.79 18.81C225.79 18.91 225.8 19.01 225.79 19.11C225.8 19.22 225.79 19.32 225.79 19.42C225.78 19.52 225.77 19.62 225.75 19.72C225.74 19.82 225.72 19.92 225.69 20.02C225.67 20.12 225.64 20.21 225.61 20.31C225.58 20.4 225.55 20.49 225.51 20.57C225.47 20.66 225.43 20.74 225.39 20.82C225.34 20.91 225.29 20.98 225.24 21.06C225.19 21.14 225.13 21.21 225.07 21.28C225.01 21.36 224.94 21.42 224.87 21.49C224.81 21.55 224.73 21.62 224.66 21.67C224.58 21.73 224.5 21.78 224.42 21.83C224.34 21.88 224.26 21.92 224.17 21.96C223.98 22.04 223.77 22.1 223.57 22.14C223.36 22.18 223.15 22.2 222.94 22.2C222.73 22.2 222.52 22.18 222.31 22.14C222.1 22.1 221.9 22.04 221.71 21.96C221.62 21.92 221.53 21.88 221.45 21.83C221.37 21.78 221.29 21.73 221.21 21.67C221.14 21.62 221.07 21.56 221 21.49C220.93 21.43 220.86 21.36 220.8 21.28C220.74 21.21 220.68 21.14 220.63 21.06C220.58 20.98 220.53 20.91 220.48 20.82C220.44 20.74 220.39 20.66 220.36 20.57C220.32 20.49 220.29 20.4 220.26 20.31C220.23 20.21 220.2 20.12 220.18 20.02C220.15 19.92 220.13 19.82 220.12 19.72C220.1 19.62 220.09 19.52 220.08 19.42C220.08 19.32 220.07 19.22 220.07 19.11C220.07 19.01 220.08 18.91 220.08 18.81C220.09 18.71 220.1 18.6 220.12 18.5C220.13 18.4 220.15 18.3 220.18 18.2C220.2 18.1 220.23 18 220.26 17.91C220.29 17.82 220.32 17.73 220.36 17.64ZM221.24 20.06C221.26 20.12 221.29 20.18 221.32 20.24C221.34 20.3 221.37 20.36 221.41 20.42C221.44 20.47 221.48 20.53 221.51 20.58C221.55 20.64 221.59 20.69 221.64 20.74C221.68 20.78 221.72 20.82 221.77 20.87C221.81 20.91 221.86 20.94 221.91 20.98C221.96 21.02 222.01 21.05 222.06 21.08C222.11 21.11 222.17 21.14 222.22 21.16C222.33 21.21 222.45 21.25 222.57 21.27C222.69 21.3 222.81 21.31 222.93 21.31C223.06 21.31 223.18 21.3 223.3 21.27C223.42 21.25 223.54 21.21 223.65 21.16C223.7 21.14 223.76 21.11 223.81 21.08C223.86 21.05 223.91 21.02 223.96 20.98C224.01 20.94 224.06 20.91 224.1 20.87C224.15 20.82 224.19 20.78 224.23 20.74C224.28 20.69 224.32 20.64 224.36 20.58C224.39 20.53 224.43 20.47 224.46 20.42C224.5 20.36 224.53 20.3 224.55 20.24C224.58 20.18 224.6 20.12 224.63 20.06C224.67 19.91 224.71 19.75 224.73 19.59C224.76 19.43 224.77 19.27 224.77 19.11C224.77 18.95 224.76 18.79 224.73 18.63C224.71 18.47 224.67 18.32 224.63 18.16C224.6 18.1 224.58 18.04 224.55 17.98C224.53 17.92 224.5 17.86 224.46 17.81C224.43 17.75 224.39 17.69 224.36 17.64C224.32 17.59 224.28 17.54 224.23 17.49C224.19 17.44 224.15 17.4 224.11 17.36C224.06 17.31 224.01 17.28 223.97 17.24C223.92 17.2 223.86 17.17 223.81 17.14C223.76 17.11 223.7 17.08 223.65 17.06C223.54 17.01 223.42 16.97 223.3 16.95C223.18 16.92 223.06 16.91 222.93 16.91C222.81 16.91 222.69 16.92 222.57 16.95C222.45 16.97 222.33 17.01 222.22 17.06C222.17 17.08 222.11 17.11 222.06 17.14C222 17.17 221.95 17.2 221.9 17.24C221.86 17.28 221.81 17.31 221.76 17.36C221.72 17.4 221.68 17.44 221.64 17.49C221.59 17.54 221.55 17.59 221.51 17.64C221.48 17.69 221.44 17.75 221.41 17.81C221.37 17.86 221.34 17.92 221.32 17.98C221.29 18.04 221.26 18.1 221.24 18.16C221.2 18.32 221.16 18.47 221.14 18.63C221.11 18.79 221.1 18.95 221.1 19.11C221.1 19.27 221.11 19.43 221.14 19.59C221.16 19.75 221.2 19.91 221.24 20.06Z" />
			<path id="Layer" class="shp0" d="M227.96 13.95L227.96 22.05L226.99 22.05L226.99 13.95L227.96 13.95Z" />
			<path id="Layer" class="shp0" d="M230.49 13.95L230.49 22.05L229.52 22.05L229.52 13.95L230.49 13.95Z" />
			<path id="Layer" fill-rule="evenodd" class="shp0" d="M235.78 21.89C235.65 21.95 235.51 22.01 235.37 22.05C235.23 22.09 235.09 22.12 234.94 22.14C234.79 22.16 234.64 22.17 234.5 22.16C234.39 22.16 234.29 22.16 234.18 22.15C234.08 22.14 233.98 22.13 233.87 22.11C233.77 22.09 233.67 22.07 233.57 22.04C233.47 22.01 233.37 21.97 233.27 21.93C233.19 21.9 233.11 21.86 233.03 21.81C232.95 21.77 232.88 21.72 232.8 21.67C232.73 21.61 232.66 21.55 232.59 21.49C232.53 21.43 232.46 21.37 232.4 21.3C232.34 21.23 232.29 21.15 232.23 21.08C232.18 21 232.13 20.92 232.09 20.84C232.04 20.76 232 20.67 231.97 20.59C231.93 20.5 231.9 20.41 231.88 20.32C231.84 20.22 231.82 20.12 231.79 20.02C231.77 19.92 231.75 19.82 231.73 19.71C231.71 19.61 231.7 19.51 231.69 19.4C231.68 19.3 231.67 19.19 231.67 19.09C231.67 18.98 231.67 18.88 231.68 18.78C231.69 18.67 231.7 18.57 231.72 18.47C231.74 18.36 231.76 18.26 231.78 18.16C231.81 18.06 231.84 17.96 231.88 17.86C231.91 17.78 231.95 17.69 231.99 17.6C232.03 17.52 232.07 17.44 232.12 17.36C232.17 17.27 232.22 17.2 232.28 17.12C232.33 17.04 232.39 16.97 232.45 16.9C232.51 16.83 232.58 16.77 232.65 16.71C232.71 16.65 232.78 16.59 232.86 16.54C232.93 16.49 233.01 16.44 233.09 16.39C233.16 16.35 233.25 16.31 233.33 16.27C233.42 16.23 233.51 16.2 233.6 16.17C233.69 16.14 233.78 16.11 233.87 16.09C233.97 16.08 234.06 16.06 234.16 16.05C234.25 16.04 234.35 16.04 234.44 16.04C234.56 16.04 234.67 16.04 234.78 16.05C234.9 16.06 235.01 16.08 235.12 16.11C235.23 16.14 235.34 16.17 235.44 16.22C235.55 16.26 235.65 16.31 235.75 16.36C235.83 16.42 235.91 16.47 235.99 16.53C236.07 16.59 236.14 16.66 236.21 16.73C236.28 16.79 236.35 16.87 236.41 16.94C236.47 17.02 236.52 17.1 236.58 17.18C236.63 17.27 236.68 17.35 236.72 17.44C236.77 17.53 236.81 17.62 236.84 17.71C236.88 17.8 236.91 17.89 236.94 17.98C236.97 18.08 236.99 18.17 237.01 18.27C237.03 18.36 237.04 18.46 237.06 18.55C237.07 18.64 237.08 18.73 237.09 18.83C237.09 18.92 237.1 19.02 237.1 19.11C237.1 19.2 237.1 19.3 237.09 19.39L232.68 19.39C232.68 19.45 232.68 19.52 232.69 19.58C232.69 19.64 232.69 19.7 232.7 19.76C232.71 19.83 232.72 19.89 232.73 19.95C232.75 20.01 232.76 20.07 232.78 20.13C232.79 20.18 232.81 20.24 232.84 20.29C232.86 20.35 232.88 20.4 232.91 20.45C232.94 20.5 232.97 20.55 233 20.6C233.03 20.65 233.07 20.69 233.1 20.74C233.15 20.78 233.19 20.82 233.23 20.87C233.28 20.91 233.32 20.94 233.37 20.98C233.42 21.02 233.47 21.05 233.53 21.08C233.58 21.11 233.63 21.14 233.69 21.16C233.75 21.19 233.82 21.22 233.89 21.24C233.96 21.26 234.02 21.28 234.09 21.29C234.16 21.3 234.23 21.31 234.3 21.32C234.38 21.32 234.45 21.33 234.52 21.32C234.61 21.33 234.7 21.32 234.78 21.31C234.87 21.3 234.96 21.29 235.05 21.26C235.13 21.24 235.22 21.21 235.3 21.17C235.38 21.13 235.46 21.09 235.53 21.04C235.6 20.99 235.66 20.93 235.72 20.86C235.77 20.8 235.83 20.73 235.87 20.66C235.91 20.58 235.95 20.5 235.98 20.42C236.01 20.34 236.03 20.26 236.05 20.18L237 20.18C236.98 20.32 236.95 20.46 236.9 20.6C236.86 20.74 236.8 20.87 236.72 21C236.65 21.12 236.57 21.24 236.47 21.36C236.38 21.47 236.28 21.57 236.16 21.66C236.04 21.75 235.92 21.82 235.78 21.89ZM235.86 17.76C235.83 17.71 235.81 17.66 235.78 17.62C235.75 17.58 235.72 17.53 235.68 17.49C235.65 17.45 235.61 17.41 235.58 17.37C235.54 17.33 235.5 17.3 235.46 17.27C235.42 17.23 235.38 17.2 235.33 17.17C235.29 17.14 235.24 17.12 235.2 17.09C235.15 17.06 235.1 17.04 235.05 17.02C235 17 234.95 16.98 234.89 16.96C234.83 16.95 234.78 16.93 234.72 16.92C234.66 16.91 234.61 16.9 234.55 16.9C234.49 16.89 234.43 16.89 234.38 16.89C234.32 16.89 234.26 16.89 234.2 16.9C234.14 16.9 234.09 16.91 234.03 16.92C233.97 16.93 233.92 16.94 233.86 16.96C233.8 16.98 233.75 17 233.7 17.02C233.65 17.04 233.6 17.06 233.55 17.09C233.51 17.12 233.46 17.14 233.42 17.17C233.37 17.2 233.33 17.24 233.29 17.27C233.25 17.3 233.21 17.34 233.17 17.38C233.14 17.42 233.1 17.46 233.07 17.5C233.04 17.54 233.01 17.58 232.98 17.63C232.95 17.67 232.92 17.72 232.9 17.76C232.87 17.81 232.85 17.86 232.83 17.91C232.81 17.96 232.79 18.01 232.78 18.06C232.76 18.11 232.74 18.17 232.73 18.22C232.72 18.27 232.71 18.33 232.7 18.38C232.69 18.44 232.69 18.49 232.68 18.55L236.08 18.55C236.08 18.49 236.07 18.44 236.06 18.38C236.06 18.33 236.05 18.27 236.03 18.22C236.02 18.16 236.01 18.11 235.99 18.06C235.97 18 235.95 17.95 235.93 17.9C235.91 17.85 235.89 17.8 235.86 17.76Z" />
			<path id="Layer" fill-rule="evenodd" class="shp0" d="M242.08 24.02C241.93 24.12 241.76 24.2 241.58 24.26C241.41 24.32 241.23 24.36 241.04 24.39C240.86 24.41 240.67 24.42 240.49 24.41C240.42 24.4 240.35 24.4 240.28 24.4C240.21 24.39 240.14 24.39 240.07 24.38C240 24.37 239.93 24.36 239.86 24.35C239.79 24.34 239.72 24.33 239.65 24.31C239.59 24.3 239.52 24.28 239.45 24.26C239.39 24.24 239.32 24.22 239.25 24.2C239.19 24.17 239.13 24.15 239.06 24.12C239 24.09 238.94 24.05 238.88 24.02C238.82 23.99 238.77 23.95 238.71 23.91C238.66 23.87 238.61 23.83 238.56 23.78C238.51 23.74 238.47 23.69 238.42 23.64C238.38 23.59 238.34 23.54 238.3 23.49C238.26 23.43 238.23 23.36 238.2 23.3C238.17 23.24 238.14 23.17 238.12 23.1C238.1 23.03 238.08 22.96 238.07 22.89C238.06 22.82 238.05 22.75 238.05 22.68L239.02 22.68C239.02 22.72 239.03 22.76 239.03 22.8C239.04 22.84 239.05 22.88 239.06 22.92C239.08 22.95 239.09 22.99 239.12 23.02C239.14 23.06 239.16 23.09 239.18 23.12C239.21 23.15 239.24 23.18 239.27 23.21C239.3 23.24 239.33 23.26 239.36 23.29C239.39 23.31 239.42 23.34 239.46 23.36C239.49 23.38 239.53 23.4 239.57 23.42C239.6 23.44 239.64 23.46 239.68 23.47C239.72 23.49 239.76 23.5 239.8 23.52C239.84 23.53 239.88 23.54 239.92 23.55C239.96 23.56 240.01 23.57 240.05 23.58C240.08 23.59 240.12 23.6 240.16 23.6C240.19 23.61 240.23 23.62 240.27 23.62C240.3 23.63 240.34 23.63 240.38 23.64C240.41 23.64 240.45 23.65 240.49 23.65C240.56 23.65 240.63 23.65 240.7 23.64C240.77 23.64 240.84 23.63 240.9 23.61C240.97 23.6 241.04 23.58 241.1 23.56C241.17 23.54 241.23 23.51 241.3 23.48C241.35 23.45 241.4 23.42 241.45 23.39C241.5 23.36 241.55 23.32 241.6 23.29C241.64 23.25 241.69 23.21 241.73 23.16C241.77 23.12 241.81 23.08 241.84 23.03C241.88 22.98 241.91 22.93 241.95 22.87C241.98 22.82 242.01 22.76 242.03 22.71C242.06 22.65 242.08 22.59 242.1 22.53C242.12 22.47 242.14 22.41 242.15 22.35C242.17 22.28 242.19 22.2 242.2 22.13C242.21 22.06 242.22 21.98 242.23 21.91C242.24 21.83 242.25 21.76 242.25 21.68C242.25 21.61 242.26 21.53 242.26 21.46L242.26 21.07C242.22 21.16 242.17 21.24 242.12 21.32C242.07 21.4 242.01 21.47 241.95 21.54C241.88 21.61 241.81 21.67 241.74 21.72C241.66 21.78 241.58 21.83 241.5 21.87C241.42 21.91 241.33 21.95 241.24 21.98C241.16 22.01 241.07 22.04 240.98 22.06C240.89 22.09 240.79 22.1 240.7 22.11C240.61 22.12 240.51 22.13 240.42 22.13C240.32 22.13 240.22 22.13 240.13 22.12C240.03 22.11 239.93 22.09 239.83 22.07C239.74 22.05 239.64 22.03 239.55 22C239.45 21.96 239.36 21.93 239.27 21.89C239.19 21.85 239.12 21.8 239.04 21.75C238.97 21.7 238.89 21.65 238.83 21.6C238.76 21.54 238.69 21.48 238.63 21.42C238.57 21.35 238.51 21.29 238.45 21.22C238.39 21.15 238.34 21.07 238.29 21C238.24 20.92 238.2 20.85 238.16 20.77C238.11 20.69 238.08 20.61 238.04 20.52C238.01 20.44 237.98 20.36 237.96 20.27C237.93 20.18 237.9 20.09 237.88 19.99C237.86 19.9 237.85 19.8 237.83 19.71C237.82 19.61 237.81 19.52 237.8 19.42C237.79 19.33 237.79 19.23 237.79 19.14C237.79 19.04 237.8 18.95 237.8 18.86C237.81 18.77 237.82 18.68 237.83 18.59C237.84 18.5 237.85 18.41 237.87 18.33C237.89 18.24 237.91 18.15 237.93 18.06C237.95 17.97 237.98 17.88 238.01 17.8C238.04 17.71 238.07 17.63 238.11 17.54C238.15 17.46 238.19 17.38 238.23 17.3C238.28 17.22 238.33 17.14 238.38 17.07C238.44 16.99 238.5 16.92 238.56 16.85C238.62 16.78 238.69 16.71 238.76 16.65C238.83 16.59 238.91 16.53 238.98 16.48C239.06 16.42 239.14 16.38 239.23 16.33C239.32 16.28 239.43 16.24 239.53 16.2C239.64 16.16 239.74 16.13 239.85 16.1C239.96 16.08 240.07 16.06 240.18 16.05C240.29 16.04 240.4 16.04 240.52 16.04C240.61 16.04 240.69 16.04 240.78 16.05C240.87 16.06 240.96 16.08 241.04 16.1C241.13 16.12 241.22 16.15 241.3 16.18C241.38 16.21 241.46 16.24 241.54 16.28C241.62 16.32 241.69 16.37 241.76 16.42C241.83 16.48 241.9 16.53 241.96 16.59C242.02 16.66 242.08 16.72 242.13 16.79C242.18 16.86 242.23 16.94 242.27 17.01L242.27 16.18L243.21 16.18L243.21 21.53C243.22 21.73 243.21 21.92 243.19 22.11C243.17 22.3 243.13 22.49 243.07 22.67C243.01 22.86 242.94 23.04 242.85 23.21C242.76 23.38 242.65 23.54 242.53 23.69C242.39 23.81 242.24 23.93 242.08 24.02ZM241.29 21.05C241.35 21.02 241.4 20.99 241.45 20.95C241.5 20.91 241.55 20.87 241.59 20.83C241.64 20.78 241.68 20.74 241.72 20.69C241.76 20.64 241.79 20.59 241.83 20.53C241.86 20.48 241.89 20.42 241.93 20.36C241.96 20.3 241.98 20.24 242.01 20.18C242.03 20.12 242.06 20.06 242.08 19.99C242.1 19.93 242.12 19.87 242.13 19.8C242.15 19.74 242.16 19.67 242.17 19.6C242.19 19.53 242.2 19.47 242.2 19.4C242.21 19.33 242.22 19.26 242.22 19.19C242.23 19.12 242.23 19.06 242.23 18.99C242.23 18.92 242.23 18.86 242.22 18.8C242.22 18.73 242.21 18.67 242.2 18.61C242.2 18.54 242.19 18.48 242.18 18.42C242.17 18.35 242.15 18.29 242.14 18.23C242.13 18.17 242.11 18.11 242.09 18.05C242.07 17.99 242.05 17.94 242.02 17.88C242 17.82 241.97 17.77 241.94 17.71C241.91 17.66 241.88 17.61 241.85 17.55C241.81 17.5 241.78 17.46 241.74 17.41C241.7 17.37 241.66 17.32 241.62 17.28C241.57 17.24 241.53 17.2 241.48 17.17C241.43 17.13 241.38 17.1 241.32 17.07C241.27 17.04 241.21 17.02 241.14 16.99C241.08 16.97 241.02 16.95 240.95 16.93C240.89 16.92 240.82 16.91 240.76 16.9C240.69 16.89 240.62 16.89 240.56 16.89C240.49 16.89 240.42 16.89 240.35 16.9C240.28 16.9 240.22 16.91 240.15 16.93C240.08 16.94 240.02 16.96 239.95 16.99C239.89 17.01 239.82 17.04 239.76 17.07C239.71 17.1 239.66 17.13 239.61 17.16C239.56 17.19 239.51 17.23 239.46 17.27C239.42 17.31 239.37 17.35 239.33 17.39C239.29 17.44 239.25 17.49 239.22 17.53C239.18 17.59 239.15 17.64 239.12 17.69C239.09 17.75 239.06 17.8 239.04 17.86C239.01 17.92 238.99 17.97 238.97 18.03C238.95 18.09 238.93 18.15 238.91 18.21C238.9 18.28 238.88 18.34 238.87 18.41C238.86 18.47 238.85 18.54 238.84 18.61C238.83 18.68 238.83 18.74 238.82 18.81C238.82 18.88 238.82 18.95 238.82 19.01C238.82 19.08 238.82 19.15 238.82 19.21C238.83 19.28 238.83 19.34 238.84 19.41C238.85 19.48 238.85 19.54 238.86 19.61C238.87 19.67 238.89 19.74 238.9 19.8C238.91 19.87 238.92 19.93 238.94 19.99C238.96 20.06 238.98 20.12 239 20.18C239.02 20.24 239.05 20.3 239.08 20.36C239.11 20.41 239.14 20.47 239.17 20.53C239.2 20.58 239.24 20.63 239.27 20.68C239.31 20.73 239.35 20.77 239.39 20.82C239.44 20.86 239.48 20.9 239.53 20.94C239.58 20.98 239.63 21.02 239.68 21.05C239.74 21.08 239.8 21.11 239.87 21.14C239.93 21.17 240 21.19 240.07 21.21C240.13 21.22 240.2 21.23 240.27 21.24C240.34 21.25 240.41 21.25 240.48 21.25C240.55 21.25 240.62 21.25 240.69 21.24C240.76 21.24 240.83 21.22 240.9 21.21C240.97 21.19 241.04 21.17 241.11 21.14C241.17 21.12 241.24 21.09 241.3 21.05L241.29 21.05Z" />
			<path id="Layer" fill-rule="evenodd" class="shp0" d="M248.82 21.66C248.7 21.75 248.57 21.82 248.44 21.89C248.31 21.95 248.17 22.01 248.03 22.05C247.89 22.09 247.74 22.12 247.6 22.14C247.45 22.16 247.3 22.17 247.15 22.16C247.05 22.16 246.94 22.16 246.84 22.15C246.74 22.14 246.63 22.13 246.53 22.11C246.43 22.09 246.33 22.07 246.23 22.04C246.13 22.01 246.03 21.97 245.93 21.93C245.85 21.9 245.77 21.86 245.69 21.81C245.61 21.77 245.53 21.72 245.46 21.66C245.39 21.61 245.32 21.55 245.25 21.49C245.18 21.43 245.12 21.37 245.06 21.3C245 21.23 244.94 21.15 244.89 21.08C244.84 21 244.79 20.92 244.74 20.84C244.7 20.76 244.66 20.67 244.62 20.59C244.59 20.5 244.56 20.41 244.53 20.32C244.5 20.22 244.47 20.12 244.45 20.02C244.43 19.92 244.41 19.82 244.39 19.71C244.37 19.61 244.36 19.51 244.35 19.4C244.34 19.3 244.34 19.19 244.33 19.09C244.33 18.98 244.34 18.88 244.34 18.78C244.35 18.67 244.36 18.57 244.38 18.47C244.4 18.36 244.42 18.26 244.45 18.16C244.47 18.06 244.5 17.96 244.54 17.86C244.57 17.78 244.61 17.69 244.65 17.6C244.69 17.52 244.73 17.43 244.78 17.35C244.82 17.27 244.88 17.19 244.93 17.11C244.99 17.04 245.05 16.96 245.11 16.89C245.17 16.83 245.24 16.76 245.3 16.7C245.37 16.64 245.44 16.58 245.52 16.53C245.59 16.48 245.67 16.43 245.75 16.39C245.83 16.34 245.91 16.3 245.99 16.26C246.08 16.22 246.17 16.19 246.26 16.16C246.35 16.13 246.44 16.11 246.53 16.09C246.63 16.07 246.72 16.05 246.81 16.05C246.91 16.04 247 16.03 247.1 16.03C247.21 16.03 247.33 16.03 247.44 16.04C247.55 16.06 247.66 16.08 247.77 16.1C247.88 16.13 247.99 16.17 248.1 16.21C248.2 16.25 248.31 16.3 248.4 16.36C248.49 16.41 248.57 16.47 248.65 16.53C248.72 16.59 248.8 16.65 248.87 16.72C248.94 16.79 249 16.86 249.07 16.94C249.13 17.01 249.19 17.09 249.24 17.18C249.29 17.26 249.34 17.34 249.38 17.43C249.43 17.52 249.47 17.61 249.5 17.7C249.54 17.79 249.57 17.88 249.6 17.98C249.62 18.07 249.65 18.17 249.67 18.26C249.69 18.36 249.7 18.45 249.72 18.54C249.73 18.63 249.74 18.73 249.75 18.82C249.76 18.91 249.77 19.01 249.77 19.1C249.77 19.2 249.77 19.29 249.77 19.39L245.35 19.39C245.35 19.45 245.35 19.51 245.36 19.57C245.36 19.63 245.36 19.7 245.37 19.76C245.38 19.82 245.39 19.88 245.4 19.94C245.42 20 245.43 20.06 245.45 20.12C245.46 20.18 245.48 20.23 245.51 20.29C245.53 20.34 245.55 20.39 245.58 20.44C245.61 20.5 245.64 20.54 245.67 20.59C245.71 20.64 245.74 20.69 245.78 20.73C245.82 20.78 245.86 20.82 245.91 20.86C245.95 20.9 246 20.94 246.05 20.97C246.09 21.01 246.15 21.04 246.2 21.07C246.25 21.1 246.3 21.13 246.36 21.16C246.42 21.18 246.49 21.21 246.56 21.23C246.63 21.25 246.69 21.27 246.76 21.28C246.83 21.29 246.9 21.3 246.97 21.31C247.05 21.32 247.12 21.32 247.19 21.32C247.28 21.32 247.37 21.32 247.45 21.31C247.54 21.3 247.63 21.28 247.72 21.26C247.8 21.23 247.89 21.2 247.97 21.16C248.05 21.13 248.13 21.08 248.2 21.03C248.27 20.98 248.33 20.92 248.39 20.86C248.44 20.79 248.5 20.72 248.54 20.65C248.58 20.58 248.62 20.5 248.65 20.42C248.68 20.34 248.7 20.25 248.72 20.17L249.67 20.17C249.65 20.31 249.62 20.46 249.57 20.6C249.52 20.73 249.46 20.87 249.39 21C249.32 21.12 249.23 21.24 249.13 21.36C249.04 21.47 248.93 21.57 248.82 21.66ZM248.59 17.9C248.57 17.85 248.54 17.8 248.52 17.75C248.49 17.71 248.47 17.66 248.44 17.62C248.41 17.57 248.37 17.53 248.34 17.49C248.31 17.45 248.27 17.41 248.23 17.37C248.2 17.33 248.16 17.3 248.12 17.27C248.07 17.23 248.03 17.2 247.99 17.17C247.94 17.14 247.9 17.12 247.85 17.09C247.81 17.06 247.76 17.04 247.71 17.02C247.6 16.98 247.49 16.94 247.38 16.92C247.26 16.9 247.15 16.89 247.03 16.89C246.92 16.89 246.8 16.9 246.69 16.92C246.57 16.94 246.46 16.98 246.35 17.02C246.3 17.04 246.26 17.06 246.21 17.09C246.16 17.12 246.12 17.14 246.08 17.17C246.03 17.2 245.99 17.24 245.95 17.27C245.91 17.3 245.87 17.34 245.84 17.38C245.8 17.42 245.76 17.46 245.73 17.5C245.7 17.54 245.67 17.58 245.64 17.63C245.61 17.67 245.58 17.72 245.56 17.76C245.53 17.81 245.51 17.86 245.49 17.91C245.47 17.96 245.45 18.01 245.43 18.06C245.42 18.11 245.4 18.17 245.39 18.22C245.38 18.27 245.37 18.33 245.36 18.38C245.35 18.44 245.34 18.49 245.34 18.55L248.74 18.55C248.73 18.49 248.73 18.44 248.72 18.38C248.71 18.33 248.7 18.27 248.69 18.22C248.68 18.16 248.66 18.11 248.64 18.06C248.63 18 248.61 17.95 248.59 17.9Z" />
		</g>
	</g>
</svg>