<svg xmlns="http://www.w3.org/2000/svg" viewBox="0 0 227.51 47.55"><g id="Layer_2" data-name="Layer 2"><g id="Layer_1-2" data-name="Layer 1"><path d="M0,23.77A11.88,11.88,0,0,0,11.87,35.66H23.73V0H0Z" style="fill:#fff"/><path d="M23.73,11.89H11.87V47.55L23.73,35.66a11.89,11.89,0,0,0,0-23.77" style="fill:#fff"/><polygon points="23.73 0 23.73 11.88 11.87 11.88 23.73 0" style="fill:#e2e2e2"/><rect x="11.87" y="11.89" width="11.87" height="23.77" style="fill:#d1d1d1"/><path d="M47.17,21.56a3.55,3.55,0,0,1-3.92-3.81V11.9h1.82v5.82c0,1.35.65,2.28,2.1,2.28s2.1-.93,2.1-2.28V11.9h1.82v5.85a3.55,3.55,0,0,1-3.92,3.81" style="fill:#fff"/><polygon points="58.71 21.39 54.38 14.87 54.38 21.39 52.59 21.39 52.59 11.9 54.52 11.9 58.8 18.32 58.8 11.9 60.59 11.9 60.59 21.39 58.71 21.39" style="fill:#fff"/><rect x="62.23" y="11.9" width="1.85" height="9.49" style="fill:#fff"/><polygon points="70.43 21.39 68.42 21.39 65.11 11.9 67.04 11.9 69.47 19.14 71.88 11.9 73.71 11.9 70.43 21.39" style="fill:#fff"/><polygon points="74.75 21.39 74.75 11.9 81.87 11.9 81.87 13.47 76.56 13.47 76.56 15.67 81.23 15.67 81.23 17.23 76.56 17.23 76.56 19.82 81.87 19.82 81.87 21.39 74.75 21.39" style="fill:#fff"/><path d="M87.47,13.41h-2.4v2.84H87.5c1,0,1.62-.51,1.62-1.4a1.5,1.5,0,0,0-1.65-1.44m1.5,8L87.3,17.8H85.09v3.59H83.25V11.9h4.22c2.39,0,3.47,1.42,3.47,2.95a2.74,2.74,0,0,1-1.83,2.66l1.83,3.88Z" style="fill:#fff"/><path d="M98.72,20.54a4.53,4.53,0,0,1-3.16,1,4.59,4.59,0,0,1-3-1,3,3,0,0,1-1-2.21h1.87a1.6,1.6,0,0,0,.52,1.16,3.1,3.1,0,0,0,3.41,0,1.14,1.14,0,0,0,.4-.91c0-.69-.57-1-1.19-1.12s-1.55-.15-2.21-.26a2.67,2.67,0,0,1-2.54-2.65,2.57,2.57,0,0,1,.87-1.87,4.42,4.42,0,0,1,2.94-1,4.28,4.28,0,0,1,2.79.92,2.86,2.86,0,0,1,1,2H97.53a1.49,1.49,0,0,0-.43-.94,2.4,2.4,0,0,0-1.53-.5,2.34,2.34,0,0,0-1.62.52,1.06,1.06,0,0,0-.34.8c0,.62.42.94,1,1s1.52.16,2.17.24a2.83,2.83,0,0,1,2.75,2.74,2.59,2.59,0,0,1-.83,2" style="fill:#fff"/><rect x="100.84" y="11.9" width="1.85" height="9.49" style="fill:#fff"/><polygon points="108.72 13.51 108.72 21.39 106.9 21.39 106.9 13.51 103.94 13.51 103.94 11.9 111.69 11.9 111.69 13.51 108.72 13.51" style="fill:#fff"/><polygon points="117.78 17.75 117.78 21.39 115.95 21.39 115.95 17.75 112.48 11.9 114.45 11.9 116.92 15.99 119.39 11.9 121.28 11.9 117.78 17.75" style="fill:#fff"/><path d="M47.4,25.65H45.34v3.08H47.4c1.21,0,1.77-.62,1.77-1.53s-.56-1.55-1.77-1.55m.07,4.59H45.34v3.41H43.53V24.14h3.94c2.3,0,3.54,1.22,3.54,3s-1.24,3.06-3.54,3.06" style="fill:#fff"/><path d="M57.17,26.16a2.26,2.26,0,0,0-1.58-.63,2.31,2.31,0,0,0-1.59.63,3.89,3.89,0,0,0-.72,2.74A3.86,3.86,0,0,0,54,31.63a2.31,2.31,0,0,0,1.59.63,2.26,2.26,0,0,0,1.58-.63,3.82,3.82,0,0,0,.73-2.73,3.84,3.84,0,0,0-.73-2.74m1.31,6.59a4.41,4.41,0,0,1-5.78,0,4.78,4.78,0,0,1-1.27-3.85A4.84,4.84,0,0,1,52.7,25a4.44,4.44,0,0,1,5.78,0,4.84,4.84,0,0,1,1.27,3.87,4.78,4.78,0,0,1-1.27,3.85" style="fill:#fff"/><path d="M65,25.65h-2.4V28.5h2.43c1,0,1.63-.51,1.63-1.41A1.5,1.5,0,0,0,65,25.65m1.5,8-1.67-3.6H62.65v3.6H60.81V24.14H65c2.39,0,3.48,1.42,3.48,2.95a2.74,2.74,0,0,1-1.84,2.67l1.84,3.89Z" style="fill:#fff"/><polygon points="73.84 25.75 73.84 33.65 72.02 33.65 72.02 25.75 69.05 25.75 69.05 24.14 76.82 24.14 76.82 25.75 73.84 25.75" style="fill:#fff"/><path d="M84.3,32.81a5.26,5.26,0,0,1-6.17,0,3,3,0,0,1-1-2.22H79a1.63,1.63,0,0,0,.53,1.17,3.12,3.12,0,0,0,3.42,0,1.15,1.15,0,0,0,.4-.91c0-.7-.57-1-1.19-1.13s-1.56-.15-2.22-.26a2.68,2.68,0,0,1-2.55-2.65A2.53,2.53,0,0,1,78.22,25a4.41,4.41,0,0,1,2.94-1,4.24,4.24,0,0,1,2.8.93,2.77,2.77,0,0,1,1,2H83.11a1.51,1.51,0,0,0-.43-.94,2.43,2.43,0,0,0-1.53-.51,2.36,2.36,0,0,0-1.63.53,1.06,1.06,0,0,0-.34.8c0,.62.42.94,1,1s1.53.16,2.18.24a2.84,2.84,0,0,1,2.76,2.75,2.6,2.6,0,0,1-.84,2" style="fill:#fff"/><polygon points="94.73 33.65 94.73 26.86 92.13 33.52 90.78 33.52 88.19 26.78 88.19 33.65 86.42 33.65 86.42 24.14 88.89 24.14 91.52 30.91 94.17 24.14 96.5 24.14 96.5 33.65 94.73 33.65" style="fill:#fff"/><path d="M103.31,26.16a2.31,2.31,0,0,0-1.59-.63,2.26,2.26,0,0,0-1.58.63,3.84,3.84,0,0,0-.72,2.74,3.81,3.81,0,0,0,.72,2.73,2.26,2.26,0,0,0,1.58.63,2.31,2.31,0,0,0,1.59-.63A3.86,3.86,0,0,0,104,28.9a3.89,3.89,0,0,0-.72-2.74m1.3,6.59a4.39,4.39,0,0,1-5.77,0,4.79,4.79,0,0,1-1.28-3.85A4.84,4.84,0,0,1,98.84,25a4.42,4.42,0,0,1,5.77,0,4.84,4.84,0,0,1,1.27,3.87,4.78,4.78,0,0,1-1.27,3.85" style="fill:#fff"/><path d="M111,33.83A3.57,3.57,0,0,1,107,30V24.14h1.83V30c0,1.36.65,2.29,2.11,2.29s2.11-.93,2.11-2.29V24.14h1.82V30A3.56,3.56,0,0,1,111,33.83" style="fill:#fff"/><polygon points="120.66 25.75 120.66 33.65 118.83 33.65 118.83 25.75 115.86 25.75 115.86 24.14 123.63 24.14 123.63 25.75 120.66 25.75" style="fill:#fff"/><polygon points="130.48 33.65 130.48 29.5 126.36 29.5 126.36 33.65 124.53 33.65 124.53 24.14 126.36 24.14 126.36 27.85 130.48 27.85 130.48 24.14 132.3 24.14 132.3 33.65 130.48 33.65" style="fill:#fff"/><path d="M125.67,16a1.68,1.68,0,0,0-2.29,0,2.8,2.8,0,0,0-.52,2,2.76,2.76,0,0,0,.52,2,1.66,1.66,0,0,0,2.29,0,2.76,2.76,0,0,0,.52-2,2.8,2.8,0,0,0-.52-2m.94,4.77a3.21,3.21,0,0,1-4.17,0,3.47,3.47,0,0,1-.92-2.79,3.48,3.48,0,0,1,.92-2.79,3.18,3.18,0,0,1,4.17,0,3.48,3.48,0,0,1,.92,2.79,3.47,3.47,0,0,1-.92,2.79" style="fill:#fff"/><polygon points="129.62 15.64 129.62 17.49 132.91 17.49 132.91 18.62 129.62 18.62 129.62 21.39 128.3 21.39 128.3 14.51 133.31 14.51 133.31 15.64 129.62 15.64" style="fill:#fff"/><rect x="144.99" width="0.41" height="47.54" style="fill:#fff"/><path d="M159.7,11.08s20.61-.48,32,2.42c3.52.87,3.87,3,3.91,5a16.65,16.65,0,0,0,.22,2,6.84,6.84,0,0,0-4.43-4.85C179,11.45,159.7,11.08,159.7,11.08Z" style="fill:#fff"/><path d="M199.31,9c.95-.86,2.78-4.33-4-3.72C178.2,6.36,159.33,9,159.33,9s26.5-2.78,36.27-1.6c3.43.4,2.37,3.05,2.21,3.39A11.12,11.12,0,0,1,199.3,9Z" style="fill:#fff"/><path d="M186,9c-8.6-.28-26.46,1-26.46,1s18.35-.92,32.16,1.17c3.43.47,4.3,2.16,4.4,3.53a14.49,14.49,0,0,1,.71-2C197.6,10,194.69,8.85,186,9Z" style="fill:#fff"/><path d="M196.07,21.55s1.36,4.84,7.64,6.23A21.88,21.88,0,0,0,221,24.15a13.55,13.55,0,0,1-11.84,7.39A13,13,0,0,1,196.07,21.55Z" style="fill:#fff"/><path d="M199.34,8.92a11.05,11.05,0,0,0-1.54,1.93c-.82,2.14,1.41,3.91,5,4.08,11.52-.08,16.54-5.83,16.54-5.83L221.75,0a21.53,21.53,0,0,1-10.17,8.68c-5.7,2.61-11.54,2.84-12.31,1.57A1.09,1.09,0,0,1,199.34,8.92Z" style="fill:#fff"/><path d="M196.77,12.7c-.42,1.68-.78,6.73,9.19,6.31,13.18-1,21.55-10.56,21.55-10.56l-3.45,8.65s-8.19,8.33-20,6.77c-8.13-1.1-8.35-6.7-8.35-6.7A11.87,11.87,0,0,1,196.77,12.7Z" style="fill:#fff"/><path d="M158.35,33.85V26.24c0-.52-.06-2.51-.09-2.94A2.19,2.19,0,0,0,157,21.51h3.7V33.85Z" style="fill:#fff"/><path d="M157.85,18.12a1.47,1.47,0,0,1,1.48-1.49,1.45,1.45,0,0,1,1.45,1.49,1.43,1.43,0,0,1-1.4,1.45A1.48,1.48,0,0,1,157.85,18.12Z" style="fill:#fff"/><path d="M172.4,24A2.63,2.63,0,0,0,170,22.11c-2.08,0-3.82,1.76-3.82,5.24s1.38,5.38,4.2,5.38a4.25,4.25,0,0,0,3.18-1.56l.54.62a5.71,5.71,0,0,1-4.52,2.11c-3.8,0-6.18-2.47-6.18-6,0-3.83,2.76-6.79,6.63-6.57A6,6,0,0,1,174,23Z" style="fill:#fff"/><path d="M183,21.32a4.55,4.55,0,0,0-3.9,1.86V21.43h-3.53a2.45,2.45,0,0,1,1.13,1.47,26.43,26.43,0,0,1,.14,3.39v14h3.53a2.48,2.48,0,0,1-1.13-1.47,12.13,12.13,0,0,1-.14-2.24V32.26a4.83,4.83,0,0,0,3.73,1.62,6,6,0,0,0,6.1-6.32C188.93,23.85,186.41,21.32,183,21.32Zm-.65,11.75q-3.16,0-3.25-4V25.8a4.34,4.34,0,0,1,.49-2.24,3.38,3.38,0,0,1,2.78-1.49c2.5,0,3.88,1.91,3.88,5.57S184.65,33.07,182.35,33.07Z" style="fill:#fff"/></g></g></svg>