<svg xmlns="http://www.w3.org/2000/svg" viewBox="0 0 202.72 45.93"><g id="Layer_2" data-name="Layer 2"><g id="Layer_1-2" data-name="Layer 1"><path d="M8.78,12.53S32.09,12,45,15.26c4,1,4.37,3.44,4.41,5.69a20.52,20.52,0,0,0,.25,2.25,7.72,7.72,0,0,0-5-5.48C30.55,13,8.78,12.53,8.78,12.53Z" style="fill:#fff"/><path d="M53.57,10.12c1.08-1,3.15-4.9-4.56-4.21C29.7,7.19,8.37,10.22,8.37,10.22s30-3.14,41-1.81c3.88.46,2.68,3.45,2.51,3.84a13.19,13.19,0,0,1,1.67-2.11Z" style="fill:#fff"/><path d="M38.47,10.2c-9.73-.31-29.92,1.15-29.92,1.15s20.75-1,36.37,1.33c3.87.53,4.85,2.43,5,4a15.36,15.36,0,0,1,.8-2.28C51.65,11.3,48.36,10,38.47,10.2Z" style="fill:#fff"/><path d="M49.92,24.37s1.54,5.47,8.63,7.05C69.66,34,78.13,27.31,78.13,27.31a15.35,15.35,0,0,1-13.39,8.36C52.24,35.73,49.92,24.37,49.92,24.37Z" style="fill:#fff"/><path d="M53.62,10.08a12.28,12.28,0,0,0-1.75,2.19c-.93,2.42,1.59,4.43,5.65,4.61,13-.09,18.71-6.59,18.71-6.59L79,0a24.36,24.36,0,0,1-11.5,9.81C61,12.77,54.4,13,53.53,11.6A1.25,1.25,0,0,1,53.62,10.08Z" style="fill:#fff"/><path d="M50.71,14.37c-.48,1.89-.89,7.6,10.39,7.13C76,20.4,85.47,9.56,85.47,9.56l-3.9,9.78S72.3,28.76,58.92,27c-9.2-1.25-9.45-7.57-9.45-7.57A13.15,13.15,0,0,1,50.71,14.37Z" style="fill:#fff"/><rect x="95.64" y="0.04" width="1" height="45.89" style="fill:#fff"/><path d="M2.66,18.53,0,19.54V35.36c0,2.36.76,3.11,3.22,3.1H4.78C3,37.61,2.66,36.69,2.66,34.7Z" style="fill:#fff"/><path d="M14,24.16A5.44,5.44,0,0,0,9.87,26V17.29h-4A2.79,2.79,0,0,1,7.16,19a24.39,24.39,0,0,1,.15,3.38V38.46H9.87V36.53a5.09,5.09,0,0,0,4.35,2.06c3.84,0,6.68-3,6.68-7.17S17.88,24.16,14,24.16Zm-.52,13.58a3.84,3.84,0,0,1-3.14-1.68,3.74,3.74,0,0,1-.51-1.78V28.86c.22-2.53,1.43-3.78,3.62-3.78,2.59,0,4.39,2.22,4.39,6.25S16.33,37.74,13.52,37.74Z" style="fill:#fff"/><path d="M24,38.46V29.71c0-.6-.07-2.89-.1-3.38a2.51,2.51,0,0,0-1.47-2.06h4.26V38.46Z" style="fill:#fff"/><path d="M23.4,20.36a1.69,1.69,0,0,1,1.7-1.7A1.69,1.69,0,0,1,25.16,22,1.71,1.71,0,0,1,23.4,20.36Z" style="fill:#fff"/><path d="M39.92,27.25a3,3,0,0,0-2.75-2.14c-2.4,0-4.4,2-4.4,6s1.59,6.19,4.83,6.19a4.9,4.9,0,0,0,3.67-1.79l.62.71a6.6,6.6,0,0,1-5.21,2.44c-4.38,0-7.12-2.85-7.12-6.89,0-4.4,3.18-7.8,7.64-7.55a6.87,6.87,0,0,1,4.53,1.87Z" style="fill:#fff"/><rect x="201.56" y="5.76" width="1.17" height="32.7" style="fill:#fff"/><rect x="106.77" y="5.76" width="0.35" height="9.76" style="fill:#fff"/><rect x="138.79" y="5.76" width="0.76" height="21.23" style="fill:#fff"/><path d="M124.24,12a3.65,3.65,0,0,0,.26-1.25c.07-.55.14-.8.44-1a4.07,4.07,0,0,1,.35-.25c.8-.52.95-1,.9-1a5.87,5.87,0,0,1-1,.86,4.5,4.5,0,0,0-.37.27c-.35.29-.41.54-.48,1.12a4.56,4.56,0,0,1-.26,1.2c-.06.16-.12.21-.08.24a.33.33,0,0,0,.27-.17" style="fill:#fff"/><path d="M114.83,13.57c.18,0,.13.07,0,.12-.85.5-1,.82-.93,1.11s.51.41.8.23a2.45,2.45,0,0,0,.23-.29,2.57,2.57,0,0,1,1.43-1.06c1.23-.24,1.71.36,1.77.61,0,.09.1-.48-.47-.91a5.58,5.58,0,0,0-1.32-.66,3.05,3.05,0,0,0-1-.24,1.37,1.37,0,0,0-.31,0,2.56,2.56,0,0,0-.86.54,2.67,2.67,0,0,1-.53.39,3.15,3.15,0,0,0,1.18.12" style="fill:#fff"/><path d="M113.76,15.45a1,1,0,0,0,.36,0s-.49,0-.54-.65A.84.84,0,0,1,114,14l.26-.19H114a1.84,1.84,0,0,1-1.43-.75l-.08-.14-.1.13a1.75,1.75,0,0,0-.16,1.82,3,3,0,0,0,1.58.61" style="fill:#fff"/><path d="M111.8,21.16a.65.65,0,0,1,.53.24.54.54,0,0,1,.17.45c0,.2-.31.42-.31.42a.7.7,0,0,0,.47.18.9.9,0,0,0,.74-.44,1.58,1.58,0,0,0,1.25.53,2.42,2.42,0,0,0,1.18-.28s-.67,0-1.45-1.13a2.57,2.57,0,0,0-.59-.68,1.42,1.42,0,0,0,.52-1.77,1.25,1.25,0,0,0-.14-.24,1.8,1.8,0,0,1-.07.24c0,.09-.14.41-.9.57s-1,.37-1,.56h-.25a1.56,1.56,0,0,0-1.64,1.07,2.68,2.68,0,0,0,.3,2.06,1.84,1.84,0,0,1,.28-1.35,1.09,1.09,0,0,1,.94-.42" style="fill:#fff"/><path d="M127.68,14.08c-.32.68-.24,1.56.9,2.36a3.09,3.09,0,0,1,.9.83h-.15a1.51,1.51,0,0,0-.85.28,1.28,1.28,0,0,0-.56,1.31.77.77,0,0,0,.07.23s.51-1.11,1.29-.56a1.78,1.78,0,0,1,.3,2.24,1.93,1.93,0,0,1-1.56.72,1,1,0,0,0,.67.37l.29,0h.2a2.76,2.76,0,0,0,1.83-.75l.18-.25a4.38,4.38,0,0,1,.38-.56,1.5,1.5,0,0,1-.31-1.83,2.16,2.16,0,0,1,.42-.59l.06-.06,0,.09a2.54,2.54,0,0,0,.17.46l0,0a.66.66,0,0,0,.47.35,1.13,1.13,0,0,0,.11-.53c.09-1.62.87-1.75.87-1.75a.91.91,0,0,0-.56-.17,1.9,1.9,0,0,0-1.51,1,2.72,2.72,0,0,0-.94-1.39,2.63,2.63,0,0,1-1.07-2,1.17,1.17,0,0,1,.91-1.05,1,1,0,0,0-.65,0c-.26.08-1.61.65-1.92,1.33" style="fill:#fff"/><path d="M129.72,14.24a2.68,2.68,0,0,1,.46.48l.09.1a1.81,1.81,0,0,0,1.43.84h0a1.64,1.64,0,0,0,1.12-.43,1.52,1.52,0,0,0,.29-.34.62.62,0,0,1-.33,0c-.43,0-.91-.68-1.25-1.18a2.91,2.91,0,0,0-.59-.64.93.93,0,0,0-1.22,1.15" style="fill:#fff"/><path d="M132.81,14.56h.11a.61.61,0,0,0,.32-.09,1.73,1.73,0,0,0,0-1.18,1.58,1.58,0,0,0-.15-.3l-.1.13a2.07,2.07,0,0,1-1.12.5c.41.56.75.89,1,.93" style="fill:#fff"/><path d="M129.05,18.62a.94.94,0,0,0-.87.75,1.43,1.43,0,0,0,1,.44l-.16-.19a.74.74,0,0,1-.15-.81.72.72,0,0,1,.14-.19" style="fill:#fff"/><path d="M134,21.31a.75.75,0,0,1,.18,1c-.47.7-1.36.79-2.47.79a8.59,8.59,0,0,1-1.39-.16,4.23,4.23,0,0,1-2-.93,2.53,2.53,0,0,1-.66-.77,1.82,1.82,0,0,0,1.81-.73,1.23,1.23,0,0,0,.15-.48,1.32,1.32,0,0,1-1.12.48,3.59,3.59,0,0,1-2.1-.85,2.13,2.13,0,0,0,0-.27,1.13,1.13,0,0,0-.38-1,5.21,5.21,0,0,0-.52-.31s-.16-.07-.23,0,0-.08-.15-.15a4.72,4.72,0,0,0-.7-.25h.06a.13.13,0,0,0,.11,0,.54.54,0,0,0,0-.28l0-.12c0-.18-.08-.46-.09-.55a1,1,0,0,0,.45.13c.05,0,.08,0,.1,0h0s0,0,0-.05a.36.36,0,0,1-.13-.12v0a1.07,1.07,0,0,1-.18-.48,1.28,1.28,0,0,0,0-.19v0l0,0a2.18,2.18,0,0,0,1.07.3,1.12,1.12,0,0,0,1.16-.23.85.85,0,0,0-.08-1.12.64.64,0,0,0-.36-.2l0,0v0a.92.92,0,0,1,0,.18.3.3,0,0,1-.1.26.23.23,0,0,1-.19.09s0,0-.09,0l-.16-.15h0a.48.48,0,0,0,.25-.29h0s0,0-.07,0a1,1,0,0,1-.62-.29h0a.26.26,0,0,0,.09-.16h0c-.26-.06-.37-.37-.5-.49l0,0-.09-.08-.15-.1h0a2.88,2.88,0,0,0,1.53-1.91v0h0a3.87,3.87,0,0,0,1.31-1.15c0-.06.11-.22.09-.26a.11.11,0,0,0-.08,0h-.13l0,0a1.26,1.26,0,0,0,.37-.81c0-.08,0-.18,0-.21h0s0,0,0,0a.42.42,0,0,1-.14.1l0,0,0,0A1.4,1.4,0,0,0,128,8c0-.22-.11-.32-.16-.32l0,0a.78.78,0,0,1,0,.14h0a1.53,1.53,0,0,0-.06-1.2c0-.08-.18-.25-.24-.25a0,0,0,0,0,0,0,1.35,1.35,0,0,1-.18.59h0a1.62,1.62,0,0,0-.72-1.59.35.35,0,0,0-.17,0l-.08,0s0,0,0,.11A1.78,1.78,0,0,1,126.29,7V7l-.07-.11c-.06-.06-.17-.15-.23-.15l0,0h0a2,2,0,0,1-.65,1.46l0,0v0c0-.09,0-.15-.06-.17h0l-.07,0,0,0v0c.2-.68.06-1.43-.13-1.51h0s-.07.07-.13.19h0a2,2,0,0,0-.45-1.38.27.27,0,0,0-.14,0,.07.07,0,0,0-.06,0v0a1.24,1.24,0,0,1,0,.59h0A1.49,1.49,0,0,0,123,4.75h-.17c-.09,0-.13,0-.14,0h0a3.37,3.37,0,0,1,.6,1v0l-.07,0a.55.55,0,0,0-.18-.05h0a0,0,0,0,0,0,0,1.65,1.65,0,0,1,.18,1c-.05.19-.11.37-.16.51s0,.14-.07.19a2.87,2.87,0,0,0-.08.38V8l0,0a1.42,1.42,0,0,0-.57-.39,1.93,1.93,0,0,0-.7-.13,1.84,1.84,0,0,0-.87.21l-.39.21a1.54,1.54,0,0,0-1,.61c-.4,0-.65.4-.34.53a.28.28,0,0,1-.06.1,1.11,1.11,0,0,1-.35.21c-.25.1-.34.26-.32.38a.23.23,0,0,0,.09.11s.07-.12.3-.17a1.91,1.91,0,0,0,.47-.11l.14,0a1.46,1.46,0,0,1-.21.32c-.28.23-.3.34-.3.34s0,.12.05.12h0a2,2,0,0,0,.75-.4l.15-.11.27-.2h.1a1.1,1.1,0,0,0,.8-.68l0-.05a.72.72,0,0,1,.39-.33,1,1,0,0,1,.27,0,.79.79,0,0,1,.3.06.68.68,0,0,1,.29.39,1.68,1.68,0,0,1-.52,1.47h0l.07-.43-.08,0a2.87,2.87,0,0,0-.57-.11l-.11,0,0,.62,0,.63-.18.15a2.13,2.13,0,0,0-.66,1.24v0a.11.11,0,0,1,0,.05,1.32,1.32,0,0,1-.26.68s0,0,0,0a.29.29,0,0,0,.24.1.45.45,0,0,0,.16,0h0a1.92,1.92,0,0,0,1.28,1.33h0l0,0a2.66,2.66,0,0,0,1,.55,1.11,1.11,0,0,1-.33.32v0a.76.76,0,0,0,.42.11l0,0c0,.08-.08.19-.17.19a.69.69,0,0,1-.43-.28c-.09-.09-.13-.21-.25-.35s-.19-.22-.29-.25c-.34-.11-.48,0-.48,0s-.28,0-.34,0,0,0,0,.05a1.35,1.35,0,0,1,.29,0,.54.54,0,0,1,.35.06s.06.08,0,.08h-.05a.3.3,0,0,0-.29,0h0l.05,0h0l.23.06c.12,0,.19.05.43.32s.16.24.34.33l.07.05.12,0,.36.18c.11,0,.22.11.28.05a.53.53,0,0,0,.08-.23.86.86,0,0,1,0-.18l.05,0s.15.31.41.28a1.15,1.15,0,0,1,0-.46,1.29,1.29,0,0,1,.15.17.85.85,0,0,1,.18.57v.08c0,.06,0,.11,0,.13h0s.06,0,.11-.07l0,0,.11-.09a1.25,1.25,0,0,1,.08.41c0,.19,0,.21,0,.25a.07.07,0,0,1-.06.05,1.1,1.1,0,0,1-.53-.07l-.19-.07a.71.71,0,0,0-.28,0,.45.45,0,0,0-.33.11l0,0c-.22,0-.23.15-.23.19h0v0s0,0,0,0a.34.34,0,0,1,.15-.06h.3c.15,0,.21,0,.18,0l-.07,0c-.15.05-.19.09-.2.11v0h-.17a.18.18,0,0,0-.13.12.25.25,0,0,0-.2-.09,5.34,5.34,0,0,0-1,.23c-.13.05-.12.15-.12.15a.17.17,0,0,0-.13-.05l-.06-.24.15-.14.29.09.12-.19-.21-.22a.7.7,0,0,0,.06-.19l.29-.07a.49.49,0,0,0,0-.12v-.11l-.29-.09a1.29,1.29,0,0,0,0-.19l.22-.21a1.28,1.28,0,0,0-.11-.2l-.29.07-.14-.15.09-.28a1.37,1.37,0,0,0-.2-.13l-.22.21a1.06,1.06,0,0,0-.19-.06l-.07-.29h-.23l-.08.29-.2,0-.2-.22-.21.11.07.3a.86.86,0,0,0-.14.13l-.29-.09a1.06,1.06,0,0,0-.12.2l.2.22a1.05,1.05,0,0,0,0,.19l-.3.07s0,.07,0,.11v.12l.29.08a1.46,1.46,0,0,0,0,.2l-.22.2a.78.78,0,0,0,.11.2l.29-.06a.93.93,0,0,0,.14.14l-.09.29a.76.76,0,0,0,.19.12l.22-.2.19.05.07.3h.23l.09-.28.19,0,.15.16a5.87,5.87,0,0,0-.57.29.2.2,0,0,0-.1.18.18.18,0,0,0-.18,0,1.06,1.06,0,0,0-.38.83l-.58.27a7.47,7.47,0,0,1-2,.72c-.82.1-1.07-.21-1.16-.37s0-.09,0-.14a1.09,1.09,0,0,1,.42-1.22.93.93,0,0,1,.35-.08.7.7,0,0,1,.69.41.94.94,0,0,1,.1.36.79.79,0,0,0,.09-.33,1.52,1.52,0,0,0-1.45-1.57,4.23,4.23,0,0,1,1.12-1.1A2.49,2.49,0,0,0,118.1,15a1,1,0,0,0-.65-.91,1.44,1.44,0,0,0-1.33.14c0,.48-.3.83-1,1.69a3.94,3.94,0,0,0-.85,1.47,1.79,1.79,0,0,0-1.68-1.06,1.27,1.27,0,0,0-.61.11s.8,0,.89,1.54a2,2,0,0,0,.3,1.05h0c.69,0,.9-.95.9-.95l0-.1.07.07a2.23,2.23,0,0,1,.41.59,1.54,1.54,0,0,1-.29,1.87,5,5,0,0,1,.42.56,2.78,2.78,0,0,0,.23.31,2.62,2.62,0,0,0,1.64.53,4.37,4.37,0,0,0,.83-.09,4.49,4.49,0,0,1-3.18,1.48c-2.53.19-2.67-1-2.65-1.41a1.06,1.06,0,0,1,.1-.4.65.65,0,0,0-.55.28,1.31,1.31,0,0,0,.46,2,4.75,4.75,0,0,0,.52.16,2.34,2.34,0,0,0-.89,1.59l0,.35.23-.27a2.2,2.2,0,0,1,1.33-.68,4.31,4.31,0,0,0,1.5-.51,8.67,8.67,0,0,1-1.09.78l-.53.34h0a1.88,1.88,0,0,0-.5,1.9,1.24,1.24,0,0,0,.27.47c.28-1,1.91-1.92,2.45-2.19a2,2,0,0,0,.28,1.3c.32.42,1,.23,1,.23s-.57-.29-.29-1.24a2.64,2.64,0,0,1,.44-.87,23.87,23.87,0,0,0,.7,7,5.22,5.22,0,0,0-2.67-2.29,3.27,3.27,0,0,0,.57-.18,1.69,1.69,0,0,1,.69-.2.83.83,0,0,1,.67.58,1.8,1.8,0,0,0-.41-1.32,1.46,1.46,0,0,0-1.11-.41h-.1a1.2,1.2,0,0,0-.09-.69,1.26,1.26,0,0,0-.84-.59l-.28-.08.17.24a.91.91,0,0,1,.11.67.68.68,0,0,1-.58.46,1.17,1.17,0,0,1-1.19-.49,1.74,1.74,0,0,1-.21-1.51,1.62,1.62,0,0,1,.19-.45s-1.3.59-.53,4.13c.6,2.8-.08,3.92-.13,4a.89.89,0,0,1-.13.17h.22a1.86,1.86,0,0,0,1.31-.55,1.62,1.62,0,0,0,.33-1.22,1.65,1.65,0,0,1,.91,1,.78.78,0,0,1,0,.25.67.67,0,0,0,.15-.22,2.08,2.08,0,0,0-.19-2.1c.76.2,2.87,1,3.34,2.68,0,0,0,.13,0,0a4.75,4.75,0,0,0,0-1.08,11.31,11.31,0,0,0,.6,1.39C119,36.94,122,39,122.64,39.44l.1.06.11-.06c.62-.43,3.65-2.61,4.81-5.19.21-.45.39-.87.55-1.29a5.12,5.12,0,0,0,0,1.07c0,.12,0,0,0,0,.47-1.71,2.58-2.48,3.34-2.68a2.08,2.08,0,0,0-.19,2.1.67.67,0,0,0,.15.22.78.78,0,0,1,.05-.25,1.63,1.63,0,0,1,.91-1,1.62,1.62,0,0,0,.33,1.22,1.86,1.86,0,0,0,1.31.55h.22a.89.89,0,0,1-.13-.17c-.05-.08-.73-1.2-.13-4,.76-3.54-.49-4.13-.49-4.13a1.22,1.22,0,0,1,.15.37,1.8,1.8,0,0,1-.3,1.62c-.36.4-1.33.81-1.68,0a.83.83,0,0,1,.11-.67L132,27l-.27.08a1.26,1.26,0,0,0-.84.59,1.12,1.12,0,0,0-.09.69h-.1a1.46,1.46,0,0,0-1.11.41,1.8,1.8,0,0,0-.41,1.32.83.83,0,0,1,.67-.58,1.69,1.69,0,0,1,.69.2,3.27,3.27,0,0,0,.57.18,5.21,5.21,0,0,0-2.64,2.23,23.43,23.43,0,0,0,.7-7.06,1.94,1.94,0,0,1,.47,1.62.79.79,0,0,0,.18-.41A2.46,2.46,0,0,0,129,24.4c-.31-.31-1.12-.94-1.25-1.11a6,6,0,0,1-1.11-1.48,3.18,3.18,0,0,0,1.55.89.84.84,0,0,1-.18.5c3.46,1.92,1.72,3.89,1.43,4.19l.24-.05a1.16,1.16,0,0,0,1-.76,1.41,1.41,0,0,0,0-.93,16.65,16.65,0,0,0,1.4,1c.95.62.94,1,.95,1.24a1.34,1.34,0,0,0,.33-.53,1.65,1.65,0,0,0-.39-1.69c-.42-.48-.8-.55-1.58-1.3a9.56,9.56,0,0,0,1.31.34l.24,0a1.5,1.5,0,0,1,1.2.94s.4-1.28-.61-1.8a2.51,2.51,0,0,0,1.22-.48,1.3,1.3,0,0,0,.29-1.52,1,1,0,0,0-1-.57m-8.41.18c0,.05,0,.11-.07.17a2.65,2.65,0,0,0-.09.37,2.17,2.17,0,0,0-.39.06,1.17,1.17,0,0,1,.12-.38,2.63,2.63,0,0,0,.31-1l.2.25a1,1,0,0,1-.08.54m-1.92,3.82-.33,1.51-.57,0-.58,0-.17-.77v0l-.14-.61a3.87,3.87,0,0,0,1.18-.73h.73Zm0,.87a9.56,9.56,0,0,1,1.19.21l-.08.69a8.89,8.89,0,0,0-1.25-.24Zm-1.73.66a9.31,9.31,0,0,0-1.26.24l-.08-.69a7.92,7.92,0,0,1,1.2-.21Zm1.46-2.47,0,0,.14-.13.54-.47a1.91,1.91,0,0,1,.4.64Zm2.64,0h-1.23a2,2,0,0,0-.21-.47c.11-.23,1.36-.75,1.54-.2a1.06,1.06,0,0,1-.1.67m.3,0h0a1.42,1.42,0,0,0-.14-1.4h0c-.35-.32-.88-.29-1.55.09a6.69,6.69,0,0,0-1.19.93,4.88,4.88,0,0,1-2,1.26l.39-.89h0a10.12,10.12,0,0,1,2.78-1.89l0,0a1.65,1.65,0,0,0,.61.14.52.52,0,0,1-.23-.28,1.16,1.16,0,0,1,1.38.5,1.7,1.7,0,0,1-.07,1.56m-1.63-4.84a.6.6,0,0,1-.37.12c-.46,0-.73-.57-.73-.57l-.13-.29a1.23,1.23,0,0,0-.07.26,1.7,1.7,0,0,0,0,.73,11.73,11.73,0,0,1-3.65.71,3.6,3.6,0,0,1,3.11-1.86h.28a3.73,3.73,0,0,1,1.8.5.63.63,0,0,1-.23.4m-6.5,1.5a2.24,2.24,0,0,1,.22-.22,7.13,7.13,0,0,1,1.1-.75,1.26,1.26,0,0,0-.16.3,3.06,3.06,0,0,0-.57.45,12.53,12.53,0,0,0,4.68-.79l.07.11.14.14c-.89.32-3.72,1.24-5.48.76m5.68-.62a1.5,1.5,0,0,0,.37.13,1.33,1.33,0,0,0-.26,1.08,1,1,0,0,0,.37.65A10.44,10.44,0,0,0,121.81,24,3.88,3.88,0,0,0,120,21.39a15.24,15.24,0,0,0,3.9-1m-2.3,3.86-.4.82a2.41,2.41,0,0,1-.06-2.15,4.08,4.08,0,0,1,.46,1.33m3.93-5.91a2.08,2.08,0,0,1,.33.22.87.87,0,0,1,.28.75,1,1,0,0,0-.21-.43,2,2,0,0,0-.54-.38l0-.22a.32.32,0,0,1,.17.06m-.43-.21a1,1,0,0,1,.09.58,1,1,0,0,0,0,.25,4.63,4.63,0,0,0-.74-.36h0s-.13-.06-.2-.39a1.81,1.81,0,0,0-.15-.42,1.92,1.92,0,0,1,1,.34m1.23-2.77a.38.38,0,0,0,.24-.15.68.68,0,0,0,0-.26s.3.36.17.63h0a.31.31,0,0,1-.13,0c-.09,0-.25-.18-.32-.24l0,0Zm-3.15-7.78s0-.12.06-.19a5.32,5.32,0,0,0,.17-.52,1.32,1.32,0,0,0,0-.76v0a.46.46,0,0,1,.15,0c.08,0-.06-.68-.36-1.1l0,0,.05,0c.74.32.78,1.33.78,1.53V7l.21-.39a1.9,1.9,0,0,0,.18-.86h0a2.39,2.39,0,0,1,.09,1.73v0h0a1.66,1.66,0,0,0,.43-.5l0,0V7a2.08,2.08,0,0,1-.12,1.17l-.1.25.25-.11v0a.35.35,0,0,1,0,.14h0l-.34.27-.1.08a3.5,3.5,0,0,0-.67.59,4.61,4.61,0,0,0-.56,1.38v0a3.47,3.47,0,0,0-.29-.25,2.61,2.61,0,0,0,.19-2,3.09,3.09,0,0,0-.14-.32h0a1.6,1.6,0,0,1,.09-.66m-.41,3.69-.12.11-.25-.22.11-.13a1.51,1.51,0,0,1,.26.24m0-.34.21-.22.27.23-.27.2a1,1,0,0,0-.21-.21m-.22.57-.1.09a2.61,2.61,0,0,0-.51-.36l.06-.13a2.42,2.42,0,0,1,.55.4m.49-.17.22-.17,0,.11a1,1,0,0,1-.66.53h0a0,0,0,0,1,0,0Zm-4-2c-.07,0-.49.14-.44.1a.72.72,0,0,1,.21-.11.72.72,0,0,0,.35-.3c.14,0,.34,0,.34,0s-.06-.11-.17-.16l-.15-.05s-.06,0-.05-.1.29-.09.29-.09a.42.42,0,0,1,.28.18.19.19,0,0,1,0,.1.66.66,0,0,0,0,.29h-.12a1.37,1.37,0,0,0-.55.13m.7.09s-.06.09-.06.09a2,2,0,0,1-.59.45c-.11,0,.06-.12.17-.24s.06-.07.09-.12a2.91,2.91,0,0,0,.18-.24.59.59,0,0,1,.33,0l0,0s-.1,0-.15,0m2.7-.67a.89.89,0,0,0-.4-.53.83.83,0,0,0-.39-.09,1.63,1.63,0,0,0-.36.05.84.84,0,0,0-.5.4c-.16.29-.3.62-.72.69h-.14c0-.12-.06-.36,0-.43a.24.24,0,0,0,.33-.16c0-.15-.08-.27-.19-.24s-.19.18-.25.2l0,0a1.06,1.06,0,0,0-.26-.16,1.19,1.19,0,0,1,.76-.43h0a4.18,4.18,0,0,0,.47-.21,1.61,1.61,0,0,1,.78-.19,1.64,1.64,0,0,1,.61.11,1.49,1.49,0,0,1,.81.93,2.34,2.34,0,0,1-.28,2l0,.05-.08.08-.14-.09.23-.37-.09,0a1.91,1.91,0,0,0-.28-.15l-.15-.07a1.75,1.75,0,0,0,.24-1.29m-2.34-.17s0,0,0,0a.11.11,0,0,1,.11.16.09.09,0,0,1-.08.06s0,0,0,0a.16.16,0,0,0,0-.16m2,1.61.19.09.19.09-.15.25-.15-.08-.18-.08Zm-.32.42a1.94,1.94,0,0,1,.3.13,2.11,2.11,0,0,1,.3.16l-.11.14a2.55,2.55,0,0,0-.27-.16l-.26-.11Zm-.25-.61,0,.29-.29-.05V10a2.41,2.41,0,0,1,.35.07m-.35.46.4.08,0,.16a3.18,3.18,0,0,0-.37-.09Zm0,.34a3.39,3.39,0,0,1,.66.2l-.06.14a2.61,2.61,0,0,0-.6-.19Zm2.14,5.05a.26.26,0,0,1-.1-.11c0-.1,0-.15,0-.16s0,0,0,0l-.16.13c-.05-.09-.1-.28-.19-.27h-.23a1.19,1.19,0,0,0,.23-.2,2.73,2.73,0,0,1,.56.26.88.88,0,0,0,0,.34m.73.32,0,.05v-.05a1.09,1.09,0,0,0-.16-.48,1.53,1.53,0,0,0-1-.74,3,3,0,0,1-1.2-.69A1.63,1.63,0,0,1,120.41,13s0-.09-.07-.09h0l-.13.09,0,0a1.44,1.44,0,0,0,.15-.52h0v0a1.86,1.86,0,0,1,.58-1.09v0a1.11,1.11,0,0,1,.15-.12,3.2,3.2,0,0,1,.66.22,2.82,2.82,0,0,1,.54.36.59.59,0,0,0,.1.34.09.09,0,0,0,.09.05h0a1.23,1.23,0,0,0,.92-.69c.05-.13.1-.3.16-.5l0-.11a4.49,4.49,0,0,1,.5-1.27A3.91,3.91,0,0,1,124.7,9c.18-.14.35-.29.51-.44h0a2.87,2.87,0,0,0,.88-1.3h0s0,.05,0,.08a.88.88,0,0,1,0,.24s0,0,0,0h0s.1-.07.17-.17a2.5,2.5,0,0,0,.26-.68,1.74,1.74,0,0,0,0-1h0a.39.39,0,0,1,.09.11,2.16,2.16,0,0,1,.23,1.6v0c0,.11,0,.14,0,.15h0c.05,0,.12-.06.19-.13h0a1.41,1.41,0,0,0,.39-.7v0l0,0a.65.65,0,0,1,.06.25,1.92,1.92,0,0,1-.32,1.22c0,.07,0,.09,0,.1a.09.09,0,0,0,.07,0l.09,0a1,1,0,0,0,.39-.27l0,0v0a.84.84,0,0,1,0,.26,1.42,1.42,0,0,1-.64.88c-.06,0-.07.05-.07.06s.11.06.27.07h0a1.08,1.08,0,0,0,.31-.05h0v0a1.37,1.37,0,0,1-.55.72c-.06,0-.07,0-.07.07s.23.09.34.09h0l0,0a4.76,4.76,0,0,1-1.26,1s0,0,0,.07a4.6,4.6,0,0,1-.39.9,2.78,2.78,0,0,1-1.51,1.11h0s0,0,.11.07c.71.31.67.63.84.72l0,0h0a.13.13,0,0,0-.09,0s0,0,.08.08l.07.05a1.54,1.54,0,0,0,.55.36h0l-.07,0a.57.57,0,0,1-.18,0h-.1l.05.05.33.31c.1.11.1.17.21.26a1.29,1.29,0,0,0,.48.36h0l0,0a.88.88,0,0,1-.78,0h-.07a1.52,1.52,0,0,1-1.09-.43.82.82,0,0,0-.28-.17h0s0,0,0,.1l0,.16s0,.13,0,.22a1.8,1.8,0,0,0,0,.31.82.82,0,0,0,.13.36l0,.06,0,0a.81.81,0,0,1-.33-.31s0-.09-.07-.22v0h0s0,0,0,.09a.88.88,0,0,1-.09.2m-1,1.49H123a4.92,4.92,0,0,1,.78.07.66.66,0,0,1,.13.21,4.54,4.54,0,0,0-1-.09,1,1,0,0,0-.14-.18H123m-1.41.22a4.41,4.41,0,0,1,.8-.18.34.34,0,0,1,.24.09.87.87,0,0,1,.25.36l.13.21a3.06,3.06,0,0,0-.81.07h0s-.16,0-.34-.23a2.1,2.1,0,0,0-.28-.26s0,0,0-.06m-1.22-.58a.65.65,0,0,1,0-1.29.65.65,0,1,1,0,1.29m.16,1a5.59,5.59,0,0,1,.59-.28.3.3,0,0,1,.21,0,.77.77,0,0,1,.15.1,3.1,3.1,0,0,0-.86.36.6.6,0,0,0-.15-.09s0-.06.06-.09m-.38.25a.13.13,0,0,1,.13,0,1.07,1.07,0,0,1,.36.23l.23.16a4.68,4.68,0,0,0-.85.63l-.1,0a1.19,1.19,0,0,1,.23-1m-2.77,2a2,2,0,0,1-.88-.18,2,2,0,0,0,.37,0l.25,0a7.24,7.24,0,0,0,2-.74l.49-.22a2.19,2.19,0,0,0,0,.3,6.84,6.84,0,0,1-2.32.82m1,2.8a1.17,1.17,0,0,0,.84.71h0a.56.56,0,0,0,.22,0,1.49,1.49,0,0,1-.25-1.44c-.35,0-.45-.35-.45-.35.8-.08.78-.69.78-.69.17.25,0,.92-.2,1.32a1,1,0,0,0,0,.72h0a2.62,2.62,0,0,1,.22-.84,2.21,2.21,0,0,0,.25-1.31A4.21,4.21,0,0,1,121,22.73a2.15,2.15,0,0,0-.33,1.64v0H116.9l.23-.16a6.09,6.09,0,0,0,1.25-.85m-1.81,1.3h4.16a3.4,3.4,0,0,0,.36.83.11.11,0,0,0,.1.06h0a3,3,0,0,0,.43-.1l.11.48a7.63,7.63,0,0,0-1.16.21l-.09-.64a.12.12,0,0,0,0-.08.1.1,0,0,0-.09,0,9.45,9.45,0,0,0-1.55.53.11.11,0,0,0-.06.07.14.14,0,0,0,0,.09l.34.54a10.2,10.2,0,0,0-.93.48l-.27-.58a.09.09,0,0,0-.06-.06.14.14,0,0,0-.09,0,10.48,10.48,0,0,0-1.15.81c0-.77,0-1.64,0-2.64m3.9,2.45-.67.24L119,26.12a9.4,9.4,0,0,1,1.26-.44Zm-3.84.67.15.13.13.13c-.08.08-.16.17-.25.25l0-.51m.13,1.69c0-.28-.06-.57-.08-.89l.13-.13a3.19,3.19,0,0,1,.26-.26l.52.49a7.7,7.7,0,0,0-.83.79m1.35-1.19-.35.26-.59-.56,0,0-.22-.21-.25-.23c.33-.27.73-.55,1.08-.78l.61,1.35a2.48,2.48,0,0,0-.26.19m.15-.95a7.42,7.42,0,0,1,1-.5l.37.6a8.75,8.75,0,0,0-1,.55Zm1.48,6.27L118.86,35l.69-1.44a.1.1,0,0,0,0-.09h0l2.67-5.14a.11.11,0,0,0,0-.05.63.63,0,0,1-.05-.22.61.61,0,0,1,.61-.61.61.61,0,0,1,.61.61.62.62,0,0,1,0,.23h0a.58.58,0,0,1-.51.32h0a.09.09,0,0,0-.08.06l-2.81,5-.07,0-.05,0m3,5.51a17.86,17.86,0,0,1-3-2.58l3-5.83,3,5.83a17.46,17.46,0,0,1-3,2.58m3-5.51a.05.05,0,0,0,0,0l-.07,0-2.74-4.93a.73.73,0,0,0,.53-.29l2.59,5,0,0a.07.07,0,0,0,0,.08l.75,1.56ZM125,27.14l.18-1.46a8.05,8.05,0,0,1,1.28.44l-.77,1.26q-.34-.14-.69-.24m.89.32.36-.59a9.66,9.66,0,0,1,1,.5l-.28.64a8.63,8.63,0,0,0-1-.55m1.7,1a4.07,4.07,0,0,0-.48-.33l.61-1.36a9.9,9.9,0,0,1,1.07.75l-1,1.06Zm1.14,1.05a7.84,7.84,0,0,0-.83-.8l.49-.48.42.39c0,.31-.05.61-.08.89m.1-1.17-.28-.26.32-.33c0,.21,0,.4,0,.59m.05-1a12.72,12.72,0,0,0-1.15-.79.14.14,0,0,0-.09,0,.13.13,0,0,0-.07.06l-.27.6a8.17,8.17,0,0,0-.93-.48l.35-.56a.14.14,0,0,0,0-.09.11.11,0,0,0-.06-.07,9.45,9.45,0,0,0-1.55-.53.09.09,0,0,0-.09,0,.14.14,0,0,0,0,.08l-.08.65a7.63,7.63,0,0,0-1.16-.21l.12-.62.14-.66h4.92s0,1.86,0,2.62m-1.05-3.56.59.48.17.17h-2a2,2,0,0,0,0-1.67,1.17,1.17,0,0,0-1-.68,1.35,1.35,0,0,1,.08-.3,1.62,1.62,0,0,1,.06-.17,2.42,2.42,0,0,0,.1-.36l0,0a10,10,0,0,0,1.92,2.5" style="fill:#fff"/><path d="M135.56,20.77a1.58,1.58,0,0,0-1.64-1.08h-.26c-.07-.18-.27-.39-1-.56s-.86-.48-.9-.57a1.8,1.8,0,0,1-.07-.24,1.25,1.25,0,0,0-.14.24,1.42,1.42,0,0,0,.52,1.77,2.4,2.4,0,0,0-.59.68c-.78,1.16-1.46,1.13-1.46,1.13a2.34,2.34,0,0,0,1.18.28,1.58,1.58,0,0,0,1.26-.53.87.87,0,0,0,.73.44h0a.67.67,0,0,0,.47-.18.94.94,0,0,1-.31-.41.63.63,0,0,1,.17-.46A.92.92,0,0,1,134,21h0a1.21,1.21,0,0,1,1,.31,1.38,1.38,0,0,1,.44.86,2.47,2.47,0,0,0,.14-1.44" style="fill:#fff"/><path d="M130.35,35.24c.88-.2.57-1.65-.11-1.91a.77.77,0,0,1-.14.93.59.59,0,0,1-.89-.34,1.25,1.25,0,0,1,.18-1.09,4.24,4.24,0,0,0-.71.85c-.27.45-.48,1.78-.7,2.19a1,1,0,0,1-.91.49H127l-.22,0,.11.2a1.16,1.16,0,0,0,1,.6,1.34,1.34,0,0,0,.51-.11,1.66,1.66,0,0,0,.86-.77,1.81,1.81,0,0,0,.42.6c.11.12.23.25.36.42a1.25,1.25,0,0,1,.24.94.66.66,0,0,1-.12.27,1.77,1.77,0,0,0,.81-1.28,1.86,1.86,0,0,0-.6-1.95" style="fill:#fff"/><path d="M118.38,36.36a.91.91,0,0,1-.91-.49,16.38,16.38,0,0,0-.67-2.23,2.78,2.78,0,0,0-.85-1,1.31,1.31,0,0,1,.29,1.24.59.59,0,0,1-.89.34.77.77,0,0,1-.14-.93c-.68.26-1,1.71-.11,1.91a1.84,1.84,0,0,0-.6,1.95,1.77,1.77,0,0,0,.81,1.28.66.66,0,0,1-.12-.27,1.25,1.25,0,0,1,.24-.94c.13-.17.25-.3.36-.42a1.81,1.81,0,0,0,.42-.6,1.66,1.66,0,0,0,.86.77,1.56,1.56,0,0,0,.51.11,1.24,1.24,0,0,0,1.13-.79l-.23,0h-.1" style="fill:#fff"/><path d="M116.27,19.86l.25,0a1.16,1.16,0,0,0,.71-.35.78.78,0,0,0-.81-.85l0,0a.64.64,0,0,1,.14.2.81.81,0,0,1-.17.84Z" style="fill:#fff"/><path d="M122.31,34.89a.85.85,0,0,1,.44,0s-.09-.23-.52-.26-.28-.15-.28-.15-.19.36.36.36" style="fill:#fff"/><path d="M122.76,28.3A.28.28,0,0,0,123,28a.28.28,0,1,0-.55,0,.28.28,0,0,0,.28.28" style="fill:#fff"/><path d="M122.65,32.39l-1.41,3a.11.11,0,0,0,0,.08l1.41,2.94a.1.1,0,0,0,.09.06h0a.08.08,0,0,0,.08-.06l1.43-2.94a.11.11,0,0,0,0-.08l-1.42-3a.11.11,0,0,0-.09,0h0a.11.11,0,0,0-.09,0m.09.27,1.32,2.78-1.32,2.73-1.31-2.73Z" style="fill:#fff"/><path d="M122.75,35a1.21,1.21,0,0,0-.45.73,2,2,0,0,1,.36-.28,1.79,1.79,0,0,0-.34.72,2.41,2.41,0,0,1,.38-.35,2.21,2.21,0,0,0-.29.82,1.32,1.32,0,0,1,.28-.41,2,2,0,0,0-.17.8,1.41,1.41,0,0,1,.2-.39,1.24,1.24,0,0,0,0,.83,1.37,1.37,0,0,0,0-.83A1.86,1.86,0,0,1,123,37a2,2,0,0,0-.16-.8,1.71,1.71,0,0,1,.28.41,2.21,2.21,0,0,0-.29-.82c.11.08.38.35.38.35a1.93,1.93,0,0,0-.34-.72,1.68,1.68,0,0,1,.35.28,1.12,1.12,0,0,0-.45-.73" style="fill:#fff"/><path d="M122.73,33.71a.68.68,0,0,1,0,.34.84.84,0,0,0,.06.84c0-.3.36-.56,0-1.18" style="fill:#fff"/><path d="M122.76,34.94a.79.79,0,0,1,.43,0c.54,0,.36-.36.36-.36s0,.14-.3.14-.49.27-.49.27" style="fill:#fff"/><path d="M149.36,10.44c.93-.22,1.34-1,1.34-2.18,0-2-.89-2.49-3.37-2.49h-3.57v9.74h4c2.28,0,3.23-.65,3.23-2.6C151,11.51,150.57,10.66,149.36,10.44Zm-3.55-3.09h1.42c1.11,0,1.45.24,1.45,1.2s-.31,1.23-1.34,1.23h-1.53Zm1.6,6.58h-1.6V11.17h1.55c1.18,0,1.53.3,1.53,1.46S148.56,13.93,147.41,13.93Z" style="fill:#fff"/><path d="M154.08,10.94a6.34,6.34,0,0,1,2.08-.47h.56V8.72h-.16a4,4,0,0,0-2.72,1l-.15-1H152v6.79h2Z" style="fill:#fff"/><path d="M159.52,15.69a4.37,4.37,0,0,0,2.81-1.12l.15.94h1.62V8.72h-2v4.7a3.8,3.8,0,0,1-1.7.56c-.55,0-.74-.21-.73-.8V8.72h-2V13.8A1.69,1.69,0,0,0,159.52,15.69Z" style="fill:#fff"/><path d="M167.38,10.87a4.34,4.34,0,0,1,1.89-.62c.5,0,.66.17.66.79v4.47h2v-5.1a1.7,1.7,0,0,0-1.9-1.89,4.71,4.71,0,0,0-2.91,1.2l-.15-1h-1.66v6.79h2Z" style="fill:#fff"/><path d="M176.59,15.67a7.4,7.4,0,0,0,3-.51l-.2-1.26c-.92.09-1.91.15-2.53.15-1,0-1.49-.24-1.62-1.25h2.46c1.47,0,2.07-.67,2.07-1.91,0-1.55-.91-2.37-3.23-2.37s-3.46.91-3.46,3.6C173.05,14.63,174,15.67,176.59,15.67Zm0-5.66c.88,0,1.16.22,1.16.86,0,.38-.09.7-.64.7h-1.93C175.22,10.29,175.56,10,176.58,10Z" style="fill:#fff"/><path d="M183.55,14c-.51,0-.77-.22-.77-.69V5.77h-2v8a1.76,1.76,0,0,0,2,1.87,4.76,4.76,0,0,0,1.63-.27L184.1,14Z" style="fill:#fff"/><path d="M157.42,27V22a1.62,1.62,0,0,0-1.79-1.83,5.13,5.13,0,0,0-3.09,1.28l-.07-1.11h-.73V27h.88V22.05a5.21,5.21,0,0,1,2.78-1.16c.81,0,1.15.36,1.15,1.31V27Z" style="fill:#fff"/><rect x="158.59" y="20.31" width="0.87" height="6.67" style="fill:#fff"/><polygon points="167.05 20.32 166.12 20.32 163.75 26.45 161.41 20.32 160.47 20.32 163.15 26.98 164.38 26.98 167.05 20.32" style="fill:#fff"/><path d="M172.92,26.23a19.46,19.46,0,0,1-2.3.16c-1.53,0-2.21-.49-2.32-2.31h3.34c1.09,0,1.55-.66,1.53-1.86,0-1.38-.87-2.08-2.78-2.08-2.13,0-3,.88-3,3.48s.87,3.53,3.11,3.53a8.84,8.84,0,0,0,2.52-.33Zm-2.49-5.34c1.29,0,1.85.4,1.86,1.34,0,.66-.17,1.16-.86,1.16H168.3C168.33,21.5,168.87,20.89,170.43,20.89Z" style="fill:#fff"/><path d="M144.67,36.7V28.94h-.91v7.87a1.55,1.55,0,0,0,1.75,1.65h3.61v-.75h-3.46A.89.89,0,0,1,144.67,36.7Z" style="fill:#fff"/><path d="M152.57,31.61c-2.25,0-3.08,1-3.08,3.51s.83,3.5,3.08,3.5,3.06-.93,3.06-3.5S154.82,31.61,152.57,31.61Zm0,6.27c-1.61,0-2.15-.65-2.15-2.76s.54-2.75,2.15-2.75,2.15.65,2.15,2.75S154.18,37.88,152.57,37.88Z" style="fill:#fff"/><path d="M160.73,31.61a5.22,5.22,0,0,0-3.09,1.28l-.07-1.1h-.73v6.67h.89V33.53a5.11,5.11,0,0,1,2.77-1.16c.81,0,1.16.36,1.16,1.31v4.78h.87v-5A1.62,1.62,0,0,0,160.73,31.61Z" style="fill:#fff"/><path d="M168.67,32.23a5.37,5.37,0,0,0-2.46-.62c-1.73,0-2.5.92-2.5,3.5,0,2.4.66,3.51,2.39,3.51a4.11,4.11,0,0,0,2.67-1.19l.1,1h.67V28.94h-.87Zm0,4.56a3.66,3.66,0,0,1-2.33,1.06c-1.24,0-1.72-.65-1.72-2.75s.48-2.72,1.77-2.72a6.86,6.86,0,0,1,2.28.48Z" style="fill:#fff"/><path d="M173.84,31.61c-2.25,0-3.07,1-3.07,3.51s.82,3.5,3.07,3.5,3.07-.93,3.07-3.5S176.09,31.61,173.84,31.61Zm0,6.27c-1.61,0-2.15-.65-2.15-2.76s.54-2.75,2.15-2.75S176,33,176,35.12,175.46,37.88,173.84,37.88Z" style="fill:#fff"/><path d="M182,31.61a5.17,5.17,0,0,0-3.09,1.28l-.07-1.1h-.73v6.67H179V33.53a5.11,5.11,0,0,1,2.77-1.16c.82,0,1.16.36,1.16,1.31v4.78h.87v-5A1.62,1.62,0,0,0,182,31.61Z" style="fill:#fff"/><path d="M147.14,27.15c2.51,0,3.39-1,3.39-3.76V17.48h-.89v5.91c0,2.19-.66,3-2.5,3s-2.49-.77-2.49-3V17.48h-.89v5.91C143.76,26.12,144.63,27.15,147.14,27.15Z" style="fill:#fff"/><path d="M177.77,20.14a4.52,4.52,0,0,0-2.65,1.28l-.07-1.11h-.73V27h.88V22.05A4.56,4.56,0,0,1,177.72,21h.18l.22-.8Z" style="fill:#fff"/><path d="M159,17.91a.58.58,0,1,0,.58.58A.58.58,0,0,0,159,17.91Z" style="fill:#fff"/><rect x="185.1" y="20.31" width="0.87" height="6.67" style="fill:#fff"/><path d="M185.53,17.91a.58.58,0,1,0,.58.58A.58.58,0,0,0,185.53,17.91Z" style="fill:#fff"/><path d="M197.5,20.31l-2.38,6.13-2.34-6.13h-.94l2.89,7.14a2.89,2.89,0,0,1-1.92,1.82l.11.57a3.25,3.25,0,0,0,2.65-2.39l2.85-7.14Z" style="fill:#fff"/><path d="M182.37,23.46l-2.06-.39c-.66-.14-1-.32-1-1.12s.5-1.07,1.82-1.06a24.57,24.57,0,0,1,2.53.17l.1-.59a10.77,10.77,0,0,0-2.74-.33c-1.75,0-2.56.38-2.56,1.81a1.59,1.59,0,0,0,1.49,1.82l2,.39c.65.12,1.09.3,1.09,1.09s-.51,1.14-2.07,1.16a17.45,17.45,0,0,1-2.31-.2l-.09.6a9.42,9.42,0,0,0,2.55.34c1.85,0,2.77-.38,2.77-1.9A1.6,1.6,0,0,0,182.37,23.46Z" style="fill:#fff"/><path d="M190.09,26.4c-.67,0-1-.34-1-1V21h2.17l-.28-.69H189.1v-2h-.87v2h-1.16V21h1.16v4.48a1.48,1.48,0,0,0,1.66,1.67,6,6,0,0,0,1.38-.19l-.11-.63A9.93,9.93,0,0,1,190.09,26.4Z" style="fill:#fff"/></g></g></svg>