<svg xmlns="http://www.w3.org/2000/svg" viewBox="0 0 250.88 45.93"><g id="Layer_2" data-name="Layer 2"><g id="Layer_1-2" data-name="Layer 1"><line x1="162.75" x2="162.75" y2="45.93" style="fill:#fff"/><rect x="162.45" width="0.61" height="45.93" style="fill:#fff"/><path d="M16.83,2.77H.5V24.92c0,8.91,16,18.5,16.33,18.67h0c.3-.17,16.33-9.76,16.33-18.67V2.77Z" style="fill:none;stroke:#fff;stroke-miterlimit:10"/><path d="M2,4.27V24.92C2,31,11.29,38.37,16.83,41.84,22.37,38.37,31.67,31,31.67,24.92V4.27Z" style="fill:none;stroke:#fff;stroke-miterlimit:10"/><path d="M10.73,12.27a.76.76,0,0,0,.76-.76.76.76,0,1,0-1.52,0A.76.76,0,0,0,10.73,12.27Z" style="fill:#fff"/><path d="M22.91,12.27a.76.76,0,0,0,.76-.76.76.76,0,1,0-1.52,0A.76.76,0,0,0,22.91,12.27Z" style="fill:#fff"/><path d="M3.49,5.76V24.92c0,4.49,6.77,10.87,13.34,15.15C23.4,35.79,30.17,29.4,30.17,24.92V5.76ZM19.4,10c.21-.26.68-1,1.46-.71s.47.76,1,.91a.12.12,0,0,0,.11,0h0a.11.11,0,0,0,.05-.1c0-.53-.56-.46-.56-1.21s.81-1.06,1.12-1.18a.65.65,0,0,0,.36-.5.65.65,0,0,0,.36.5c.31.12,1.12.36,1.12,1.18s-.58.68-.56,1.21a.12.12,0,0,0,.05.1s.08,0,.11,0c.51-.15.26-.68,1-.91s1.25.44,1.46.7a.66.66,0,0,0,.59.19.65.65,0,0,0-.37.5c0,.33,0,1.17-.76,1.43s-.83-.34-1.33-.17c0,0-.07,0-.08.09h0a.12.12,0,0,0,0,.12c.29.43.72,0,1.17.65s0,1.33-.23,1.6a.66.66,0,0,0,0,.62.65.65,0,0,0-.59-.19c-.32.08-1.11.37-1.59-.29s.06-.9-.26-1.31a.13.13,0,0,0-.1-.06.12.12,0,0,0-.1.06c-.33.41.19.7-.26,1.31s-1.28.37-1.6.29a.64.64,0,0,0-.58.19.67.67,0,0,0,0-.62c-.18-.27-.7-1-.22-1.6s.87-.22,1.17-.65a.11.11,0,0,0,0-.11.11.11,0,0,0-.08-.08c-.5-.18-.61.39-1.33.16s-.75-1.1-.76-1.43a.65.65,0,0,0-.37-.5A.68.68,0,0,0,19.4,10Zm3.24,13.52A19.4,19.4,0,0,0,25.5,24l-1.77-6.86a1.63,1.63,0,0,1,.41.25l2.06,6.92h-8a1.36,1.36,0,0,0-.77-.52h0a.72.72,0,0,1,.16-.24h0l.05,0h0l0,0a1.71,1.71,0,0,1,.79-.38A2.15,2.15,0,0,1,19,23a19.7,19.7,0,0,1,3.66.53ZM17.2,16.75a.17.17,0,0,1,0-.09,1.47,1.47,0,0,1,1.35-.78,6.38,6.38,0,0,1,1,.1c.07,0,1.14.23,1.74.4h0a11,11,0,0,0,1.75.41l1.68,6.51A18.88,18.88,0,0,1,22.8,23h0A21.06,21.06,0,0,0,19,22.4a2.17,2.17,0,0,0-1.78.71Zm-.44,7.78h.14l.13,0a1.13,1.13,0,0,1,.66.29h0l.09.11a.42.42,0,0,1,.07.13h0a.08.08,0,0,1,0,.08s0,.06-.09.06l-.06,0c-.09-.07-.26-.19-.85-.2a1.34,1.34,0,0,0-.86.2l-.05,0s-.06,0-.09-.06a.08.08,0,0,1,0-.08h0a.38.38,0,0,1,.06-.13l.1-.11h0a1.13,1.13,0,0,1,.66-.29Zm-5.74-1h0A19.8,19.8,0,0,1,14.68,23a2.15,2.15,0,0,1,.45,0,1.65,1.65,0,0,1,.78.38s0,0,.05,0h0l0,0h0a.76.76,0,0,1,.17.24h0a1.36,1.36,0,0,0-.77.52h-8l2.06-6.92a1.63,1.63,0,0,1,.41-.25L8.16,24A19.4,19.4,0,0,0,11,23.53Zm5.42-6.87a.17.17,0,0,1,0,.09v6.36a2.17,2.17,0,0,0-1.78-.71,21.06,21.06,0,0,0-3.82.55h0A18.88,18.88,0,0,1,9,23.3l1.67-6.51a10.8,10.8,0,0,0,1.76-.41h0c.6-.17,1.67-.38,1.74-.4a6.26,6.26,0,0,1,1-.1A1.47,1.47,0,0,1,16.44,16.66ZM7.22,10c.2-.26.68-1,1.46-.71s.47.76,1,.91a.12.12,0,0,0,.11,0h0a.11.11,0,0,0,.05-.1c0-.53-.56-.46-.56-1.21s.81-1.06,1.12-1.18a.65.65,0,0,0,.36-.5.65.65,0,0,0,.36.5c.31.12,1.12.36,1.12,1.18s-.58.68-.56,1.21a.12.12,0,0,0,.05.1s.08,0,.11,0c.51-.15.26-.68,1-.91s1.25.44,1.46.7a.66.66,0,0,0,.59.19.65.65,0,0,0-.37.5c0,.33,0,1.17-.76,1.43s-.83-.34-1.33-.17c0,0-.07,0-.08.09h0a.16.16,0,0,0,0,.12c.29.43.72,0,1.16.65s0,1.33-.22,1.6a.66.66,0,0,0,0,.62.66.66,0,0,0-.59-.19c-.32.08-1.12.37-1.59-.29s.06-.9-.26-1.31a.13.13,0,0,0-.1-.06.12.12,0,0,0-.1.06c-.33.41.18.7-.26,1.31s-1.28.37-1.6.29A.64.64,0,0,0,8.2,15a.67.67,0,0,0,0-.62c-.18-.27-.7-1-.22-1.6s.87-.22,1.17-.65a.14.14,0,0,0,0-.11A.11.11,0,0,0,9.09,12c-.5-.18-.61.39-1.33.16S7,11,7,10.69a.63.63,0,0,0-.36-.5A.68.68,0,0,0,7.22,10Zm-1,15.22.1-.31,2.34-7.24h.1L6.62,25h8.54a1,1,0,0,0,0,.25Zm9.08,10.71-1.17.6a.27.27,0,0,1-.36-.11l-.13-.25a.27.27,0,0,1,.13-.35L15,35.24a.27.27,0,0,1,.36.1l.13.25A.27.27,0,0,1,15.33,35.94Zm4.66.24-.13.25a.27.27,0,0,1-.36.11l-1.17-.6a.26.26,0,0,1-.13-.35l.13-.25a.27.27,0,0,1,.36-.1l1.17.59A.27.27,0,0,1,20,36.18ZM21.28,31v.18a7.9,7.9,0,0,1-.1,1,11.34,11.34,0,0,1-.41,1.67A12,12,0,0,1,20.31,35c-.06.14-.11.24-.15.32l-.06.11-.17-.09-.12-.06-.65-.33L19,34.86l-.09,0-.08,0,0-.09c0-.06.06-.15.11-.27a8.39,8.39,0,0,0,.35-1A9.06,9.06,0,0,0,19.66,32a7.37,7.37,0,0,0,.05-.82V31h0V31l0-.23a1,1,0,0,0,0-.2l0-.17a2.67,2.67,0,0,0-.23-.69,1.89,1.89,0,0,0-.36-.54,2,2,0,0,0-.2-.19l-.06,0-.14-.11-.07,0,0,0-.19-.09,0,0h0a3.63,3.63,0,0,0-3,0h0l0,0-.19.09,0,0-.07,0-.15.11,0,0a2,2,0,0,0-.2.19,2.15,2.15,0,0,0-.37.54,3.09,3.09,0,0,0-.22.69l0,.17a1,1,0,0,0,0,.2L14,31V31h0v.13A7.37,7.37,0,0,0,14,32a9.06,9.06,0,0,0,.29,1.45,8.39,8.39,0,0,0,.35,1c0,.12.08.21.11.27l0,.09-.08,0-.09,0-.12.06-.65.33-.12.06-.17.09-.06-.11c0-.08-.09-.18-.15-.32a9.75,9.75,0,0,1-.45-1.13,10.2,10.2,0,0,1-.41-1.67c-.05-.32-.09-.65-.11-1V31h0v-.33c0-.07,0-.16,0-.27l0-.29a4.75,4.75,0,0,1,.31-1.1,3.4,3.4,0,0,1,.6-1,3.23,3.23,0,0,1,.81-.72,4.92,4.92,0,0,1,.43-.26l.42-.18.39-.13.36-.08a1.6,1.6,0,0,1,.29,0,5.78,5.78,0,0,1,.79-.05h0a5.78,5.78,0,0,1,.79.05,1.6,1.6,0,0,1,.29,0l.36.08.39.13.42.18a4.92,4.92,0,0,1,.43.26,3.41,3.41,0,0,1,.81.72,3.64,3.64,0,0,1,.6,1,4.75,4.75,0,0,1,.31,1.1l0,.29c0,.11,0,.2,0,.27V31Zm-2.75-5.77a1,1,0,0,0,0-.25H27l-2.17-7.3H25l2.34,7.24.09.31Z" style="fill:#fff"/><path d="M133.83,13.88A4.74,4.74,0,0,1,138.71,9a4.51,4.51,0,0,1,4.75,4.7,4.67,4.67,0,0,1-4.75,4.78A4.62,4.62,0,0,1,133.83,13.88Zm8.26.28c0-2.26-1-4.7-3.61-4.7-1.43,0-3.28,1-3.28,4,0,2,1,4.66,3.69,4.66C140.53,18.1,142.09,16.87,142.09,14.16Z" style="fill:#fff"/><path d="M48,9.26a.26.26,0,0,0,0,.29l.34,0a.89.89,0,0,1,.69.29,10,10,0,0,1,.26,2.84v1.57c0,2.09-.76,3.65-2.74,3.65s-2.79-1.45-2.79-3.66v-3c0-1.43,0-1.66.83-1.73l.33,0a.27.27,0,0,0,0-.29H41.47a.27.27,0,0,0,0,.29l.35,0c.79.07.82.3.82,1.73v3.23c0,1.64.34,2.64,1.07,3.24a3.87,3.87,0,0,0,2.56.75,3.58,3.58,0,0,0,2.62-1,4.75,4.75,0,0,0,1-3.27V12.7a11.83,11.83,0,0,1,.19-2.8c.07-.18.34-.3.69-.33l.33,0a.28.28,0,0,0,0-.29Z" style="fill:#fff"/><path d="M75.76,9.26a.26.26,0,0,0,0,.3l.25,0c.48.05.61.16.61.26a1.43,1.43,0,0,1-.12.53c-.23.59-.86,2.14-1.27,3.07-.31.73-.9,2.14-1.32,3.05-.69-1.57-1.32-3.14-2-4.73a17.11,17.11,0,0,1-.68-1.92c0-.11.12-.19.64-.26l.21,0a.24.24,0,0,0,0-.3H69a.24.24,0,0,0,0,.3l.25,0c.58.07.79.35,1.11,1.12l2.41,5.95a15.13,15.13,0,0,1,.63,1.82.51.51,0,0,0,.2,0,.24.24,0,0,0,.15,0c.24-.72.88-2.31,1.43-3.57l.74-1.69a31.34,31.34,0,0,1,1.54-3.15.84.84,0,0,1,.71-.48l.41,0a.27.27,0,0,0,0-.3Z" style="fill:#fff"/><path d="M62.46,9.26H59.34a.24.24,0,0,0,0,.3l.23,0c.55.07.77.15.85.27a9.64,9.64,0,0,1,.28,2.84v2.93a1.29,1.29,0,0,1-.06.58h0c-.65-.66-1.33-1.41-2.27-2.48L57,12.23a21.35,21.35,0,0,1-2.32-3H52.48a.27.27,0,0,0,0,.3l.24,0a1.42,1.42,0,0,1,.85.33,1.27,1.27,0,0,1,.3,1v4a13.43,13.43,0,0,1-.18,2.83c-.07.15-.29.24-.6.27l-.37,0a.25.25,0,0,0,0,.3h3.1a.26.26,0,0,0,0-.3l-.42,0c-.35,0-.61-.11-.7-.26a11.29,11.29,0,0,1-.25-2.84v-3a3.3,3.3,0,0,1,.07-.9h0c.28.31,1.22,1.43,1.59,1.86l3.18,3.61c1.19,1.36,1.59,1.84,1.75,2.07.15,0,.23-.06.26-.15,0-.35,0-2,0-2.4V12.7a10.82,10.82,0,0,1,.21-2.83c0-.1.32-.21.76-.28l.2,0A.27.27,0,0,0,62.46,9.26Z" style="fill:#fff"/><path d="M64.44,9.59c.8.07.83.3.83,1.75v4.88c0,1.45,0,1.65-.83,1.74l-.35,0a.29.29,0,0,0,0,.3h3.5c0-.08.06-.25,0-.3l-.34,0c-.81-.09-.83-.29-.83-1.74V11.34c0-1.45,0-1.68.83-1.75l.34,0c.07-.05.06-.22,0-.3h-3.5a.29.29,0,0,0,0,.3Z" style="fill:#fff"/><path d="M105.66,9.59c.81.07.83.3.83,1.75v4.88c0,1.45,0,1.65-.83,1.74l-.34,0a.3.3,0,0,0,0,.3h3.51a.29.29,0,0,0,0-.3l-.35,0c-.8-.09-.83-.29-.83-1.74V11.34c0-1.45,0-1.68.83-1.75l.35,0a.29.29,0,0,0,0-.3h-3.5c0,.08-.06.25,0,.3Z" style="fill:#fff"/><path d="M120.76,9.63c.41.07.61.14,1.08,1l1.62,3.15a2.82,2.82,0,0,1,.44,1.7v.7c0,1.47,0,1.66-.83,1.74l-.42,0a.27.27,0,0,0,0,.3h3.73a.27.27,0,0,0,0-.3l-.52,0c-.74-.05-.82-.27-.82-1.74v-.71a3.1,3.1,0,0,1,.64-2.22l.87-1.5c.68-1.18,1.09-2,1.81-2.16l.38-.07a.24.24,0,0,0,0-.3h-2.69a.26.26,0,0,0,0,.3l.25,0c.33,0,.58.13.58.22a13.56,13.56,0,0,1-.89,1.81c-.42.79-.87,1.59-1.29,2.31-.54-.94-1-2-1.55-3a6.73,6.73,0,0,1-.43-1.06c0-.11.1-.16.58-.24l.18,0a.25.25,0,0,0,0-.3h-3.15a.26.26,0,0,0,0,.3Z" style="fill:#fff"/><path d="M150.92,9.26h-6c0,.08-.06.25,0,.3l.22,0c.79.09.82.28.82,1.72v4.94c0,1.44,0,1.62-.82,1.71l-.35,0a.29.29,0,0,0,0,.3h3.62a.29.29,0,0,0,0-.3l-.47,0c-.81-.07-.84-.27-.84-1.71V14.34c0-.35,0-.37.46-.37h.93a4.88,4.88,0,0,1,1.05.07.64.64,0,0,1,.44.52l.14.54a.35.35,0,0,0,.3,0v-2.8a.34.34,0,0,0-.3,0l-.12.55c-.09.36-.2.43-.35.48a4.84,4.84,0,0,1-1.16.08h-.93c-.42,0-.46,0-.46-.37V10.23c0-.52,0-.55.41-.55h.84a6.53,6.53,0,0,1,1.33.09c.69.19.85.68,1,1.3a.25.25,0,0,0,.33,0C150.93,10.52,150.92,9.88,150.92,9.26Z" style="fill:#fff"/><path d="M97,18.19a1.54,1.54,0,0,1-.94-.38,14.89,14.89,0,0,1-2.76-3.65c-.07-.1-.13-.24-.07-.32A2.55,2.55,0,0,0,95,11.55a2,2,0,0,0-1.14-1.92,3,3,0,0,0-1-.32l-.35,0H89.32c-.3,0-.57,0-.83.06a.22.22,0,0,0,0,.34l.44.05c.56.07.6.31.6,1.61v4.92c0,1.44,0,1.62-.82,1.71l-.34,0a.3.3,0,0,0,0,.3h3.43a.29.29,0,0,0,0-.3l-.29,0c-.8-.11-.82-.27-.82-1.71V14.52c0-.29,0-.3.64-.3a1,1,0,0,1,1,.44c.43.62,1,1.56,1.35,2.07,1,1.38,1.67,1.73,2.83,1.73a2.26,2.26,0,0,0,.61-.07A.12.12,0,0,0,97,18.19Zm-4-4.74a2.33,2.33,0,0,1-1.42.36c-.7,0-.9,0-.94-.07a1.1,1.1,0,0,1,0-.45V10.08c0-.38,0-.44.89-.44a2,2,0,0,1,2.19,2.11A2,2,0,0,1,93.05,13.45Z" style="fill:#fff"/><path d="M86.77,16.34a3.33,3.33,0,0,1-1,1.33,4,4,0,0,1-1.75.21c-1.21,0-1.49-.15-1.66-.32s-.26-.69-.26-1.42V14.21c0-.36,0-.37.45-.37h.8a5,5,0,0,1,1,.06c.28.07.37.28.43.53L85,15a.27.27,0,0,0,.3,0V12.2a.29.29,0,0,0-.3,0l-.11.56c-.07.35-.16.43-.33.48a4.61,4.61,0,0,1-1.16.09h-.8c-.41,0-.45,0-.45-.39V10.23c0-.52,0-.55.41-.55h1a6.35,6.35,0,0,1,1.33.09c.71.17.83.65,1,1.3a.27.27,0,0,0,.34,0L86,9.26h-6.1c-.05.08-.06.25,0,.3l.22,0c.81.09.84.3.84,1.72v4.94c0,1.44-.07,1.64-.85,1.71l-.46,0a.29.29,0,0,0,0,.3h6.83l.6-1.86A.26.26,0,0,0,86.77,16.34Z" style="fill:#fff"/><path d="M101.43,13.36l-1.1-.69A2.19,2.19,0,0,1,99.17,11a1.44,1.44,0,0,1,1.63-1.52A1.78,1.78,0,0,1,102.66,11c.07.08.29,0,.35,0l-.25-1.67a2.79,2.79,0,0,1-.48-.08A4.69,4.69,0,0,0,101,9c-1.79,0-2.8,1.05-2.8,2.36a2.9,2.9,0,0,0,1.48,2.35l1.3.85a2.08,2.08,0,0,1,1.13,1.92,1.57,1.57,0,0,1-1.72,1.58,2.48,2.48,0,0,1-2.35-2c-.06-.09-.27-.06-.33,0L98.09,18a4.27,4.27,0,0,0,2.13.5c1.79,0,2.92-1,2.92-2.53A3.09,3.09,0,0,0,101.43,13.36Z" style="fill:#fff"/><path d="M117.75,9.26h-7.06l-.43,1.62a.27.27,0,0,0,.35.09,2.48,2.48,0,0,1,.62-.94,2.78,2.78,0,0,1,1.69-.35h.75c.41,0,.41,0,.41.44v6.13c0,1.44-.07,1.64-.85,1.71l-.49,0a.24.24,0,0,0,0,.3h3.78a.29.29,0,0,0,0-.3L116,18c-.8-.08-.83-.27-.83-1.71v-6.1c0-.45,0-.47.4-.47h1a2.65,2.65,0,0,1,1.59.35,1.68,1.68,0,0,1,.35,1c.07.08.3.08.35,0L119,9.26Z" style="fill:#fff"/><path d="M67.75,35,67.3,35a.47.47,0,0,0,0,.52h5.54a.47.47,0,0,0,0-.52L72.35,35c-.95-.12-1.13-.18-1.13-2.32V25.15c0-2.14.18-2.2,1.13-2.32l.44-.06a.49.49,0,0,0,0-.53H67.28a.48.48,0,0,0,0,.53l.45.06c1,.12,1.13.18,1.13,2.32v7.51C68.88,34.8,68.7,34.86,67.75,35Z" style="fill:#fff"/><path d="M153.5,35.2a2.56,2.56,0,0,1-1.39-.63c-1-.78-2-2.5-3.57-5.22-.08-.12-.12-.29,0-.35A3.48,3.48,0,0,0,151,25.82a3.18,3.18,0,0,0-1.77-2.95,6.59,6.59,0,0,0-2.35-.62h-4l-.58,0c-.55,0-1.06.06-1.52.11a.4.4,0,0,0,0,.56l.53.06c.94.1,1,.34,1,2.28v7.39c0,2.14-.18,2.2-1.13,2.32l-.44.06a.41.41,0,0,0,0,.52h5.55a.47.47,0,0,0,0-.52l-.45-.06c-.94-.12-1.13-.18-1.13-2.32V30.07c0-.42,0-.44.63-.44a1.12,1.12,0,0,1,1.25.69c.49.78,1,1.89,1.6,2.74,1.23,1.88,2.28,2.66,4.21,2.66a5.46,5.46,0,0,0,1.33-.12A.36.36,0,0,0,153.5,35.2Zm-8-6.34c-1,0-1,0-1-.68V24c0-.93,0-1,1.07-1a2.79,2.79,0,0,1,2.79,3C148.38,27.89,147.47,28.86,145.49,28.86Z" style="fill:#fff"/><path d="M51.63,32.58c-.93,2.07-1.25,2.17-3.49,2.17-1.62,0-1.94-.16-2.18-.44a3.48,3.48,0,0,1-.35-2.08V25.15c0-2.1.19-2.16,1.13-2.3l.45-.08a.43.43,0,0,0,0-.53H41.55a.45.45,0,0,0,0,.53l.56.08c1,.14,1.13.2,1.13,2.3v7.51c0,2.09-.18,2.16-1.13,2.28l-.6.1c-.16.08-.14.38,0,.52h9.92l.82-2.86A.52.52,0,0,0,51.63,32.58Z" style="fill:#fff"/><path d="M64.57,32.58c-.7,1.63-1.15,2.22-3.71,2.17-1.69,0-2-.16-2.28-.44a3.61,3.61,0,0,1-.34-2.1V29.65c0-.5,0-.54.48-.54h1c1.76,0,2.1,0,2.24.88l.14.81a.65.65,0,0,0,.59,0V26.58a.59.59,0,0,0-.59,0l-.14.69c-.14.87-.48.89-2.24.89h-1c-.46,0-.48,0-.48-.55V24.24c0-1.15,0-1.19.87-1.19h1.35a5.93,5.93,0,0,1,1.61.18c.65.17,1,.67,1.27,1.84.16.12.57.08.65-.08l-.31-2.75H54.42a.48.48,0,0,0,0,.53l.33,0c.95.14,1.13.2,1.13,2.34v7.51c0,2.14-.18,2.2-1.13,2.3L54,35a.47.47,0,0,0,0,.52H64.4l.82-2.86A.47.47,0,0,0,64.57,32.58Z" style="fill:#fff"/><path d="M87,35.18l1-3a.41.41,0,0,0-.61-.08,4.39,4.39,0,0,1-4.21,3c-2.61,0-5.29-2.1-5.29-6.4,0-4.13,2.58-5.95,5.14-5.95a3.7,3.7,0,0,1,3.92,2.95.5.5,0,0,0,.64-.05l-.28-3.14-.56-.12a15.12,15.12,0,0,0-3.49-.45,9.35,9.35,0,0,0-5.57,1.72A6.56,6.56,0,0,0,75.07,29a6.36,6.36,0,0,0,2.87,5.55,9.18,9.18,0,0,0,5.17,1.35,12,12,0,0,0,2.76-.37Z" style="fill:#fff"/><path d="M100.33,32.58c-.7,1.63-1.15,2.22-3.71,2.17-1.7,0-2-.16-2.28-.44a3.61,3.61,0,0,1-.34-2.1V29.65c0-.5,0-.54.48-.54h1c1.75,0,2.1,0,2.24.88l.14.81a.65.65,0,0,0,.59,0V26.58a.59.59,0,0,0-.59,0l-.14.69c-.14.87-.49.89-2.24.89h-1c-.46,0-.48,0-.48-.55V24.24c0-1.15,0-1.19.86-1.19h1.36a5.93,5.93,0,0,1,1.61.18c.65.17,1,.67,1.27,1.84.16.12.57.08.65-.08l-.31-2.75H90.18a.47.47,0,0,0,0,.53l.33,0c.94.14,1.13.2,1.13,2.34v7.51c0,2.14-.19,2.2-1.13,2.3l-.75.08a.47.47,0,0,0,0,.52h10.41L101,32.7A.47.47,0,0,0,100.33,32.58Z" style="fill:#fff"/><path d="M108.75,28l-1.25-.67c-1.33-.71-1.92-1.61-1.92-2.46a2.06,2.06,0,0,1,2.28-2.12,2.85,2.85,0,0,1,2.72,2.4.49.49,0,0,0,.65-.06l-.42-2.72a12.93,12.93,0,0,0-2.77-.43c-2.94,0-4.44,1.7-4.44,3.69,0,1.82,1.33,3.05,2.85,3.9l.87.48c1.51.85,2.05,1.78,2.05,2.93a2.15,2.15,0,0,1-2.4,2.16c-2,0-3.06-2.16-3.43-3.19a.44.44,0,0,0-.62.08l.6,3.07a6.15,6.15,0,0,0,3.31.84c2.93,0,4.68-1.63,4.68-3.93A4.54,4.54,0,0,0,108.75,28Z" style="fill:#fff"/><path d="M124.45,22.24H113.92l-.67,2.53a.51.51,0,0,0,.65.14c.74-1.64,1.29-1.86,3.14-1.86h1.13c.53,0,.55,0,.55.89v8.72c0,2.14-.18,2.2-1.13,2.28l-.85.1c-.12.08-.12.38,0,.52h6.22a.45.45,0,0,0,0-.52l-.72-.08c-1-.1-1.13-.16-1.13-2.3V23.94c0-.85,0-.89.54-.89h1.15c2.16,0,2.55.39,2.81,2a.48.48,0,0,0,.62-.06l.21-2.71Z" style="fill:#fff"/><path d="M138.46,32.58c-.71,1.63-1.15,2.22-3.72,2.17-1.69,0-2-.16-2.28-.44a3.61,3.61,0,0,1-.34-2.1V29.65c0-.5,0-.54.48-.54h1c1.76,0,2.1,0,2.24.88l.14.81a.65.65,0,0,0,.59,0V26.58a.59.59,0,0,0-.59,0l-.14.69c-.14.87-.48.89-2.24.89h-1c-.46,0-.48,0-.48-.55V24.24c0-1.15,0-1.19.87-1.19h1.35a5.93,5.93,0,0,1,1.61.18c.65.17,1,.67,1.28,1.84.16.12.56.08.64-.08l-.31-2.75H128.3a.47.47,0,0,0,0,.53l.32,0c.95.14,1.13.2,1.13,2.34v7.51c0,2.14-.18,2.2-1.13,2.3l-.75.08a.47.47,0,0,0,0,.52h10.4l.82-2.86A.46.46,0,0,0,138.46,32.58Z" style="fill:#fff"/><path d="M183.09,16.3h-3.34V15.06h4.77v7.16a10.8,10.8,0,0,1-4.48.89c-4.54,0-7.26-3-7.26-7.45s2.8-7.45,7.26-7.45a10.27,10.27,0,0,1,3.86.68l-.17,1.32A7.54,7.54,0,0,0,180,9.45c-3.74,0-5.84,2.64-5.84,6.21s2,6.21,5.84,6.21a7.33,7.33,0,0,0,3.05-.51Z" style="fill:#fff"/><path d="M189.24,8.46h1.43V21.62h5.78v1.24h-7.21Z" style="fill:#fff"/><path d="M205.44,8.21c4.34,0,6.38,3.55,6.34,7.45,0,4.42-2.19,7.45-6.34,7.45s-6.29-3-6.33-7.45C199.07,11.76,201.11,8.21,205.44,8.21Zm-4.91,7.45c0,3.05,1.53,6.21,4.91,6.21s4.92-3.16,4.92-6.21-1.53-6.21-4.92-6.21S200.53,12.61,200.53,15.66Z" style="fill:#fff"/><path d="M215.78,8.46h3.43c2.35,0,4.56.78,4.56,3.55a3,3,0,0,1-2.62,3.28v0a3.37,3.37,0,0,1,3,3.43c0,3.13-2.56,4.1-5.55,4.1h-2.87Zm1.43,13.16h1.48c1.92,0,4.09-.51,4.09-2.8,0-2.56-2.21-2.83-4.31-2.83h-1.26Zm0-6.87h1.59c1.5,0,3.51-.39,3.51-2.68,0-2.08-1.92-2.37-3.14-2.37h-2Z" style="fill:#fff"/><path d="M233,8.46h1.61l5.71,14.4h-1.48L237.31,19H230l-1.54,3.86h-1.39Zm.7,1.36-3.14,8h6.25Z" style="fill:#fff"/><path d="M243.5,8.46h1.42V21.62h5.78v1.24h-7.2Z" style="fill:#fff"/><path d="M173.07,34.41a3.39,3.39,0,0,0,1.87.5,1.7,1.7,0,0,0,1.91-1.74c0-1.66-3.89-1.87-3.89-4.09,0-1.36,1.19-2.21,2.68-2.21a5,5,0,0,1,1.67.28l-.14.76a3.38,3.38,0,0,0-1.54-.31c-.87,0-1.83.36-1.83,1.45,0,1.7,3.88,1.71,3.88,4.19,0,1.71-1.46,2.39-2.78,2.39a4.86,4.86,0,0,1-1.91-.36Z" style="fill:#fff"/><path d="M180.87,27.74h-2.51V27h5.84v.73h-2.5v7.75h-.83Z" style="fill:#fff"/><path d="M191.35,32.53a3.07,3.07,0,1,1-6.14,0V27h.84v5.52a2.24,2.24,0,1,0,4.47,0V27h.83Z" style="fill:#fff"/><path d="M193.21,27h2.1c3,0,4.24,1.75,4.24,4.23,0,3.07-2.05,4.25-4.86,4.25h-1.48Zm.84,7.75h.69c2.4,0,4-1,4-3.57s-1.54-3.45-3.44-3.45h-1.22Z" style="fill:#fff"/><path d="M203.54,31.89,200.4,27h1L204,31.15,206.61,27h.91l-3.14,4.88v3.6h-.84Z" style="fill:#fff"/><path d="M217.73,28a4.36,4.36,0,0,0-1.89-.36,3.33,3.33,0,0,0-3.44,3.65c0,2.14,1.21,3.66,3.44,3.66a4.18,4.18,0,0,0,1.89-.37l.05.73a4.56,4.56,0,0,1-1.94.36,4,4,0,0,1-4.27-4.38,4.09,4.09,0,0,1,4.27-4.38,5.45,5.45,0,0,1,1.94.31Z" style="fill:#fff"/><path d="M219.93,27h4.15v.73h-3.31v3h3.14v.73h-3.14v3.27h3.46v.73h-4.3Z" style="fill:#fff"/><path d="M225.81,27h1.05l4.31,7.46h0V27H232v8.48h-1.12l-4.24-7.31h0v7.31h-.83Z" style="fill:#fff"/><path d="M235.51,27.74H233V27h5.84v.73h-2.5v7.75h-.83Z" style="fill:#fff"/><path d="M239.94,27h2.18c1.51,0,2.49.65,2.49,2.2a2,2,0,0,1-1.88,2v0c.68.08.82.45,1.09,1l1.45,3.28h-.93l-1.22-2.87c-.49-1.09-.85-1.13-1.65-1.13h-.7v4h-.83Zm.83,3.75h.89c1,0,2.11-.37,2.11-1.55,0-1.38-1-1.47-2.13-1.47h-.87Z" style="fill:#fff"/><path d="M246.58,27h4.15v.73h-3.32v3h3.15v.73h-3.15v3.27h3.47v.73h-4.3Z" style="fill:#fff"/></g></g></svg>