<svg xmlns="http://www.w3.org/2000/svg" viewBox="0 0 219.89 53.34"><g id="Layer_2" data-name="Layer 2"><g id="Layer_1-2" data-name="Layer 1"><rect x="121.71" y="0.05" width="1.16" height="53.29" style="fill:#fff"/><path d="M20.84,14.55s27.07-.63,42.06,3.17c4.62,1.15,5.08,4,5.13,6.61A21.28,21.28,0,0,0,68.31,27a9,9,0,0,0-5.81-6.37C46.13,15,20.84,14.55,20.84,14.55Z" style="fill:#fff"/><path d="M72.86,11.76c1.25-1.13,3.66-5.69-5.3-4.89-22.42,1.48-47.2,5-47.2,5S55.16,8.23,68,9.77c4.51.53,3.11,4,2.91,4.45a15.45,15.45,0,0,1,1.94-2.45Z" style="fill:#fff"/><path d="M55.32,11.85c-11.3-.37-34.75,1.33-34.75,1.33S44.67,12,62.81,14.72c4.5.62,5.63,2.83,5.78,4.64a17.25,17.25,0,0,1,.93-2.64C70.62,13.13,66.8,11.63,55.32,11.85Z" style="fill:#fff"/><path d="M68.61,28.3s1.79,6.35,10,8.19c12.9,3,22.74-4.77,22.74-4.77a17.81,17.81,0,0,1-15.55,9.7C71.31,41.5,68.61,28.3,68.61,28.3Z" style="fill:#fff"/><path d="M72.91,11.71a14.54,14.54,0,0,0-2,2.54c-1.07,2.81,1.85,5.14,6.57,5.35C92.58,19.5,99.17,12,99.17,12L102.33,0A28.27,28.27,0,0,1,89,11.4c-7.48,3.43-15.15,3.73-16.16,2.07A1.45,1.45,0,0,1,72.91,11.71Z" style="fill:#fff"/><path d="M69.53,16.68c-.56,2.2-1,8.84,12.07,8.29,17.31-1.28,28.3-13.87,28.3-13.87l-4.53,11.36S94.61,33.4,79.07,31.34c-10.68-1.44-11-8.79-11-8.79A15.49,15.49,0,0,1,69.53,16.68Z" style="fill:#fff"/><path d="M33.8,33c0-3.52-2-5.11-5.51-5.11a6.31,6.31,0,0,0-5.92,3.37H22.3V28.06H17.64a3.46,3.46,0,0,1,1.55,2,50.4,50.4,0,0,1,.18,5.3v9.32h3.14V34.06a4.49,4.49,0,0,1,4.73-4.7c3.52,0,3.41,3.36,3.41,5.92v9.43h3.15Z" style="fill:#fff"/><path d="M38.46,44.67V34.41c0-.7-.09-3.39-.12-4A3,3,0,0,0,36.61,28h5V44.67Z" style="fill:#fff"/><path d="M37.78,23.45a2,2,0,0,1,2-2,2,2,0,0,1,.07,4A2,2,0,0,1,37.78,23.45Z" style="fill:#fff"/><path d="M11.55,42.23c.34,1.48,1.18,2.46,2.69,2.46H16c-1-.4-1.36-1.9-1.5-3.2s-.08-3.41-.08-4.17V28H11.3V38.73a4.48,4.48,0,0,1-4.74,4.68c-3.51,0-3.4-3.35-3.4-5.9V28H0V39.76c0,3.52,2,5.09,5.52,5.09a6.31,6.31,0,0,0,5.92-3.35h.07A4.21,4.21,0,0,0,11.55,42.23Z" style="fill:#fff"/><path d="M57.17,31.71c-.82-1.87-2.09-2.49-3.2-2.49-2.79,0-5.11,2.36-5.11,7,0,4.5,1.85,7.18,5.62,7.18a5.73,5.73,0,0,0,4.25-2.07l.72.82A7.63,7.63,0,0,1,53.4,45c-5.08,0-8.26-3.3-8.26-8,0-5.11,3.69-9.07,8.87-8.78a8.12,8.12,0,0,1,5.26,2.18Z" style="fill:#fff"/><path d="M158,14.21A7.08,7.08,0,1,0,151,7.13,7.08,7.08,0,0,0,158,14.21Zm0-9.13a2,2,0,1,1-2,2.05A2.05,2.05,0,0,1,158,5.08Z" style="fill:#fff"/><polygon points="153.96 30.51 144.43 16.35 134.62 16.35 134.62 44.67 144.43 44.67 144.43 30.51 153.96 44.67 164.03 44.67 164.03 16.35 153.96 16.35 153.96 30.51" style="fill:#fff"/><path d="M141.71,14.21c3.91,0,7.08-2.23,7.08-7.08V.58h-5.34V7.46h0a1.75,1.75,0,0,1-3.49,0V.58h-5.34V7.13C134.62,12,137.8,14.21,141.71,14.21Z" style="fill:#fff"/><path d="M167.23,16.35H169v3.51a.85.85,0,0,0,.21.67.75.75,0,0,0,.56.21.77.77,0,0,0,.56-.2.85.85,0,0,0,.22-.68V16.35h1.79v3a2.68,2.68,0,0,1-.66,2.11,2.79,2.79,0,0,1-1.93.66,2.89,2.89,0,0,1-1.95-.66,2.22,2.22,0,0,1-.58-1.76Z" style="fill:#fff"/><path d="M174.41,18.39a1.44,1.44,0,0,1,1.35-.65,1.55,1.55,0,0,1,1.11.38,1.69,1.69,0,0,1,.42,1.24V22h-1.64V19.71c0-.2,0-.62-.56-.62s-.59.46-.59.68V22h-1.64V17.84h1.55Z" style="fill:#fff"/><path d="M177.81,16.35h1.64v1.09h-1.64Zm0,1.49h1.64V22h-1.64Z" style="fill:#fff"/><path d="M179.78,17.84h1.73l.33,1.53c.08.49.1.61.17,1.23.06-.55.09-.7.2-1.3l.33-1.46h1.72L182.89,22h-1.74Z" style="fill:#fff"/><path d="M188.63,21a2.43,2.43,0,0,1-2.18,1.13,2.15,2.15,0,0,1-2.28-2.24,2.12,2.12,0,0,1,2.27-2.21,2.32,2.32,0,0,1,1.65.61,2.43,2.43,0,0,1,.63,1.91h-2.88a.81.81,0,0,0,.2.58.67.67,0,0,0,.5.19.78.78,0,0,0,.74-.53Zm-1.58-1.67c0-.06,0-.13,0-.19a.56.56,0,0,0-.55-.42.64.64,0,0,0-.62.61Z" style="fill:#fff"/><path d="M190.58,18.2a1.69,1.69,0,0,1,1.38-.44v1.38l-.34,0c-1,0-1,.63-1,.9V22H189V17.82h1.57Z" style="fill:#fff"/><path d="M192.94,20.46a1.66,1.66,0,0,0,.62.42,1.74,1.74,0,0,0,.65.14c.2,0,.43-.07.43-.26s-.24-.24-.41-.27a6.83,6.83,0,0,1-.86-.19c-.38-.11-1.14-.33-1.14-1.21a1.33,1.33,0,0,1,.42-.94,2.09,2.09,0,0,1,1.45-.47,4.22,4.22,0,0,1,.93.11,2.39,2.39,0,0,1,1,.48l-.89.81a1.9,1.9,0,0,0-1.05-.39c-.07,0-.35,0-.35.21s.11.18.66.31a5,5,0,0,1,1.1.31,1.19,1.19,0,0,1,.65,1.08c0,.81-.68,1.52-2,1.52a3.28,3.28,0,0,1-2.2-.82Z" style="fill:#fff"/><path d="M196.61,16.35h1.64v1.09h-1.64Zm0,1.49h1.64V22h-1.64Z" style="fill:#fff"/><path d="M199.32,16.64H201v1.2h.7v.9h-.71l0,1.67c0,.16,0,.43.45.43a1.43,1.43,0,0,0,.29,0v1.12a7.42,7.42,0,0,1-1,.09,1.58,1.58,0,0,1-1.08-.34,1.13,1.13,0,0,1-.28-.85l0-2.09h-.56v-.9h.57Z" style="fill:#fff"/><path d="M201.92,17.84h1.71l.4,1.78c.09.48.12.59.2,1.21a11.89,11.89,0,0,1,.19-1.26l.42-1.73h1.7L205,22.2a2.21,2.21,0,0,1-.49.9,1.34,1.34,0,0,1-1.14.35,5.94,5.94,0,0,1-.87-.06V22.23l.46,0c.22,0,.35-.05.35-.2a2.19,2.19,0,0,0-.13-.42Z" style="fill:#fff"/><path d="M212.79,18.27a2.31,2.31,0,0,1,.65,1.64A2.19,2.19,0,0,1,211,22.12a2.12,2.12,0,0,1-2.35-2.18,2.2,2.2,0,0,1,2.44-2.27A2.48,2.48,0,0,1,212.79,18.27Zm-2.53,1.62c0,.4.1,1.09.77,1.09s.75-.49.75-1.11c0-.24,0-1.07-.76-1.05S210.26,19.43,210.26,19.89Z" style="fill:#fff"/><path d="M214.22,17.53a1.14,1.14,0,0,1,.3-.89,1.59,1.59,0,0,1,1.21-.39,3.6,3.6,0,0,1,.86.11v1.12a.75.75,0,0,0-.3-.06c-.44,0-.44.31-.44.52h.74v.89h-.74V22h-1.63V18.83h-.62v-.89h.62Z" style="fill:#fff"/><path d="M167.23,24h1.88l1.27,2.12c.31.58.39.75.68,1.38a12.75,12.75,0,0,1-.07-1.3V24h1.66v5.61h-1.91l-1.13-1.94a13.09,13.09,0,0,1-.78-1.48c0,.51,0,.64,0,1.15v2.27h-1.65Z" style="fill:#fff"/><path d="M177.2,25.92a2.35,2.35,0,0,1,.64,1.65,2.19,2.19,0,0,1-2.46,2.21A2.11,2.11,0,0,1,173,27.59a2.19,2.19,0,0,1,2.43-2.26A2.49,2.49,0,0,1,177.2,25.92Zm-2.53,1.63c0,.39.09,1.08.76,1.08s.76-.48.76-1.1c0-.25,0-1.07-.77-1.05S174.67,27.08,174.67,27.55Z" style="fill:#fff"/><path d="M179.79,25.86a1.66,1.66,0,0,1,1.37-.45V26.8l-.33,0c-1,0-1,.63-1,.9v1.94h-1.63V25.48h1.58Z" style="fill:#fff"/><path d="M182.16,24.3h1.64v1.19h.71v.89h-.72v1.69c0,.16,0,.43.44.43a2.58,2.58,0,0,0,.29,0v1.12a7.42,7.42,0,0,1-1,.09,1.58,1.58,0,0,1-1.08-.35,1.11,1.11,0,0,1-.28-.85l0-2.1h-.56v-.89h.57Z" style="fill:#fff"/><path d="M185,24h1.63v1.91a1.52,1.52,0,0,1,1.32-.58,1.63,1.63,0,0,1,1.14.41,1.73,1.73,0,0,1,.38,1.18v2.7h-1.63V27.27c0-.19,0-.59-.59-.59s-.61.43-.61.62v2.32H185Z" style="fill:#fff"/><path d="M190,26.74a1.35,1.35,0,0,1,.74-1.1,3.45,3.45,0,0,1,1.48-.27c2,0,2,1,2,1.5v2.24a.68.68,0,0,0,.14.51h-1.61V29.3a2.11,2.11,0,0,1-1.36.42,1.31,1.31,0,0,1-1.49-1.33,1.21,1.21,0,0,1,.35-.88A2.33,2.33,0,0,1,191.7,27a5.25,5.25,0,0,0,.88-.17c0-.28-.09-.47-.56-.47s-.48.1-.53.38Zm2.13,1.12-.42.11c-.32.13-.33.32-.33.37a.35.35,0,0,0,.4.32.89.89,0,0,0,.76-.47,1.12,1.12,0,0,0,.08-.49A4,4,0,0,1,192.08,27.86Z" style="fill:#fff"/><path d="M196.2,26.1a1.34,1.34,0,0,1,1.31-.69,2.13,2.13,0,0,1,.63.09,1.2,1.2,0,0,1,.8.68,1.43,1.43,0,0,1,1.43-.77,1.63,1.63,0,0,1,1.14.41,1.51,1.51,0,0,1,.39,1.2v2.6h-1.63V27.47c0-.27,0-.71-.58-.71s-.6.48-.6.67v2.2h-1.64V27.4a1.94,1.94,0,0,0,0-.24.53.53,0,0,0-.55-.4.64.64,0,0,0-.45.16.66.66,0,0,0-.16.47v2.24h-1.63V25.51h1.56Z" style="fill:#fff"/><path d="M204,25.82a1.32,1.32,0,0,1,1.1-.43c1.32,0,1.79,1.11,1.79,2.19s-.57,2.14-1.81,2.14a1.32,1.32,0,0,1-1.06-.38v1.78h-1.62V25.5H204Zm.23.93a1.11,1.11,0,0,0-.24.83,1.76,1.76,0,0,0,.07.56.6.6,0,0,0,1,.26,1.16,1.16,0,0,0,.23-.79c0-.33,0-1-.61-1A.6.6,0,0,0,204.22,26.75Z" style="fill:#fff"/><path d="M207.62,24.3h1.65l0,1.19H210v.89h-.71l0,1.69c0,.16,0,.43.44.43.1,0,.2,0,.3,0v1.12a7.56,7.56,0,0,1-1,.09,1.58,1.58,0,0,1-1.08-.35,1.14,1.14,0,0,1-.27-.85l0-2.1H207v-.89h.58Z" style="fill:#fff"/><path d="M214.45,25.92a2.35,2.35,0,0,1,.64,1.65,2.18,2.18,0,0,1-2.45,2.21,2.12,2.12,0,0,1-2.35-2.19,2.19,2.19,0,0,1,2.43-2.26A2.49,2.49,0,0,1,214.45,25.92Zm-2.53,1.63c0,.39.09,1.08.76,1.08s.76-.48.76-1.1c0-.25,0-1.07-.77-1.05S211.92,27.08,211.92,27.55Z" style="fill:#fff"/><path d="M217,26.05a1.48,1.48,0,0,1,1.36-.65,1.53,1.53,0,0,1,1.11.38,1.68,1.68,0,0,1,.41,1.24v2.6h-1.64V27.37c0-.21,0-.62-.55-.62s-.6.45-.6.68v2.19h-1.64V25.5H217Z" style="fill:#fff"/></g></g></svg>