<svg xmlns="http://www.w3.org/2000/svg" viewBox="0 0 149.25 50.18"><g id="Layer_2" data-name="Layer 2"><g id="Layer_1-2" data-name="Layer 1"><path d="M0,11.94V.23h2.6V11.94Z" style="fill:#fff"/><path d="M9.09,11.94,6.83,5.34v6.6H4.33V.23H6.75L9,6.79V.23h2.5V11.94Z" style="fill:#fff"/><path d="M17.26,2.59v9.35h-2.6V2.59H12.53V.23h6.86V2.59Z" style="fill:#fff"/><path d="M20.41,11.94V.23h5.52V2.59H23V4.68h2.79V7H23V9.58h3.07v2.36Z" style="fill:#fff"/><path d="M31.93,11.94,30.66,8h-1v4H27.12V.23h3.51c2.23,0,3.65,1.53,3.65,3.89a3.93,3.93,0,0,1-1.21,3l1.71,4.78ZM30.48,2.47h-.82V5.74h.82c.78,0,1.23-.57,1.23-1.63S31.26,2.47,30.48,2.47Z" style="fill:#fff"/><path d="M40.17,11.94l-2.26-6.6v6.6h-2.5V.23h2.42l2.26,6.56V.23h2.5V11.94Z" style="fill:#fff"/><path d="M49.46,11.94l-.38-1.76H46.43l-.38,1.76h-2.6l3-11.71h2.76l3,11.71ZM47.75,3.73,46.83,8h1.84Z" style="fill:#fff"/><path d="M56.21,2.59v9.35H53.62V2.59H51.48V.23h6.87V2.59Z" style="fill:#fff"/><path d="M59.36,11.94V.23H62V11.94Z" style="fill:#fff"/><path d="M70,10.5a4,4,0,0,1-6.46,0,3.53,3.53,0,0,1-.41-1.87V3.54a3.55,3.55,0,0,1,.41-1.87,4,4,0,0,1,6.46,0,3.55,3.55,0,0,1,.41,1.87V8.63A3.53,3.53,0,0,1,70,10.5Zm-2.19-7a2,2,0,0,0-.07-.6,1.08,1.08,0,0,0-1.94,0,1.68,1.68,0,0,0-.08.6V8.65a1.66,1.66,0,0,0,.08.59,1.08,1.08,0,0,0,1.94,0,2,2,0,0,0,.07-.59Z" style="fill:#fff"/><path d="M76.42,11.94l-2.26-6.6v6.6h-2.5V.23h2.42l2.27,6.56V.23h2.49V11.94Z" style="fill:#fff"/><path d="M85.71,11.94l-.37-1.76H82.68l-.37,1.76H79.7l3-11.71h2.76l3,11.71ZM84,3.73,83.09,8h1.84Z" style="fill:#fff"/><path d="M89.3,11.94V.23h2.59V9.58H95v2.36Z" style="fill:#fff"/><path d="M101.72,12.17a3.46,3.46,0,0,1-3.15-1.57,3.78,3.78,0,0,1-.44-2V3.54a3.74,3.74,0,0,1,.44-2A3.47,3.47,0,0,1,101.72,0a5.44,5.44,0,0,1,2.78.81V3.36a4.74,4.74,0,0,0-2.45-1c-1,0-1.33.57-1.33,1.49V8.35c0,.92.29,1.5,1.33,1.5a4.66,4.66,0,0,0,2.45-1v2.56A5.44,5.44,0,0,1,101.72,12.17Z" style="fill:#fff"/><path d="M112.38,10.5a4,4,0,0,1-6.46,0,3.54,3.54,0,0,1-.4-1.87V3.54a3.56,3.56,0,0,1,.4-1.87,4,4,0,0,1,6.46,0,3.55,3.55,0,0,1,.41,1.87V8.63A3.53,3.53,0,0,1,112.38,10.5Zm-2.18-7a1.68,1.68,0,0,0-.08-.6,1.08,1.08,0,0,0-1.94,0,2,2,0,0,0-.07.6V8.65a2,2,0,0,0,.07.59,1.08,1.08,0,0,0,1.94,0,1.66,1.66,0,0,0,.08-.59Z" style="fill:#fff"/><path d="M114,11.94V.23h2.59V9.58h3.07v2.36Z" style="fill:#fff"/><path d="M120.92,11.94V.23h2.59V9.58h3.08v2.36Z" style="fill:#fff"/><path d="M127.84,11.94V.23h5.52V2.59h-2.93V4.68h2.79V7h-2.79V9.58h3.07v2.36Z" style="fill:#fff"/><path d="M138.39,12.17a3.45,3.45,0,0,1-3.16-1.67,3.54,3.54,0,0,1-.4-1.87V3.54a3.75,3.75,0,0,1,.43-2A3.5,3.5,0,0,1,138.42,0a6.42,6.42,0,0,1,3.07.73V3.26a5.88,5.88,0,0,0-2.74-.93c-1.05,0-1.33.56-1.33,1.51V8.65a1.66,1.66,0,0,0,.08.59.9.9,0,0,0,.95.61,2.12,2.12,0,0,0,.9-.2V7.1h-.82V4.74H142v6.33A6,6,0,0,1,138.39,12.17Z" style="fill:#fff"/><path d="M143.58,11.94V.23h5.53V2.59h-2.94V4.68H149V7h-2.8V9.58h3.08v2.36Z" style="fill:#fff"/><path d="M36.62,48.74a3,3,0,0,1-2.73,1.44,2.83,2.83,0,0,1-3.09-3V39.92H33v7.23a1.9,1.9,0,0,0,.06.51.87.87,0,0,0,1.59,0,1.5,1.5,0,0,0,.07-.51V39.92H37v7.22A3,3,0,0,1,36.62,48.74Z" style="fill:#fff"/><path d="M42.44,50,40.5,44.31V50H38.35V39.92h2.08l1.94,5.63V39.92h2.15V50Z" style="fill:#fff"/><path d="M46,50V39.92h2.23V50Z" style="fill:#fff"/><path d="M53.34,50h-2.1L49,39.92h2.22l1.12,6.31,1.11-6.31h2.21Z" style="fill:#fff"/><path d="M56.36,50V39.92h4.75v2H58.58v1.79H61v2h-2.4V48h2.65v2Z" style="fill:#fff"/><path d="M66.59,50,65.5,46.57h-.86V50H62.46V39.92h3a3,3,0,0,1,3.13,3.34,3.41,3.41,0,0,1-1,2.62L69,50Zm-1.25-8.14h-.7v2.82h.7c.67,0,1.06-.5,1.06-1.41S66,41.84,65.34,41.84Z" style="fill:#fff"/><path d="M72.41,50.18a5.7,5.7,0,0,1-2.72-.68V47.14a3.68,3.68,0,0,0,2.46,1c.73,0,1-.36,1-.83,0-.76-1.14-1.39-1.93-2a3.4,3.4,0,0,1-1.72-2.94,2.7,2.7,0,0,1,3-2.68,5.46,5.46,0,0,1,2.6.58v2.1a4.59,4.59,0,0,0-2.33-.8c-.63,0-.92.35-.92.83,0,.67.64,1.06,1.72,1.84a3.66,3.66,0,0,1,1.94,3.09A2.78,2.78,0,0,1,72.41,50.18Z" style="fill:#fff"/><path d="M76.51,50V39.92h2.23V50Z" style="fill:#fff"/><path d="M83.67,42v8H81.45V42H79.61v-2h5.9v2Z" style="fill:#fff"/><path d="M90.31,45.51V50H88.08V45.51l-2.44-5.59h2.23l1.34,3.45,1.34-3.45h2.19Z" style="fill:#fff"/><path d="M99.33,50,99,48.46H96.73L96.41,50H94.17l2.56-10.06H99.1L101.66,50Zm-1.46-7-.79,3.68h1.58Z" style="fill:#fff;opacity:0.5"/><path d="M105.59,50H102.4V39.92h2.84a2.65,2.65,0,0,1,3,2.62,2.36,2.36,0,0,1-1,2.16,2.4,2.4,0,0,1,1.31,2.37A2.79,2.79,0,0,1,105.59,50Zm-.3-8.14h-.75v1.93h.75a1,1,0,0,0,0-1.93Zm.11,3.9h-.86V48h.86a1.15,1.15,0,0,0,0-2.27Z" style="fill:#fff;opacity:0.5"/><path d="M109.77,50V39.92h4.75v2H112v1.79h2.4v2H112V48h2.64v2Z" style="fill:#fff;opacity:0.5"/><path d="M120,50l-1.08-3.41h-.86V50h-2.19V39.92h3A3,3,0,0,1,122,43.26a3.41,3.41,0,0,1-1,2.62l1.48,4.1Zm-1.25-8.14h-.69v2.82h.69c.68,0,1.07-.5,1.07-1.41S119.43,41.84,118.75,41.84Z" style="fill:#fff;opacity:0.5"/><path d="M129.21,48.42a2.83,2.83,0,0,1-2.8,1.56h-3.08V39.92h3.08a2.83,2.83,0,0,1,2.8,1.56A3.33,3.33,0,0,1,129.5,43V46.9A3.31,3.31,0,0,1,129.21,48.42Zm-1.94-5.25a1.79,1.79,0,0,0-.09-.66.91.91,0,0,0-.92-.56h-.71v6h.71a.91.91,0,0,0,.92-.56,1.73,1.73,0,0,0,.09-.65Z" style="fill:#fff;opacity:0.5"/><path d="M130.88,50V39.92h4.75v2H133.1v1.79h2.4v2h-2.4V48h2.64v2Z" style="fill:#fff;opacity:0.5"/><path d="M137,50V39.92h4.74v2H139.2v1.79h2.4v2h-2.4V48h2.64v2Z" style="fill:#fff;opacity:0.5"/><path d="M147.17,50l-1.95-5.67V50h-2.14V39.92h2.08l1.94,5.63V39.92h2.15V50Z" style="fill:#fff;opacity:0.5"/><path d="M36.36,36.9,34.9,32.32H33.74V36.9H30.8V23.37h4.06c2.58,0,4.22,1.77,4.22,4.49a4.57,4.57,0,0,1-1.4,3.52l2,5.52ZM34.68,26h-.94v3.79h.94c.9,0,1.42-.67,1.42-1.9S35.58,26,34.68,26Z" style="fill:#fff"/><path d="M48.65,35.24a4.07,4.07,0,0,1-3.74,1.93,3.81,3.81,0,0,1-4.2-4.09V27.19A4.34,4.34,0,0,1,48.65,25a4.15,4.15,0,0,1,.47,2.16v5.89A4.15,4.15,0,0,1,48.65,35.24Zm-2.53-8.06a1.86,1.86,0,0,0-.09-.69,1.24,1.24,0,0,0-2.24,0,2.11,2.11,0,0,0-.09.69v5.91a2.11,2.11,0,0,0,.09.69,1.25,1.25,0,0,0,2.24,0,1.86,1.86,0,0,0,.09-.69Z" style="fill:#fff"/><path d="M55.27,36.9H51V23.37H54.8c2.74,0,4,1.77,4,3.51a3.17,3.17,0,0,1-1.28,2.92A3.24,3.24,0,0,1,59.27,33,3.76,3.76,0,0,1,55.27,36.9ZM54.87,26h-1v2.6h1a1.31,1.31,0,0,0,0-2.6ZM55,31.2H53.86v3.05H55a1.34,1.34,0,0,0,1.29-1.52A1.36,1.36,0,0,0,55,31.2Z" style="fill:#fff"/><path d="M60.9,36.9V23.37h6.39v2.72h-3.4v2.42h3.23v2.73H63.89v2.94h3.56V36.9Z" style="fill:#fff"/><path d="M74.67,36.9l-1.46-4.58H72.05V36.9H69.11V23.37h4.06c2.58,0,4.22,1.77,4.22,4.49A4.54,4.54,0,0,1,76,31.38l2,5.52ZM73,26h-.94v3.79H73c.9,0,1.43-.67,1.43-1.9S73.89,26,73,26Z" style="fill:#fff"/><path d="M83.7,26.09V36.9h-3V26.09H78.24V23.37h7.94v2.72Z" style="fill:#fff"/><path d="M94.49,37.17a4,4,0,0,1-3.64-1.93,4.05,4.05,0,0,1-.47-2.16V27.19a4.34,4.34,0,0,1,.5-2.27,4,4,0,0,1,3.65-1.82,7.45,7.45,0,0,1,3.55.84v2.93a6.83,6.83,0,0,0-3.17-1.09c-1.21,0-1.54.66-1.54,1.76v5.55a2.11,2.11,0,0,0,.09.69,1.06,1.06,0,0,0,1.11.7,2.34,2.34,0,0,0,1-.23V31.31h-1V28.58h4v7.31A6.88,6.88,0,0,1,94.49,37.17Z" style="fill:#fff"/><path d="M108.31,35.24a4.58,4.58,0,0,1-7.47,0,4.15,4.15,0,0,1-.47-2.16V27.19a4.15,4.15,0,0,1,.47-2.16,4.21,4.21,0,0,1,7.94,2.16v5.89A4.05,4.05,0,0,1,108.31,35.24Zm-2.52-8.06a2.11,2.11,0,0,0-.09-.69,1.24,1.24,0,0,0-2.24,0,2.11,2.11,0,0,0-.09.69v5.91a2.11,2.11,0,0,0,.09.69,1.25,1.25,0,0,0,2.24,0,2.11,2.11,0,0,0,.09-.69Z" style="fill:#fff"/><path d="M116.2,36.9l-1.46-4.58h-1.16V36.9h-2.94V23.37h4.06c2.58,0,4.23,1.77,4.23,4.49a4.58,4.58,0,0,1-1.41,3.52l2,5.52ZM114.52,26h-.94v3.79h.94c.9,0,1.43-.67,1.43-1.9S115.42,26,114.52,26Z" style="fill:#fff"/><path d="M128.6,34.81a3.82,3.82,0,0,1-3.78,2.09h-4.15V23.37h4.15a3.82,3.82,0,0,1,3.78,2.09,4.6,4.6,0,0,1,.37,2.06v5.23A4.6,4.6,0,0,1,128.6,34.81ZM126,27.74a2.19,2.19,0,0,0-.13-.89,1.21,1.21,0,0,0-1.23-.76h-1v8.09h1a1.21,1.21,0,0,0,1.23-.76,2.19,2.19,0,0,0,.13-.89Z" style="fill:#fff"/><path d="M138.62,35.24a4.58,4.58,0,0,1-7.47,0,4.15,4.15,0,0,1-.47-2.16V27.19a4.15,4.15,0,0,1,.47-2.16,4.21,4.21,0,0,1,7.94,2.16v5.89A4.05,4.05,0,0,1,138.62,35.24Zm-2.52-8.06a2.11,2.11,0,0,0-.09-.69,1.24,1.24,0,0,0-2.24,0,1.86,1.86,0,0,0-.09.69v5.91a1.86,1.86,0,0,0,.09.69,1.25,1.25,0,0,0,2.24,0,2.11,2.11,0,0,0,.09-.69Z" style="fill:#fff"/><path d="M146.45,36.9l-2.61-7.63V36.9H141V23.37h2.8L146.36,31V23.37h2.89V36.9Z" style="fill:#fff"/><path d="M5.59,37.34H4.86v2.94h.73a1,1,0,0,0,.82-.38,2.19,2.19,0,0,0,0-2.18A.94.94,0,0,0,5.59,37.34Z" style="fill:#fff"/><path d="M25.29,23.37h-24A1.32,1.32,0,0,0,0,24.69v24A1.32,1.32,0,0,0,1.32,50h24a1.32,1.32,0,0,0,1.32-1.32v-24A1.32,1.32,0,0,0,25.29,23.37ZM5,27.65a2.73,2.73,0,0,1,2-.25,8.7,8.7,0,0,1,1.88.84c-1.71-.4-3.17,1.25-4.09,1.37a4,4,0,0,1-2.24-.48ZM6.89,45.84,5.77,42.28H4.86v3.56H2.59V35.34H5.73a3.7,3.7,0,0,1,1.36.24,2.88,2.88,0,0,1,1,.71,3.26,3.26,0,0,1,.66,1.1A4.29,4.29,0,0,1,9,38.82a4.14,4.14,0,0,1-.28,1.57,3.11,3.11,0,0,1-.81,1.16l1.54,4.29ZM2.54,31.69l8.21-3.75a8.8,8.8,0,0,1,6.57,0A29,29,0,0,1,23,31.35c-5.29-1.93-10.56,2.73-13.52,2.73A12.8,12.8,0,0,1,2.54,31.69ZM16.42,45.05a2.84,2.84,0,0,1-.5.35,5,5,0,0,1-.76.32,7,7,0,0,1-.93.24,5.66,5.66,0,0,1-1,.09,4,4,0,0,1-.94-.11,3.1,3.1,0,0,1-.79-.31,2.72,2.72,0,0,1-.63-.47,3,3,0,0,1-.46-.61,2.46,2.46,0,0,1-.28-.73,4.31,4.31,0,0,1-.09-1V38.3a4.64,4.64,0,0,1,.09-1,2.83,2.83,0,0,1,.31-.79,3,3,0,0,1,.45-.57,2.9,2.9,0,0,1,.62-.45,3.78,3.78,0,0,1,.8-.29,4.07,4.07,0,0,1,.95-.1,5.82,5.82,0,0,1,1.57.19,4.69,4.69,0,0,1,1.19.47v2.26a6.31,6.31,0,0,0-.63-.34,6,6,0,0,0-.65-.27,5.53,5.53,0,0,0-.64-.17,2.8,2.8,0,0,0-.55-.06,1.64,1.64,0,0,0-.58.09.82.82,0,0,0-.36.27,1.13,1.13,0,0,0-.19.43,2.47,2.47,0,0,0-.05.57v4.31a1.7,1.7,0,0,0,.07.54.94.94,0,0,0,.3.4,1,1,0,0,0,.55.14,1.18,1.18,0,0,0,.26,0l.24,0a.74.74,0,0,0,.19,0l.12-.06V41.5h-.74V39.38h3.07ZM24,42.87a4.31,4.31,0,0,1-.09,1,2.45,2.45,0,0,1-.27.73,3.42,3.42,0,0,1-.47.61,3,3,0,0,1-.64.47,3.17,3.17,0,0,1-.8.31,4.16,4.16,0,0,1-1.9,0,3.17,3.17,0,0,1-.8-.31,3,3,0,0,1-.64-.47,3,3,0,0,1-.46-.61,2.46,2.46,0,0,1-.28-.73,4.31,4.31,0,0,1-.09-1V35.34h2.32v7.54a2.45,2.45,0,0,0,0,.32l.06.22a.82.82,0,0,0,.82.54.82.82,0,0,0,.83-.54,1.42,1.42,0,0,0,.05-.22,2.45,2.45,0,0,0,0-.32V35.34H24Zm-6.88-9-1.8-1s5.27-2.61,7.54-.3L24,33.73C21.28,32.34,19.44,35.1,17.12,33.91Z" style="fill:#fff"/><rect x="0.02" y="17.24" width="149.08" height="0.76" style="fill:#fff"/></g></g></svg>