<svg xmlns="http://www.w3.org/2000/svg" viewBox="0 0 207.37 55.51"><g id="Layer_2" data-name="Layer 2"><g id="Layer_1-2" data-name="Layer 1"><path d="M27.56,35.48a24.93,24.93,0,0,0-1.84-3l-.06.12s-.48,2.1-.64,2.93c.13-.06.34-.18.52-.29l.17-.09v.12A7,7,0,0,1,25,38.92v0l-.32,0-1.82-1.35V30.87a.32.32,0,0,0-.09-.23l-.18-.15,3.82-3a.39.39,0,0,0,.06-.56l-.17-.19a.39.39,0,0,0-.52-.05L22,29.58a6.81,6.81,0,0,0-2-.33,5,5,0,0,0-2.77.78V28.89a4.39,4.39,0,0,0,1.46-.33.25.25,0,0,0,.15-.23l0-.91a.23.23,0,0,0-.12-.23,3.65,3.65,0,0,0-1.51-.39v-.17a.29.29,0,0,0-.3-.3H16.5a.29.29,0,0,0-.29.3v.17a3.6,3.6,0,0,0-1.51.39.25.25,0,0,0-.13.23l0,.91a.26.26,0,0,0,.14.23,4.49,4.49,0,0,0,1.47.33V30a5,5,0,0,0-2.77-.78,7.18,7.18,0,0,0-1.83.27L10,28.3a1.59,1.59,0,0,0,.12-.62,1.67,1.67,0,1,0-.76,1.41l1.77,1.31a1,1,0,0,0-.37.24.32.32,0,0,0-.09.23V37.5l-1.27.94a1,1,0,0,0-.53.14,8.86,8.86,0,0,1-1.74-5.11C6.23,35.36,7,37.61,8,39.33l-.37.24s0,.25.19.47l.15.23c.15.22.31.38.36.35l.42-.28C10.05,41.78,12,43.1,14,42.85a8.76,8.76,0,0,1-4.32-3.12c.1-.08.14-.27.2-.42L11.62,38a5.48,5.48,0,0,1,1.63-.32,7.59,7.59,0,0,1,2.23.32h0l.7.23v3.24a.39.39,0,0,0,.39.4h.23a.4.4,0,0,0,.39-.4V38.27l.7-.23h0a7.59,7.59,0,0,1,2.23-.32,5,5,0,0,1,1.35.23l2.4,1.79c0,.14.06.29.08.44A6.61,6.61,0,0,1,21,41.82l-.1,0v-.1c0-.15,0-.29.05-.42s0-.25,0-.34c-.7.47-2.36,1.68-2.37,1.69l-.1.09a27.49,27.49,0,0,0,3.37.32l-.45-.37-.11-.09.14,0a7.82,7.82,0,0,0,3.08-1.64,9.12,9.12,0,0,0,1.27-.44s0-.59-.05-1.09a7.66,7.66,0,0,0,.92-4.23v-.13l.11.06.79.37M8.38,28.58a.93.93,0,0,1,0-1.85.93.93,0,1,1,0,1.85M21.88,37a4.39,4.39,0,0,0-1.6-.28,9.76,9.76,0,0,0-3.35.71l-.22.09-.21-.09a9.7,9.7,0,0,0-3.35-.71,4.35,4.35,0,0,0-1.6.28V29.9a6.18,6.18,0,0,1,1.89-.3,4.88,4.88,0,0,1,3.09,1.08l.18.21.18-.21A4.9,4.9,0,0,1,20,29.6a6.24,6.24,0,0,1,1.89.3Z" style="fill:#fff"/><path d="M17.26,31.28a.11.11,0,0,0,0,.1v0a.11.11,0,0,0,.11.06h.05a5.47,5.47,0,0,1,2.23-.5,4.71,4.71,0,0,1,1,.11h0a.11.11,0,0,0,.12-.09v0a.12.12,0,0,0,0-.1.08.08,0,0,0-.07-.05,4.81,4.81,0,0,0-1.07-.12,5.55,5.55,0,0,0-2.33.53.1.1,0,0,0-.07.07" style="fill:#fff"/><path d="M17.28,32.2a.11.11,0,0,0,.11.06h.05a5.38,5.38,0,0,1,2.23-.51,4.15,4.15,0,0,1,1,.12h0a.12.12,0,0,0,.12-.09v0a.1.1,0,0,0,0-.09.11.11,0,0,0-.07-.06,4.81,4.81,0,0,0-1.07-.12,5.55,5.55,0,0,0-2.33.53.13.13,0,0,0-.07.08.12.12,0,0,0,0,.1Z" style="fill:#fff"/><path d="M20.73,32.34a4.81,4.81,0,0,0-1.07-.12,5.66,5.66,0,0,0-2.34.53.12.12,0,0,0-.06.08.1.1,0,0,0,0,.09v0a.14.14,0,0,0,.11.07l.05,0a5.47,5.47,0,0,1,2.23-.5,4.71,4.71,0,0,1,1,.11h0a.12.12,0,0,0,.12-.1v0a.13.13,0,0,0,0-.09.16.16,0,0,0-.08-.06" style="fill:#fff"/><path d="M17.28,33.76a.12.12,0,0,0,.11.07l.05,0a5.47,5.47,0,0,1,2.23-.5,4.71,4.71,0,0,1,1,.11h0a.11.11,0,0,0,.12-.09v0a.12.12,0,0,0,0-.1.13.13,0,0,0-.07-.05A4.81,4.81,0,0,0,19.66,33a5.57,5.57,0,0,0-2.34.53.12.12,0,0,0-.06.08.1.1,0,0,0,0,.09Z" style="fill:#fff"/><path d="M20.73,33.92a4.82,4.82,0,0,0-1.07-.13,5.57,5.57,0,0,0-2.34.54.11.11,0,0,0-.06.07.11.11,0,0,0,0,.1v0a.11.11,0,0,0,.11.06h.05a5.42,5.42,0,0,1,2.23-.5,4.14,4.14,0,0,1,1,.11h0a.11.11,0,0,0,.12-.09v0a.12.12,0,0,0,0-.1.08.08,0,0,0-.07,0" style="fill:#fff"/><path d="M20.73,34.7a4.29,4.29,0,0,0-1.07-.13,5.62,5.62,0,0,0-2.34.54.11.11,0,0,0-.06.07.12.12,0,0,0,0,.1v0a.13.13,0,0,0,.11.06h.05a5.47,5.47,0,0,1,2.23-.5,4.14,4.14,0,0,1,1,.11h0a.12.12,0,0,0,.12-.09v0a.12.12,0,0,0,0-.1.08.08,0,0,0-.07,0" style="fill:#fff"/><path d="M20.73,35.48a4.74,4.74,0,0,0-1.07-.12,5.55,5.55,0,0,0-2.33.53.1.1,0,0,0-.07.07.18.18,0,0,0,0,.12.13.13,0,0,0,.11.06h.05a5.47,5.47,0,0,1,2.23-.5,4.71,4.71,0,0,1,1,.11h0a.11.11,0,0,0,.12-.09v0a.12.12,0,0,0,0-.1.09.09,0,0,0-.07-.05" style="fill:#fff"/><path d="M15.44,33.57A5.55,5.55,0,0,0,13.11,33a4.68,4.68,0,0,0-1.07.12.16.16,0,0,0-.08.05.12.12,0,0,0,0,.1v0a.12.12,0,0,0,.12.09h0a4.62,4.62,0,0,1,1-.11,5.42,5.42,0,0,1,2.23.5l.06,0a.12.12,0,0,0,.1-.07v0a.1.1,0,0,0,0-.09.12.12,0,0,0-.06-.08" style="fill:#fff"/><path d="M15.44,34.33a5.52,5.52,0,0,0-2.33-.54,4.68,4.68,0,0,0-1.07.13A.1.1,0,0,0,12,34a.12.12,0,0,0,0,.1v0a.13.13,0,0,0,.12.09h0a4.06,4.06,0,0,1,1-.11,5.42,5.42,0,0,1,2.23.5h.06a.11.11,0,0,0,.1-.06v0a.11.11,0,0,0,0-.1.11.11,0,0,0-.06-.07" style="fill:#fff"/><path d="M15.44,35.11a5.53,5.53,0,0,0-2.34-.54A4.16,4.16,0,0,0,12,34.7a.09.09,0,0,0-.08,0,.12.12,0,0,0,0,.1v0a.13.13,0,0,0,.12.09h0a4.06,4.06,0,0,1,1-.11,5.47,5.47,0,0,1,2.23.5h0a.11.11,0,0,0,.11-.06v0a.11.11,0,0,0,0-.1.11.11,0,0,0-.06-.07" style="fill:#fff"/><path d="M15.44,35.89a5.57,5.57,0,0,0-2.34-.53,4.66,4.66,0,0,0-1.06.12.09.09,0,0,0-.08.05.12.12,0,0,0,0,.1v0a.12.12,0,0,0,.12.09h0a4.62,4.62,0,0,1,1-.11,5.47,5.47,0,0,1,2.23.5h0a.11.11,0,0,0,.11-.06v0a.11.11,0,0,0,0-.1.11.11,0,0,0-.06-.07" style="fill:#fff"/><path d="M12.34,32.55a4.74,4.74,0,0,1,.75-.06,5.47,5.47,0,0,1,2.23.5l0,0a.12.12,0,0,0,.11-.07v0a.1.1,0,0,0,0-.09.12.12,0,0,0-.06-.08,5.39,5.39,0,0,0-2.26-.53v-.48a5.32,5.32,0,0,1,2.14.51h0a.11.11,0,0,0,.11-.06v0a.12.12,0,0,0,0-.1.16.16,0,0,0-.06-.08,6,6,0,0,0-2.25-.53V31a5.53,5.53,0,0,1,2.13.5h0a.11.11,0,0,0,.11-.06v0a.11.11,0,0,0,0-.1.11.11,0,0,0-.06-.07,5.55,5.55,0,0,0-2.33-.53A4.68,4.68,0,0,0,12,30.8l-.1.05v1.78Z" style="fill:#fff"/><path d="M19.74,15.84h0c-.53.11-1.31,1.13-1.44,1.31a.77.77,0,0,0,.16.65c.16.23.08.45-.08.72a6,6,0,0,0-.41,1,1.1,1.1,0,0,1-.47.32s-.05-.12-.05-.12a.85.85,0,0,0-.72-.33c-.5.09-.52.24-.52.24a1.65,1.65,0,0,1,.43.12c0,.08.14.15.14.15a.79.79,0,0,0-.56.12c-.47.32-.31.67-.31.67,0-.27.41-.34.41-.34.17.16.86-.12.86-.12l-.6.5a.62.62,0,0,0-.1.6c0-.22.32-.3.32-.3a.42.42,0,0,0,.28-.12.51.51,0,0,0,.39-.46,2.07,2.07,0,0,1,1.14-.11l.59.36.06-.11c.26,0,.39.26.39.26a.46.46,0,0,0-.24-.55.51.51,0,0,0-.38-.15L18.6,20,18.48,20a.71.71,0,0,1-.08-.34,1.72,1.72,0,0,1,.11-.3,7.72,7.72,0,0,0,.66-.88c.12-.25.2-.64.51-.81.13-.07.3-.13.44-.19h0a1.6,1.6,0,0,0,.19-.11,3.66,3.66,0,0,0,.42-.26,5.9,5.9,0,0,1-1-1.23" style="fill:#fff"/><path d="M18.46,15.4a1.18,1.18,0,0,1,.65.49,1.08,1.08,0,0,1,.46-.26A1.31,1.31,0,0,0,18.49,15h0a7.18,7.18,0,0,0-2.34,1.25c-2.15,1.41-3.29.64-3.29.64a2.26,2.26,0,0,1-1.05,1.36,2.46,2.46,0,0,0,.55.36l0,0a3.88,3.88,0,0,0,.4-.46,2.14,2.14,0,0,0,.19-.26c.06-.09.11-.18.15-.25l.09-.19,0-.07v.08l0,.2c0,.08-.06.18-.09.28s-.08.21-.13.32a4.68,4.68,0,0,1-.28.51,3.75,3.75,0,0,0,.76.16l0,0a4.46,4.46,0,0,0,.31-.52c.05-.1.09-.2.13-.3s.07-.19.1-.27,0-.15,0-.2l0-.07v.08a1.56,1.56,0,0,1,0,.2c0,.09,0,.19,0,.3s0,.22-.06.33a4.92,4.92,0,0,1-.16.5,3.53,3.53,0,0,0,1-.15l0-.05a4.56,4.56,0,0,0,.15-.59c0-.11,0-.22,0-.32s0-.2,0-.29a1.15,1.15,0,0,0,0-.2v-.08l0,.07a1.65,1.65,0,0,1,0,.21,1.92,1.92,0,0,1,.05.29,1.79,1.79,0,0,1,0,.34,4.34,4.34,0,0,1,0,.51c.23-.09.47-.2.73-.33l.29-.16a4.29,4.29,0,0,0,0-.49,3,3,0,0,0-.06-.32c0-.1,0-.2-.06-.28l-.07-.2,0-.07,0,.07A1.3,1.3,0,0,1,16,17a2,2,0,0,1,.14.26,3,3,0,0,1,.12.32,2.65,2.65,0,0,1,.12.37l.83-.5a4.71,4.71,0,0,0-.11-.54c0-.1-.06-.2-.1-.3s-.07-.18-.1-.25-.07-.13-.09-.17l0-.07.05.06.12.15.17.23c.05.08.11.17.16.27s.15.3.21.43l.41-.31h0l.13-.1a.61.61,0,0,0,0-.29,2.29,2.29,0,0,0-.1-.23l-.15-.27a1.53,1.53,0,0,0-.15-.23,1.42,1.42,0,0,0-.11-.16l-.05-.05.06,0,.15.12.2.2a1.7,1.7,0,0,1,.22.24l0,0a.86.86,0,0,1,.19.46,5.43,5.43,0,0,1,.58-.68,1.2,1.2,0,0,0-.44-.68" style="fill:#fff"/><path d="M13.43,15.68a2.55,2.55,0,0,1,1.32.2c.21-.73-.09-1-.09-1a2.75,2.75,0,0,1-1.23.75" style="fill:#fff"/><path d="M15.82,15a.91.91,0,0,0-.35-1,3.14,3.14,0,0,1-.55.69.7.7,0,0,1,.12.53s.44-.39.78-.26" style="fill:#fff"/><path d="M17.6,13.39a1.12,1.12,0,0,1,1-.84,1.81,1.81,0,0,0-1.5-.74,1,1,0,0,0-1.13.84v0a1.1,1.1,0,0,1,1.25.18,1,1,0,0,1,.37.54" style="fill:#fff"/><path d="M20.52,11.16A1.31,1.31,0,0,1,21,10a6.4,6.4,0,0,1,2.75-.4c-.42-.17-4.55-.84-6.68,1.18,0,0,1.95-1,3.36.21l.14.14" style="fill:#fff"/><path d="M20.1,11.16A3.43,3.43,0,0,0,19,10.74a2.67,2.67,0,0,0-2.56.94,2.15,2.15,0,0,1,2.36.56c.09-1,1.1-1,1.29-1.08" style="fill:#fff"/><path d="M16.05,14.31a1.42,1.42,0,0,1,1.31-.74,1.09,1.09,0,0,0-.87-.74c-.66-.15-.95.9-.95.9a.66.66,0,0,1,.51.58" style="fill:#fff"/><path d="M14.55,14.65h0a4.76,4.76,0,0,0,1.09-1.93C17.15,7.68,24,9.49,24,9.49A9.7,9.7,0,0,0,19.76,9s-3.15.16-4.31,2.76A10.75,10.75,0,0,1,14.26,14h0a2,2,0,0,1-1.55.77,2.24,2.24,0,0,0,1.27-1,1.47,1.47,0,0,0,.11-.22,3.23,3.23,0,0,1-.33.06.54.54,0,0,1-.51-.48,3,3,0,0,0-.31.42,1.58,1.58,0,0,1,.37-.73.81.81,0,0,1,.12-.14l0,0h0a1,1,0,0,1,.2-.14.83.83,0,0,1-.39-.6,2.38,2.38,0,0,0-.35.41,1.61,1.61,0,0,1,.45-.75.67.67,0,0,1,.34-.22s-.39-.08-.32-.75a2,2,0,0,0-.26.32,1.35,1.35,0,0,1,.36-.65A.67.67,0,0,1,13.8,10l-.11-.09-.14-.12-.23-.26a1.31,1.31,0,0,1-.19-.35.71.71,0,0,1,0-.2.46.46,0,0,1,.05-.2.76.76,0,0,1,.11-.14.6.6,0,0,1,.12-.11,1.2,1.2,0,0,1,.21-.12l.08,0-.08,0-.16.1s-.08.07-.11.11a.38.38,0,0,0-.09.15.47.47,0,0,0,0,.17,1,1,0,0,0,0,.18,1,1,0,0,0,.22.39,1,1,0,0,1,0-.39c0-.47.74-.77.74-.77a.39.39,0,0,0-.25-.12s-.49-.12-1.51.55a1.55,1.55,0,0,0-1.78.34s-.66-.32-1.5.47l.83.24c.25.12.29.16.29.47a.94.94,0,0,1,1-.06.68.68,0,0,1,.4.79,1.27,1.27,0,0,1-.13.19,2,2,0,0,1-1.26.42c-.14,0-.28.28-.33.42l.11,0c.64-.19,1.13.19,1.77-.07a1.24,1.24,0,0,0,.65-1.26c-.07-.9-.4-1.13-.53-1.17s-.43.21-.57.12-.11-.38-.11-.38a1.23,1.23,0,0,1,.66.09c.18.09.66.33.75,1.37a5.74,5.74,0,0,1,0,.94c-.1,1.14-.57,1.47-.67,2.69,0,.69.08.81.23.92a1.86,1.86,0,0,0,1.51-.05,3.45,3.45,0,0,0,.81-.61" style="fill:#fff"/><path d="M25.84,19.05a.5.5,0,0,0-.38.1l-.39.15s-.31,0-.34,0a6.46,6.46,0,0,1-.25-.88h0c0-.07,0-.14-.05-.22h0l-.09-.38-.09-.7v-.05a2.14,2.14,0,0,0-.36-.86h0A4,4,0,0,0,22,14.78a3.37,3.37,0,0,1,1.89,1,3.23,3.23,0,0,0,.94-.37,2.82,2.82,0,0,0,1-4.08c-1.07-1.34-3.22-.73-3.46.49a1.51,1.51,0,0,0,.56,1.5c-.18-.63.63-1.32.63-1.32-.23-.28-.86-.07-.86-.07A1.51,1.51,0,0,1,24.53,11c1.83.7,1.43,3-.25,3.61a2.18,2.18,0,0,1-1.59-.06c-.73-.36-.38-1.46-.38-1.46a1.1,1.1,0,0,1-.79.39h0a2.23,2.23,0,0,0,.17.52,1.61,1.61,0,0,1-.36-.71h0c-.11-.28-.1-.76-.15-.61a.79.79,0,0,1-.75.6h0a2,2,0,0,0,.22.35,1.26,1.26,0,0,1-.42-.47,2,2,0,0,1-.22-.69c-.37.69-1.43.84-1.84.86-.61-.08-.45.74-.45.74-.22-.11-.27-.27-.56-.28a1.09,1.09,0,0,0-.51.16c-.32.19-.57.52-.6,1.38-.31-.25-.63-.11-.94.12a1.38,1.38,0,0,1-.32.66,2.63,2.63,0,0,0-.92-.29h0a3.58,3.58,0,0,0-.88,0,1.61,1.61,0,0,1-.07.76c.8.53,2.05,0,2.75-.42A20.48,20.48,0,0,1,18,14.83a1.24,1.24,0,0,1,1.22.13c.51.36,1.08,1.34,1.69,1.93,0,0,.4.53,1.67.59a1.47,1.47,0,0,1,1.16.77.75.75,0,0,0,.07.12.93.93,0,0,0,0,.1,3.68,3.68,0,0,1,.33.85,2.68,2.68,0,0,1-.05.3l-.06.13h0c0,.08-.13,0-.13,0a.77.77,0,0,0-.74.14c-.35.36-.27.5-.27.5a1.26,1.26,0,0,1,.4-.16c0,.07.18,0,.18,0a.86.86,0,0,0-.37.42c-.19.53.13.72.13.72-.15-.23.13-.51.13-.51.23,0,.61-.59.61-.59l-.2.75a.64.64,0,0,0,.26.55c-.12-.19.08-.43.08-.43a.38.38,0,0,0,.15-.26.53.53,0,0,0,.06-.6c0-.46.82-.74.82-.74a2.18,2.18,0,0,0,.66-.17c.17-.19.44,0,.44,0a.45.45,0,0,0-.49-.32" style="fill:#fff"/><path d="M29.57,23.24l0,0c-.42.27-3.4,2-11-.24C9.33,20.32,3.7,25,3.7,25l.08,0c.82-.44,6.47-3.17,15-.69,8.22,2.41,10.81-1.06,10.81-1.06" style="fill:#fff"/><path d="M16.63,50s14.71-3.76,16.52-15.57l-.07.07c-1.32,8.61-16.45,13.32-16.45,13.32h0S1.51,43.12.19,34.51l-.07-.07C1.93,46.25,16.64,50,16.64,50" style="fill:#fff"/><path d="M16.63,6.09c5.58,0,14.79,2.35,15.64,3.91.41.65.75,4,.82,4.58l.06.1s.16-3.4.11-4.43c-.12-2.13-7.63-5.92-16.63-5.92h0C7.64,4.33.13,8.12,0,10.25c-.06,1,.1,4.43.1,4.43l.07-.1C.25,14,.59,10.65,1,10c.85-1.56,10.06-3.91,15.64-3.91" style="fill:#fff"/><path d="M82.29,27.22s-3.67,4.55-18,1.7c-16.09-3.2-26.44.63-26.44.63s10.35-5.33,26.45-2.14c14.34,2.86,18-.19,18-.19" style="fill:#fff"/><path d="M37.86,48.6h1.23l.69-1.54h2.89l.7,1.54h1.5l-3.21-7h-.48Zm4.39-2.46h-2l1-2.27Zm3.06,2.46h1.32v-.52a1.84,1.84,0,0,0,1.48.75c1,0,2.25-.77,2.25-2.81,0-1.57-.8-2.69-2.16-2.69a1.81,1.81,0,0,0-1.57.78V41.62H45.31Zm1.32-3.8a1.23,1.23,0,0,1,1.08-.66,1.1,1.1,0,0,1,1,.69A2.66,2.66,0,0,1,49,46c0,1.66-.77,2-1.29,2a1.34,1.34,0,0,1-1-.58Zm9.07,2.26a1.83,1.83,0,0,1-1.63.91,1.77,1.77,0,0,1-1.78-1.77h3.9A3,3,0,0,0,55.47,44a2.58,2.58,0,0,0-1.85-.68A2.56,2.56,0,0,0,50.88,46a2.63,2.63,0,0,0,2.78,2.81A2.22,2.22,0,0,0,56,47.22Zm-3.38-1.63c.13-.51.32-1.29,1.28-1.29s1.09.83,1.15,1.29Zm5.9-1.89H56.9V48.6h1.32V44.67a1.79,1.79,0,0,1,1-.34,1.82,1.82,0,0,1,.87.24V43.42a2.22,2.22,0,0,0-.37,0,1.77,1.77,0,0,0-1.51.78Zm3.25,0h-.8v.79h.8v2.8A1.44,1.44,0,0,0,63,48.79a2.33,2.33,0,0,0,1.31-.4l-.16-.32a1.53,1.53,0,0,1-.5.1.8.8,0,0,1-.74-.45,1.54,1.54,0,0,1-.15-.8V44.33h1.15v-.79H62.79V42.16H61.47Zm7.55,2a2.21,2.21,0,0,0-.51-1.65,2.34,2.34,0,0,0-1.7-.58,2,2,0,0,0-2.12,1.35l.34.17a1.6,1.6,0,0,1,1.39-.75,1.23,1.23,0,0,1,1.18.66,2.11,2.11,0,0,1,.14.78,3.66,3.66,0,0,0-1.2-.22,1.89,1.89,0,0,0-2.13,1.82,1.58,1.58,0,0,0,1.68,1.62A2.15,2.15,0,0,0,67.74,48v.57H69Zm-1.28,2a1.79,1.79,0,0,1-1,.37.84.84,0,0,1-.91-.9,1,1,0,0,1,1.1-.95,2.21,2.21,0,0,1,.85.19Zm3.37,1.07h.48l1.34-3,1.34,3h.47l1.91-5.1H75.59l-.87,2.52-.15.48c-.11-.27-.12-.32-.22-.56l-1-2.44h-.43l-1.32,3c-.07-.25-.09-.31-.16-.54l-.83-2.45H69.23Zm10.37-1.58a1.86,1.86,0,0,1-1.64.91,1.77,1.77,0,0,1-1.78-1.77H82A3,3,0,0,0,81.24,44a2.76,2.76,0,0,0-4.58,2,2.63,2.63,0,0,0,2.78,2.81,2.2,2.2,0,0,0,2.36-1.59Zm-3.39-1.63c.13-.51.33-1.29,1.28-1.29s1.1.83,1.16,1.29Z" style="fill:#fff"/><path d="M41.82,35.64l.88,0c2.14,0,3-1,3-2.17a1.67,1.67,0,0,0-1-1.62,3.73,3.73,0,0,0-1.58-.22H40.82V39h1Zm0-3.37h1.11c.88,0,1.2.21,1.42.47a1.3,1.3,0,0,1,.3.85,1.59,1.59,0,0,1-1.34,1.52,4.89,4.89,0,0,1-1.49.14ZM47.62,35a1.33,1.33,0,0,1,1.08-.63,2,2,0,0,1,.81.21V33.7a1.11,1.11,0,0,0-.55-.13,1.65,1.65,0,0,0-1.34.85V33.7h-.95V39h.95Zm3.81-1.27h-.94V39h.94Zm-1-1.53a.53.53,0,0,0,.53.55.55.55,0,0,0,.56-.58.55.55,0,1,0-1.09,0m3.66,2.14h1.08v-.6H54.08v-.51a1.8,1.8,0,0,1,.11-.88.73.73,0,0,1,.65-.33,1.22,1.22,0,0,1,.57.14,1.84,1.84,0,0,1,.17-.22,1.31,1.31,0,0,0-1-.46,1.62,1.62,0,0,0-.93.29,1.47,1.47,0,0,0-.47,1.32v.65h-.75v.6h.75V39h.94Zm5.79-.6-1.6,3.66L56.78,33.7h-1l2,4.76c-.7,1.57-1.13,2-2,2.33v.28c1.33.06,2-.73,2.66-2.17l2.29-5.2ZM65.16,35a1.49,1.49,0,0,0-.64-1.11,2.33,2.33,0,0,0-1.3-.36c-1.19,0-1.92.68-1.92,1.56s.91,1.3,1.44,1.47a5.89,5.89,0,0,1,1,.36.84.84,0,0,1,.53.77c0,.53-.46.88-1.18.88A2.12,2.12,0,0,1,61.76,38a2.28,2.28,0,0,1-.46-.57l-.27.09a1.82,1.82,0,0,0,.69,1.2,2.42,2.42,0,0,0,1.44.41,2.37,2.37,0,0,0,1.53-.45,1.52,1.52,0,0,0,.58-1.2c0-1.12-1.06-1.43-1.59-1.58l-.55-.17c-.53-.17-.89-.38-.89-.81s.45-.81,1.13-.81a1.63,1.63,0,0,1,1.52.89l.27-.08m4.7-1.25v.68a1.8,1.8,0,0,0-1.56-.9c-1.1,0-2.12.94-2.12,2.75s.89,2.57,2.06,2.57A1.86,1.86,0,0,0,69.86,38v.3a2.26,2.26,0,0,1-.37,1.65,1.45,1.45,0,0,1-1.15.48,2,2,0,0,1-1.33-.5,1.56,1.56,0,0,1-.41-.58l-.3.1a2,2,0,0,0,2.11,1.64,2.53,2.53,0,0,0,1.83-.68,2.7,2.7,0,0,0,.56-2.08V33.7Zm0,3.89a2,2,0,0,1-1.26.55c-1,0-1.43-1-1.43-2,0-1.18.54-2,1.39-2a1.34,1.34,0,0,1,.76.24,1.53,1.53,0,0,1,.54.6Zm7.32-1.34a2.5,2.5,0,0,0-2.49-2.77c-1.4,0-2.59.91-2.59,2.93A2.83,2.83,0,0,0,73,38.6a2.69,2.69,0,0,0,3.66-.33,3.26,3.26,0,0,0,.57-2m-1,.06c0,1.68-.74,2.29-1.54,2.29a1.41,1.41,0,0,1-1.33-1,3.42,3.42,0,0,1-.21-1.32c0-1.11.4-2.23,1.55-2.23s1.53,1.06,1.53,2.25m3.23-4.65h-.94V39h.94Z" style="fill:#fff"/><path d="M44.79,16h-1v5.68a3.17,3.17,0,0,1-2.24,1.14,1.75,1.75,0,0,1-1.5-.72,2.64,2.64,0,0,1-.26-1.47V16h-1v5.07a2.24,2.24,0,0,0,.56,1.74,2.61,2.61,0,0,0,1.92.7A2.89,2.89,0,0,0,43.8,22.2v1.08h1Zm5.68,3.6A1.67,1.67,0,0,0,50,18.2a1.72,1.72,0,0,0-1.2-.39,2.1,2.1,0,0,0-1.8,1V18h-.93v5.25H47V19.37a1.66,1.66,0,0,1,1.41-.88,1,1,0,0,1,1,.69,4.62,4.62,0,0,1,.07,1.12v3h.93ZM52.61,18h-.94v5.26h.94Zm-1-1.53a.52.52,0,0,0,.53.54.56.56,0,1,0-.53-.54M57.4,18l-1.5,3.51a1.21,1.21,0,0,0-.11.35,2.17,2.17,0,0,0-.11-.34L54.25,18h-1l2.3,5.31h.32L58.17,18Zm5.94,2.63a2.89,2.89,0,0,0-.78-2.25,2.4,2.4,0,0,0-1.64-.6,2.63,2.63,0,0,0-2.62,2.87,2.58,2.58,0,0,0,2.63,2.82,2.18,2.18,0,0,0,2.31-1.68L63,21.71a2.14,2.14,0,0,1-1.83,1.08,1.76,1.76,0,0,1-1.43-.69,2.57,2.57,0,0,1-.45-1.44Zm-4.05-.57a1.65,1.65,0,0,1,1.61-1.63,1.53,1.53,0,0,1,1.52,1.63Zm5.87-.8a1.33,1.33,0,0,1,1.08-.63,2,2,0,0,1,.81.21V18a1.11,1.11,0,0,0-.55-.13,1.67,1.67,0,0,0-1.34.85V18h-1v5.25h1Zm6.27,0a1.49,1.49,0,0,0-.64-1.11,2.31,2.31,0,0,0-1.3-.36c-1.19,0-1.91.68-1.91,1.56s.9,1.3,1.43,1.46a6.56,6.56,0,0,1,1,.37.84.84,0,0,1,.53.77c0,.53-.46.88-1.18.88A2.12,2.12,0,0,1,68,22.36a1.9,1.9,0,0,1-.45-.58c-.08,0-.2.07-.28.1a1.82,1.82,0,0,0,.69,1.2,2.42,2.42,0,0,0,1.44.41A2.32,2.32,0,0,0,71,23a1.48,1.48,0,0,0,.58-1.19c0-1.12-1.06-1.43-1.59-1.58l-.55-.17c-.53-.17-.88-.38-.88-.81s.44-.81,1.12-.81a1.63,1.63,0,0,1,1.52.89l.27-.08M73.35,18h-.94v5.26h.94Zm-1-1.53a.53.53,0,0,0,.54.54.54.54,0,0,0,.56-.57.54.54,0,0,0-.54-.54.55.55,0,0,0-.56.57m3.32,2.13h1.1V18h-1.1v-1.4h-.94V18H74v.59h.72V21.9c0,.63,0,1.05.46,1.35a1.63,1.63,0,0,0,2-.21L77,22.8a1.38,1.38,0,0,1-.63.17c-.74,0-.74-.66-.74-1.33ZM81.28,18l-1.6,3.66L78.19,18h-1l2,4.76c-.7,1.57-1.13,2.05-2,2.33v.28c1.33.06,2-.73,2.66-2.17L82.1,18Z" style="fill:#fff"/><path d="M38.74,11.38a2.51,2.51,0,0,0,.67,1.5,3,3,0,0,0,2.12.73,3.29,3.29,0,0,0,2.36-.84,2.4,2.4,0,0,0,.65-1.63A2,2,0,0,0,44,9.7a3.67,3.67,0,0,0-1.77-.78c-.8-.16-1.37-.27-1.59-.82a.9.9,0,0,1-.07-.36c0-.77.75-1.15,1.6-1.15a2.07,2.07,0,0,1,1.48.53,1.58,1.58,0,0,1,.37.6l.43-.12a2,2,0,0,0-.53-1.23,2.82,2.82,0,0,0-2-.67C39.48,5.7,39,7.19,39,8c0,1.7,1.58,2,2.42,2.19S43,10.62,43,11.42c0,.64-.52,1.28-1.57,1.28a2.42,2.42,0,0,1-1.71-.63,3.1,3.1,0,0,1-.55-.84Zm8,2h.52l1.42-3.15,1.42,3.15h.51l2-5.45H51.56l-.93,2.69-.16.51c-.11-.29-.12-.34-.23-.59L49.16,8H48.7l-1.4,3.19-.17-.57L46.24,8H44.78Zm11-3.3a2.36,2.36,0,0,0-.54-1.76,2.53,2.53,0,0,0-1.82-.62A2.15,2.15,0,0,0,53.15,9.2l.36.18A1.68,1.68,0,0,1,55,8.57a1.32,1.32,0,0,1,1.26.71,2.33,2.33,0,0,1,.15.82,4.23,4.23,0,0,0-1.28-.23,2,2,0,0,0-2.28,1.94,1.69,1.69,0,0,0,1.79,1.73,2.3,2.3,0,0,0,1.77-.77v.61h1.36ZM56.4,12.29a2,2,0,0,1-1.11.39.9.9,0,0,1-1-1,1,1,0,0,1,1.17-1,2.34,2.34,0,0,1,.91.2Zm7.43-2.56a1.92,1.92,0,0,0-.43-1.41,1.81,1.81,0,0,0-1.3-.49,2.11,2.11,0,0,0-1.76.86V8h-1.4v5.4h1.4v-4a1.54,1.54,0,0,1,1.17-.67.86.86,0,0,1,.86.63,2.05,2.05,0,0,1,.05.55v3.5h1.41ZM64.65,12a1.62,1.62,0,0,0,.45,1,2.42,2.42,0,0,0,1.82.63c1.55,0,2.3-.88,2.3-1.82a1.66,1.66,0,0,0-.42-1.12,2,2,0,0,0-1-.5c-.2-.06-.4-.1-.6-.14-.48-.13-1-.26-1-.75s.3-.72,1.07-.72c1.07,0,1.33.55,1.43.74l.37-.1a1.63,1.63,0,0,0-.43-.86,2.16,2.16,0,0,0-1.6-.59c-1.57,0-2.27.95-2.27,1.82a1.42,1.42,0,0,0,1,1.36,6.44,6.44,0,0,0,.72.2c.69.14,1,.28,1.2.63a.85.85,0,0,1,0,.26.77.77,0,0,1-.59.72,1.65,1.65,0,0,1-.53.07,2,2,0,0,1-1.39-.49,1.56,1.56,0,0,1-.28-.43ZM75,11.74a2,2,0,0,1-1.74,1,1.88,1.88,0,0,1-1.9-1.89h4.15a3.22,3.22,0,0,0-.77-2.35,2.94,2.94,0,0,0-4.88,2.14,2.8,2.8,0,0,0,3,3,2.35,2.35,0,0,0,2.52-1.7ZM71.35,10c.14-.54.35-1.37,1.36-1.37s1.17.88,1.23,1.37Zm9.62.13a2.36,2.36,0,0,0-.54-1.76,2.48,2.48,0,0,0-1.81-.62A2.17,2.17,0,0,0,76.36,9.2l.36.18a1.69,1.69,0,0,1,1.49-.81,1.31,1.31,0,0,1,1.25.71,2.13,2.13,0,0,1,.15.82,4.17,4.17,0,0,0-1.28-.23,2,2,0,0,0-2.27,1.94,1.69,1.69,0,0,0,1.79,1.73,2.27,2.27,0,0,0,1.76-.77v.61H81Zm-1.36,2.16a1.9,1.9,0,0,1-1.11.39.91.91,0,0,1-1-1,1,1,0,0,1,1.17-1,2.3,2.3,0,0,1,.91.2Z" style="fill:#fff"/><rect x="97.44" width="0.93" height="55.51" style="fill:#fff"/><path d="M113.23,6.12h9.41V7.75h-3.5V18h-2.4V7.75h-3.51Z" style="fill:#fff"/><path d="M123.62,6.12h2.23v4.33a3.47,3.47,0,0,1,2.73-1.34,3.16,3.16,0,0,1,1.71.49,2.88,2.88,0,0,1,1.11,2.68V18h-2.23v-5.1a2.66,2.66,0,0,0-.49-2,1.39,1.39,0,0,0-1-.4,2.56,2.56,0,0,0-1.84,1V18h-2.23Z" style="fill:#fff"/><path d="M141.75,15.62a3.75,3.75,0,0,1-4,2.7A4.45,4.45,0,0,1,133,13.56a4.68,4.68,0,0,1,7.76-3.41A5.16,5.16,0,0,1,142,13.89h-6.61a3,3,0,0,0,3,3,3.13,3.13,0,0,0,2.77-1.54Zm-2.16-3c-.11-.77-.29-2.18-2-2.18s-1.94,1.33-2.16,2.18Z" style="fill:#fff"/><path d="M158.66,15.3a4.32,4.32,0,0,1-1.08,1.84,5,5,0,0,1-3.49,1.18,5.48,5.48,0,0,1-4.22-1.54,6.4,6.4,0,0,1-1.78-4.67c0-3.91,2.62-6.39,6.09-6.39A4.82,4.82,0,0,1,157.72,7a3.19,3.19,0,0,1,.92,1.84L158,9a4.19,4.19,0,0,0-.6-.87,3.48,3.48,0,0,0-2.49-.92c-2.25,0-4.24,1.66-4.24,4.81,0,2.64,1.47,4.83,4.09,4.83A3.63,3.63,0,0,0,158,15.05Z" style="fill:#fff"/><path d="M168.49,13.62c0,2.4-1.4,4.7-4.55,4.7-2.62,0-4.33-1.83-4.33-4.61A4.34,4.34,0,0,1,164,9,4.28,4.28,0,0,1,168.49,13.62Zm-6.51,0c0,1.94.67,3.32,2.06,3.32s2.08-1.44,2.08-3.2c0-1.92-.62-3.36-2.08-3.36S162,11.78,162,13.64Z" style="fill:#fff"/><path d="M170.08,6.12h2.25V18h-2.25Z" style="fill:#fff"/><path d="M174.27,6.12h2.25V18h-2.25Z" style="fill:#fff"/><path d="M186.84,15.62a3.75,3.75,0,0,1-4,2.7,4.46,4.46,0,0,1-4.72-4.76,4.69,4.69,0,0,1,7.77-3.41,5.1,5.1,0,0,1,1.22,3.74h-6.61a3,3,0,0,0,3,3,3.13,3.13,0,0,0,2.77-1.54Zm-2.17-3c-.1-.77-.28-2.18-2-2.18s-2,1.33-2.17,2.18Z" style="fill:#fff"/><path d="M189.07,18.49a7.9,7.9,0,0,0,.55.74,3,3,0,0,0,2.1.82,2.73,2.73,0,0,0,2-.77,3.9,3.9,0,0,0,.8-3,3.06,3.06,0,0,1-.42.46,3.56,3.56,0,0,1-2.34.9c-1.7,0-3.53-1.42-3.53-4.23,0-2.66,1.6-4.39,3.71-4.39a3,3,0,0,1,2.58,1.29V9.36h2.25v7.37a4.67,4.67,0,0,1-1,3.47,4.86,4.86,0,0,1-3.35,1.17,4.38,4.38,0,0,1-3.06-1.05,3.17,3.17,0,0,1-.8-1.58Zm5.46-7a2.08,2.08,0,0,0-1.81-1.14c-1.24,0-2.09,1.11-2.09,3.05s1,2.87,2,2.87a2.49,2.49,0,0,0,1.88-1Z" style="fill:#fff"/><path d="M207.1,15.62a3.75,3.75,0,0,1-4,2.7,4.46,4.46,0,0,1-4.72-4.76,4.69,4.69,0,0,1,7.77-3.41,5.16,5.16,0,0,1,1.23,3.74h-6.61a3,3,0,0,0,3,3,3.1,3.1,0,0,0,2.76-1.54Zm-2.17-3c-.1-.77-.28-2.18-2-2.18s-1.95,1.33-2.16,2.18Z" style="fill:#fff"/><path d="M129,34.78h2.53l3.06,7.71a8.7,8.7,0,0,1,.33,1c.24-.59.32-.79.57-1.33l3.37-7.36h2.05l-5.47,11.71a9.49,9.49,0,0,1-1.61,2.7,4.22,4.22,0,0,1-3,1.1,10.69,10.69,0,0,1-1.38-.11v-.67a3.9,3.9,0,0,0,2.7-1.09,8,8,0,0,0,1.53-2.55Z" style="fill:#fff"/><path d="M157,44a4.19,4.19,0,0,1-1.07,1.85A5,5,0,0,1,152.45,47a5.53,5.53,0,0,1-4.23-1.54,6.35,6.35,0,0,1-1.77-4.66c0-3.91,2.61-6.4,6.09-6.4a4.88,4.88,0,0,1,3.54,1.23,3.21,3.21,0,0,1,.92,1.84l-.67.21a4.59,4.59,0,0,0-.61-.88,3.46,3.46,0,0,0-2.48-.92c-2.25,0-4.24,1.66-4.24,4.82,0,2.63,1.47,4.83,4.09,4.83a3.6,3.6,0,0,0,3.25-1.8Z" style="fill:#fff"/><path d="M166.84,42.28c0,2.4-1.39,4.69-4.54,4.69-2.62,0-4.33-1.83-4.33-4.61a4.34,4.34,0,0,1,4.39-4.68A4.29,4.29,0,0,1,166.84,42.28Zm-6.51,0c0,2,.68,3.32,2.07,3.32s2.08-1.44,2.08-3.2-.62-3.35-2.08-3.35S160.33,40.43,160.33,42.29Z" style="fill:#fff"/><path d="M168.44,34.78h2.24V46.62h-2.24Z" style="fill:#fff"/><path d="M181,44.27a3.75,3.75,0,0,1-4,2.7,4.45,4.45,0,0,1-4.71-4.76A4.69,4.69,0,0,1,180,38.8a5.17,5.17,0,0,1,1.23,3.74h-6.61a3,3,0,0,0,3,3A3.14,3.14,0,0,0,180.45,44Zm-2.16-3c-.1-.78-.29-2.18-2-2.18s-1.94,1.32-2.16,2.18Z" style="fill:#fff"/><path d="M183.23,47.14a8.37,8.37,0,0,0,.55.74,3,3,0,0,0,2.1.82,2.73,2.73,0,0,0,2-.77,3.83,3.83,0,0,0,.81-3,4.55,4.55,0,0,1-.42.45,3.61,3.61,0,0,1-2.35.91c-1.69,0-3.52-1.43-3.52-4.23s1.59-4.4,3.7-4.4A3,3,0,0,1,188.7,39V38H191v7.36a4.68,4.68,0,0,1-1,3.47A4.86,4.86,0,0,1,186.55,50,4.37,4.37,0,0,1,183.5,49a3,3,0,0,1-.81-1.58Zm5.47-7A2.1,2.1,0,0,0,186.89,39c-1.24,0-2.1,1.11-2.1,3.06s1,2.87,2,2.87a2.51,2.51,0,0,0,1.88-1Z" style="fill:#fff"/><path d="M114.32,27.63s10.16-7.72,46.82-2.65c34.37,4.75,43.07,2.71,45.49.26,0,0-1.89,9.22-44.85,3.05,0,0-29.49-4.95-47.46-.66" style="fill:#fff"/></g></g></svg>