<svg xmlns="http://www.w3.org/2000/svg" viewBox="0 0 188.35 51.06"><g id="Layer_2" data-name="Layer 2"><g id="Layer_1-2" data-name="Layer 1"><path d="M53.72.31c.23,0,1,0,2.4-.11a1,1,0,0,1,0,.3c0,.21,0,.32-.07.32a3.59,3.59,0,0,0-.68.14c-.34.09-.51.19-.52.29a6.19,6.19,0,0,0-.16,1.64v4.3a5.08,5.08,0,0,0,.84,3.07,2.7,2.7,0,0,0,2.32,1.15,3,3,0,0,0,2.32-.94,4.56,4.56,0,0,0,.87-3.13V2.78a3.88,3.88,0,0,0-.18-1.49A1.3,1.3,0,0,0,60.23,1a3.2,3.2,0,0,0-.8-.16s-.08-.09-.08-.26a.67.67,0,0,1,0-.34c1.36.09,2.15.13,2.37.13s.73,0,1.25-.06S63.85.2,64,.2a1.36,1.36,0,0,1,0,.3c0,.2,0,.3-.08.3a4,4,0,0,0-.81.14,1.2,1.2,0,0,0-.71.38,4.14,4.14,0,0,0-.21,1.55v4.4a8.09,8.09,0,0,1-.35,2.51,3.91,3.91,0,0,1-1,1.66,4.14,4.14,0,0,1-1.49.89,6,6,0,0,1-1.91.28,4.69,4.69,0,0,1-3.55-1.35,6.2,6.2,0,0,1-1.3-4.37V2.82a5.14,5.14,0,0,0-.15-1.57c0-.1-.22-.2-.52-.29a2.7,2.7,0,0,0-.68-.14c-.05,0-.07-.09-.07-.28s0-.3,0-.34c1.59.08,2.43.11,2.5.11" style="fill:#fff"/><path d="M75.21,2.8A4.33,4.33,0,0,0,75,1.31C75,1.16,74.75,1,74.4,1a3.66,3.66,0,0,0-.84-.13s-.08-.09-.08-.27a.61.61,0,0,1,0-.35c1.34.09,2.13.13,2.37.13s.74,0,1.26-.06S78,.2,78.11.2a1,1,0,0,1,0,.3c0,.21,0,.32-.07.32a3.77,3.77,0,0,0-.81.14,1.2,1.2,0,0,0-.71.38,4.32,4.32,0,0,0-.21,1.55V10c0,.44,0,1.32.08,2.61a.69.69,0,0,1-.42.08c-.2,0-.4-.15-.6-.43L67.92,2.37V9.94a5.13,5.13,0,0,0,.15,1.53c.07.15.3.28.7.38a3.68,3.68,0,0,0,.84.16s.06.09.07.26a.83.83,0,0,1,0,.36l-2.35-.11c-.33,0-.75,0-1.25,0l-1,.07a.48.48,0,0,1-.08-.32c0-.2,0-.3.08-.3a3.21,3.21,0,0,0,.85-.14,1,1,0,0,0,.69-.42,4.33,4.33,0,0,0,.19-1.57V2.56a3,3,0,0,0-.21-1.37c0-.08-.27-.17-.65-.24a5.39,5.39,0,0,0-.83-.11S65,.74,65,.56A.51.51,0,0,1,65.09.2c1.31.07,2.06.1,2.23.1.42,0,1,0,1.69-.1a20.51,20.51,0,0,0,1.31,2q.95,1.32,2.6,3.48c1.1,1.44,1.85,2.43,2.26,3a6.74,6.74,0,0,0,0-.77Z" style="fill:#fff"/><path d="M80.59,2.82a5.6,5.6,0,0,0-.15-1.57c0-.1-.23-.2-.53-.29a2.7,2.7,0,0,0-.68-.14s-.07-.09-.07-.28,0-.31,0-.34l1,.06c.63,0,1.12,0,1.45,0,.1,0,.91,0,2.41-.11a.89.89,0,0,1,.06.3c0,.21,0,.32-.08.32A3.13,3.13,0,0,0,83.4,1c-.33.1-.52.19-.54.28a6.91,6.91,0,0,0-.15,1.64v7a7,7,0,0,0,.17,1.68c0,.09.2.18.51.27A2.58,2.58,0,0,0,84,12s.08.12.08.36a.71.71,0,0,1,0,.26c-1.5-.08-2.3-.11-2.39-.11h-.78l-.92.05-.79.05a.37.37,0,0,1-.08-.26c0-.24,0-.36.08-.36a2.84,2.84,0,0,0,.7-.13c.32-.09.5-.18.54-.28A6.49,6.49,0,0,0,80.59,10Z" style="fill:#fff"/><path d="M87.48.31c.18,0,1,0,2.58-.11a.82.82,0,0,1,0,.35c0,.18,0,.27-.07.27a1.66,1.66,0,0,0-.4.05,1.73,1.73,0,0,0-.51.2.48.48,0,0,0-.26.4A27.79,27.79,0,0,0,90.3,5.3a9.1,9.1,0,0,0,.38.92c.15.39.33.83.56,1.34s.42.91.58,1.24a2.46,2.46,0,0,0,.25.45L94.81,2.8a3.8,3.8,0,0,0,.37-1.29c0-.22-.14-.39-.44-.51a2.32,2.32,0,0,0-.89-.18s-.07-.09-.07-.27a1.37,1.37,0,0,1,0-.35l.9.06c.49,0,.89,0,1.19,0s.7,0,1.12,0L98,.2a.72.72,0,0,1,0,.28c0,.21,0,.32,0,.32a2.12,2.12,0,0,0-.64.14,1.43,1.43,0,0,0-.63.4A14,14,0,0,0,95.88,3L92,12.09c-.19.45-.43.67-.73.67a.32.32,0,0,1-.3-.19L87.07,3a17.16,17.16,0,0,0-.72-1.67A.91.91,0,0,0,85.77,1a2.71,2.71,0,0,0-.71-.14S85,.73,85,.54A.61.61,0,0,1,85,.2l1,.06c.6,0,1.07,0,1.41,0" style="fill:#fff"/><path d="M101.18.3c.55,0,1.52,0,2.91-.07s2.44-.06,3.15-.06c.06.37.16.89.31,1.56s.23,1,.24,1.09a.58.58,0,0,1-.39.09c-.14,0-.23,0-.27-.13a2.35,2.35,0,0,0-2.4-1.66h-1c-.93,0-1.4.08-1.43.24a8.11,8.11,0,0,0-.11,1.51V5.81c0,.07.28.11.83.11h1a5.07,5.07,0,0,0,1.3-.09c.13-.07.24-.28.31-.66,0-.18.08-.34.12-.46s.11-.13.3-.13a.51.51,0,0,1,.35.09V8.2a.52.52,0,0,1-.35.08c-.17,0-.27,0-.3-.16a5.88,5.88,0,0,0-.24-.74,1.06,1.06,0,0,0-.13-.26L105.29,7a5.64,5.64,0,0,0-1.73-.14c-.9,0-1.35,0-1.35.14V9.9a5,5,0,0,0,.17,1.51c.06.17.49.25,1.28.25h.69a5,5,0,0,0,2.24-.4,2,2,0,0,0,.67-.65,4.11,4.11,0,0,0,.59-1.14c0-.07.1-.11.26-.11a.88.88,0,0,1,.53.11c0,.11-.13.37-.28.77s-.25.7-.33.9-.15.46-.24.76a5.52,5.52,0,0,0-.17.73l-3.11-.06c-1.57,0-2.68,0-3.31,0l-2.5.08a.47.47,0,0,1-.06-.3c0-.21,0-.32.06-.32a3.13,3.13,0,0,0,.71-.12c.31-.08.5-.18.55-.29a7.16,7.16,0,0,0,.13-1.7V2.84A6.21,6.21,0,0,0,100,1.31c0-.14-.22-.25-.53-.34a2.8,2.8,0,0,0-.75-.13c-.05,0-.08-.1-.08-.28a.5.5,0,0,1,.08-.34c.83.05,1.66.08,2.5.08" style="fill:#fff"/><path d="M114.82.24a5.33,5.33,0,0,1,1,.1A5.67,5.67,0,0,1,117,.69a4.28,4.28,0,0,1,1,.6,2.57,2.57,0,0,1,.74.93A3.07,3.07,0,0,1,119,3.53a3.13,3.13,0,0,1-.66,1.9,3.64,3.64,0,0,1-1.6,1.28c-.1,0-.12.09-.07.18a21.91,21.91,0,0,0,2.1,3.18,8.32,8.32,0,0,0,1.42,1.37,2.4,2.4,0,0,0,1.4.57.56.56,0,0,1,.08.3.74.74,0,0,1-.08.34,4.51,4.51,0,0,1-.58,0,6.28,6.28,0,0,1-1.74-.22,4.05,4.05,0,0,1-1.35-.66,8.39,8.39,0,0,1-1-.85,8.41,8.41,0,0,1-.79-1c-.18-.25-.38-.54-.6-.88s-.4-.59-.52-.77-.25-.37-.4-.57a3.3,3.3,0,0,0-.39-.45A1,1,0,0,0,114,7a1.35,1.35,0,0,0-.45,0c-.2,0-.3.1-.3.31V9.92a5.82,5.82,0,0,0,.15,1.59q.06.22.63.36a3.56,3.56,0,0,0,.84.14c.05,0,.07.11.07.32a.92.92,0,0,1,0,.32c-1.37-.08-2.26-.12-2.66-.12l-1.14,0-1,0-.37,0a.61.61,0,0,1-.06-.34q0-.3.06-.3a3.28,3.28,0,0,0,.72-.12c.32-.08.51-.18.56-.29a7.71,7.71,0,0,0,.11-1.7V2.84A7.69,7.69,0,0,0,111,1.31c0-.1-.23-.21-.56-.31a2.56,2.56,0,0,0-.72-.16s-.08-.1-.08-.28,0-.3.08-.34l2.5.06,1.3,0,1.35,0m-.3.93a3,3,0,0,0-1.09.14c-.14.06-.22.7-.23,1.94V5.4a.53.53,0,0,0,.32.54,2.33,2.33,0,0,0,.88.13h.49a1.64,1.64,0,0,0,1.25-.65,2.56,2.56,0,0,0,.56-1.7c0-1.7-.73-2.55-2.18-2.55" style="fill:#fff"/><path d="M122.17,3.42a2.94,2.94,0,0,1,1.19-2.37,4.13,4.13,0,0,1,2.67-1,6.26,6.26,0,0,1,.92.06,9.13,9.13,0,0,1,1.1.23c.46.12.79.2,1,.23a16.64,16.64,0,0,1,.23,2.88.21.21,0,0,1-.23.17c-.34,0-.52-.06-.54-.17a3.36,3.36,0,0,0-.81-1.68A2.13,2.13,0,0,0,126,1a1.76,1.76,0,0,0-1.33.48,1.87,1.87,0,0,0-.46,1.31,2.19,2.19,0,0,0,.07.53,1.27,1.27,0,0,0,.26.5c.13.16.24.29.32.4a2.09,2.09,0,0,0,.47.4l.47.34.57.36a5.06,5.06,0,0,0,.53.31c.08.06.29.2.63.4l.72.45c.14.1.34.25.61.48a2.65,2.65,0,0,1,.57.63,3.67,3.67,0,0,1,.33.76,3.14,3.14,0,0,1,.15,1,3,3,0,0,1-1.22,2.47,4.32,4.32,0,0,1-2.8,1,17.32,17.32,0,0,1-3.46-.52,16.44,16.44,0,0,1-.31-1.69C122,9.87,122,9.42,122,9.21s.11-.15.3-.15.51,0,.54.15a3.56,3.56,0,0,0,.27.74,5.83,5.83,0,0,0,.51.86,2.51,2.51,0,0,0,.89.74,2.56,2.56,0,0,0,1.25.29,2.11,2.11,0,0,0,1.46-.52,2,2,0,0,0,.58-1.57,1.67,1.67,0,0,0-.12-.62,2,2,0,0,0-.28-.5,2.56,2.56,0,0,0-.47-.45c-.21-.16-.38-.28-.52-.37s-.34-.21-.61-.37l-.57-.32A1.16,1.16,0,0,0,125,7c-.36-.23-.64-.4-.82-.53a7.27,7.27,0,0,1-.73-.55,3.74,3.74,0,0,1-.66-.68,3.54,3.54,0,0,1-.41-.78,2.83,2.83,0,0,1-.18-1" style="fill:#fff"/><path d="M132.83,2.82a5.6,5.6,0,0,0-.15-1.57c-.05-.1-.22-.2-.52-.29a2.7,2.7,0,0,0-.68-.14s-.07-.09-.07-.28a1,1,0,0,1,0-.34l1.05.06c.63,0,1.11,0,1.45,0,.1,0,.9,0,2.41-.11a1.17,1.17,0,0,1,.05.3c0,.21,0,.32-.07.32a3.13,3.13,0,0,0-.68.15c-.34.1-.52.19-.54.28A6.91,6.91,0,0,0,135,2.89v7a6.53,6.53,0,0,0,.17,1.68q0,.13.51.27a2.58,2.58,0,0,0,.65.14c.05,0,.08.12.08.36a1,1,0,0,1,0,.26c-1.51-.08-2.3-.11-2.39-.11h-.79l-.91.05-.8.05a.37.37,0,0,1-.07-.26c0-.24,0-.36.07-.36a2.9,2.9,0,0,0,.71-.13c.32-.09.5-.18.53-.28a6.49,6.49,0,0,0,.15-1.57Z" style="fill:#fff"/><path d="M141.09.27c.85,0,1.54,0,2.08,0s1.23,0,2.08,0L147.3.2A6.65,6.65,0,0,0,148.6,0L149,2.87a.69.69,0,0,1-.5.14.18.18,0,0,1-.19-.1,2.71,2.71,0,0,0-.7-1.39,2.09,2.09,0,0,0-1.35-.36c-1.17,0-1.77.1-1.82.31a6.26,6.26,0,0,0-.17,1.76V10a6,6,0,0,0,.17,1.62c0,.09.18.18.5.27a2.72,2.72,0,0,0,.66.14s.08.11.08.34a1.21,1.21,0,0,1,0,.3l-.72-.06-.89-.06h-.78c-.33,0-.8,0-1.4.05s-1,.06-1.09.08a.43.43,0,0,1-.08-.3c0-.23,0-.34.08-.34a2.84,2.84,0,0,0,.7-.13c.32-.09.5-.18.54-.28a6.35,6.35,0,0,0,.15-1.55V3.29a5.21,5.21,0,0,0-.17-1.82c-.1-.21-.7-.31-1.79-.31a2.09,2.09,0,0,0-1.35.36,2.67,2.67,0,0,0-.71,1.37c0,.08-.08.12-.19.12a.64.64,0,0,1-.49-.15L137.76,0a6.48,6.48,0,0,0,1.29.18l2,.07" style="fill:#fff"/><path d="M152.35.31c.23,0,1.09,0,2.6-.11a1,1,0,0,1,0,.34c0,.17,0,.26-.06.26a2,2,0,0,0-.68.13c-.25.09-.37.22-.37.39a1.05,1.05,0,0,0,.17.49l2,3.62c.06.07.12.05.18,0,.54-.8,1.06-1.62,1.56-2.47a5.08,5.08,0,0,0,.76-1.61c0-.13-.12-.25-.35-.36a2.15,2.15,0,0,0-.91-.16s-.08-.09-.08-.26a.61.61,0,0,1,.06-.34c1.26.08,2,.11,2.25.11h.78l.72,0,.57,0a1.54,1.54,0,0,1,0,.3c0,.2,0,.3-.08.3a2.69,2.69,0,0,0-.78.17,1.49,1.49,0,0,0-.72.45c-.37.53-1,1.56-2,3.07A14.62,14.62,0,0,0,156.66,7V9.92a7.11,7.11,0,0,0,.15,1.68c0,.09.19.18.51.29a2.49,2.49,0,0,0,.63.16c.05,0,.08.1.08.3a1.21,1.21,0,0,1,0,.3l-.71-.06-.87-.05c-.26,0-.52,0-.77,0s-.8,0-1.38.05l-1.08.08a.43.43,0,0,1-.08-.3q0-.3.06-.3a2.66,2.66,0,0,0,.7-.15c.31-.1.48-.2.52-.3a6.63,6.63,0,0,0,.15-1.64V7.19a1.18,1.18,0,0,0-.12-.36c-.08-.18-.22-.46-.42-.83l-.53-1-.73-1.3L152,2.43a3.56,3.56,0,0,0-1-1.29,1.79,1.79,0,0,0-.55-.24,2.23,2.23,0,0,0-.54-.1s-.06-.06-.06-.19a.63.63,0,0,1,0-.26c.3,0,1.13,0,2.48,0" style="fill:#fff"/><path d="M167.93,10.91a6.22,6.22,0,0,1-1.77-4.47A6.25,6.25,0,0,1,167.93,2a5.79,5.79,0,0,1,8.5,0,6.25,6.25,0,0,1,1.77,4.47,6.22,6.22,0,0,1-1.77,4.47,5.81,5.81,0,0,1-8.5,0m4-9.89a2.71,2.71,0,0,0-2.47,1.47A6.92,6.92,0,0,0,168.57,6,9.09,9.09,0,0,0,169,8.71a5.22,5.22,0,0,0,1.31,2.19,3,3,0,0,0,2.21.93,2.72,2.72,0,0,0,2.47-1.49,6.79,6.79,0,0,0,.88-3.54,9.42,9.42,0,0,0-.38-2.7,5.06,5.06,0,0,0-1.29-2.17A3.13,3.13,0,0,0,171.89,1" style="fill:#fff"/><path d="M181.85,12.52l-1.2,0c-.43,0-.76.05-1,.07l-.37,0a.47.47,0,0,1-.06-.3c0-.21,0-.32.06-.32a3.13,3.13,0,0,0,.71-.12c.31-.08.49-.18.54-.29a6.49,6.49,0,0,0,.14-1.7V2.84a5.62,5.62,0,0,0-.14-1.53c0-.14-.21-.25-.52-.34a2.93,2.93,0,0,0-.75-.13s-.08-.1-.08-.28a.5.5,0,0,1,.08-.34c.81.05,1.64.08,2.48.08q.88,0,3-.06c1.4,0,2.43-.07,3.09-.07,0,.37.15.89.31,1.56s.23,1,.24,1.09a.6.6,0,0,1-.4.09.25.25,0,0,1-.26-.13,2.35,2.35,0,0,0-2.4-1.66h-1c-.93,0-1.4.08-1.43.24a8.7,8.7,0,0,0-.09,1.51V5.81c0,.07.27.11.83.11h1a5.07,5.07,0,0,0,1.3-.09c.13-.07.24-.28.31-.66,0-.18.08-.34.12-.46s.11-.13.3-.13a.51.51,0,0,1,.35.09V8.2a.52.52,0,0,1-.35.08c-.17,0-.27,0-.3-.16a5.88,5.88,0,0,0-.24-.74,1.06,1.06,0,0,0-.13-.26L185.85,7a5.64,5.64,0,0,0-1.73-.14c-.89,0-1.33,0-1.33.14V9.94a4.47,4.47,0,0,0,.21,1.55c.05.12.27.24.67.35a3.35,3.35,0,0,0,.81.17c.06,0,.09.11.09.32a.64.64,0,0,1,0,.3c-1.51-.08-2.4-.11-2.67-.11" style="fill:#fff"/><path d="M54.76,16.58c.5,0,1.08,0,1.74,0s1.25,0,1.77,0a8.93,8.93,0,0,1,1.55.14,6.62,6.62,0,0,1,1.54.51,5.3,5.3,0,0,1,1.35.9,4.27,4.27,0,0,1,1,1.37,4.42,4.42,0,0,1,.37,1.84,5,5,0,0,1-.63,2.4,5.47,5.47,0,0,1-1.93,2,5.27,5.27,0,0,1-2.9.82,3.27,3.27,0,0,1-1.1-.19,1.51,1.51,0,0,1-.75-.49.44.44,0,0,1-.09-.26,1.28,1.28,0,0,1,0-.39c0-.12,0-.18.08-.18a3.74,3.74,0,0,0,1.46.26,2.3,2.3,0,0,0,2-1,4.4,4.4,0,0,0,.73-2.59,4.78,4.78,0,0,0-.71-2.76,2.44,2.44,0,0,0-2.16-1A4.3,4.3,0,0,0,56.5,18c-.2.1-.31,1-.31,2.71V30a8.17,8.17,0,0,0,.21,2.22c.05.2.34.37.87.5a5.65,5.65,0,0,0,1.16.2c.07,0,.1.15.1.44a1.29,1.29,0,0,1-.05.44q-2.86-.15-3.69-.15c-.47,0-1,0-1.58,0l-1.39.06-.52.05a.81.81,0,0,1-.08-.47c0-.27,0-.41.08-.41a4.66,4.66,0,0,0,1-.17c.44-.11.7-.25.77-.4A10.82,10.82,0,0,0,53.22,30V20.14A10.61,10.61,0,0,0,53.07,18c0-.14-.31-.28-.77-.43a3.63,3.63,0,0,0-1-.22c-.07,0-.11-.13-.11-.39s0-.42.11-.47c1.82.05,3,.08,3.46.08" style="fill:#fff"/><path d="M70.38,20.22V30a8,8,0,0,0,.23,2.09q.14.33,1.77.33h1a7.1,7.1,0,0,0,3.1-.54,3.1,3.1,0,0,0,.93-.91,5.42,5.42,0,0,0,.81-1.59c0-.11.14-.16.36-.16.39,0,.63.05.73.16s-.17.51-.37,1.06-.36,1-.46,1.27-.22.64-.34,1.05a6.83,6.83,0,0,0-.23,1c-.7,0-2.13,0-4.31-.08s-3.71-.06-4.6,0l-3.46.11a.69.69,0,0,1-.08-.42c0-.29,0-.44.08-.44a4.41,4.41,0,0,0,1-.17c.43-.11.69-.25.76-.4A9.61,9.61,0,0,0,67.44,30V20.15a8,8,0,0,0-.21-2.22c-.07-.14-.31-.27-.73-.4a3.58,3.58,0,0,0-.94-.2c-.07,0-.1-.13-.1-.39a1.21,1.21,0,0,1,.05-.47l1.45.08c.87.05,1.55.08,2,.08l3.34-.16a1.41,1.41,0,0,1,.07.42c0,.3,0,.44-.1.44a4.19,4.19,0,0,0-.94.21c-.46.14-.72.27-.75.39a9.6,9.6,0,0,0-.21,2.29" style="fill:#fff"/><path d="M80.41,16.63c.31,0,1.51-.05,3.59-.16a1.28,1.28,0,0,1,0,.47c0,.25,0,.37-.09.37a2.92,2.92,0,0,0-.94.18c-.35.12-.52.3-.52.55a1.69,1.69,0,0,0,.23.67l2.76,5.05c.09.09.18.07.26-.05.75-1.11,1.47-2.25,2.16-3.43A6.94,6.94,0,0,0,89,18c0-.19-.17-.36-.49-.51a3,3,0,0,0-1.26-.22c-.07,0-.1-.12-.1-.37a1,1,0,0,1,.07-.47c1.76.11,2.8.16,3.13.16s.76,0,1.08,0l1-.06.79-.07a1.52,1.52,0,0,1,.06.42c0,.28,0,.42-.11.42a3.8,3.8,0,0,0-1.08.23,2.16,2.16,0,0,0-1,.63c-.5.74-1.41,2.17-2.71,4.28A20.32,20.32,0,0,0,86.37,26V30a9.94,9.94,0,0,0,.21,2.35c0,.12.27.25.71.4a3.57,3.57,0,0,0,.87.22c.07,0,.11.14.11.42a1.47,1.47,0,0,1,0,.41l-1-.07c-.44,0-.84-.07-1.2-.08l-1.07,0c-.47,0-1.1,0-1.91.08l-1.5.1a.6.6,0,0,1-.1-.41c0-.28,0-.42.08-.42a3.63,3.63,0,0,0,1-.21c.43-.14.68-.28.73-.41a9.3,9.3,0,0,0,.21-2.3V26.21a1.77,1.77,0,0,0-.17-.51c-.12-.25-.31-.63-.59-1.14s-.52-1-.73-1.33-.54-1-1-1.81l-1-1.85a5.15,5.15,0,0,0-1.36-1.79,2.45,2.45,0,0,0-.77-.33,3.23,3.23,0,0,0-.74-.14s-.08-.09-.09-.26a.73.73,0,0,1,0-.37c.42,0,1.56-.05,3.44-.05" style="fill:#fff"/><path d="M97.87,16.63l2.55-.16c.16.49.51,1.39,1.07,2.7s1.23,2.91,2,4.79,1.46,3.43,1.94,4.65c0,0,0,.05.08.05a.07.07,0,0,0,.08-.08q2.28-5.49,3.64-9l.94-3c.52,0,1.23.07,2.13.07.68,0,1.71,0,3.1-.13a.78.78,0,0,1,.08.42c0,.3,0,.44-.1.44h-.06a2.1,2.1,0,0,0-1.27.42c-.26.19-.37.66-.34,1.41q.1,2.31.36,10.75a6.91,6.91,0,0,0,.42,2.39c.07.16.31.3.73.43a3.58,3.58,0,0,0,.89.2c.06,0,.1.15.1.47a1.48,1.48,0,0,1,0,.39l-3.2-.16-1.1,0-1.26.06-1.11.07a.55.55,0,0,1-.1-.39c0-.32,0-.47.1-.47a3.31,3.31,0,0,0,.84-.17,1.57,1.57,0,0,0,.72-.38,1.41,1.41,0,0,0,.27-.91V30l-.27-7.91c-.07-1.08-.17-1.62-.31-1.62s-.09.06-.13.16l-5,12.13c-.3.66-.62,1-1,1a1,1,0,0,1-.26,0l-5.83-14c-.12,4.32-.26,8.2-.42,11.61a2.94,2.94,0,0,0,.08.81c.09.19.43.37,1,.55a6,6,0,0,0,1.22.26c.07,0,.11.15.11.47a1.48,1.48,0,0,1,0,.39l-3.28-.16c-.47,0-1.09,0-1.87.08L94,33.79a.6.6,0,0,1-.11-.42c0-.29,0-.44.11-.44a5.44,5.44,0,0,0,1.3-.26c.59-.18.93-.4,1-.68a4.81,4.81,0,0,0,.29-1.74c0-1.32.08-2.88.14-4.68s.12-3.32.16-4.59.06-2.06.06-2.37a2.65,2.65,0,0,0-.07-.73c-.06-.14-.35-.27-.88-.39a5.87,5.87,0,0,0-1.13-.18c-.07,0-.1-.15-.1-.45a.55.55,0,0,1,.1-.39l1.34.1c.64,0,1.18.06,1.63.06" style="fill:#fff"/><path d="M120.1,31.39a8.71,8.71,0,0,1-2.44-6.22,8.77,8.77,0,0,1,2.44-6.24,8,8,0,0,1,11.78,0,8.75,8.75,0,0,1,2.46,6.24,8.68,8.68,0,0,1-2.46,6.22,8,8,0,0,1-11.78,0m5.5-13.77a3.75,3.75,0,0,0-3.43,2A9.71,9.71,0,0,0,121,24.6a13,13,0,0,0,.53,3.72,7.32,7.32,0,0,0,1.81,3.06,4.17,4.17,0,0,0,3.07,1.29,3.79,3.79,0,0,0,3.43-2.07A9.7,9.7,0,0,0,131,25.66a13.45,13.45,0,0,0-.52-3.76,7,7,0,0,0-1.8-3,4.27,4.27,0,0,0-3.12-1.26" style="fill:#fff"/><path d="M139.21,16.63c.31,0,1.43-.05,3.34-.16a2,2,0,0,1,0,.42c0,.3,0,.44-.11.44a4.55,4.55,0,0,0-.93.2c-.47.13-.72.26-.73.4a9.43,9.43,0,0,0-.21,2.29v6a7.07,7.07,0,0,0,1.16,4.28A3.74,3.74,0,0,0,145,32.1a4.16,4.16,0,0,0,3.22-1.32c.81-.88,1.21-2.33,1.21-4.36V20.07a5.41,5.41,0,0,0-.26-2.09,1.89,1.89,0,0,0-.93-.45,4.46,4.46,0,0,0-1.1-.22c-.07,0-.11-.12-.12-.37a.77.77,0,0,1,.07-.47c1.87.13,3,.19,3.28.19s1,0,1.73-.09,1.16-.1,1.34-.1a1.79,1.79,0,0,1,0,.42c0,.28,0,.42-.1.42a4.84,4.84,0,0,0-1.12.19,1.63,1.63,0,0,0-1,.54A5.8,5.8,0,0,0,151,20.2v6.12a11,11,0,0,1-.49,3.5,5.4,5.4,0,0,1-1.41,2.31A5.64,5.64,0,0,1,147,33.37a8.24,8.24,0,0,1-2.64.39,6.44,6.44,0,0,1-4.92-1.89q-1.8-1.87-1.8-6.08V20.12a7.17,7.17,0,0,0-.21-2.19c-.07-.14-.31-.27-.73-.4a3.53,3.53,0,0,0-.93-.2c-.07,0-.11-.13-.11-.39a.85.85,0,0,1,.08-.47l3.46.16" style="fill:#fff"/><path d="M159.34,16.57q1.75.06,2.88.06c.74,0,1.71,0,2.89-.06l2.83-.1a8.19,8.19,0,0,0,1.8-.26l.5,4a1,1,0,0,1-.71.18c-.14,0-.22,0-.26-.13a3.71,3.71,0,0,0-1-1.94,2.87,2.87,0,0,0-1.88-.51c-1.61,0-2.45.15-2.52.44a8.93,8.93,0,0,0-.24,2.45v9.4a8.75,8.75,0,0,0,.24,2.27c0,.12.25.24.7.37a4.33,4.33,0,0,0,.91.2c.07,0,.11.15.11.47a1.15,1.15,0,0,1-.06.41l-1-.07c-.44,0-.85-.07-1.22-.08l-1.08,0c-.47,0-1.12,0-1.94.08l-1.52.1a.59.59,0,0,1-.11-.41c0-.32,0-.47.11-.47a4.22,4.22,0,0,0,1-.18c.44-.13.69-.26.74-.39a8.2,8.2,0,0,0,.21-2.17V20.77a7.43,7.43,0,0,0-.23-2.53c-.14-.29-1-.44-2.48-.44a2.84,2.84,0,0,0-1.87.51,3.88,3.88,0,0,0-1,1.91c0,.11-.1.16-.26.16a.88.88,0,0,1-.68-.21l.5-4a8.19,8.19,0,0,0,1.79.26l2.83.1" style="fill:#fff"/><path d="M188.14,32.93c.07,0,.11.16.11.49a1.06,1.06,0,0,1-.06.37l-3.3-.16-1.1,0-1.26.06-1.11.07a.56.56,0,0,1-.1-.37c0-.33,0-.49.1-.49a4.19,4.19,0,0,0,1-.18c.44-.13.69-.26.74-.39a9.08,9.08,0,0,0,.21-2.19V25.69l0-.1c-1.63,0-2.78-.06-3.44-.06a33.53,33.53,0,0,0-3.59.13V30a10.06,10.06,0,0,0,.23,2.35c0,.12.28.24.72.37a4,4,0,0,0,.9.2c.07,0,.1.16.1.49a1.38,1.38,0,0,1-.05.37l-3.31-.16-1.09,0-1.26.06-1.11.07a.51.51,0,0,1-.1-.37c0-.33,0-.49.1-.49a4.19,4.19,0,0,0,1-.18c.44-.13.69-.26.74-.39a9.08,9.08,0,0,0,.21-2.19v-10a7.82,7.82,0,0,0-.21-2.19c-.07-.14-.31-.27-.73-.4a3.58,3.58,0,0,0-.94-.2c-.07,0-.1-.13-.1-.39a1.21,1.21,0,0,1,.05-.47l1.45.08c.87.05,1.55.08,2,.08l3.34-.16a1.41,1.41,0,0,1,.07.42c0,.3,0,.44-.1.44a4.19,4.19,0,0,0-.94.21q-.71.21-.75.39a9.6,9.6,0,0,0-.21,2.29V24l0,.08c1.7,0,2.88,0,3.54,0s1.88,0,3.44,0a.16.16,0,0,0,0-.1V20.12a7.82,7.82,0,0,0-.21-2.19c-.07-.14-.31-.27-.73-.4a3.53,3.53,0,0,0-.93-.2c-.07,0-.11-.13-.11-.39a1.21,1.21,0,0,1,0-.47l1.45.08c.88.05,1.55.08,2,.08.14,0,1.25-.05,3.33-.16a1.46,1.46,0,0,1,.08.42c0,.3,0,.44-.11.44a4.15,4.15,0,0,0-.93.21c-.47.14-.72.27-.76.39a9.6,9.6,0,0,0-.21,2.29V30a9.48,9.48,0,0,0,.24,2.35c0,.12.27.24.71.37a4.16,4.16,0,0,0,.9.2" style="fill:#fff"/><path d="M29.26,33.42c-3.91-1.63-6.42-1.59-8.58.12-2.16-1.71-4.67-1.75-8.58-.12a13.72,13.72,0,0,1-6.27.91,36.37,36.37,0,0,0,14.9,14.61,40.59,40.59,0,0,0,6-4,34.52,34.52,0,0,0,8.92-10.67A13.56,13.56,0,0,1,29.26,33.42ZM16.74,39.11c-.86-.33-.49-1-1.26-1.06.17.41-.19.77-.39,1s-.08.89.51,1.21a1.23,1.23,0,0,1-1.33-1c-.15-.91.59-.9.29-1.62-.28.36-.77.22-1.09.18s-.82.37-.8,1a1.24,1.24,0,0,1,.2-1.65c.71-.58,1.08.06,1.54-.56-.44-.06-.57-.55-.69-.85s-.74-.52-1.31-.17A1.22,1.22,0,0,1,13.94,35c.86.32.48,1,1.25,1-.17-.41.19-.77.39-1s.09-.89-.5-1.21a1.22,1.22,0,0,1,1.32,1c.15.91-.59.9-.28,1.62.27-.36.76-.22,1.08-.18s.82-.37.8-1a1.22,1.22,0,0,1-.19,1.64c-.72.58-1.08-.06-1.55.57.45.06.58.55.7.84s.73.53,1.3.17A1.23,1.23,0,0,1,16.74,39.11Zm5.39,6.54c-.86-.33-.48-1-1.26-1.06.17.41-.19.77-.39,1s-.08.89.51,1.21a1.23,1.23,0,0,1-1.33-1c-.14-.91.6-.9.29-1.62-.28.35-.77.22-1.09.18s-.82.37-.8,1a1.22,1.22,0,0,1,.2-1.64c.71-.58,1.08.06,1.54-.56-.44-.06-.57-.56-.69-.85s-.73-.53-1.31-.17a1.24,1.24,0,0,1,1.53-.66c.86.33.48,1,1.26,1.06-.17-.42.19-.77.38-1s.09-.89-.5-1.21a1.23,1.23,0,0,1,1.33,1c.14.91-.6.9-.29,1.62.27-.36.76-.22,1.08-.18s.82-.37.8-1.05a1.23,1.23,0,0,1-.19,1.65c-.72.58-1.08-.06-1.55.56.45.06.58.55.7.85s.73.52,1.31.17A1.25,1.25,0,0,1,22.13,45.65Zm5.29-6.54c-.86-.33-.49-1-1.26-1.06.17.42-.19.77-.39,1s-.09.89.51,1.21a1.22,1.22,0,0,1-1.33-1c-.15-.91.59-.9.28-1.62-.27.36-.76.22-1.08.18s-.82.37-.8,1a1.24,1.24,0,0,1,.2-1.65c.71-.58,1.08.06,1.54-.56-.44-.06-.58-.55-.69-.85s-.74-.52-1.31-.17A1.23,1.23,0,0,1,24.61,35c.86.33.49,1,1.26,1.06-.17-.41.19-.77.39-1s.09-.89-.51-1.21a1.22,1.22,0,0,1,1.33,1c.15.91-.59.9-.28,1.62.27-.35.76-.22,1.08-.18s.82-.37.8-1a1.23,1.23,0,0,1-.2,1.64c-.71.58-1.07-.06-1.54.57.44.06.58.55.7.84s.73.53,1.3.17A1.23,1.23,0,0,1,27.42,39.11Z" style="fill:#fff"/><path d="M1.74,1.84v9.33a10.13,10.13,0,0,0,6.11,1.72l.36,0,.34,0a11.48,11.48,0,0,0,1.22-.21l.75-.2.38-.12.46-.17.3-.12.78-.35c.31-.15.6-.29.89-.41l.74-.29.39-.13a9,9,0,0,1,1.41-.34,7.52,7.52,0,0,1,1.13-.1,5.43,5.43,0,0,1,2.32.5c.14.07.28.14.41.22a6,6,0,0,1,.79.56l.19.16.18-.16a6,6,0,0,1,.79-.56,5.08,5.08,0,0,1,.85-.4,5.5,5.5,0,0,1,1.88-.32,7.37,7.37,0,0,1,1,.08,11.19,11.19,0,0,1,2.9.89q.32.13.63.3a11.58,11.58,0,0,0,5.08,1.24h.32l.64-.05h.07c.2,0,.4,0,.61-.08l.11,0a10.82,10.82,0,0,0,4-1.63V7.28a.8.8,0,0,0-.32-.1c.17.41-.19.77-.39,1s-.08.9.5,1.22a1.22,1.22,0,0,1-1.32-1c-.15-.91.59-.9.28-1.62-.27.36-.76.22-1.08.18s-.82.37-.8,1a1.23,1.23,0,0,1,.2-1.64c.71-.58,1.08.06,1.54-.56-.44-.06-.57-.55-.69-.85s-.74-.52-1.31-.17a1.22,1.22,0,0,1,1.53-.65c.85.32.48,1,1.25,1-.17-.41.19-.77.39-1S39.63,3.29,39,3a1.13,1.13,0,0,1,.73.16V1.84Zm1.84,6.4c-.86-.33-.48-1-1.25-1.06.17.41-.19.77-.39,1s-.09.89.5,1.21a1.06,1.06,0,0,1-.7-.14V5.12a.63.63,0,0,0,.3.09c-.17-.41.19-.77.39-1s.09-.9-.51-1.22A1.23,1.23,0,0,1,3.25,4c.15.91-.59.91-.28,1.62.27-.35.76-.22,1.08-.18s.82-.37.8-1A1.22,1.22,0,0,1,4.65,6c-.71.58-1.08-.06-1.54.57.44.06.57.54.69.84s.73.52,1.31.17A1.24,1.24,0,0,1,3.58,8.24Zm9.83,0c-.86-.33-.48-1-1.26-1.06.17.41-.19.77-.39,1s-.08.9.51,1.22a1.23,1.23,0,0,1-1.33-1c-.14-.91.6-.9.29-1.62-.27.36-.76.22-1.08.18s-.82.37-.8,1a1.21,1.21,0,0,1,.19-1.64c.72-.58,1.08.06,1.55-.56-.45-.06-.58-.55-.7-.85s-.73-.52-1.3-.17a1.21,1.21,0,0,1,1.52-.65c.86.32.48,1,1.26,1-.17-.41.19-.77.38-1s.09-.9-.5-1.22a1.23,1.23,0,0,1,1.33,1c.14.91-.6.91-.29,1.62.27-.35.76-.22,1.08-.18s.82-.37.8-1A1.22,1.22,0,0,1,14.48,6c-.72.58-1.08-.06-1.55.57.45,0,.58.54.7.84s.73.52,1.3.17A1.23,1.23,0,0,1,13.41,8.24Zm8.78,0c-.86-.33-.48-1-1.26-1.06.17.41-.19.77-.38,1s-.09.9.5,1.22a1.24,1.24,0,0,1-1.33-1c-.14-.91.6-.9.29-1.62-.27.36-.76.22-1.08.18s-.82.37-.8,1a1.23,1.23,0,0,1,.2-1.64c.71-.58,1.07.06,1.54-.56-.45-.06-.58-.55-.7-.85s-.73-.52-1.3-.17a1.22,1.22,0,0,1,1.52-.65c.86.32.49,1,1.26,1-.17-.41.19-.77.39-1s.08-.9-.51-1.22a1.23,1.23,0,0,1,1.33,1c.14.91-.6.91-.29,1.62.28-.35.77-.22,1.08-.18.46.07.82-.37.8-1A1.21,1.21,0,0,1,23.26,6c-.72.58-1.08-.06-1.55.57.45,0,.58.54.7.84s.73.52,1.31.17A1.24,1.24,0,0,1,22.19,8.24Zm9.13,0c-.86-.33-.48-1-1.26-1.06.18.41-.19.77-.38,1s-.09.9.5,1.22a1.22,1.22,0,0,1-1.32-1c-.15-.91.59-.9.28-1.62-.27.36-.76.22-1.08.18s-.82.37-.8,1a1.23,1.23,0,0,1,.2-1.64c.71-.58,1.08.06,1.54-.56-.45-.06-.57-.55-.69-.85s-.74-.52-1.31-.17a1.22,1.22,0,0,1,1.52-.65c.86.32.49,1,1.26,1-.17-.41.19-.77.39-1s.08-.9-.51-1.22A1.23,1.23,0,0,1,31,4c.15.91-.6.91-.29,1.62.28-.35.77-.22,1.08-.18s.82-.37.81-1A1.22,1.22,0,0,1,32.39,6c-.71.58-1.08-.06-1.54.57.44,0,.57.54.69.84s.73.52,1.31.17A1.24,1.24,0,0,1,31.32,8.24Z" style="fill:#fff"/><path d="M18.3,24.46a.51.51,0,0,0,.2,0v0l.16-.41Z" style="fill:#fff"/><path d="M19.53,25.3a.62.62,0,0,0,.27-.09l.05-.42Z" style="fill:#fff"/><path d="M22.78,24.12l.16.38a.53.53,0,0,0,.2-.05Z" style="fill:#fff"/><path d="M21.56,25.2a0,0,0,0,0,0,0,.59.59,0,0,0,.31.12l-.38-.61Z" style="fill:#fff"/><path d="M11.15,24.12l.15.38a.46.46,0,0,0,.2-.05Z" style="fill:#fff"/><path d="M29.73,17.47c-3.32-1.22-6.14-1.52-9,.93h0c-2.88-2.45-5.7-2.15-9-.93A11.83,11.83,0,0,1,1.75,17c0,1,0,2.09.08,3.44a37.89,37.89,0,0,0,1.44,7.66,11,11,0,0,0,3.88.78,10.37,10.37,0,0,0,4.92-1.25c3.22-1.73,5.52-1.73,8.49,0l.14.09h0l.14-.09c3-1.72,5.26-1.72,8.49,0a10.37,10.37,0,0,0,4.92,1.25,10,10,0,0,0,4-.83,37.54,37.54,0,0,0,1.42-7.61c0-1.37.07-2.48.09-3.48A11.86,11.86,0,0,1,29.73,17.47Zm-18.19,7h0l-.35-.33.15.38h0a1.07,1.07,0,0,1-.82.8.45.45,0,0,1-.2,0l-.39-.61.06.51a1,1,0,0,1-.85.45,1,1,0,0,1-.87-.47l0,0,.05-.42-.33.51a.45.45,0,0,1-.2,0,1.08,1.08,0,0,1-.81-.77L7,24.12l-.37.34-.07,0a1,1,0,0,1-.48-.9c0-.37.26-.57.51-.82.57-.58,1.59-1.45,1.59-1.45l-.79-.68a.2.2,0,0,1,0-.22.17.17,0,0,1,.15-.14h1A.56.56,0,0,1,9,19.87a.55.55,0,0,1,.51.36h1.06a.19.19,0,0,1,.16.14.22.22,0,0,1-.06.22l-.79.68a15.38,15.38,0,0,1,1.59,1.45c.22.28.5.45.51.82A1,1,0,0,1,11.54,24.44Zm11.63,0h0l-.36-.33.16.38h0a1.09,1.09,0,0,1-.82.8.5.5,0,0,1-.21,0l-.38-.61.06.51a1,1,0,0,1-1.72,0l0,0,.05-.42-.32.51a.45.45,0,0,1-.2,0,1.08,1.08,0,0,1-.82-.77l.16-.41-.37.34-.06,0a1,1,0,0,1-.48-.9c0-.37.26-.57.5-.82.58-.58,1.6-1.45,1.6-1.45l-.79-.68a.22.22,0,0,1-.06-.22.18.18,0,0,1,.16-.14h1a.55.55,0,0,1,1,0h1a.18.18,0,0,1,.16.14.22.22,0,0,1-.06.22l-.79.68a15.21,15.21,0,0,1,1.6,1.45c.21.28.5.45.5.82A1,1,0,0,1,23.17,24.44Zm11.64,0h0l-.35-.33.15.38h0a1.07,1.07,0,0,1-.82.8.45.45,0,0,1-.2,0l-.39-.61.06.51a1,1,0,0,1-.85.45,1,1,0,0,1-.87-.47l0,0,.06-.42-.33.51a.45.45,0,0,1-.2,0,1.07,1.07,0,0,1-.81-.77l.16-.41-.37.34-.07,0a1,1,0,0,1-.48-.9c0-.37.26-.57.51-.82.57-.58,1.59-1.45,1.59-1.45l-.79-.68a.2.2,0,0,1-.05-.22.17.17,0,0,1,.15-.14h1a.56.56,0,0,1,.51-.36.55.55,0,0,1,.51.36h1.06a.17.17,0,0,1,.15.14.2.2,0,0,1-.05.22l-.79.68a15.38,15.38,0,0,1,1.59,1.45c.22.28.5.45.51.82A1,1,0,0,1,34.81,24.44Z" style="fill:#fff"/><path d="M29.94,24.46a.45.45,0,0,0,.2,0,0,0,0,0,0,0,0l.16-.41Z" style="fill:#fff"/><path d="M31.16,25.3a.62.62,0,0,0,.27-.09l.06-.42Z" style="fill:#fff"/><path d="M34.42,24.12l.15.38a.46.46,0,0,0,.2-.05Z" style="fill:#fff"/><path d="M33.19,25.2s0,0,0,0a.56.56,0,0,0,.31.12l-.39-.61Z" style="fill:#fff"/><path d="M40.91.6V11c0,3.43,0,5.26-.11,9.41-1.48,17.6-13.07,26.32-20,30-7-3.7-18.56-12.42-20-30-.12-4.15-.12-6-.1-9.41V.6h40.3M41.5,0H0V11c0,3.55,0,5.33.1,9.45C1.62,38.31,13.34,47.2,20.76,51.06,28.18,47.2,39.89,38.31,41.4,20.4c.12-4.12.12-5.9.1-9.45Z" style="fill:#fff"/><path d="M53.3,42a3.4,3.4,0,0,0-.1-1c0-.07-.14-.13-.34-.19a1.63,1.63,0,0,0-.43-.09s0-.06,0-.19,0-.2,0-.21l.68,0c.4,0,.72,0,.94,0l1.55-.07a.46.46,0,0,1,0,.19c0,.14,0,.21,0,.21a2.18,2.18,0,0,0-.44.09c-.22.07-.33.13-.35.19a4.67,4.67,0,0,0-.1,1.06v4.57a4.73,4.73,0,0,0,.11,1.1c0,.05.13.11.34.17a1.75,1.75,0,0,0,.42.09s0,.08,0,.23a.42.42,0,0,1,0,.17L54,48.25h-.51l-.59,0-.52,0a.23.23,0,0,1,0-.17c0-.15,0-.23,0-.23a1.75,1.75,0,0,0,.46-.08c.2-.06.32-.12.34-.18a4,4,0,0,0,.1-1Z" style="fill:#fff"/><path d="M60.54,42.92q1.56,0,1.56,2.49v1.15a4.88,4.88,0,0,0,.09,1.1c0,.05.13.11.33.17a2,2,0,0,0,.42.09s0,.06,0,.18a.78.78,0,0,1,0,.24l-.64-.05c-.38,0-.66,0-.85,0s-.46,0-.8,0l-.63.05a.39.39,0,0,1,0-.23c0-.13,0-.19,0-.19a1.53,1.53,0,0,0,.41-.09c.18-.06.28-.12.29-.17a3.31,3.31,0,0,0,.1-.89V45.61a2.62,2.62,0,0,0-.27-1.4,1,1,0,0,0-.87-.41A1.13,1.13,0,0,0,59,44a.56.56,0,0,0-.29.45v2.09a5.73,5.73,0,0,0,.08,1.1c0,.05.13.11.32.17a1.75,1.75,0,0,0,.4.09s.05.06.05.18a.78.78,0,0,1,0,.24l-.64-.05c-.36,0-.64,0-.82,0s-.48,0-.85,0l-.65.05a.39.39,0,0,1,0-.23c0-.13,0-.19,0-.19a1.74,1.74,0,0,0,.45-.09c.2-.06.3-.12.32-.17a3.86,3.86,0,0,0,.08-.89v-2a1.17,1.17,0,0,0-.19-.78.64.64,0,0,0-.27-.18,1.05,1.05,0,0,0-.3-.07c-.07,0-.11,0-.11,0q0-.36.06-.36c.37,0,1-.16,2-.37,0,0,0,0,0,0h.06s.06,0,.09.08a.45.45,0,0,1,0,.13,4.11,4.11,0,0,0,0,.44s0,.06,0,.06l.06,0a2.36,2.36,0,0,1,.75-.51A2,2,0,0,1,60.54,42.92Z" style="fill:#fff"/><path d="M64.64,43.77H63.9c-.06,0-.09-.11-.09-.32a.31.31,0,0,1,0-.11,3.27,3.27,0,0,0,.94-.64l.34-.36a5.45,5.45,0,0,0,.45-.52.85.85,0,0,1,.23,0c.07,0,.11,0,.11.07v1.19h1.48a.1.1,0,0,1,.1.11,1.19,1.19,0,0,1-.12.54H65.89V46.7a1.21,1.21,0,0,0,.2.74.7.7,0,0,0,.58.25l.25,0,.22-.06.16-.08.08,0s.07,0,.11.11.06.13.05.15-.22.25-.52.4a1.86,1.86,0,0,1-.86.22,1.54,1.54,0,0,1-1.08-.4,1.62,1.62,0,0,1-.44-1.26Z" style="fill:#fff"/><path d="M71,42.92a2.25,2.25,0,0,1,1,.22,1.91,1.91,0,0,1,.7.57,2.81,2.81,0,0,1,.39.72,2.08,2.08,0,0,1,.14.71c0,.18,0,.29-.1.34a.74.74,0,0,1-.37.06h-2.9c-.06,0-.08,0-.08.07a2.51,2.51,0,0,0,.15.86,1.75,1.75,0,0,0,.54.71,1.46,1.46,0,0,0,.92.31l.35,0a1.52,1.52,0,0,0,.32-.06l.25-.08a1.2,1.2,0,0,0,.23-.11l.16-.1.25-.17L73,47a.31.31,0,0,1,0,.13.37.37,0,0,1-.07.23,1.94,1.94,0,0,1-.72.65,2.21,2.21,0,0,1-1.2.33,2.47,2.47,0,0,1-1.82-.78,2.64,2.64,0,0,1-.77-1.9,2.84,2.84,0,0,1,.71-2A2.37,2.37,0,0,1,71,42.92Zm-.09.56a.81.81,0,0,0-.52.17,1.15,1.15,0,0,0-.35.41,2.42,2.42,0,0,0-.18.46,1.82,1.82,0,0,0,0,.35c0,.06,0,.09.07.09h2c.07,0,.11-.06.11-.18a1.61,1.61,0,0,0-.29-.87A.86.86,0,0,0,70.86,43.48Z" style="fill:#fff"/><path d="M77.59,42.92a1.19,1.19,0,0,1,1,.4c0,.69-.19,1-.58,1a.73.73,0,0,1-.47-.24.77.77,0,0,0-.52-.24.63.63,0,0,0-.59.38,1.52,1.52,0,0,0-.22.79v1.52a4.88,4.88,0,0,0,.09,1.1c0,.05.12.11.32.17a1.7,1.7,0,0,0,.41.09s0,.06,0,.18a1.36,1.36,0,0,1,0,.24l-.64-.05c-.36,0-.64,0-.83,0s-.47,0-.84,0l-.65.05a.39.39,0,0,1,0-.23c0-.13,0-.19,0-.19a1.68,1.68,0,0,0,.44-.09c.2-.06.31-.12.32-.17a3.81,3.81,0,0,0,.09-.89v-2a1.17,1.17,0,0,0-.19-.78.62.62,0,0,0-.28-.18,1,1,0,0,0-.29-.07c-.08,0-.11,0-.11,0q0-.36.06-.36c.37,0,1-.16,2-.37l.1,0s.06,0,.08.08a.2.2,0,0,1,0,.14s0,.09,0,.17l0,.24a.71.71,0,0,0,0,.17,2.07,2.07,0,0,1,.59-.59A1.3,1.3,0,0,1,77.59,42.92Z" style="fill:#fff"/><path d="M83.5,42.92c1,0,1.57.83,1.57,2.49v1.15a5.73,5.73,0,0,0,.08,1.1c0,.05.13.11.34.17a1.75,1.75,0,0,0,.42.09s0,.06,0,.18a.69.69,0,0,1,0,.24l-.64-.05c-.37,0-.66,0-.84,0s-.47,0-.81,0l-.63.05a.39.39,0,0,1-.05-.23c0-.13,0-.19.05-.19a1.45,1.45,0,0,0,.41-.09c.18-.06.28-.12.3-.17a3.77,3.77,0,0,0,.1-.89V45.61a2.6,2.6,0,0,0-.28-1.4,1,1,0,0,0-.87-.41A1.15,1.15,0,0,0,82,44a.58.58,0,0,0-.29.45v2.09a4.88,4.88,0,0,0,.09,1.1c0,.05.12.11.32.17a1.83,1.83,0,0,0,.39.09s0,.06.06.18a.69.69,0,0,1,0,.24l-.64-.05c-.36,0-.63,0-.82,0s-.47,0-.84,0l-.65.05s0-.11,0-.23,0-.19,0-.19a1.76,1.76,0,0,0,.44-.09c.2-.06.31-.12.32-.17a3.81,3.81,0,0,0,.09-.89v-2a1.16,1.16,0,0,0-.2-.78.54.54,0,0,0-.27-.18,1,1,0,0,0-.29-.07c-.08,0-.12,0-.12,0q0-.36.06-.36a19.46,19.46,0,0,0,2-.37l0,0h.07s.06,0,.08.08a.3.3,0,0,1,0,.13c0,.23,0,.38,0,.44s0,.06,0,.06l.06,0a2.61,2.61,0,0,1,.75-.51A2,2,0,0,1,83.5,42.92Z" style="fill:#fff"/><path d="M89.45,42.92a1.5,1.5,0,0,1,1.13.39A2,2,0,0,1,91,44.67v2.39a.56.56,0,0,0,.11.37.36.36,0,0,0,.29.13.74.74,0,0,0,.42-.16s.07.06.07.13a.71.71,0,0,1-.07.37,2.62,2.62,0,0,1-.49.3,1.21,1.21,0,0,1-.58.16.88.88,0,0,1-.55-.21.93.93,0,0,1-.35-.45l-.09.08s-.13.1-.22.17a3,3,0,0,1-.32.19,1.74,1.74,0,0,1-.41.17,2,2,0,0,1-.48.06,1.48,1.48,0,0,1-1-.33,1.17,1.17,0,0,1-.38-.92,1.07,1.07,0,0,1,.14-.55,1.35,1.35,0,0,1,.33-.41,2.94,2.94,0,0,1,.52-.33,5.23,5.23,0,0,1,.57-.23c.16-.06.36-.12.61-.19l.51-.16a.18.18,0,0,0,.11-.19v-.67a1,1,0,0,0-.19-.67.64.64,0,0,0-.52-.24.75.75,0,0,0-.58.22.94.94,0,0,0-.2.64.4.4,0,0,1-.18.36.85.85,0,0,1-.42.11.67.67,0,0,1-.63-.29c0-.39.27-.75.8-1.09A3,3,0,0,1,89.45,42.92Zm-.55,4.66a.92.92,0,0,0,.57-.17A.48.48,0,0,0,89.7,47V45.79l-.36.12-.42.14-.34.17a.73.73,0,0,0-.28.27.69.69,0,0,0-.09.34.74.74,0,0,0,.19.57A.71.71,0,0,0,88.9,47.58Z" style="fill:#fff"/><path d="M93.37,43.77h-.75c-.05,0-.08-.11-.08-.32a.31.31,0,0,1,0-.11,3.27,3.27,0,0,0,.94-.64l.34-.36a5.45,5.45,0,0,0,.45-.52.91.91,0,0,1,.23,0c.07,0,.11,0,.11.07v1.19H96.1a.1.1,0,0,1,.1.11,1.19,1.19,0,0,1-.12.54H94.62V46.7a1.21,1.21,0,0,0,.2.74.7.7,0,0,0,.57.25,1.15,1.15,0,0,0,.26,0l.22-.06.16-.08.08,0s.07,0,.11.11.06.13,0,.15-.22.25-.52.4a1.87,1.87,0,0,1-.87.22,1.51,1.51,0,0,1-1.07-.4,1.62,1.62,0,0,1-.44-1.26Z" style="fill:#fff"/><path d="M99.35,46.56a4.25,4.25,0,0,0,.1,1.1c0,.05.12.11.33.17a1.8,1.8,0,0,0,.41.09s0,.06,0,.18a.51.51,0,0,1,0,.24l-.65-.05c-.37,0-.65,0-.83,0s-.49,0-.85,0l-.64.05a.39.39,0,0,1,0-.23c0-.13,0-.19,0-.19a1.85,1.85,0,0,0,.44-.09c.2-.06.31-.12.32-.17a3.81,3.81,0,0,0,.09-.89v-2a1.16,1.16,0,0,0-.2-.78.62.62,0,0,0-.28-.18.93.93,0,0,0-.29-.07c-.08,0-.12,0-.12,0,0-.24,0-.36.07-.36q.34,0,1-.15a8,8,0,0,0,1-.22l.1,0s.07,0,.09.08a.26.26,0,0,1,0,.13,9.31,9.31,0,0,0-.1,1Zm-1.26-5.08a.76.76,0,0,1,0-1.07.72.72,0,0,1,.53-.21.76.76,0,0,1,.54,1.28.73.73,0,0,1-.54.22A.69.69,0,0,1,98.09,41.48Z" style="fill:#fff"/><path d="M103.85,42.92a2.68,2.68,0,0,1,2,.79,2.61,2.61,0,0,1,.81,1.93,2.76,2.76,0,0,1-4.7,1.93,2.74,2.74,0,0,1,0-3.86A2.65,2.65,0,0,1,103.85,42.92Zm-.16.57a1,1,0,0,0-.88.55,2.63,2.63,0,0,0-.32,1.32,3.43,3.43,0,0,0,.4,1.71,1.2,1.2,0,0,0,1.1.73,1,1,0,0,0,.89-.56,2.62,2.62,0,0,0,.32-1.31,4,4,0,0,0-.16-1.17,2.09,2.09,0,0,0-.51-.91A1.12,1.12,0,0,0,103.69,43.49Z" style="fill:#fff"/><path d="M111.51,42.92c1,0,1.57.83,1.57,2.49v1.15a5.73,5.73,0,0,0,.08,1.1c0,.05.13.11.34.17a1.75,1.75,0,0,0,.42.09s0,.06,0,.18a.69.69,0,0,1,0,.24l-.64-.05c-.37,0-.65,0-.84,0s-.46,0-.81,0l-.62.05s0-.11,0-.23,0-.19,0-.19a1.4,1.4,0,0,0,.4-.09c.19-.06.28-.12.3-.17a3.31,3.31,0,0,0,.1-.89V45.61a2.51,2.51,0,0,0-.28-1.4,1,1,0,0,0-.86-.41A1.13,1.13,0,0,0,110,44a.57.57,0,0,0-.3.45v2.09a4.88,4.88,0,0,0,.09,1.1c0,.05.12.11.32.17a1.75,1.75,0,0,0,.4.09s0,.06,0,.18a.69.69,0,0,1,0,.24l-.64-.05c-.36,0-.63,0-.82,0s-.47,0-.84,0l-.65.05a.39.39,0,0,1,0-.23c0-.13,0-.19,0-.19a1.68,1.68,0,0,0,.44-.09c.2-.06.31-.12.33-.17a4.51,4.51,0,0,0,.08-.89v-2a1.17,1.17,0,0,0-.19-.78.62.62,0,0,0-.28-.18.93.93,0,0,0-.29-.07c-.08,0-.11,0-.11,0q0-.36.06-.36c.37,0,1-.16,2-.37l0,0h.07s.06,0,.08.08a.3.3,0,0,1,0,.13c0,.23,0,.38,0,.44a.22.22,0,0,0,0,.06l.07,0a2.42,2.42,0,0,1,.74-.51A2.11,2.11,0,0,1,111.51,42.92Z" style="fill:#fff"/><path d="M117.46,42.92a1.5,1.5,0,0,1,1.13.39,2,2,0,0,1,.38,1.36v2.39a.51.51,0,0,0,.11.37.35.35,0,0,0,.29.13.71.71,0,0,0,.41-.16s.07.06.07.13a.71.71,0,0,1-.07.37,2.33,2.33,0,0,1-.49.3,1.18,1.18,0,0,1-.58.16.88.88,0,0,1-.55-.21,1,1,0,0,1-.35-.45l-.09.08a1.72,1.72,0,0,1-.22.17l-.31.19a2,2,0,0,1-.42.17,1.86,1.86,0,0,1-.48.06,1.48,1.48,0,0,1-1-.33,1.17,1.17,0,0,1-.38-.92,1.18,1.18,0,0,1,.14-.55,1.35,1.35,0,0,1,.33-.41,2.72,2.72,0,0,1,.53-.33,5.17,5.17,0,0,1,.56-.23c.16-.06.36-.12.61-.19l.52-.16a.19.19,0,0,0,.1-.19v-.67a1,1,0,0,0-.19-.67.63.63,0,0,0-.52-.24.72.72,0,0,0-.57.22.9.9,0,0,0-.21.64.4.4,0,0,1-.18.36.81.81,0,0,1-.41.11.69.69,0,0,1-.64-.29c0-.39.27-.75.8-1.09A3.05,3.05,0,0,1,117.46,42.92Zm-.55,4.66a.92.92,0,0,0,.57-.17.46.46,0,0,0,.23-.39V45.79l-.35.12a2.87,2.87,0,0,0-.42.14l-.34.17a.76.76,0,0,0-.29.27.69.69,0,0,0-.09.34.74.74,0,0,0,.2.57A.67.67,0,0,0,116.91,47.58Z" style="fill:#fff"/><path d="M122.79,46.54a5.47,5.47,0,0,0,.08,1.09c0,.06.12.12.3.19a1.27,1.27,0,0,0,.37.1s0,.06,0,.17a.71.71,0,0,1,0,.23l-.46,0-.52,0h-.9l-.51,0-.46,0a.33.33,0,0,1,0-.22c0-.12,0-.18,0-.18a1.24,1.24,0,0,0,.41-.1c.18-.07.28-.13.3-.19a4.29,4.29,0,0,0,.09-.9v-5a4.21,4.21,0,0,0-.07-.83c0-.13-.24-.19-.61-.19h-.12s-.07,0-.07-.15,0-.19.07-.19l.72-.1.56-.12.39-.12.26-.09.09,0h0s.07,0,.11.07l.06.12a4.12,4.12,0,0,0-.14,1.14Z" style="fill:#fff"/><path d="M134.46,46.08a7,7,0,0,1-.18.94c-.12.52-.21.8-.28.83a6.52,6.52,0,0,1-2.82.51,3.62,3.62,0,0,1-2.73-1.18,3.91,3.91,0,0,1-1.13-2.8,4.17,4.17,0,0,1,1.15-3,3.76,3.76,0,0,1,2.85-1.24,13.22,13.22,0,0,1,2.86.33,3.31,3.31,0,0,1,.08.8c0,.52,0,.85,0,1s-.09.18-.29.18a.45.45,0,0,1-.17,0,1.66,1.66,0,0,0-.17-.45,3.5,3.5,0,0,0-.39-.52,1.74,1.74,0,0,0-.75-.48,3.15,3.15,0,0,0-1.15-.19,2.12,2.12,0,0,0-1.86,1,4.16,4.16,0,0,0-.66,2.36,4.36,4.36,0,0,0,.75,2.59,2.43,2.43,0,0,0,2.11,1.07,2.23,2.23,0,0,0,1.71-.68,1.81,1.81,0,0,0,.28-.46c.09-.19.15-.35.2-.48S134,46,134,46C134.27,46,134.43,46,134.46,46.08Z" style="fill:#fff"/><path d="M138.13,42.92a2.68,2.68,0,0,1,2,.79,2.61,2.61,0,0,1,.81,1.93,2.76,2.76,0,0,1-5.51,0,2.61,2.61,0,0,1,.8-1.93A2.65,2.65,0,0,1,138.13,42.92Zm-.16.57a1,1,0,0,0-.89.55,2.63,2.63,0,0,0-.31,1.32,3.54,3.54,0,0,0,.39,1.71,1.2,1.2,0,0,0,1.1.73,1,1,0,0,0,.89-.56,2.52,2.52,0,0,0,.33-1.31,4.35,4.35,0,0,0-.16-1.17,2.32,2.32,0,0,0-.51-.91A1.15,1.15,0,0,0,138,43.49Z" style="fill:#fff"/><path d="M143.93,46.54a5.47,5.47,0,0,0,.08,1.09c0,.06.12.12.3.19a1.27,1.27,0,0,0,.37.1s0,.06,0,.17a.71.71,0,0,1,0,.23l-.46,0-.52,0h-.89l-.51,0-.47,0a.33.33,0,0,1-.05-.22c0-.12,0-.18.05-.18a1.24,1.24,0,0,0,.41-.1c.18-.07.28-.13.3-.19a4.28,4.28,0,0,0,.1-.9v-5a4.17,4.17,0,0,0-.08-.83c0-.13-.24-.19-.6-.19h-.13c-.05,0-.07,0-.07-.15s0-.19.07-.19l.72-.1.57-.12.38-.12.27-.09.08,0h0s.07,0,.11.07a.33.33,0,0,1,.06.12,4.12,4.12,0,0,0-.14,1.14Z" style="fill:#fff"/><path d="M147.79,46.54a4.8,4.8,0,0,0,.08,1.09c0,.06.12.12.3.19a1.19,1.19,0,0,0,.37.1s0,.06,0,.17a.46.46,0,0,1,0,.23l-.45,0-.52,0h-.9l-.51,0-.46,0a.33.33,0,0,1-.05-.22c0-.12,0-.18.05-.18a1.24,1.24,0,0,0,.41-.1c.18-.07.28-.13.3-.19a4.29,4.29,0,0,0,.09-.9v-5a4.21,4.21,0,0,0-.07-.83c0-.13-.24-.19-.61-.19h-.12c-.05,0-.07,0-.07-.15s0-.19.07-.19l.72-.1.56-.12.39-.12.26-.09.09,0h0a.16.16,0,0,1,.11.07l.06.12a4.12,4.12,0,0,0-.14,1.14Z" style="fill:#fff"/><path d="M152,42.92a2.25,2.25,0,0,1,1,.22,2,2,0,0,1,.71.57,2.81,2.81,0,0,1,.39.72,2.32,2.32,0,0,1,.13.71c0,.18,0,.29-.09.34a.77.77,0,0,1-.37.06H150.9a.07.07,0,0,0-.08.07,2.3,2.3,0,0,0,.16.86,1.59,1.59,0,0,0,.54.71,1.43,1.43,0,0,0,.91.31l.36,0a1.42,1.42,0,0,0,.31-.06l.26-.08a1.13,1.13,0,0,0,.22-.11l.17-.1L154,47a.14.14,0,0,1,.06.07.33.33,0,0,1,0,.13.38.38,0,0,1-.08.23,2,2,0,0,1-.71.65,2.27,2.27,0,0,1-1.21.33,2.47,2.47,0,0,1-1.82-.78,2.63,2.63,0,0,1-.76-1.9,2.8,2.8,0,0,1,.71-2A2.34,2.34,0,0,1,152,42.92Zm-.08.56a.84.84,0,0,0-.53.17,1.15,1.15,0,0,0-.35.41,1.85,1.85,0,0,0-.17.46,1.34,1.34,0,0,0-.06.35c0,.06,0,.09.07.09h2c.07,0,.11-.06.11-.18a1.59,1.59,0,0,0-.28-.87A.87.87,0,0,0,151.94,43.48Z" style="fill:#fff"/><path d="M157.43,42.94a3.63,3.63,0,0,1,1,.16,3.6,3.6,0,0,0,1,.16h.69s0,.05.08.16a.69.69,0,0,1,.06.24c0,.11,0,.17-.07.17h-.79s0,0,0,0l.11.31a1.8,1.8,0,0,1,.11.58,1.78,1.78,0,0,1-.6,1.3,2.1,2.1,0,0,1-1.5.58,5.32,5.32,0,0,1-.75,0,.61.61,0,0,0-.27.22.53.53,0,0,0-.12.3.28.28,0,0,0,.11.21,1.07,1.07,0,0,0,.36.12l.41.05.49,0h.18a4.34,4.34,0,0,1,1.78.33,1,1,0,0,1,.57.9,2,2,0,0,1-.88,1.58,3.34,3.34,0,0,1-2.05.67,3.19,3.19,0,0,1-1.55-.35,1.08,1.08,0,0,1-.66-1,.93.93,0,0,1,.34-.68,2,2,0,0,1,.75-.46,1.47,1.47,0,0,1-.58-.37.9.9,0,0,1-.27-.64q0-.53.9-1.08a1.69,1.69,0,0,1-.66-.63,1.79,1.79,0,0,1-.3-1,1.64,1.64,0,0,1,.63-1.36A2.43,2.43,0,0,1,157.43,42.94Zm1.68,6.36c0-.29-.2-.48-.61-.57a8,8,0,0,0-1.65-.14h-.06l-.06,0-.24.1a1.5,1.5,0,0,0-.2.14.63.63,0,0,0-.22.5.85.85,0,0,0,.47.73,1.9,1.9,0,0,0,1,.29,1.84,1.84,0,0,0,1.11-.31A1,1,0,0,0,159.11,49.3Zm-2.6-4.6a2,2,0,0,0,.24,1,.76.76,0,0,0,.68.4.74.74,0,0,0,.67-.34,1.64,1.64,0,0,0,.21-.86,2,2,0,0,0-.24-1,.79.79,0,0,0-.71-.41.69.69,0,0,0-.64.38A1.74,1.74,0,0,0,156.51,44.7Z" style="fill:#fff"/><path d="M163.69,42.92a2.25,2.25,0,0,1,1,.22,1.91,1.91,0,0,1,.7.57,2.81,2.81,0,0,1,.39.72,2.06,2.06,0,0,1,.13.71c0,.18,0,.29-.09.34a.74.74,0,0,1-.37.06h-2.9c-.06,0-.09,0-.09.07a2.52,2.52,0,0,0,.16.86,1.75,1.75,0,0,0,.54.71,1.46,1.46,0,0,0,.92.31l.35,0a1.65,1.65,0,0,0,.32-.06l.25-.08a1.2,1.2,0,0,0,.23-.11l.16-.1.24-.17a.14.14,0,0,1,.06.07.22.22,0,0,1,0,.13.37.37,0,0,1-.07.23A1.94,1.94,0,0,1,165,48a2.23,2.23,0,0,1-1.2.33,2.45,2.45,0,0,1-1.82-.78,2.64,2.64,0,0,1-.77-1.9,2.84,2.84,0,0,1,.71-2A2.37,2.37,0,0,1,163.69,42.92Zm-.09.56a.81.81,0,0,0-.52.17,1.06,1.06,0,0,0-.35.41,2.42,2.42,0,0,0-.18.46,1.27,1.27,0,0,0-.05.35c0,.06,0,.09.07.09h2c.07,0,.11-.06.11-.18a1.61,1.61,0,0,0-.29-.87A.86.86,0,0,0,163.6,43.48Z" style="fill:#fff"/><rect x="52.16" y="36.46" width="135.98" height="0.74" style="fill:#fff"/></g></g></svg>